%TF.GenerationSoftware,KiCad,Pcbnew,5.1.8*%
%TF.CreationDate,2020-12-05T20:57:14+00:00*%
%TF.ProjectId,oscillator_prototype,6f736369-6c6c-4617-946f-725f70726f74,rev?*%
%TF.SameCoordinates,Original*%
%TF.FileFunction,Copper,L1,Top*%
%TF.FilePolarity,Positive*%
%FSLAX46Y46*%
G04 Gerber Fmt 4.6, Leading zero omitted, Abs format (unit mm)*
G04 Created by KiCad (PCBNEW 5.1.8) date 2020-12-05 20:57:14*
%MOMM*%
%LPD*%
G01*
G04 APERTURE LIST*
%TA.AperFunction,ComponentPad*%
%ADD10R,1.700000X1.700000*%
%TD*%
%TA.AperFunction,ComponentPad*%
%ADD11O,1.700000X1.700000*%
%TD*%
%TA.AperFunction,ComponentPad*%
%ADD12C,2.130000*%
%TD*%
%TA.AperFunction,ComponentPad*%
%ADD13R,1.830000X1.930000*%
%TD*%
%TA.AperFunction,ComponentPad*%
%ADD14O,2.720000X3.240000*%
%TD*%
%TA.AperFunction,ComponentPad*%
%ADD15C,1.800000*%
%TD*%
%TA.AperFunction,ComponentPad*%
%ADD16R,1.800000X1.800000*%
%TD*%
%TA.AperFunction,SMDPad,CuDef*%
%ADD17R,0.800000X0.900000*%
%TD*%
%TA.AperFunction,SMDPad,CuDef*%
%ADD18R,0.900000X0.800000*%
%TD*%
%TA.AperFunction,ViaPad*%
%ADD19C,0.800000*%
%TD*%
%TA.AperFunction,Conductor*%
%ADD20C,0.600000*%
%TD*%
%TA.AperFunction,Conductor*%
%ADD21C,0.254000*%
%TD*%
%TA.AperFunction,Conductor*%
%ADD22C,0.100000*%
%TD*%
G04 APERTURE END LIST*
D10*
%TO.P,J11,1*%
%TO.N,-12V_f*%
X83000000Y-107000000D03*
D11*
%TO.P,J11,2*%
%TO.N,tri_f*%
X83000000Y-109540000D03*
%TO.P,J11,3*%
%TO.N,switch_b_f*%
X83000000Y-112080000D03*
%TO.P,J11,4*%
%TO.N,GND_f*%
X83000000Y-114620000D03*
%TO.P,J11,5*%
X83000000Y-117160000D03*
%TO.P,J11,6*%
%TO.N,saw_f*%
X83000000Y-119700000D03*
%TD*%
D12*
%TO.P,J1,T*%
%TO.N,saw_f*%
X79920000Y-127500000D03*
D13*
%TO.P,J1,S*%
%TO.N,GND_f*%
X68520000Y-127500000D03*
D12*
%TO.P,J1,TN*%
%TO.N,Net-(J1-PadTN)*%
X71620000Y-127500000D03*
%TD*%
%TO.P,J3,TN*%
%TO.N,GND_f*%
X51620000Y-90000000D03*
D13*
%TO.P,J3,S*%
X48520000Y-90000000D03*
D12*
%TO.P,J3,T*%
%TO.N,v_per_oct_f*%
X59920000Y-90000000D03*
%TD*%
%TO.P,J4,T*%
%TO.N,tri_f*%
X79920000Y-142500000D03*
D13*
%TO.P,J4,S*%
%TO.N,GND_f*%
X68520000Y-142500000D03*
D12*
%TO.P,J4,TN*%
%TO.N,Net-(J4-PadTN)*%
X71620000Y-142500000D03*
%TD*%
%TO.P,J6,TN*%
%TO.N,GND_f*%
X51620000Y-127500000D03*
D13*
%TO.P,J6,S*%
X48520000Y-127500000D03*
D12*
%TO.P,J6,T*%
%TO.N,sync_f*%
X59920000Y-127500000D03*
%TD*%
%TO.P,J8,T*%
%TO.N,Net-(J8-PadT)*%
X59920000Y-110000000D03*
D13*
%TO.P,J8,S*%
%TO.N,GND_f*%
X48520000Y-110000000D03*
D12*
%TO.P,J8,TN*%
X51620000Y-110000000D03*
%TD*%
D14*
%TO.P,RV1,*%
%TO.N,*%
X70200000Y-90000000D03*
X79800000Y-90000000D03*
D15*
%TO.P,RV1,3*%
%TO.N,2.5V_f*%
X77500000Y-97500000D03*
%TO.P,RV1,2*%
%TO.N,coarse_f*%
X75000000Y-97500000D03*
D16*
%TO.P,RV1,1*%
%TO.N,-2.5V_f*%
X72500000Y-97500000D03*
%TD*%
%TO.P,RV2,1*%
%TO.N,GND_f*%
X62500000Y-67500000D03*
D15*
%TO.P,RV2,2*%
%TO.N,fine_f*%
X65000000Y-67500000D03*
%TO.P,RV2,3*%
%TO.N,2.5V_f*%
X67500000Y-67500000D03*
D14*
%TO.P,RV2,*%
%TO.N,*%
X69800000Y-60000000D03*
X60200000Y-60000000D03*
%TD*%
D16*
%TO.P,RV7,1*%
%TO.N,GND_f*%
X72500000Y-117500000D03*
D15*
%TO.P,RV7,2*%
%TO.N,lin_fm_f*%
X75000000Y-117500000D03*
%TO.P,RV7,3*%
%TO.N,Net-(J8-PadT)*%
X77500000Y-117500000D03*
D14*
%TO.P,RV7,*%
%TO.N,*%
X79800000Y-110000000D03*
X70200000Y-110000000D03*
%TD*%
%TO.P,SW1,1*%
%TO.N,switch_b_f*%
%TA.AperFunction,ComponentPad*%
G36*
G01*
X53750000Y-140410000D02*
X53750000Y-139510000D01*
G75*
G02*
X54200000Y-139060000I450000J0D01*
G01*
X55800000Y-139060000D01*
G75*
G02*
X56250000Y-139510000I0J-450000D01*
G01*
X56250000Y-140410000D01*
G75*
G02*
X55800000Y-140860000I-450000J0D01*
G01*
X54200000Y-140860000D01*
G75*
G02*
X53750000Y-140410000I0J450000D01*
G01*
G37*
%TD.AperFunction*%
%TO.P,SW1,2*%
%TO.N,switch_a_f*%
%TA.AperFunction,ComponentPad*%
G36*
G01*
X53750000Y-142950000D02*
X53750000Y-142050000D01*
G75*
G02*
X54200000Y-141600000I450000J0D01*
G01*
X55800000Y-141600000D01*
G75*
G02*
X56250000Y-142050000I0J-450000D01*
G01*
X56250000Y-142950000D01*
G75*
G02*
X55800000Y-143400000I-450000J0D01*
G01*
X54200000Y-143400000D01*
G75*
G02*
X53750000Y-142950000I0J450000D01*
G01*
G37*
%TD.AperFunction*%
%TO.P,SW1,3*%
%TO.N,Net-(SW1-Pad3)*%
%TA.AperFunction,ComponentPad*%
G36*
G01*
X53750000Y-145490000D02*
X53750000Y-144590000D01*
G75*
G02*
X54200000Y-144140000I450000J0D01*
G01*
X55800000Y-144140000D01*
G75*
G02*
X56250000Y-144590000I0J-450000D01*
G01*
X56250000Y-145490000D01*
G75*
G02*
X55800000Y-145940000I-450000J0D01*
G01*
X54200000Y-145940000D01*
G75*
G02*
X53750000Y-145490000I0J450000D01*
G01*
G37*
%TD.AperFunction*%
%TD*%
D10*
%TO.P,J9,1*%
%TO.N,sync_f*%
X47750000Y-102000000D03*
D11*
%TO.P,J9,2*%
%TO.N,switch_a_f*%
X50290000Y-102000000D03*
%TO.P,J9,3*%
%TO.N,GND_f*%
X52830000Y-102000000D03*
%TO.P,J9,4*%
X55370000Y-102000000D03*
%TO.P,J9,5*%
X57910000Y-102000000D03*
%TO.P,J9,6*%
%TO.N,12V_f*%
X60450000Y-102000000D03*
%TD*%
%TO.P,J13,6*%
%TO.N,GND_f*%
X47000000Y-60700000D03*
%TO.P,J13,5*%
X47000000Y-58160000D03*
%TO.P,J13,4*%
%TO.N,lin_fm_f*%
X47000000Y-55620000D03*
%TO.P,J13,3*%
%TO.N,v_per_oct_f*%
X47000000Y-53080000D03*
%TO.P,J13,2*%
%TO.N,coarse_f*%
X47000000Y-50540000D03*
D10*
%TO.P,J13,1*%
%TO.N,fine_f*%
X47000000Y-48000000D03*
%TD*%
%TO.P,C8,1*%
%TO.N,GND_f*%
%TA.AperFunction,SMDPad,CuDef*%
G36*
G01*
X78625000Y-103725000D02*
X78625000Y-102775000D01*
G75*
G02*
X78875000Y-102525000I250000J0D01*
G01*
X79550000Y-102525000D01*
G75*
G02*
X79800000Y-102775000I0J-250000D01*
G01*
X79800000Y-103725000D01*
G75*
G02*
X79550000Y-103975000I-250000J0D01*
G01*
X78875000Y-103975000D01*
G75*
G02*
X78625000Y-103725000I0J250000D01*
G01*
G37*
%TD.AperFunction*%
%TO.P,C8,2*%
%TO.N,-12V_f*%
%TA.AperFunction,SMDPad,CuDef*%
G36*
G01*
X80700000Y-103725000D02*
X80700000Y-102775000D01*
G75*
G02*
X80950000Y-102525000I250000J0D01*
G01*
X81625000Y-102525000D01*
G75*
G02*
X81875000Y-102775000I0J-250000D01*
G01*
X81875000Y-103725000D01*
G75*
G02*
X81625000Y-103975000I-250000J0D01*
G01*
X80950000Y-103975000D01*
G75*
G02*
X80700000Y-103725000I0J250000D01*
G01*
G37*
%TD.AperFunction*%
%TD*%
%TO.P,C11,1*%
%TO.N,12V_f*%
%TA.AperFunction,SMDPad,CuDef*%
G36*
G01*
X73525000Y-72375000D02*
X74475000Y-72375000D01*
G75*
G02*
X74725000Y-72625000I0J-250000D01*
G01*
X74725000Y-73300000D01*
G75*
G02*
X74475000Y-73550000I-250000J0D01*
G01*
X73525000Y-73550000D01*
G75*
G02*
X73275000Y-73300000I0J250000D01*
G01*
X73275000Y-72625000D01*
G75*
G02*
X73525000Y-72375000I250000J0D01*
G01*
G37*
%TD.AperFunction*%
%TO.P,C11,2*%
%TO.N,GND_f*%
%TA.AperFunction,SMDPad,CuDef*%
G36*
G01*
X73525000Y-74450000D02*
X74475000Y-74450000D01*
G75*
G02*
X74725000Y-74700000I0J-250000D01*
G01*
X74725000Y-75375000D01*
G75*
G02*
X74475000Y-75625000I-250000J0D01*
G01*
X73525000Y-75625000D01*
G75*
G02*
X73275000Y-75375000I0J250000D01*
G01*
X73275000Y-74700000D01*
G75*
G02*
X73525000Y-74450000I250000J0D01*
G01*
G37*
%TD.AperFunction*%
%TD*%
%TO.P,R19,1*%
%TO.N,12V_f*%
%TA.AperFunction,SMDPad,CuDef*%
G36*
G01*
X70799999Y-72400000D02*
X71700001Y-72400000D01*
G75*
G02*
X71950000Y-72649999I0J-249999D01*
G01*
X71950000Y-73350001D01*
G75*
G02*
X71700001Y-73600000I-249999J0D01*
G01*
X70799999Y-73600000D01*
G75*
G02*
X70550000Y-73350001I0J249999D01*
G01*
X70550000Y-72649999D01*
G75*
G02*
X70799999Y-72400000I249999J0D01*
G01*
G37*
%TD.AperFunction*%
%TO.P,R19,2*%
%TO.N,2.5V_f*%
%TA.AperFunction,SMDPad,CuDef*%
G36*
G01*
X70799999Y-74400000D02*
X71700001Y-74400000D01*
G75*
G02*
X71950000Y-74649999I0J-249999D01*
G01*
X71950000Y-75350001D01*
G75*
G02*
X71700001Y-75600000I-249999J0D01*
G01*
X70799999Y-75600000D01*
G75*
G02*
X70550000Y-75350001I0J249999D01*
G01*
X70550000Y-74649999D01*
G75*
G02*
X70799999Y-74400000I249999J0D01*
G01*
G37*
%TD.AperFunction*%
%TD*%
%TO.P,R24,2*%
%TO.N,-12V_f*%
%TA.AperFunction,SMDPad,CuDef*%
G36*
G01*
X80650000Y-101200001D02*
X80650000Y-100299999D01*
G75*
G02*
X80899999Y-100050000I249999J0D01*
G01*
X81600001Y-100050000D01*
G75*
G02*
X81850000Y-100299999I0J-249999D01*
G01*
X81850000Y-101200001D01*
G75*
G02*
X81600001Y-101450000I-249999J0D01*
G01*
X80899999Y-101450000D01*
G75*
G02*
X80650000Y-101200001I0J249999D01*
G01*
G37*
%TD.AperFunction*%
%TO.P,R24,1*%
%TO.N,-2.5V_f*%
%TA.AperFunction,SMDPad,CuDef*%
G36*
G01*
X78650000Y-101200001D02*
X78650000Y-100299999D01*
G75*
G02*
X78899999Y-100050000I249999J0D01*
G01*
X79600001Y-100050000D01*
G75*
G02*
X79850000Y-100299999I0J-249999D01*
G01*
X79850000Y-101200001D01*
G75*
G02*
X79600001Y-101450000I-249999J0D01*
G01*
X78899999Y-101450000D01*
G75*
G02*
X78650000Y-101200001I0J249999D01*
G01*
G37*
%TD.AperFunction*%
%TD*%
D17*
%TO.P,U8,1*%
%TO.N,GND_f*%
X74800000Y-103000000D03*
%TO.P,U8,2*%
%TO.N,-2.5V_f*%
X76700000Y-103000000D03*
%TO.P,U8,3*%
%TO.N,N/C*%
X75750000Y-101000000D03*
%TD*%
D18*
%TO.P,U9,3*%
%TO.N,N/C*%
X73500000Y-79250000D03*
%TO.P,U9,2*%
%TO.N,GND_f*%
X71500000Y-80200000D03*
%TO.P,U9,1*%
%TO.N,2.5V_f*%
X71500000Y-78300000D03*
%TD*%
D19*
%TO.N,GND_f*%
X67500000Y-102500000D03*
X70000000Y-102500000D03*
X67500000Y-105000000D03*
X70000000Y-105000000D03*
X65000000Y-105000000D03*
X64750000Y-110000000D03*
X54500000Y-54500000D03*
X79750000Y-134750000D03*
%TO.N,12V_f*%
X69750000Y-77000000D03*
%TD*%
D20*
%TO.N,Net-(J8-PadT)*%
X70970441Y-107879990D02*
X62040010Y-107879990D01*
X77500000Y-114409549D02*
X70970441Y-107879990D01*
X62040010Y-107879990D02*
X59920000Y-110000000D01*
X77500000Y-117500000D02*
X77500000Y-114409549D01*
%TO.N,saw_f*%
X79920000Y-122780000D02*
X83000000Y-119700000D01*
X79920000Y-127500000D02*
X79920000Y-122780000D01*
%TO.N,GND_f*%
X72450001Y-76587499D02*
X74000000Y-75037500D01*
X72450001Y-79249999D02*
X72450001Y-76587499D01*
X71500000Y-80200000D02*
X72450001Y-79249999D01*
%TO.N,lin_fm_f*%
X61800001Y-94196203D02*
X57750000Y-90146202D01*
X58354999Y-110751201D02*
X58354999Y-106093003D01*
X59723808Y-112120010D02*
X58354999Y-110751201D01*
X61800001Y-102648001D02*
X61800001Y-94196203D01*
X70892802Y-112120010D02*
X59723808Y-112120010D01*
X58354999Y-106093003D02*
X61800001Y-102648001D01*
X75000000Y-116227208D02*
X70892802Y-112120010D01*
X75000000Y-117500000D02*
X75000000Y-116227208D01*
X48350001Y-56970001D02*
X47000000Y-55620000D01*
X48350001Y-57850001D02*
X48350001Y-56970001D01*
X57750000Y-67250000D02*
X48350001Y-57850001D01*
X57750000Y-90146202D02*
X57750000Y-67250000D01*
%TO.N,v_per_oct_f*%
X59920000Y-66000000D02*
X47000000Y-53080000D01*
X59920000Y-90000000D02*
X59920000Y-66000000D01*
%TO.N,coarse_f*%
X75000000Y-91909549D02*
X75000000Y-97500000D01*
X61099999Y-78009548D02*
X75000000Y-91909549D01*
X61099999Y-64639999D02*
X61099999Y-78009548D01*
X47000000Y-50540000D02*
X61099999Y-64639999D01*
%TO.N,fine_f*%
X65000000Y-61909549D02*
X65000000Y-67500000D01*
X51090451Y-48000000D02*
X65000000Y-61909549D01*
X47000000Y-48000000D02*
X51090451Y-48000000D01*
%TO.N,tri_f*%
X83000000Y-109690451D02*
X83000000Y-109540000D01*
X80849989Y-112232009D02*
X83000000Y-110081998D01*
X80849989Y-116222013D02*
X80849989Y-112232009D01*
X77554989Y-119517013D02*
X80849989Y-116222013D01*
X83000000Y-110081998D02*
X83000000Y-109540000D01*
X77554989Y-140134989D02*
X77554989Y-119517013D01*
X79920000Y-142500000D02*
X77554989Y-140134989D01*
%TO.N,sync_f*%
X59920000Y-127500000D02*
X46750000Y-114330000D01*
X46750000Y-103000000D02*
X47750000Y-102000000D01*
X46750000Y-114330000D02*
X46750000Y-103000000D01*
%TO.N,switch_a_f*%
X61485001Y-115012587D02*
X57500000Y-111027586D01*
X61485001Y-128251201D02*
X61485001Y-115012587D01*
X53249990Y-136486212D02*
X61485001Y-128251201D01*
X53249990Y-141999990D02*
X53249990Y-136486212D01*
X53750000Y-142500000D02*
X53249990Y-141999990D01*
X55000000Y-142500000D02*
X53750000Y-142500000D01*
X57500000Y-111027586D02*
X57500000Y-108000000D01*
X51640001Y-103350001D02*
X50290000Y-102000000D01*
X52850001Y-103350001D02*
X51640001Y-103350001D01*
X57500000Y-108000000D02*
X52850001Y-103350001D01*
%TO.N,switch_b_f*%
X81649999Y-113430001D02*
X82040000Y-113040000D01*
X81649999Y-117350001D02*
X81649999Y-113430001D01*
X78354999Y-120645001D02*
X81649999Y-117350001D01*
X78354999Y-128251201D02*
X78354999Y-120645001D01*
X81485001Y-131381203D02*
X78354999Y-128251201D01*
X81485001Y-143251201D02*
X81485001Y-131381203D01*
X80671201Y-144065001D02*
X81485001Y-143251201D01*
X67304999Y-144065001D02*
X80671201Y-144065001D01*
X63199998Y-139960000D02*
X67304999Y-144065001D01*
X55000000Y-139960000D02*
X63199998Y-139960000D01*
X82040000Y-113040000D02*
X83000000Y-112080000D01*
%TO.N,-12V_f*%
X81287500Y-100787500D02*
X81250000Y-100750000D01*
X81287500Y-103250000D02*
X81287500Y-100787500D01*
X83000000Y-104962500D02*
X81287500Y-103250000D01*
X83000000Y-107000000D02*
X83000000Y-104962500D01*
%TO.N,12V_f*%
X69750000Y-74500000D02*
X71250000Y-73000000D01*
X69750000Y-77000000D02*
X69750000Y-74500000D01*
X73962500Y-73000000D02*
X74000000Y-72962500D01*
X71250000Y-73000000D02*
X73962500Y-73000000D01*
%TO.N,2.5V_f*%
X71250000Y-78050000D02*
X71500000Y-78300000D01*
X71250000Y-75000000D02*
X71250000Y-78050000D01*
X67500000Y-76082002D02*
X67500000Y-67500000D01*
X69717998Y-78300000D02*
X67500000Y-76082002D01*
X71500000Y-78300000D02*
X69717998Y-78300000D01*
X77500000Y-87950002D02*
X77500000Y-97500000D01*
X69717998Y-80168000D02*
X77500000Y-87950002D01*
X69717998Y-78300000D02*
X69717998Y-80168000D01*
%TO.N,-2.5V_f*%
X77000000Y-103000000D02*
X79250000Y-100750000D01*
X76700000Y-103000000D02*
X77000000Y-103000000D01*
X73900001Y-98900001D02*
X72500000Y-97500000D01*
X75400003Y-98900001D02*
X73900001Y-98900001D01*
X76700000Y-100199998D02*
X75400003Y-98900001D01*
X76700000Y-103000000D02*
X76700000Y-100199998D01*
%TD*%
D21*
%TO.N,GND_f*%
X84873000Y-148123000D02*
X45127000Y-148123000D01*
X45127000Y-128465000D01*
X46966928Y-128465000D01*
X46979188Y-128589482D01*
X47015498Y-128709180D01*
X47074463Y-128819494D01*
X47153815Y-128916185D01*
X47250506Y-128995537D01*
X47360820Y-129054502D01*
X47480518Y-129090812D01*
X47605000Y-129103072D01*
X48234250Y-129100000D01*
X48393000Y-128941250D01*
X48393000Y-127627000D01*
X47128750Y-127627000D01*
X46970000Y-127785750D01*
X46966928Y-128465000D01*
X45127000Y-128465000D01*
X45127000Y-126535000D01*
X46966928Y-126535000D01*
X46970000Y-127214250D01*
X47128750Y-127373000D01*
X48393000Y-127373000D01*
X48393000Y-126058750D01*
X48647000Y-126058750D01*
X48647000Y-127373000D01*
X48667000Y-127373000D01*
X48667000Y-127627000D01*
X48647000Y-127627000D01*
X48647000Y-128941250D01*
X48805750Y-129100000D01*
X49435000Y-129103072D01*
X49559482Y-129090812D01*
X49679180Y-129054502D01*
X49789494Y-128995537D01*
X49886185Y-128916185D01*
X49965537Y-128819494D01*
X50024502Y-128709180D01*
X50032819Y-128681761D01*
X50617844Y-128681761D01*
X50721454Y-128952807D01*
X51022148Y-129100190D01*
X51345818Y-129186078D01*
X51680023Y-129207171D01*
X52011922Y-129162658D01*
X52328760Y-129054250D01*
X52518546Y-128952807D01*
X52622156Y-128681761D01*
X51620000Y-127679605D01*
X50617844Y-128681761D01*
X50032819Y-128681761D01*
X50060812Y-128589482D01*
X50073072Y-128465000D01*
X50071966Y-128220389D01*
X50167193Y-128398546D01*
X50438239Y-128502156D01*
X51440395Y-127500000D01*
X51799605Y-127500000D01*
X52801761Y-128502156D01*
X53072807Y-128398546D01*
X53220190Y-128097852D01*
X53306078Y-127774182D01*
X53327171Y-127439977D01*
X53282658Y-127108078D01*
X53174250Y-126791240D01*
X53072807Y-126601454D01*
X52801761Y-126497844D01*
X51799605Y-127500000D01*
X51440395Y-127500000D01*
X50438239Y-126497844D01*
X50167193Y-126601454D01*
X50071892Y-126795889D01*
X50073072Y-126535000D01*
X50060812Y-126410518D01*
X50032820Y-126318239D01*
X50617844Y-126318239D01*
X51620000Y-127320395D01*
X52622156Y-126318239D01*
X52518546Y-126047193D01*
X52217852Y-125899810D01*
X51894182Y-125813922D01*
X51559977Y-125792829D01*
X51228078Y-125837342D01*
X50911240Y-125945750D01*
X50721454Y-126047193D01*
X50617844Y-126318239D01*
X50032820Y-126318239D01*
X50024502Y-126290820D01*
X49965537Y-126180506D01*
X49886185Y-126083815D01*
X49789494Y-126004463D01*
X49679180Y-125945498D01*
X49559482Y-125909188D01*
X49435000Y-125896928D01*
X48805750Y-125900000D01*
X48647000Y-126058750D01*
X48393000Y-126058750D01*
X48234250Y-125900000D01*
X47605000Y-125896928D01*
X47480518Y-125909188D01*
X47360820Y-125945498D01*
X47250506Y-126004463D01*
X47153815Y-126083815D01*
X47074463Y-126180506D01*
X47015498Y-126290820D01*
X46979188Y-126410518D01*
X46966928Y-126535000D01*
X45127000Y-126535000D01*
X45127000Y-90965000D01*
X46966928Y-90965000D01*
X46979188Y-91089482D01*
X47015498Y-91209180D01*
X47074463Y-91319494D01*
X47153815Y-91416185D01*
X47250506Y-91495537D01*
X47360820Y-91554502D01*
X47480518Y-91590812D01*
X47605000Y-91603072D01*
X48234250Y-91600000D01*
X48393000Y-91441250D01*
X48393000Y-90127000D01*
X47128750Y-90127000D01*
X46970000Y-90285750D01*
X46966928Y-90965000D01*
X45127000Y-90965000D01*
X45127000Y-89035000D01*
X46966928Y-89035000D01*
X46970000Y-89714250D01*
X47128750Y-89873000D01*
X48393000Y-89873000D01*
X48393000Y-88558750D01*
X48647000Y-88558750D01*
X48647000Y-89873000D01*
X48667000Y-89873000D01*
X48667000Y-90127000D01*
X48647000Y-90127000D01*
X48647000Y-91441250D01*
X48805750Y-91600000D01*
X49435000Y-91603072D01*
X49559482Y-91590812D01*
X49679180Y-91554502D01*
X49789494Y-91495537D01*
X49886185Y-91416185D01*
X49965537Y-91319494D01*
X50024502Y-91209180D01*
X50032819Y-91181761D01*
X50617844Y-91181761D01*
X50721454Y-91452807D01*
X51022148Y-91600190D01*
X51345818Y-91686078D01*
X51680023Y-91707171D01*
X52011922Y-91662658D01*
X52328760Y-91554250D01*
X52518546Y-91452807D01*
X52622156Y-91181761D01*
X51620000Y-90179605D01*
X50617844Y-91181761D01*
X50032819Y-91181761D01*
X50060812Y-91089482D01*
X50073072Y-90965000D01*
X50071966Y-90720389D01*
X50167193Y-90898546D01*
X50438239Y-91002156D01*
X51440395Y-90000000D01*
X51799605Y-90000000D01*
X52801761Y-91002156D01*
X53072807Y-90898546D01*
X53220190Y-90597852D01*
X53306078Y-90274182D01*
X53327171Y-89939977D01*
X53282658Y-89608078D01*
X53174250Y-89291240D01*
X53072807Y-89101454D01*
X52801761Y-88997844D01*
X51799605Y-90000000D01*
X51440395Y-90000000D01*
X50438239Y-88997844D01*
X50167193Y-89101454D01*
X50071892Y-89295889D01*
X50073072Y-89035000D01*
X50060812Y-88910518D01*
X50032820Y-88818239D01*
X50617844Y-88818239D01*
X51620000Y-89820395D01*
X52622156Y-88818239D01*
X52518546Y-88547193D01*
X52217852Y-88399810D01*
X51894182Y-88313922D01*
X51559977Y-88292829D01*
X51228078Y-88337342D01*
X50911240Y-88445750D01*
X50721454Y-88547193D01*
X50617844Y-88818239D01*
X50032820Y-88818239D01*
X50024502Y-88790820D01*
X49965537Y-88680506D01*
X49886185Y-88583815D01*
X49789494Y-88504463D01*
X49679180Y-88445498D01*
X49559482Y-88409188D01*
X49435000Y-88396928D01*
X48805750Y-88400000D01*
X48647000Y-88558750D01*
X48393000Y-88558750D01*
X48234250Y-88400000D01*
X47605000Y-88396928D01*
X47480518Y-88409188D01*
X47360820Y-88445498D01*
X47250506Y-88504463D01*
X47153815Y-88583815D01*
X47074463Y-88680506D01*
X47015498Y-88790820D01*
X46979188Y-88910518D01*
X46966928Y-89035000D01*
X45127000Y-89035000D01*
X45127000Y-61056890D01*
X45558524Y-61056890D01*
X45603175Y-61204099D01*
X45728359Y-61466920D01*
X45902412Y-61700269D01*
X46118645Y-61895178D01*
X46368748Y-62044157D01*
X46643109Y-62141481D01*
X46873000Y-62020814D01*
X46873000Y-60827000D01*
X47127000Y-60827000D01*
X47127000Y-62020814D01*
X47356891Y-62141481D01*
X47631252Y-62044157D01*
X47881355Y-61895178D01*
X48097588Y-61700269D01*
X48271641Y-61466920D01*
X48396825Y-61204099D01*
X48441476Y-61056890D01*
X48320155Y-60827000D01*
X47127000Y-60827000D01*
X46873000Y-60827000D01*
X45679845Y-60827000D01*
X45558524Y-61056890D01*
X45127000Y-61056890D01*
X45127000Y-58516890D01*
X45558524Y-58516890D01*
X45603175Y-58664099D01*
X45728359Y-58926920D01*
X45902412Y-59160269D01*
X46118645Y-59355178D01*
X46244255Y-59430000D01*
X46118645Y-59504822D01*
X45902412Y-59699731D01*
X45728359Y-59933080D01*
X45603175Y-60195901D01*
X45558524Y-60343110D01*
X45679845Y-60573000D01*
X46873000Y-60573000D01*
X46873000Y-58287000D01*
X45679845Y-58287000D01*
X45558524Y-58516890D01*
X45127000Y-58516890D01*
X45127000Y-47150000D01*
X45511928Y-47150000D01*
X45511928Y-48850000D01*
X45524188Y-48974482D01*
X45560498Y-49094180D01*
X45619463Y-49204494D01*
X45698815Y-49301185D01*
X45795506Y-49380537D01*
X45905820Y-49439502D01*
X45978380Y-49461513D01*
X45846525Y-49593368D01*
X45684010Y-49836589D01*
X45572068Y-50106842D01*
X45515000Y-50393740D01*
X45515000Y-50686260D01*
X45572068Y-50973158D01*
X45684010Y-51243411D01*
X45846525Y-51486632D01*
X46053368Y-51693475D01*
X46227760Y-51810000D01*
X46053368Y-51926525D01*
X45846525Y-52133368D01*
X45684010Y-52376589D01*
X45572068Y-52646842D01*
X45515000Y-52933740D01*
X45515000Y-53226260D01*
X45572068Y-53513158D01*
X45684010Y-53783411D01*
X45846525Y-54026632D01*
X46053368Y-54233475D01*
X46227760Y-54350000D01*
X46053368Y-54466525D01*
X45846525Y-54673368D01*
X45684010Y-54916589D01*
X45572068Y-55186842D01*
X45515000Y-55473740D01*
X45515000Y-55766260D01*
X45572068Y-56053158D01*
X45684010Y-56323411D01*
X45846525Y-56566632D01*
X46053368Y-56773475D01*
X46235534Y-56895195D01*
X46118645Y-56964822D01*
X45902412Y-57159731D01*
X45728359Y-57393080D01*
X45603175Y-57655901D01*
X45558524Y-57803110D01*
X45679845Y-58033000D01*
X46873000Y-58033000D01*
X46873000Y-58013000D01*
X47127000Y-58013000D01*
X47127000Y-58033000D01*
X47147000Y-58033000D01*
X47147000Y-58287000D01*
X47127000Y-58287000D01*
X47127000Y-60573000D01*
X48320155Y-60573000D01*
X48441476Y-60343110D01*
X48396825Y-60195901D01*
X48271641Y-59933080D01*
X48097588Y-59699731D01*
X47881355Y-59504822D01*
X47755745Y-59430000D01*
X47881355Y-59355178D01*
X48097588Y-59160269D01*
X48200290Y-59022579D01*
X56815001Y-67637291D01*
X56815000Y-90100270D01*
X56810476Y-90146202D01*
X56815000Y-90192133D01*
X56828529Y-90329493D01*
X56881993Y-90505741D01*
X56968814Y-90668173D01*
X57085656Y-90810546D01*
X57121341Y-90839832D01*
X60865002Y-94583494D01*
X60865001Y-100568456D01*
X60596260Y-100515000D01*
X60303740Y-100515000D01*
X60016842Y-100572068D01*
X59746589Y-100684010D01*
X59503368Y-100846525D01*
X59296525Y-101053368D01*
X59174805Y-101235534D01*
X59105178Y-101118645D01*
X58910269Y-100902412D01*
X58676920Y-100728359D01*
X58414099Y-100603175D01*
X58266890Y-100558524D01*
X58037000Y-100679845D01*
X58037000Y-101873000D01*
X58057000Y-101873000D01*
X58057000Y-102127000D01*
X58037000Y-102127000D01*
X58037000Y-103320155D01*
X58266890Y-103441476D01*
X58414099Y-103396825D01*
X58676920Y-103271641D01*
X58910269Y-103097588D01*
X59105178Y-102881355D01*
X59174805Y-102764466D01*
X59296525Y-102946632D01*
X59503368Y-103153475D01*
X59746589Y-103315990D01*
X59791232Y-103334481D01*
X57726335Y-105399378D01*
X57690656Y-105428659D01*
X57573814Y-105571031D01*
X57547927Y-105619463D01*
X57486993Y-105733463D01*
X57433528Y-105909712D01*
X57415475Y-106093003D01*
X57420000Y-106138945D01*
X57420000Y-106597711D01*
X53872749Y-103050460D01*
X54025178Y-102881355D01*
X54100000Y-102755745D01*
X54174822Y-102881355D01*
X54369731Y-103097588D01*
X54603080Y-103271641D01*
X54865901Y-103396825D01*
X55013110Y-103441476D01*
X55243000Y-103320155D01*
X55243000Y-102127000D01*
X55497000Y-102127000D01*
X55497000Y-103320155D01*
X55726890Y-103441476D01*
X55874099Y-103396825D01*
X56136920Y-103271641D01*
X56370269Y-103097588D01*
X56565178Y-102881355D01*
X56640000Y-102755745D01*
X56714822Y-102881355D01*
X56909731Y-103097588D01*
X57143080Y-103271641D01*
X57405901Y-103396825D01*
X57553110Y-103441476D01*
X57783000Y-103320155D01*
X57783000Y-102127000D01*
X55497000Y-102127000D01*
X55243000Y-102127000D01*
X52957000Y-102127000D01*
X52957000Y-102147000D01*
X52703000Y-102147000D01*
X52703000Y-102127000D01*
X52683000Y-102127000D01*
X52683000Y-101873000D01*
X52703000Y-101873000D01*
X52703000Y-100679845D01*
X52957000Y-100679845D01*
X52957000Y-101873000D01*
X55243000Y-101873000D01*
X55243000Y-100679845D01*
X55497000Y-100679845D01*
X55497000Y-101873000D01*
X57783000Y-101873000D01*
X57783000Y-100679845D01*
X57553110Y-100558524D01*
X57405901Y-100603175D01*
X57143080Y-100728359D01*
X56909731Y-100902412D01*
X56714822Y-101118645D01*
X56640000Y-101244255D01*
X56565178Y-101118645D01*
X56370269Y-100902412D01*
X56136920Y-100728359D01*
X55874099Y-100603175D01*
X55726890Y-100558524D01*
X55497000Y-100679845D01*
X55243000Y-100679845D01*
X55013110Y-100558524D01*
X54865901Y-100603175D01*
X54603080Y-100728359D01*
X54369731Y-100902412D01*
X54174822Y-101118645D01*
X54100000Y-101244255D01*
X54025178Y-101118645D01*
X53830269Y-100902412D01*
X53596920Y-100728359D01*
X53334099Y-100603175D01*
X53186890Y-100558524D01*
X52957000Y-100679845D01*
X52703000Y-100679845D01*
X52473110Y-100558524D01*
X52325901Y-100603175D01*
X52063080Y-100728359D01*
X51829731Y-100902412D01*
X51634822Y-101118645D01*
X51565195Y-101235534D01*
X51443475Y-101053368D01*
X51236632Y-100846525D01*
X50993411Y-100684010D01*
X50723158Y-100572068D01*
X50436260Y-100515000D01*
X50143740Y-100515000D01*
X49856842Y-100572068D01*
X49586589Y-100684010D01*
X49343368Y-100846525D01*
X49211513Y-100978380D01*
X49189502Y-100905820D01*
X49130537Y-100795506D01*
X49051185Y-100698815D01*
X48954494Y-100619463D01*
X48844180Y-100560498D01*
X48724482Y-100524188D01*
X48600000Y-100511928D01*
X46900000Y-100511928D01*
X46775518Y-100524188D01*
X46655820Y-100560498D01*
X46545506Y-100619463D01*
X46448815Y-100698815D01*
X46369463Y-100795506D01*
X46310498Y-100905820D01*
X46274188Y-101025518D01*
X46261928Y-101150000D01*
X46261928Y-102165783D01*
X46121336Y-102306375D01*
X46085657Y-102335656D01*
X45968815Y-102478028D01*
X45926937Y-102556377D01*
X45881994Y-102640460D01*
X45828529Y-102816709D01*
X45810476Y-103000000D01*
X45815001Y-103045942D01*
X45815000Y-114284068D01*
X45810476Y-114330000D01*
X45815000Y-114375931D01*
X45828529Y-114513291D01*
X45881993Y-114689539D01*
X45968814Y-114851971D01*
X46085656Y-114994344D01*
X46121341Y-115023630D01*
X58254887Y-127157176D01*
X58220000Y-127332565D01*
X58220000Y-127667435D01*
X58285330Y-127995872D01*
X58413479Y-128305252D01*
X58599523Y-128583687D01*
X58836313Y-128820477D01*
X59114748Y-129006521D01*
X59321678Y-129092234D01*
X52621326Y-135792587D01*
X52585647Y-135821868D01*
X52468805Y-135964240D01*
X52381984Y-136126672D01*
X52328519Y-136302921D01*
X52310466Y-136486212D01*
X52314991Y-136532154D01*
X52314990Y-141954058D01*
X52310466Y-141999990D01*
X52314990Y-142045921D01*
X52328519Y-142183281D01*
X52381983Y-142359529D01*
X52468804Y-142521961D01*
X52585646Y-142664334D01*
X52621332Y-142693621D01*
X53056366Y-143128654D01*
X53085656Y-143164344D01*
X53149310Y-143216584D01*
X53194753Y-143366387D01*
X53295301Y-143554500D01*
X53430617Y-143719383D01*
X53492294Y-143770000D01*
X53430617Y-143820617D01*
X53295301Y-143985500D01*
X53194753Y-144173613D01*
X53132835Y-144377728D01*
X53111928Y-144590000D01*
X53111928Y-145490000D01*
X53132835Y-145702272D01*
X53194753Y-145906387D01*
X53295301Y-146094500D01*
X53430617Y-146259383D01*
X53595500Y-146394699D01*
X53783613Y-146495247D01*
X53987728Y-146557165D01*
X54200000Y-146578072D01*
X55800000Y-146578072D01*
X56012272Y-146557165D01*
X56216387Y-146495247D01*
X56404500Y-146394699D01*
X56569383Y-146259383D01*
X56704699Y-146094500D01*
X56805247Y-145906387D01*
X56867165Y-145702272D01*
X56888072Y-145490000D01*
X56888072Y-144590000D01*
X56867165Y-144377728D01*
X56805247Y-144173613D01*
X56704699Y-143985500D01*
X56569383Y-143820617D01*
X56507706Y-143770000D01*
X56569383Y-143719383D01*
X56704699Y-143554500D01*
X56805247Y-143366387D01*
X56867165Y-143162272D01*
X56888072Y-142950000D01*
X56888072Y-142050000D01*
X56867165Y-141837728D01*
X56805247Y-141633613D01*
X56704699Y-141445500D01*
X56569383Y-141280617D01*
X56507706Y-141230000D01*
X56569383Y-141179383D01*
X56704699Y-141014500D01*
X56768573Y-140895000D01*
X62812709Y-140895000D01*
X66611373Y-144693665D01*
X66640655Y-144729345D01*
X66783027Y-144846187D01*
X66945459Y-144933008D01*
X67068242Y-144970254D01*
X67121706Y-144986472D01*
X67304998Y-145004525D01*
X67350930Y-145000001D01*
X80625269Y-145000001D01*
X80671201Y-145004525D01*
X80717133Y-145000001D01*
X80854493Y-144986472D01*
X81030741Y-144933008D01*
X81193173Y-144846187D01*
X81335545Y-144729345D01*
X81364831Y-144693660D01*
X82113666Y-143944826D01*
X82149345Y-143915545D01*
X82266187Y-143773173D01*
X82353008Y-143610741D01*
X82406472Y-143434493D01*
X82420001Y-143297133D01*
X82420001Y-143297132D01*
X82424525Y-143251201D01*
X82420001Y-143205269D01*
X82420001Y-131427134D01*
X82424525Y-131381202D01*
X82406472Y-131197910D01*
X82390254Y-131144446D01*
X82353008Y-131021663D01*
X82266187Y-130859231D01*
X82149345Y-130716859D01*
X82113665Y-130687577D01*
X80518322Y-129092234D01*
X80725252Y-129006521D01*
X81003687Y-128820477D01*
X81240477Y-128583687D01*
X81426521Y-128305252D01*
X81554670Y-127995872D01*
X81620000Y-127667435D01*
X81620000Y-127332565D01*
X81554670Y-127004128D01*
X81426521Y-126694748D01*
X81240477Y-126416313D01*
X81003687Y-126179523D01*
X80855000Y-126080174D01*
X80855000Y-123167289D01*
X82840018Y-121182271D01*
X82853740Y-121185000D01*
X83146260Y-121185000D01*
X83433158Y-121127932D01*
X83703411Y-121015990D01*
X83946632Y-120853475D01*
X84153475Y-120646632D01*
X84315990Y-120403411D01*
X84427932Y-120133158D01*
X84485000Y-119846260D01*
X84485000Y-119553740D01*
X84427932Y-119266842D01*
X84315990Y-118996589D01*
X84153475Y-118753368D01*
X83946632Y-118546525D01*
X83764466Y-118424805D01*
X83881355Y-118355178D01*
X84097588Y-118160269D01*
X84271641Y-117926920D01*
X84396825Y-117664099D01*
X84441476Y-117516890D01*
X84320155Y-117287000D01*
X83127000Y-117287000D01*
X83127000Y-117307000D01*
X82873000Y-117307000D01*
X82873000Y-117287000D01*
X82853000Y-117287000D01*
X82853000Y-117033000D01*
X82873000Y-117033000D01*
X82873000Y-114747000D01*
X83127000Y-114747000D01*
X83127000Y-117033000D01*
X84320155Y-117033000D01*
X84441476Y-116803110D01*
X84396825Y-116655901D01*
X84271641Y-116393080D01*
X84097588Y-116159731D01*
X83881355Y-115964822D01*
X83755745Y-115890000D01*
X83881355Y-115815178D01*
X84097588Y-115620269D01*
X84271641Y-115386920D01*
X84396825Y-115124099D01*
X84441476Y-114976890D01*
X84320155Y-114747000D01*
X83127000Y-114747000D01*
X82873000Y-114747000D01*
X82853000Y-114747000D01*
X82853000Y-114493000D01*
X82873000Y-114493000D01*
X82873000Y-114473000D01*
X83127000Y-114473000D01*
X83127000Y-114493000D01*
X84320155Y-114493000D01*
X84441476Y-114263110D01*
X84396825Y-114115901D01*
X84271641Y-113853080D01*
X84097588Y-113619731D01*
X83881355Y-113424822D01*
X83764466Y-113355195D01*
X83946632Y-113233475D01*
X84153475Y-113026632D01*
X84315990Y-112783411D01*
X84427932Y-112513158D01*
X84485000Y-112226260D01*
X84485000Y-111933740D01*
X84427932Y-111646842D01*
X84315990Y-111376589D01*
X84153475Y-111133368D01*
X83946632Y-110926525D01*
X83772240Y-110810000D01*
X83946632Y-110693475D01*
X84153475Y-110486632D01*
X84315990Y-110243411D01*
X84427932Y-109973158D01*
X84485000Y-109686260D01*
X84485000Y-109393740D01*
X84427932Y-109106842D01*
X84315990Y-108836589D01*
X84153475Y-108593368D01*
X84021620Y-108461513D01*
X84094180Y-108439502D01*
X84204494Y-108380537D01*
X84301185Y-108301185D01*
X84380537Y-108204494D01*
X84439502Y-108094180D01*
X84475812Y-107974482D01*
X84488072Y-107850000D01*
X84488072Y-106150000D01*
X84475812Y-106025518D01*
X84439502Y-105905820D01*
X84380537Y-105795506D01*
X84301185Y-105698815D01*
X84204494Y-105619463D01*
X84094180Y-105560498D01*
X83974482Y-105524188D01*
X83935000Y-105520299D01*
X83935000Y-105008435D01*
X83939524Y-104962500D01*
X83921472Y-104779208D01*
X83868007Y-104602959D01*
X83837279Y-104545472D01*
X83781186Y-104440528D01*
X83664344Y-104298156D01*
X83628659Y-104268870D01*
X82513072Y-103153283D01*
X82513072Y-102775000D01*
X82496008Y-102601746D01*
X82445472Y-102435150D01*
X82363405Y-102281614D01*
X82252962Y-102147038D01*
X82222500Y-102122039D01*
X82222500Y-101832445D01*
X82227962Y-101827962D01*
X82338405Y-101693387D01*
X82420472Y-101539851D01*
X82471008Y-101373255D01*
X82488072Y-101200001D01*
X82488072Y-100299999D01*
X82471008Y-100126745D01*
X82420472Y-99960149D01*
X82338405Y-99806613D01*
X82227962Y-99672038D01*
X82093387Y-99561595D01*
X81939851Y-99479528D01*
X81773255Y-99428992D01*
X81600001Y-99411928D01*
X80899999Y-99411928D01*
X80726745Y-99428992D01*
X80560149Y-99479528D01*
X80406613Y-99561595D01*
X80272038Y-99672038D01*
X80250000Y-99698891D01*
X80227962Y-99672038D01*
X80093387Y-99561595D01*
X79939851Y-99479528D01*
X79773255Y-99428992D01*
X79600001Y-99411928D01*
X78899999Y-99411928D01*
X78726745Y-99428992D01*
X78560149Y-99479528D01*
X78406613Y-99561595D01*
X78272038Y-99672038D01*
X78161595Y-99806613D01*
X78079528Y-99960149D01*
X78028992Y-100126745D01*
X78011928Y-100299999D01*
X78011928Y-100665782D01*
X77635000Y-101042710D01*
X77635000Y-100245929D01*
X77639524Y-100199997D01*
X77621471Y-100016705D01*
X77589687Y-99911928D01*
X77568007Y-99840458D01*
X77481186Y-99678026D01*
X77364344Y-99535654D01*
X77328664Y-99506372D01*
X76235765Y-98413474D01*
X76250000Y-98392169D01*
X76307688Y-98478505D01*
X76521495Y-98692312D01*
X76772905Y-98860299D01*
X77052257Y-98976011D01*
X77348816Y-99035000D01*
X77651184Y-99035000D01*
X77947743Y-98976011D01*
X78227095Y-98860299D01*
X78478505Y-98692312D01*
X78692312Y-98478505D01*
X78860299Y-98227095D01*
X78976011Y-97947743D01*
X79035000Y-97651184D01*
X79035000Y-97348816D01*
X78976011Y-97052257D01*
X78860299Y-96772905D01*
X78692312Y-96521495D01*
X78478505Y-96307688D01*
X78435000Y-96278619D01*
X78435000Y-91720591D01*
X78686275Y-91926807D01*
X79032853Y-92112057D01*
X79408912Y-92226133D01*
X79800000Y-92264652D01*
X80191087Y-92226133D01*
X80567146Y-92112057D01*
X80913725Y-91926807D01*
X81217503Y-91677503D01*
X81466807Y-91373725D01*
X81652057Y-91027147D01*
X81766133Y-90651088D01*
X81795000Y-90357998D01*
X81795000Y-89642003D01*
X81766133Y-89348913D01*
X81652057Y-88972853D01*
X81466807Y-88626275D01*
X81217503Y-88322497D01*
X80913725Y-88073193D01*
X80567147Y-87887943D01*
X80191088Y-87773867D01*
X79800000Y-87735348D01*
X79408913Y-87773867D01*
X79032854Y-87887943D01*
X78686276Y-88073193D01*
X78435000Y-88279410D01*
X78435000Y-87995937D01*
X78439524Y-87950002D01*
X78421472Y-87766710D01*
X78368007Y-87590463D01*
X78368007Y-87590462D01*
X78281186Y-87428030D01*
X78164344Y-87285658D01*
X78128660Y-87256373D01*
X72092602Y-81220315D01*
X72194180Y-81189502D01*
X72304494Y-81130537D01*
X72401185Y-81051185D01*
X72480537Y-80954494D01*
X72539502Y-80844180D01*
X72575812Y-80724482D01*
X72588072Y-80600000D01*
X72585000Y-80485750D01*
X72426250Y-80327000D01*
X71627000Y-80327000D01*
X71627000Y-80347000D01*
X71373000Y-80347000D01*
X71373000Y-80327000D01*
X71353000Y-80327000D01*
X71353000Y-80073000D01*
X71373000Y-80073000D01*
X71373000Y-80053000D01*
X71627000Y-80053000D01*
X71627000Y-80073000D01*
X72426250Y-80073000D01*
X72510857Y-79988393D01*
X72519463Y-80004494D01*
X72598815Y-80101185D01*
X72695506Y-80180537D01*
X72805820Y-80239502D01*
X72925518Y-80275812D01*
X73050000Y-80288072D01*
X73950000Y-80288072D01*
X74074482Y-80275812D01*
X74194180Y-80239502D01*
X74304494Y-80180537D01*
X74401185Y-80101185D01*
X74480537Y-80004494D01*
X74539502Y-79894180D01*
X74575812Y-79774482D01*
X74588072Y-79650000D01*
X74588072Y-78850000D01*
X74575812Y-78725518D01*
X74539502Y-78605820D01*
X74480537Y-78495506D01*
X74401185Y-78398815D01*
X74304494Y-78319463D01*
X74194180Y-78260498D01*
X74074482Y-78224188D01*
X73950000Y-78211928D01*
X73050000Y-78211928D01*
X72925518Y-78224188D01*
X72805820Y-78260498D01*
X72695506Y-78319463D01*
X72598815Y-78398815D01*
X72588072Y-78411905D01*
X72588072Y-77900000D01*
X72575812Y-77775518D01*
X72539502Y-77655820D01*
X72480537Y-77545506D01*
X72401185Y-77448815D01*
X72304494Y-77369463D01*
X72194180Y-77310498D01*
X72185000Y-77307713D01*
X72185000Y-76092888D01*
X72193387Y-76088405D01*
X72327962Y-75977962D01*
X72438405Y-75843387D01*
X72520472Y-75689851D01*
X72540144Y-75625000D01*
X72636928Y-75625000D01*
X72649188Y-75749482D01*
X72685498Y-75869180D01*
X72744463Y-75979494D01*
X72823815Y-76076185D01*
X72920506Y-76155537D01*
X73030820Y-76214502D01*
X73150518Y-76250812D01*
X73275000Y-76263072D01*
X73714250Y-76260000D01*
X73873000Y-76101250D01*
X73873000Y-75164500D01*
X74127000Y-75164500D01*
X74127000Y-76101250D01*
X74285750Y-76260000D01*
X74725000Y-76263072D01*
X74849482Y-76250812D01*
X74969180Y-76214502D01*
X75079494Y-76155537D01*
X75176185Y-76076185D01*
X75255537Y-75979494D01*
X75314502Y-75869180D01*
X75350812Y-75749482D01*
X75363072Y-75625000D01*
X75360000Y-75323250D01*
X75201250Y-75164500D01*
X74127000Y-75164500D01*
X73873000Y-75164500D01*
X72798750Y-75164500D01*
X72640000Y-75323250D01*
X72636928Y-75625000D01*
X72540144Y-75625000D01*
X72571008Y-75523255D01*
X72588072Y-75350001D01*
X72588072Y-74649999D01*
X72571008Y-74476745D01*
X72520472Y-74310149D01*
X72438405Y-74156613D01*
X72327962Y-74022038D01*
X72301109Y-74000000D01*
X72327962Y-73977962D01*
X72363220Y-73935000D01*
X72901574Y-73935000D01*
X72823815Y-73998815D01*
X72744463Y-74095506D01*
X72685498Y-74205820D01*
X72649188Y-74325518D01*
X72636928Y-74450000D01*
X72640000Y-74751750D01*
X72798750Y-74910500D01*
X73873000Y-74910500D01*
X73873000Y-74890500D01*
X74127000Y-74890500D01*
X74127000Y-74910500D01*
X75201250Y-74910500D01*
X75360000Y-74751750D01*
X75363072Y-74450000D01*
X75350812Y-74325518D01*
X75314502Y-74205820D01*
X75255537Y-74095506D01*
X75176185Y-73998815D01*
X75096406Y-73933342D01*
X75102962Y-73927962D01*
X75213405Y-73793386D01*
X75295472Y-73639850D01*
X75346008Y-73473254D01*
X75363072Y-73300000D01*
X75363072Y-72625000D01*
X75346008Y-72451746D01*
X75295472Y-72285150D01*
X75213405Y-72131614D01*
X75102962Y-71997038D01*
X74968386Y-71886595D01*
X74814850Y-71804528D01*
X74648254Y-71753992D01*
X74475000Y-71736928D01*
X73525000Y-71736928D01*
X73351746Y-71753992D01*
X73185150Y-71804528D01*
X73031614Y-71886595D01*
X72897038Y-71997038D01*
X72841263Y-72065000D01*
X72363220Y-72065000D01*
X72327962Y-72022038D01*
X72193387Y-71911595D01*
X72039851Y-71829528D01*
X71873255Y-71778992D01*
X71700001Y-71761928D01*
X70799999Y-71761928D01*
X70626745Y-71778992D01*
X70460149Y-71829528D01*
X70306613Y-71911595D01*
X70172038Y-72022038D01*
X70061595Y-72156613D01*
X69979528Y-72310149D01*
X69928992Y-72476745D01*
X69911928Y-72649999D01*
X69911928Y-73015782D01*
X69121336Y-73806375D01*
X69085657Y-73835656D01*
X68968815Y-73978028D01*
X68936543Y-74038405D01*
X68881994Y-74140460D01*
X68828529Y-74316709D01*
X68810476Y-74500000D01*
X68815001Y-74545942D01*
X68815000Y-76074713D01*
X68435000Y-75694713D01*
X68435000Y-68721381D01*
X68478505Y-68692312D01*
X68692312Y-68478505D01*
X68860299Y-68227095D01*
X68976011Y-67947743D01*
X69035000Y-67651184D01*
X69035000Y-67348816D01*
X68976011Y-67052257D01*
X68860299Y-66772905D01*
X68692312Y-66521495D01*
X68478505Y-66307688D01*
X68227095Y-66139701D01*
X67947743Y-66023989D01*
X67651184Y-65965000D01*
X67348816Y-65965000D01*
X67052257Y-66023989D01*
X66772905Y-66139701D01*
X66521495Y-66307688D01*
X66307688Y-66521495D01*
X66250000Y-66607831D01*
X66192312Y-66521495D01*
X65978505Y-66307688D01*
X65935000Y-66278619D01*
X65935000Y-61955481D01*
X65939524Y-61909549D01*
X65921471Y-61726257D01*
X65868007Y-61550010D01*
X65868007Y-61550009D01*
X65781186Y-61387577D01*
X65664344Y-61245205D01*
X65628660Y-61215920D01*
X64054742Y-59642002D01*
X67805000Y-59642002D01*
X67805000Y-60357997D01*
X67833867Y-60651087D01*
X67947943Y-61027146D01*
X68133193Y-61373725D01*
X68382497Y-61677503D01*
X68686275Y-61926807D01*
X69032853Y-62112057D01*
X69408912Y-62226133D01*
X69800000Y-62264652D01*
X70191087Y-62226133D01*
X70567146Y-62112057D01*
X70913725Y-61926807D01*
X71217503Y-61677503D01*
X71466807Y-61373725D01*
X71652057Y-61027147D01*
X71766133Y-60651088D01*
X71795000Y-60357998D01*
X71795000Y-59642003D01*
X71766133Y-59348913D01*
X71652057Y-58972853D01*
X71466807Y-58626275D01*
X71217503Y-58322497D01*
X70913725Y-58073193D01*
X70567147Y-57887943D01*
X70191088Y-57773867D01*
X69800000Y-57735348D01*
X69408913Y-57773867D01*
X69032854Y-57887943D01*
X68686276Y-58073193D01*
X68382498Y-58322497D01*
X68133193Y-58626275D01*
X67947943Y-58972853D01*
X67833867Y-59348912D01*
X67805000Y-59642002D01*
X64054742Y-59642002D01*
X51784081Y-47371341D01*
X51754795Y-47335656D01*
X51612423Y-47218814D01*
X51449991Y-47131993D01*
X51273743Y-47078529D01*
X51136383Y-47065000D01*
X51090451Y-47060476D01*
X51044519Y-47065000D01*
X48479701Y-47065000D01*
X48475812Y-47025518D01*
X48439502Y-46905820D01*
X48380537Y-46795506D01*
X48301185Y-46698815D01*
X48204494Y-46619463D01*
X48094180Y-46560498D01*
X47974482Y-46524188D01*
X47850000Y-46511928D01*
X46150000Y-46511928D01*
X46025518Y-46524188D01*
X45905820Y-46560498D01*
X45795506Y-46619463D01*
X45698815Y-46698815D01*
X45619463Y-46795506D01*
X45560498Y-46905820D01*
X45524188Y-47025518D01*
X45511928Y-47150000D01*
X45127000Y-47150000D01*
X45127000Y-44377000D01*
X84873000Y-44377000D01*
X84873000Y-148123000D01*
%TA.AperFunction,Conductor*%
D22*
G36*
X84873000Y-148123000D02*
G01*
X45127000Y-148123000D01*
X45127000Y-128465000D01*
X46966928Y-128465000D01*
X46979188Y-128589482D01*
X47015498Y-128709180D01*
X47074463Y-128819494D01*
X47153815Y-128916185D01*
X47250506Y-128995537D01*
X47360820Y-129054502D01*
X47480518Y-129090812D01*
X47605000Y-129103072D01*
X48234250Y-129100000D01*
X48393000Y-128941250D01*
X48393000Y-127627000D01*
X47128750Y-127627000D01*
X46970000Y-127785750D01*
X46966928Y-128465000D01*
X45127000Y-128465000D01*
X45127000Y-126535000D01*
X46966928Y-126535000D01*
X46970000Y-127214250D01*
X47128750Y-127373000D01*
X48393000Y-127373000D01*
X48393000Y-126058750D01*
X48647000Y-126058750D01*
X48647000Y-127373000D01*
X48667000Y-127373000D01*
X48667000Y-127627000D01*
X48647000Y-127627000D01*
X48647000Y-128941250D01*
X48805750Y-129100000D01*
X49435000Y-129103072D01*
X49559482Y-129090812D01*
X49679180Y-129054502D01*
X49789494Y-128995537D01*
X49886185Y-128916185D01*
X49965537Y-128819494D01*
X50024502Y-128709180D01*
X50032819Y-128681761D01*
X50617844Y-128681761D01*
X50721454Y-128952807D01*
X51022148Y-129100190D01*
X51345818Y-129186078D01*
X51680023Y-129207171D01*
X52011922Y-129162658D01*
X52328760Y-129054250D01*
X52518546Y-128952807D01*
X52622156Y-128681761D01*
X51620000Y-127679605D01*
X50617844Y-128681761D01*
X50032819Y-128681761D01*
X50060812Y-128589482D01*
X50073072Y-128465000D01*
X50071966Y-128220389D01*
X50167193Y-128398546D01*
X50438239Y-128502156D01*
X51440395Y-127500000D01*
X51799605Y-127500000D01*
X52801761Y-128502156D01*
X53072807Y-128398546D01*
X53220190Y-128097852D01*
X53306078Y-127774182D01*
X53327171Y-127439977D01*
X53282658Y-127108078D01*
X53174250Y-126791240D01*
X53072807Y-126601454D01*
X52801761Y-126497844D01*
X51799605Y-127500000D01*
X51440395Y-127500000D01*
X50438239Y-126497844D01*
X50167193Y-126601454D01*
X50071892Y-126795889D01*
X50073072Y-126535000D01*
X50060812Y-126410518D01*
X50032820Y-126318239D01*
X50617844Y-126318239D01*
X51620000Y-127320395D01*
X52622156Y-126318239D01*
X52518546Y-126047193D01*
X52217852Y-125899810D01*
X51894182Y-125813922D01*
X51559977Y-125792829D01*
X51228078Y-125837342D01*
X50911240Y-125945750D01*
X50721454Y-126047193D01*
X50617844Y-126318239D01*
X50032820Y-126318239D01*
X50024502Y-126290820D01*
X49965537Y-126180506D01*
X49886185Y-126083815D01*
X49789494Y-126004463D01*
X49679180Y-125945498D01*
X49559482Y-125909188D01*
X49435000Y-125896928D01*
X48805750Y-125900000D01*
X48647000Y-126058750D01*
X48393000Y-126058750D01*
X48234250Y-125900000D01*
X47605000Y-125896928D01*
X47480518Y-125909188D01*
X47360820Y-125945498D01*
X47250506Y-126004463D01*
X47153815Y-126083815D01*
X47074463Y-126180506D01*
X47015498Y-126290820D01*
X46979188Y-126410518D01*
X46966928Y-126535000D01*
X45127000Y-126535000D01*
X45127000Y-90965000D01*
X46966928Y-90965000D01*
X46979188Y-91089482D01*
X47015498Y-91209180D01*
X47074463Y-91319494D01*
X47153815Y-91416185D01*
X47250506Y-91495537D01*
X47360820Y-91554502D01*
X47480518Y-91590812D01*
X47605000Y-91603072D01*
X48234250Y-91600000D01*
X48393000Y-91441250D01*
X48393000Y-90127000D01*
X47128750Y-90127000D01*
X46970000Y-90285750D01*
X46966928Y-90965000D01*
X45127000Y-90965000D01*
X45127000Y-89035000D01*
X46966928Y-89035000D01*
X46970000Y-89714250D01*
X47128750Y-89873000D01*
X48393000Y-89873000D01*
X48393000Y-88558750D01*
X48647000Y-88558750D01*
X48647000Y-89873000D01*
X48667000Y-89873000D01*
X48667000Y-90127000D01*
X48647000Y-90127000D01*
X48647000Y-91441250D01*
X48805750Y-91600000D01*
X49435000Y-91603072D01*
X49559482Y-91590812D01*
X49679180Y-91554502D01*
X49789494Y-91495537D01*
X49886185Y-91416185D01*
X49965537Y-91319494D01*
X50024502Y-91209180D01*
X50032819Y-91181761D01*
X50617844Y-91181761D01*
X50721454Y-91452807D01*
X51022148Y-91600190D01*
X51345818Y-91686078D01*
X51680023Y-91707171D01*
X52011922Y-91662658D01*
X52328760Y-91554250D01*
X52518546Y-91452807D01*
X52622156Y-91181761D01*
X51620000Y-90179605D01*
X50617844Y-91181761D01*
X50032819Y-91181761D01*
X50060812Y-91089482D01*
X50073072Y-90965000D01*
X50071966Y-90720389D01*
X50167193Y-90898546D01*
X50438239Y-91002156D01*
X51440395Y-90000000D01*
X51799605Y-90000000D01*
X52801761Y-91002156D01*
X53072807Y-90898546D01*
X53220190Y-90597852D01*
X53306078Y-90274182D01*
X53327171Y-89939977D01*
X53282658Y-89608078D01*
X53174250Y-89291240D01*
X53072807Y-89101454D01*
X52801761Y-88997844D01*
X51799605Y-90000000D01*
X51440395Y-90000000D01*
X50438239Y-88997844D01*
X50167193Y-89101454D01*
X50071892Y-89295889D01*
X50073072Y-89035000D01*
X50060812Y-88910518D01*
X50032820Y-88818239D01*
X50617844Y-88818239D01*
X51620000Y-89820395D01*
X52622156Y-88818239D01*
X52518546Y-88547193D01*
X52217852Y-88399810D01*
X51894182Y-88313922D01*
X51559977Y-88292829D01*
X51228078Y-88337342D01*
X50911240Y-88445750D01*
X50721454Y-88547193D01*
X50617844Y-88818239D01*
X50032820Y-88818239D01*
X50024502Y-88790820D01*
X49965537Y-88680506D01*
X49886185Y-88583815D01*
X49789494Y-88504463D01*
X49679180Y-88445498D01*
X49559482Y-88409188D01*
X49435000Y-88396928D01*
X48805750Y-88400000D01*
X48647000Y-88558750D01*
X48393000Y-88558750D01*
X48234250Y-88400000D01*
X47605000Y-88396928D01*
X47480518Y-88409188D01*
X47360820Y-88445498D01*
X47250506Y-88504463D01*
X47153815Y-88583815D01*
X47074463Y-88680506D01*
X47015498Y-88790820D01*
X46979188Y-88910518D01*
X46966928Y-89035000D01*
X45127000Y-89035000D01*
X45127000Y-61056890D01*
X45558524Y-61056890D01*
X45603175Y-61204099D01*
X45728359Y-61466920D01*
X45902412Y-61700269D01*
X46118645Y-61895178D01*
X46368748Y-62044157D01*
X46643109Y-62141481D01*
X46873000Y-62020814D01*
X46873000Y-60827000D01*
X47127000Y-60827000D01*
X47127000Y-62020814D01*
X47356891Y-62141481D01*
X47631252Y-62044157D01*
X47881355Y-61895178D01*
X48097588Y-61700269D01*
X48271641Y-61466920D01*
X48396825Y-61204099D01*
X48441476Y-61056890D01*
X48320155Y-60827000D01*
X47127000Y-60827000D01*
X46873000Y-60827000D01*
X45679845Y-60827000D01*
X45558524Y-61056890D01*
X45127000Y-61056890D01*
X45127000Y-58516890D01*
X45558524Y-58516890D01*
X45603175Y-58664099D01*
X45728359Y-58926920D01*
X45902412Y-59160269D01*
X46118645Y-59355178D01*
X46244255Y-59430000D01*
X46118645Y-59504822D01*
X45902412Y-59699731D01*
X45728359Y-59933080D01*
X45603175Y-60195901D01*
X45558524Y-60343110D01*
X45679845Y-60573000D01*
X46873000Y-60573000D01*
X46873000Y-58287000D01*
X45679845Y-58287000D01*
X45558524Y-58516890D01*
X45127000Y-58516890D01*
X45127000Y-47150000D01*
X45511928Y-47150000D01*
X45511928Y-48850000D01*
X45524188Y-48974482D01*
X45560498Y-49094180D01*
X45619463Y-49204494D01*
X45698815Y-49301185D01*
X45795506Y-49380537D01*
X45905820Y-49439502D01*
X45978380Y-49461513D01*
X45846525Y-49593368D01*
X45684010Y-49836589D01*
X45572068Y-50106842D01*
X45515000Y-50393740D01*
X45515000Y-50686260D01*
X45572068Y-50973158D01*
X45684010Y-51243411D01*
X45846525Y-51486632D01*
X46053368Y-51693475D01*
X46227760Y-51810000D01*
X46053368Y-51926525D01*
X45846525Y-52133368D01*
X45684010Y-52376589D01*
X45572068Y-52646842D01*
X45515000Y-52933740D01*
X45515000Y-53226260D01*
X45572068Y-53513158D01*
X45684010Y-53783411D01*
X45846525Y-54026632D01*
X46053368Y-54233475D01*
X46227760Y-54350000D01*
X46053368Y-54466525D01*
X45846525Y-54673368D01*
X45684010Y-54916589D01*
X45572068Y-55186842D01*
X45515000Y-55473740D01*
X45515000Y-55766260D01*
X45572068Y-56053158D01*
X45684010Y-56323411D01*
X45846525Y-56566632D01*
X46053368Y-56773475D01*
X46235534Y-56895195D01*
X46118645Y-56964822D01*
X45902412Y-57159731D01*
X45728359Y-57393080D01*
X45603175Y-57655901D01*
X45558524Y-57803110D01*
X45679845Y-58033000D01*
X46873000Y-58033000D01*
X46873000Y-58013000D01*
X47127000Y-58013000D01*
X47127000Y-58033000D01*
X47147000Y-58033000D01*
X47147000Y-58287000D01*
X47127000Y-58287000D01*
X47127000Y-60573000D01*
X48320155Y-60573000D01*
X48441476Y-60343110D01*
X48396825Y-60195901D01*
X48271641Y-59933080D01*
X48097588Y-59699731D01*
X47881355Y-59504822D01*
X47755745Y-59430000D01*
X47881355Y-59355178D01*
X48097588Y-59160269D01*
X48200290Y-59022579D01*
X56815001Y-67637291D01*
X56815000Y-90100270D01*
X56810476Y-90146202D01*
X56815000Y-90192133D01*
X56828529Y-90329493D01*
X56881993Y-90505741D01*
X56968814Y-90668173D01*
X57085656Y-90810546D01*
X57121341Y-90839832D01*
X60865002Y-94583494D01*
X60865001Y-100568456D01*
X60596260Y-100515000D01*
X60303740Y-100515000D01*
X60016842Y-100572068D01*
X59746589Y-100684010D01*
X59503368Y-100846525D01*
X59296525Y-101053368D01*
X59174805Y-101235534D01*
X59105178Y-101118645D01*
X58910269Y-100902412D01*
X58676920Y-100728359D01*
X58414099Y-100603175D01*
X58266890Y-100558524D01*
X58037000Y-100679845D01*
X58037000Y-101873000D01*
X58057000Y-101873000D01*
X58057000Y-102127000D01*
X58037000Y-102127000D01*
X58037000Y-103320155D01*
X58266890Y-103441476D01*
X58414099Y-103396825D01*
X58676920Y-103271641D01*
X58910269Y-103097588D01*
X59105178Y-102881355D01*
X59174805Y-102764466D01*
X59296525Y-102946632D01*
X59503368Y-103153475D01*
X59746589Y-103315990D01*
X59791232Y-103334481D01*
X57726335Y-105399378D01*
X57690656Y-105428659D01*
X57573814Y-105571031D01*
X57547927Y-105619463D01*
X57486993Y-105733463D01*
X57433528Y-105909712D01*
X57415475Y-106093003D01*
X57420000Y-106138945D01*
X57420000Y-106597711D01*
X53872749Y-103050460D01*
X54025178Y-102881355D01*
X54100000Y-102755745D01*
X54174822Y-102881355D01*
X54369731Y-103097588D01*
X54603080Y-103271641D01*
X54865901Y-103396825D01*
X55013110Y-103441476D01*
X55243000Y-103320155D01*
X55243000Y-102127000D01*
X55497000Y-102127000D01*
X55497000Y-103320155D01*
X55726890Y-103441476D01*
X55874099Y-103396825D01*
X56136920Y-103271641D01*
X56370269Y-103097588D01*
X56565178Y-102881355D01*
X56640000Y-102755745D01*
X56714822Y-102881355D01*
X56909731Y-103097588D01*
X57143080Y-103271641D01*
X57405901Y-103396825D01*
X57553110Y-103441476D01*
X57783000Y-103320155D01*
X57783000Y-102127000D01*
X55497000Y-102127000D01*
X55243000Y-102127000D01*
X52957000Y-102127000D01*
X52957000Y-102147000D01*
X52703000Y-102147000D01*
X52703000Y-102127000D01*
X52683000Y-102127000D01*
X52683000Y-101873000D01*
X52703000Y-101873000D01*
X52703000Y-100679845D01*
X52957000Y-100679845D01*
X52957000Y-101873000D01*
X55243000Y-101873000D01*
X55243000Y-100679845D01*
X55497000Y-100679845D01*
X55497000Y-101873000D01*
X57783000Y-101873000D01*
X57783000Y-100679845D01*
X57553110Y-100558524D01*
X57405901Y-100603175D01*
X57143080Y-100728359D01*
X56909731Y-100902412D01*
X56714822Y-101118645D01*
X56640000Y-101244255D01*
X56565178Y-101118645D01*
X56370269Y-100902412D01*
X56136920Y-100728359D01*
X55874099Y-100603175D01*
X55726890Y-100558524D01*
X55497000Y-100679845D01*
X55243000Y-100679845D01*
X55013110Y-100558524D01*
X54865901Y-100603175D01*
X54603080Y-100728359D01*
X54369731Y-100902412D01*
X54174822Y-101118645D01*
X54100000Y-101244255D01*
X54025178Y-101118645D01*
X53830269Y-100902412D01*
X53596920Y-100728359D01*
X53334099Y-100603175D01*
X53186890Y-100558524D01*
X52957000Y-100679845D01*
X52703000Y-100679845D01*
X52473110Y-100558524D01*
X52325901Y-100603175D01*
X52063080Y-100728359D01*
X51829731Y-100902412D01*
X51634822Y-101118645D01*
X51565195Y-101235534D01*
X51443475Y-101053368D01*
X51236632Y-100846525D01*
X50993411Y-100684010D01*
X50723158Y-100572068D01*
X50436260Y-100515000D01*
X50143740Y-100515000D01*
X49856842Y-100572068D01*
X49586589Y-100684010D01*
X49343368Y-100846525D01*
X49211513Y-100978380D01*
X49189502Y-100905820D01*
X49130537Y-100795506D01*
X49051185Y-100698815D01*
X48954494Y-100619463D01*
X48844180Y-100560498D01*
X48724482Y-100524188D01*
X48600000Y-100511928D01*
X46900000Y-100511928D01*
X46775518Y-100524188D01*
X46655820Y-100560498D01*
X46545506Y-100619463D01*
X46448815Y-100698815D01*
X46369463Y-100795506D01*
X46310498Y-100905820D01*
X46274188Y-101025518D01*
X46261928Y-101150000D01*
X46261928Y-102165783D01*
X46121336Y-102306375D01*
X46085657Y-102335656D01*
X45968815Y-102478028D01*
X45926937Y-102556377D01*
X45881994Y-102640460D01*
X45828529Y-102816709D01*
X45810476Y-103000000D01*
X45815001Y-103045942D01*
X45815000Y-114284068D01*
X45810476Y-114330000D01*
X45815000Y-114375931D01*
X45828529Y-114513291D01*
X45881993Y-114689539D01*
X45968814Y-114851971D01*
X46085656Y-114994344D01*
X46121341Y-115023630D01*
X58254887Y-127157176D01*
X58220000Y-127332565D01*
X58220000Y-127667435D01*
X58285330Y-127995872D01*
X58413479Y-128305252D01*
X58599523Y-128583687D01*
X58836313Y-128820477D01*
X59114748Y-129006521D01*
X59321678Y-129092234D01*
X52621326Y-135792587D01*
X52585647Y-135821868D01*
X52468805Y-135964240D01*
X52381984Y-136126672D01*
X52328519Y-136302921D01*
X52310466Y-136486212D01*
X52314991Y-136532154D01*
X52314990Y-141954058D01*
X52310466Y-141999990D01*
X52314990Y-142045921D01*
X52328519Y-142183281D01*
X52381983Y-142359529D01*
X52468804Y-142521961D01*
X52585646Y-142664334D01*
X52621332Y-142693621D01*
X53056366Y-143128654D01*
X53085656Y-143164344D01*
X53149310Y-143216584D01*
X53194753Y-143366387D01*
X53295301Y-143554500D01*
X53430617Y-143719383D01*
X53492294Y-143770000D01*
X53430617Y-143820617D01*
X53295301Y-143985500D01*
X53194753Y-144173613D01*
X53132835Y-144377728D01*
X53111928Y-144590000D01*
X53111928Y-145490000D01*
X53132835Y-145702272D01*
X53194753Y-145906387D01*
X53295301Y-146094500D01*
X53430617Y-146259383D01*
X53595500Y-146394699D01*
X53783613Y-146495247D01*
X53987728Y-146557165D01*
X54200000Y-146578072D01*
X55800000Y-146578072D01*
X56012272Y-146557165D01*
X56216387Y-146495247D01*
X56404500Y-146394699D01*
X56569383Y-146259383D01*
X56704699Y-146094500D01*
X56805247Y-145906387D01*
X56867165Y-145702272D01*
X56888072Y-145490000D01*
X56888072Y-144590000D01*
X56867165Y-144377728D01*
X56805247Y-144173613D01*
X56704699Y-143985500D01*
X56569383Y-143820617D01*
X56507706Y-143770000D01*
X56569383Y-143719383D01*
X56704699Y-143554500D01*
X56805247Y-143366387D01*
X56867165Y-143162272D01*
X56888072Y-142950000D01*
X56888072Y-142050000D01*
X56867165Y-141837728D01*
X56805247Y-141633613D01*
X56704699Y-141445500D01*
X56569383Y-141280617D01*
X56507706Y-141230000D01*
X56569383Y-141179383D01*
X56704699Y-141014500D01*
X56768573Y-140895000D01*
X62812709Y-140895000D01*
X66611373Y-144693665D01*
X66640655Y-144729345D01*
X66783027Y-144846187D01*
X66945459Y-144933008D01*
X67068242Y-144970254D01*
X67121706Y-144986472D01*
X67304998Y-145004525D01*
X67350930Y-145000001D01*
X80625269Y-145000001D01*
X80671201Y-145004525D01*
X80717133Y-145000001D01*
X80854493Y-144986472D01*
X81030741Y-144933008D01*
X81193173Y-144846187D01*
X81335545Y-144729345D01*
X81364831Y-144693660D01*
X82113666Y-143944826D01*
X82149345Y-143915545D01*
X82266187Y-143773173D01*
X82353008Y-143610741D01*
X82406472Y-143434493D01*
X82420001Y-143297133D01*
X82420001Y-143297132D01*
X82424525Y-143251201D01*
X82420001Y-143205269D01*
X82420001Y-131427134D01*
X82424525Y-131381202D01*
X82406472Y-131197910D01*
X82390254Y-131144446D01*
X82353008Y-131021663D01*
X82266187Y-130859231D01*
X82149345Y-130716859D01*
X82113665Y-130687577D01*
X80518322Y-129092234D01*
X80725252Y-129006521D01*
X81003687Y-128820477D01*
X81240477Y-128583687D01*
X81426521Y-128305252D01*
X81554670Y-127995872D01*
X81620000Y-127667435D01*
X81620000Y-127332565D01*
X81554670Y-127004128D01*
X81426521Y-126694748D01*
X81240477Y-126416313D01*
X81003687Y-126179523D01*
X80855000Y-126080174D01*
X80855000Y-123167289D01*
X82840018Y-121182271D01*
X82853740Y-121185000D01*
X83146260Y-121185000D01*
X83433158Y-121127932D01*
X83703411Y-121015990D01*
X83946632Y-120853475D01*
X84153475Y-120646632D01*
X84315990Y-120403411D01*
X84427932Y-120133158D01*
X84485000Y-119846260D01*
X84485000Y-119553740D01*
X84427932Y-119266842D01*
X84315990Y-118996589D01*
X84153475Y-118753368D01*
X83946632Y-118546525D01*
X83764466Y-118424805D01*
X83881355Y-118355178D01*
X84097588Y-118160269D01*
X84271641Y-117926920D01*
X84396825Y-117664099D01*
X84441476Y-117516890D01*
X84320155Y-117287000D01*
X83127000Y-117287000D01*
X83127000Y-117307000D01*
X82873000Y-117307000D01*
X82873000Y-117287000D01*
X82853000Y-117287000D01*
X82853000Y-117033000D01*
X82873000Y-117033000D01*
X82873000Y-114747000D01*
X83127000Y-114747000D01*
X83127000Y-117033000D01*
X84320155Y-117033000D01*
X84441476Y-116803110D01*
X84396825Y-116655901D01*
X84271641Y-116393080D01*
X84097588Y-116159731D01*
X83881355Y-115964822D01*
X83755745Y-115890000D01*
X83881355Y-115815178D01*
X84097588Y-115620269D01*
X84271641Y-115386920D01*
X84396825Y-115124099D01*
X84441476Y-114976890D01*
X84320155Y-114747000D01*
X83127000Y-114747000D01*
X82873000Y-114747000D01*
X82853000Y-114747000D01*
X82853000Y-114493000D01*
X82873000Y-114493000D01*
X82873000Y-114473000D01*
X83127000Y-114473000D01*
X83127000Y-114493000D01*
X84320155Y-114493000D01*
X84441476Y-114263110D01*
X84396825Y-114115901D01*
X84271641Y-113853080D01*
X84097588Y-113619731D01*
X83881355Y-113424822D01*
X83764466Y-113355195D01*
X83946632Y-113233475D01*
X84153475Y-113026632D01*
X84315990Y-112783411D01*
X84427932Y-112513158D01*
X84485000Y-112226260D01*
X84485000Y-111933740D01*
X84427932Y-111646842D01*
X84315990Y-111376589D01*
X84153475Y-111133368D01*
X83946632Y-110926525D01*
X83772240Y-110810000D01*
X83946632Y-110693475D01*
X84153475Y-110486632D01*
X84315990Y-110243411D01*
X84427932Y-109973158D01*
X84485000Y-109686260D01*
X84485000Y-109393740D01*
X84427932Y-109106842D01*
X84315990Y-108836589D01*
X84153475Y-108593368D01*
X84021620Y-108461513D01*
X84094180Y-108439502D01*
X84204494Y-108380537D01*
X84301185Y-108301185D01*
X84380537Y-108204494D01*
X84439502Y-108094180D01*
X84475812Y-107974482D01*
X84488072Y-107850000D01*
X84488072Y-106150000D01*
X84475812Y-106025518D01*
X84439502Y-105905820D01*
X84380537Y-105795506D01*
X84301185Y-105698815D01*
X84204494Y-105619463D01*
X84094180Y-105560498D01*
X83974482Y-105524188D01*
X83935000Y-105520299D01*
X83935000Y-105008435D01*
X83939524Y-104962500D01*
X83921472Y-104779208D01*
X83868007Y-104602959D01*
X83837279Y-104545472D01*
X83781186Y-104440528D01*
X83664344Y-104298156D01*
X83628659Y-104268870D01*
X82513072Y-103153283D01*
X82513072Y-102775000D01*
X82496008Y-102601746D01*
X82445472Y-102435150D01*
X82363405Y-102281614D01*
X82252962Y-102147038D01*
X82222500Y-102122039D01*
X82222500Y-101832445D01*
X82227962Y-101827962D01*
X82338405Y-101693387D01*
X82420472Y-101539851D01*
X82471008Y-101373255D01*
X82488072Y-101200001D01*
X82488072Y-100299999D01*
X82471008Y-100126745D01*
X82420472Y-99960149D01*
X82338405Y-99806613D01*
X82227962Y-99672038D01*
X82093387Y-99561595D01*
X81939851Y-99479528D01*
X81773255Y-99428992D01*
X81600001Y-99411928D01*
X80899999Y-99411928D01*
X80726745Y-99428992D01*
X80560149Y-99479528D01*
X80406613Y-99561595D01*
X80272038Y-99672038D01*
X80250000Y-99698891D01*
X80227962Y-99672038D01*
X80093387Y-99561595D01*
X79939851Y-99479528D01*
X79773255Y-99428992D01*
X79600001Y-99411928D01*
X78899999Y-99411928D01*
X78726745Y-99428992D01*
X78560149Y-99479528D01*
X78406613Y-99561595D01*
X78272038Y-99672038D01*
X78161595Y-99806613D01*
X78079528Y-99960149D01*
X78028992Y-100126745D01*
X78011928Y-100299999D01*
X78011928Y-100665782D01*
X77635000Y-101042710D01*
X77635000Y-100245929D01*
X77639524Y-100199997D01*
X77621471Y-100016705D01*
X77589687Y-99911928D01*
X77568007Y-99840458D01*
X77481186Y-99678026D01*
X77364344Y-99535654D01*
X77328664Y-99506372D01*
X76235765Y-98413474D01*
X76250000Y-98392169D01*
X76307688Y-98478505D01*
X76521495Y-98692312D01*
X76772905Y-98860299D01*
X77052257Y-98976011D01*
X77348816Y-99035000D01*
X77651184Y-99035000D01*
X77947743Y-98976011D01*
X78227095Y-98860299D01*
X78478505Y-98692312D01*
X78692312Y-98478505D01*
X78860299Y-98227095D01*
X78976011Y-97947743D01*
X79035000Y-97651184D01*
X79035000Y-97348816D01*
X78976011Y-97052257D01*
X78860299Y-96772905D01*
X78692312Y-96521495D01*
X78478505Y-96307688D01*
X78435000Y-96278619D01*
X78435000Y-91720591D01*
X78686275Y-91926807D01*
X79032853Y-92112057D01*
X79408912Y-92226133D01*
X79800000Y-92264652D01*
X80191087Y-92226133D01*
X80567146Y-92112057D01*
X80913725Y-91926807D01*
X81217503Y-91677503D01*
X81466807Y-91373725D01*
X81652057Y-91027147D01*
X81766133Y-90651088D01*
X81795000Y-90357998D01*
X81795000Y-89642003D01*
X81766133Y-89348913D01*
X81652057Y-88972853D01*
X81466807Y-88626275D01*
X81217503Y-88322497D01*
X80913725Y-88073193D01*
X80567147Y-87887943D01*
X80191088Y-87773867D01*
X79800000Y-87735348D01*
X79408913Y-87773867D01*
X79032854Y-87887943D01*
X78686276Y-88073193D01*
X78435000Y-88279410D01*
X78435000Y-87995937D01*
X78439524Y-87950002D01*
X78421472Y-87766710D01*
X78368007Y-87590463D01*
X78368007Y-87590462D01*
X78281186Y-87428030D01*
X78164344Y-87285658D01*
X78128660Y-87256373D01*
X72092602Y-81220315D01*
X72194180Y-81189502D01*
X72304494Y-81130537D01*
X72401185Y-81051185D01*
X72480537Y-80954494D01*
X72539502Y-80844180D01*
X72575812Y-80724482D01*
X72588072Y-80600000D01*
X72585000Y-80485750D01*
X72426250Y-80327000D01*
X71627000Y-80327000D01*
X71627000Y-80347000D01*
X71373000Y-80347000D01*
X71373000Y-80327000D01*
X71353000Y-80327000D01*
X71353000Y-80073000D01*
X71373000Y-80073000D01*
X71373000Y-80053000D01*
X71627000Y-80053000D01*
X71627000Y-80073000D01*
X72426250Y-80073000D01*
X72510857Y-79988393D01*
X72519463Y-80004494D01*
X72598815Y-80101185D01*
X72695506Y-80180537D01*
X72805820Y-80239502D01*
X72925518Y-80275812D01*
X73050000Y-80288072D01*
X73950000Y-80288072D01*
X74074482Y-80275812D01*
X74194180Y-80239502D01*
X74304494Y-80180537D01*
X74401185Y-80101185D01*
X74480537Y-80004494D01*
X74539502Y-79894180D01*
X74575812Y-79774482D01*
X74588072Y-79650000D01*
X74588072Y-78850000D01*
X74575812Y-78725518D01*
X74539502Y-78605820D01*
X74480537Y-78495506D01*
X74401185Y-78398815D01*
X74304494Y-78319463D01*
X74194180Y-78260498D01*
X74074482Y-78224188D01*
X73950000Y-78211928D01*
X73050000Y-78211928D01*
X72925518Y-78224188D01*
X72805820Y-78260498D01*
X72695506Y-78319463D01*
X72598815Y-78398815D01*
X72588072Y-78411905D01*
X72588072Y-77900000D01*
X72575812Y-77775518D01*
X72539502Y-77655820D01*
X72480537Y-77545506D01*
X72401185Y-77448815D01*
X72304494Y-77369463D01*
X72194180Y-77310498D01*
X72185000Y-77307713D01*
X72185000Y-76092888D01*
X72193387Y-76088405D01*
X72327962Y-75977962D01*
X72438405Y-75843387D01*
X72520472Y-75689851D01*
X72540144Y-75625000D01*
X72636928Y-75625000D01*
X72649188Y-75749482D01*
X72685498Y-75869180D01*
X72744463Y-75979494D01*
X72823815Y-76076185D01*
X72920506Y-76155537D01*
X73030820Y-76214502D01*
X73150518Y-76250812D01*
X73275000Y-76263072D01*
X73714250Y-76260000D01*
X73873000Y-76101250D01*
X73873000Y-75164500D01*
X74127000Y-75164500D01*
X74127000Y-76101250D01*
X74285750Y-76260000D01*
X74725000Y-76263072D01*
X74849482Y-76250812D01*
X74969180Y-76214502D01*
X75079494Y-76155537D01*
X75176185Y-76076185D01*
X75255537Y-75979494D01*
X75314502Y-75869180D01*
X75350812Y-75749482D01*
X75363072Y-75625000D01*
X75360000Y-75323250D01*
X75201250Y-75164500D01*
X74127000Y-75164500D01*
X73873000Y-75164500D01*
X72798750Y-75164500D01*
X72640000Y-75323250D01*
X72636928Y-75625000D01*
X72540144Y-75625000D01*
X72571008Y-75523255D01*
X72588072Y-75350001D01*
X72588072Y-74649999D01*
X72571008Y-74476745D01*
X72520472Y-74310149D01*
X72438405Y-74156613D01*
X72327962Y-74022038D01*
X72301109Y-74000000D01*
X72327962Y-73977962D01*
X72363220Y-73935000D01*
X72901574Y-73935000D01*
X72823815Y-73998815D01*
X72744463Y-74095506D01*
X72685498Y-74205820D01*
X72649188Y-74325518D01*
X72636928Y-74450000D01*
X72640000Y-74751750D01*
X72798750Y-74910500D01*
X73873000Y-74910500D01*
X73873000Y-74890500D01*
X74127000Y-74890500D01*
X74127000Y-74910500D01*
X75201250Y-74910500D01*
X75360000Y-74751750D01*
X75363072Y-74450000D01*
X75350812Y-74325518D01*
X75314502Y-74205820D01*
X75255537Y-74095506D01*
X75176185Y-73998815D01*
X75096406Y-73933342D01*
X75102962Y-73927962D01*
X75213405Y-73793386D01*
X75295472Y-73639850D01*
X75346008Y-73473254D01*
X75363072Y-73300000D01*
X75363072Y-72625000D01*
X75346008Y-72451746D01*
X75295472Y-72285150D01*
X75213405Y-72131614D01*
X75102962Y-71997038D01*
X74968386Y-71886595D01*
X74814850Y-71804528D01*
X74648254Y-71753992D01*
X74475000Y-71736928D01*
X73525000Y-71736928D01*
X73351746Y-71753992D01*
X73185150Y-71804528D01*
X73031614Y-71886595D01*
X72897038Y-71997038D01*
X72841263Y-72065000D01*
X72363220Y-72065000D01*
X72327962Y-72022038D01*
X72193387Y-71911595D01*
X72039851Y-71829528D01*
X71873255Y-71778992D01*
X71700001Y-71761928D01*
X70799999Y-71761928D01*
X70626745Y-71778992D01*
X70460149Y-71829528D01*
X70306613Y-71911595D01*
X70172038Y-72022038D01*
X70061595Y-72156613D01*
X69979528Y-72310149D01*
X69928992Y-72476745D01*
X69911928Y-72649999D01*
X69911928Y-73015782D01*
X69121336Y-73806375D01*
X69085657Y-73835656D01*
X68968815Y-73978028D01*
X68936543Y-74038405D01*
X68881994Y-74140460D01*
X68828529Y-74316709D01*
X68810476Y-74500000D01*
X68815001Y-74545942D01*
X68815000Y-76074713D01*
X68435000Y-75694713D01*
X68435000Y-68721381D01*
X68478505Y-68692312D01*
X68692312Y-68478505D01*
X68860299Y-68227095D01*
X68976011Y-67947743D01*
X69035000Y-67651184D01*
X69035000Y-67348816D01*
X68976011Y-67052257D01*
X68860299Y-66772905D01*
X68692312Y-66521495D01*
X68478505Y-66307688D01*
X68227095Y-66139701D01*
X67947743Y-66023989D01*
X67651184Y-65965000D01*
X67348816Y-65965000D01*
X67052257Y-66023989D01*
X66772905Y-66139701D01*
X66521495Y-66307688D01*
X66307688Y-66521495D01*
X66250000Y-66607831D01*
X66192312Y-66521495D01*
X65978505Y-66307688D01*
X65935000Y-66278619D01*
X65935000Y-61955481D01*
X65939524Y-61909549D01*
X65921471Y-61726257D01*
X65868007Y-61550010D01*
X65868007Y-61550009D01*
X65781186Y-61387577D01*
X65664344Y-61245205D01*
X65628660Y-61215920D01*
X64054742Y-59642002D01*
X67805000Y-59642002D01*
X67805000Y-60357997D01*
X67833867Y-60651087D01*
X67947943Y-61027146D01*
X68133193Y-61373725D01*
X68382497Y-61677503D01*
X68686275Y-61926807D01*
X69032853Y-62112057D01*
X69408912Y-62226133D01*
X69800000Y-62264652D01*
X70191087Y-62226133D01*
X70567146Y-62112057D01*
X70913725Y-61926807D01*
X71217503Y-61677503D01*
X71466807Y-61373725D01*
X71652057Y-61027147D01*
X71766133Y-60651088D01*
X71795000Y-60357998D01*
X71795000Y-59642003D01*
X71766133Y-59348913D01*
X71652057Y-58972853D01*
X71466807Y-58626275D01*
X71217503Y-58322497D01*
X70913725Y-58073193D01*
X70567147Y-57887943D01*
X70191088Y-57773867D01*
X69800000Y-57735348D01*
X69408913Y-57773867D01*
X69032854Y-57887943D01*
X68686276Y-58073193D01*
X68382498Y-58322497D01*
X68133193Y-58626275D01*
X67947943Y-58972853D01*
X67833867Y-59348912D01*
X67805000Y-59642002D01*
X64054742Y-59642002D01*
X51784081Y-47371341D01*
X51754795Y-47335656D01*
X51612423Y-47218814D01*
X51449991Y-47131993D01*
X51273743Y-47078529D01*
X51136383Y-47065000D01*
X51090451Y-47060476D01*
X51044519Y-47065000D01*
X48479701Y-47065000D01*
X48475812Y-47025518D01*
X48439502Y-46905820D01*
X48380537Y-46795506D01*
X48301185Y-46698815D01*
X48204494Y-46619463D01*
X48094180Y-46560498D01*
X47974482Y-46524188D01*
X47850000Y-46511928D01*
X46150000Y-46511928D01*
X46025518Y-46524188D01*
X45905820Y-46560498D01*
X45795506Y-46619463D01*
X45698815Y-46698815D01*
X45619463Y-46795506D01*
X45560498Y-46905820D01*
X45524188Y-47025518D01*
X45511928Y-47150000D01*
X45127000Y-47150000D01*
X45127000Y-44377000D01*
X84873000Y-44377000D01*
X84873000Y-148123000D01*
G37*
%TD.AperFunction*%
D21*
X73413788Y-115963286D02*
X73400000Y-115961928D01*
X72785750Y-115965000D01*
X72627000Y-116123750D01*
X72627000Y-117373000D01*
X72647000Y-117373000D01*
X72647000Y-117627000D01*
X72627000Y-117627000D01*
X72627000Y-118876250D01*
X72785750Y-119035000D01*
X73400000Y-119038072D01*
X73524482Y-119025812D01*
X73644180Y-118989502D01*
X73754494Y-118930537D01*
X73851185Y-118851185D01*
X73930537Y-118754494D01*
X73983880Y-118654697D01*
X74021495Y-118692312D01*
X74272905Y-118860299D01*
X74552257Y-118976011D01*
X74848816Y-119035000D01*
X75151184Y-119035000D01*
X75447743Y-118976011D01*
X75727095Y-118860299D01*
X75978505Y-118692312D01*
X76192312Y-118478505D01*
X76250000Y-118392169D01*
X76307688Y-118478505D01*
X76521495Y-118692312D01*
X76772905Y-118860299D01*
X76856102Y-118894761D01*
X76773804Y-118995041D01*
X76750804Y-119038072D01*
X76686983Y-119157473D01*
X76633518Y-119333722D01*
X76615465Y-119517013D01*
X76619990Y-119562955D01*
X76619989Y-140089057D01*
X76615465Y-140134989D01*
X76619989Y-140180920D01*
X76633518Y-140318280D01*
X76686982Y-140494528D01*
X76773803Y-140656960D01*
X76890645Y-140799333D01*
X76926330Y-140828619D01*
X78254887Y-142157176D01*
X78220000Y-142332565D01*
X78220000Y-142667435D01*
X78285330Y-142995872D01*
X78340888Y-143130001D01*
X73199112Y-143130001D01*
X73254670Y-142995872D01*
X73320000Y-142667435D01*
X73320000Y-142332565D01*
X73254670Y-142004128D01*
X73126521Y-141694748D01*
X72940477Y-141416313D01*
X72703687Y-141179523D01*
X72425252Y-140993479D01*
X72115872Y-140865330D01*
X71787435Y-140800000D01*
X71452565Y-140800000D01*
X71124128Y-140865330D01*
X70814748Y-140993479D01*
X70536313Y-141179523D01*
X70299523Y-141416313D01*
X70113479Y-141694748D01*
X70071895Y-141795140D01*
X70073072Y-141535000D01*
X70060812Y-141410518D01*
X70024502Y-141290820D01*
X69965537Y-141180506D01*
X69886185Y-141083815D01*
X69789494Y-141004463D01*
X69679180Y-140945498D01*
X69559482Y-140909188D01*
X69435000Y-140896928D01*
X68805750Y-140900000D01*
X68647000Y-141058750D01*
X68647000Y-142373000D01*
X68667000Y-142373000D01*
X68667000Y-142627000D01*
X68647000Y-142627000D01*
X68647000Y-142647000D01*
X68393000Y-142647000D01*
X68393000Y-142627000D01*
X68373000Y-142627000D01*
X68373000Y-142373000D01*
X68393000Y-142373000D01*
X68393000Y-141058750D01*
X68234250Y-140900000D01*
X67605000Y-140896928D01*
X67480518Y-140909188D01*
X67360820Y-140945498D01*
X67250506Y-141004463D01*
X67153815Y-141083815D01*
X67074463Y-141180506D01*
X67015498Y-141290820D01*
X66979188Y-141410518D01*
X66966928Y-141535000D01*
X66970000Y-142214250D01*
X67128748Y-142372998D01*
X66970000Y-142372998D01*
X66970000Y-142407712D01*
X63893628Y-139331341D01*
X63864342Y-139295656D01*
X63721970Y-139178814D01*
X63559538Y-139091993D01*
X63383290Y-139038529D01*
X63245930Y-139025000D01*
X63199998Y-139020476D01*
X63154066Y-139025000D01*
X56768573Y-139025000D01*
X56704699Y-138905500D01*
X56569383Y-138740617D01*
X56404500Y-138605301D01*
X56216387Y-138504753D01*
X56012272Y-138442835D01*
X55800000Y-138421928D01*
X54200000Y-138421928D01*
X54184990Y-138423406D01*
X54184990Y-136873501D01*
X62113667Y-128944825D01*
X62149345Y-128915545D01*
X62266187Y-128773173D01*
X62353008Y-128610741D01*
X62397217Y-128465000D01*
X66966928Y-128465000D01*
X66979188Y-128589482D01*
X67015498Y-128709180D01*
X67074463Y-128819494D01*
X67153815Y-128916185D01*
X67250506Y-128995537D01*
X67360820Y-129054502D01*
X67480518Y-129090812D01*
X67605000Y-129103072D01*
X68234250Y-129100000D01*
X68393000Y-128941250D01*
X68393000Y-127627000D01*
X67128750Y-127627000D01*
X66970000Y-127785750D01*
X66966928Y-128465000D01*
X62397217Y-128465000D01*
X62406472Y-128434493D01*
X62406472Y-128434492D01*
X62424525Y-128251202D01*
X62420001Y-128205270D01*
X62420001Y-126535000D01*
X66966928Y-126535000D01*
X66970000Y-127214250D01*
X67128750Y-127373000D01*
X68393000Y-127373000D01*
X68393000Y-126058750D01*
X68647000Y-126058750D01*
X68647000Y-127373000D01*
X68667000Y-127373000D01*
X68667000Y-127627000D01*
X68647000Y-127627000D01*
X68647000Y-128941250D01*
X68805750Y-129100000D01*
X69435000Y-129103072D01*
X69559482Y-129090812D01*
X69679180Y-129054502D01*
X69789494Y-128995537D01*
X69886185Y-128916185D01*
X69965537Y-128819494D01*
X70024502Y-128709180D01*
X70060812Y-128589482D01*
X70073072Y-128465000D01*
X70071895Y-128204860D01*
X70113479Y-128305252D01*
X70299523Y-128583687D01*
X70536313Y-128820477D01*
X70814748Y-129006521D01*
X71124128Y-129134670D01*
X71452565Y-129200000D01*
X71787435Y-129200000D01*
X72115872Y-129134670D01*
X72425252Y-129006521D01*
X72703687Y-128820477D01*
X72940477Y-128583687D01*
X73126521Y-128305252D01*
X73254670Y-127995872D01*
X73320000Y-127667435D01*
X73320000Y-127332565D01*
X73254670Y-127004128D01*
X73126521Y-126694748D01*
X72940477Y-126416313D01*
X72703687Y-126179523D01*
X72425252Y-125993479D01*
X72115872Y-125865330D01*
X71787435Y-125800000D01*
X71452565Y-125800000D01*
X71124128Y-125865330D01*
X70814748Y-125993479D01*
X70536313Y-126179523D01*
X70299523Y-126416313D01*
X70113479Y-126694748D01*
X70071895Y-126795140D01*
X70073072Y-126535000D01*
X70060812Y-126410518D01*
X70024502Y-126290820D01*
X69965537Y-126180506D01*
X69886185Y-126083815D01*
X69789494Y-126004463D01*
X69679180Y-125945498D01*
X69559482Y-125909188D01*
X69435000Y-125896928D01*
X68805750Y-125900000D01*
X68647000Y-126058750D01*
X68393000Y-126058750D01*
X68234250Y-125900000D01*
X67605000Y-125896928D01*
X67480518Y-125909188D01*
X67360820Y-125945498D01*
X67250506Y-126004463D01*
X67153815Y-126083815D01*
X67074463Y-126180506D01*
X67015498Y-126290820D01*
X66979188Y-126410518D01*
X66966928Y-126535000D01*
X62420001Y-126535000D01*
X62420001Y-118400000D01*
X70961928Y-118400000D01*
X70974188Y-118524482D01*
X71010498Y-118644180D01*
X71069463Y-118754494D01*
X71148815Y-118851185D01*
X71245506Y-118930537D01*
X71355820Y-118989502D01*
X71475518Y-119025812D01*
X71600000Y-119038072D01*
X72214250Y-119035000D01*
X72373000Y-118876250D01*
X72373000Y-117627000D01*
X71123750Y-117627000D01*
X70965000Y-117785750D01*
X70961928Y-118400000D01*
X62420001Y-118400000D01*
X62420001Y-116600000D01*
X70961928Y-116600000D01*
X70965000Y-117214250D01*
X71123750Y-117373000D01*
X72373000Y-117373000D01*
X72373000Y-116123750D01*
X72214250Y-115965000D01*
X71600000Y-115961928D01*
X71475518Y-115974188D01*
X71355820Y-116010498D01*
X71245506Y-116069463D01*
X71148815Y-116148815D01*
X71069463Y-116245506D01*
X71010498Y-116355820D01*
X70974188Y-116475518D01*
X70961928Y-116600000D01*
X62420001Y-116600000D01*
X62420001Y-115058511D01*
X62424524Y-115012586D01*
X62420001Y-114966661D01*
X62420001Y-114966655D01*
X62406472Y-114829295D01*
X62353008Y-114653047D01*
X62266187Y-114490615D01*
X62149345Y-114348243D01*
X62113665Y-114318961D01*
X60849714Y-113055010D01*
X70505513Y-113055010D01*
X73413788Y-115963286D01*
%TA.AperFunction,Conductor*%
D22*
G36*
X73413788Y-115963286D02*
G01*
X73400000Y-115961928D01*
X72785750Y-115965000D01*
X72627000Y-116123750D01*
X72627000Y-117373000D01*
X72647000Y-117373000D01*
X72647000Y-117627000D01*
X72627000Y-117627000D01*
X72627000Y-118876250D01*
X72785750Y-119035000D01*
X73400000Y-119038072D01*
X73524482Y-119025812D01*
X73644180Y-118989502D01*
X73754494Y-118930537D01*
X73851185Y-118851185D01*
X73930537Y-118754494D01*
X73983880Y-118654697D01*
X74021495Y-118692312D01*
X74272905Y-118860299D01*
X74552257Y-118976011D01*
X74848816Y-119035000D01*
X75151184Y-119035000D01*
X75447743Y-118976011D01*
X75727095Y-118860299D01*
X75978505Y-118692312D01*
X76192312Y-118478505D01*
X76250000Y-118392169D01*
X76307688Y-118478505D01*
X76521495Y-118692312D01*
X76772905Y-118860299D01*
X76856102Y-118894761D01*
X76773804Y-118995041D01*
X76750804Y-119038072D01*
X76686983Y-119157473D01*
X76633518Y-119333722D01*
X76615465Y-119517013D01*
X76619990Y-119562955D01*
X76619989Y-140089057D01*
X76615465Y-140134989D01*
X76619989Y-140180920D01*
X76633518Y-140318280D01*
X76686982Y-140494528D01*
X76773803Y-140656960D01*
X76890645Y-140799333D01*
X76926330Y-140828619D01*
X78254887Y-142157176D01*
X78220000Y-142332565D01*
X78220000Y-142667435D01*
X78285330Y-142995872D01*
X78340888Y-143130001D01*
X73199112Y-143130001D01*
X73254670Y-142995872D01*
X73320000Y-142667435D01*
X73320000Y-142332565D01*
X73254670Y-142004128D01*
X73126521Y-141694748D01*
X72940477Y-141416313D01*
X72703687Y-141179523D01*
X72425252Y-140993479D01*
X72115872Y-140865330D01*
X71787435Y-140800000D01*
X71452565Y-140800000D01*
X71124128Y-140865330D01*
X70814748Y-140993479D01*
X70536313Y-141179523D01*
X70299523Y-141416313D01*
X70113479Y-141694748D01*
X70071895Y-141795140D01*
X70073072Y-141535000D01*
X70060812Y-141410518D01*
X70024502Y-141290820D01*
X69965537Y-141180506D01*
X69886185Y-141083815D01*
X69789494Y-141004463D01*
X69679180Y-140945498D01*
X69559482Y-140909188D01*
X69435000Y-140896928D01*
X68805750Y-140900000D01*
X68647000Y-141058750D01*
X68647000Y-142373000D01*
X68667000Y-142373000D01*
X68667000Y-142627000D01*
X68647000Y-142627000D01*
X68647000Y-142647000D01*
X68393000Y-142647000D01*
X68393000Y-142627000D01*
X68373000Y-142627000D01*
X68373000Y-142373000D01*
X68393000Y-142373000D01*
X68393000Y-141058750D01*
X68234250Y-140900000D01*
X67605000Y-140896928D01*
X67480518Y-140909188D01*
X67360820Y-140945498D01*
X67250506Y-141004463D01*
X67153815Y-141083815D01*
X67074463Y-141180506D01*
X67015498Y-141290820D01*
X66979188Y-141410518D01*
X66966928Y-141535000D01*
X66970000Y-142214250D01*
X67128748Y-142372998D01*
X66970000Y-142372998D01*
X66970000Y-142407712D01*
X63893628Y-139331341D01*
X63864342Y-139295656D01*
X63721970Y-139178814D01*
X63559538Y-139091993D01*
X63383290Y-139038529D01*
X63245930Y-139025000D01*
X63199998Y-139020476D01*
X63154066Y-139025000D01*
X56768573Y-139025000D01*
X56704699Y-138905500D01*
X56569383Y-138740617D01*
X56404500Y-138605301D01*
X56216387Y-138504753D01*
X56012272Y-138442835D01*
X55800000Y-138421928D01*
X54200000Y-138421928D01*
X54184990Y-138423406D01*
X54184990Y-136873501D01*
X62113667Y-128944825D01*
X62149345Y-128915545D01*
X62266187Y-128773173D01*
X62353008Y-128610741D01*
X62397217Y-128465000D01*
X66966928Y-128465000D01*
X66979188Y-128589482D01*
X67015498Y-128709180D01*
X67074463Y-128819494D01*
X67153815Y-128916185D01*
X67250506Y-128995537D01*
X67360820Y-129054502D01*
X67480518Y-129090812D01*
X67605000Y-129103072D01*
X68234250Y-129100000D01*
X68393000Y-128941250D01*
X68393000Y-127627000D01*
X67128750Y-127627000D01*
X66970000Y-127785750D01*
X66966928Y-128465000D01*
X62397217Y-128465000D01*
X62406472Y-128434493D01*
X62406472Y-128434492D01*
X62424525Y-128251202D01*
X62420001Y-128205270D01*
X62420001Y-126535000D01*
X66966928Y-126535000D01*
X66970000Y-127214250D01*
X67128750Y-127373000D01*
X68393000Y-127373000D01*
X68393000Y-126058750D01*
X68647000Y-126058750D01*
X68647000Y-127373000D01*
X68667000Y-127373000D01*
X68667000Y-127627000D01*
X68647000Y-127627000D01*
X68647000Y-128941250D01*
X68805750Y-129100000D01*
X69435000Y-129103072D01*
X69559482Y-129090812D01*
X69679180Y-129054502D01*
X69789494Y-128995537D01*
X69886185Y-128916185D01*
X69965537Y-128819494D01*
X70024502Y-128709180D01*
X70060812Y-128589482D01*
X70073072Y-128465000D01*
X70071895Y-128204860D01*
X70113479Y-128305252D01*
X70299523Y-128583687D01*
X70536313Y-128820477D01*
X70814748Y-129006521D01*
X71124128Y-129134670D01*
X71452565Y-129200000D01*
X71787435Y-129200000D01*
X72115872Y-129134670D01*
X72425252Y-129006521D01*
X72703687Y-128820477D01*
X72940477Y-128583687D01*
X73126521Y-128305252D01*
X73254670Y-127995872D01*
X73320000Y-127667435D01*
X73320000Y-127332565D01*
X73254670Y-127004128D01*
X73126521Y-126694748D01*
X72940477Y-126416313D01*
X72703687Y-126179523D01*
X72425252Y-125993479D01*
X72115872Y-125865330D01*
X71787435Y-125800000D01*
X71452565Y-125800000D01*
X71124128Y-125865330D01*
X70814748Y-125993479D01*
X70536313Y-126179523D01*
X70299523Y-126416313D01*
X70113479Y-126694748D01*
X70071895Y-126795140D01*
X70073072Y-126535000D01*
X70060812Y-126410518D01*
X70024502Y-126290820D01*
X69965537Y-126180506D01*
X69886185Y-126083815D01*
X69789494Y-126004463D01*
X69679180Y-125945498D01*
X69559482Y-125909188D01*
X69435000Y-125896928D01*
X68805750Y-125900000D01*
X68647000Y-126058750D01*
X68393000Y-126058750D01*
X68234250Y-125900000D01*
X67605000Y-125896928D01*
X67480518Y-125909188D01*
X67360820Y-125945498D01*
X67250506Y-126004463D01*
X67153815Y-126083815D01*
X67074463Y-126180506D01*
X67015498Y-126290820D01*
X66979188Y-126410518D01*
X66966928Y-126535000D01*
X62420001Y-126535000D01*
X62420001Y-118400000D01*
X70961928Y-118400000D01*
X70974188Y-118524482D01*
X71010498Y-118644180D01*
X71069463Y-118754494D01*
X71148815Y-118851185D01*
X71245506Y-118930537D01*
X71355820Y-118989502D01*
X71475518Y-119025812D01*
X71600000Y-119038072D01*
X72214250Y-119035000D01*
X72373000Y-118876250D01*
X72373000Y-117627000D01*
X71123750Y-117627000D01*
X70965000Y-117785750D01*
X70961928Y-118400000D01*
X62420001Y-118400000D01*
X62420001Y-116600000D01*
X70961928Y-116600000D01*
X70965000Y-117214250D01*
X71123750Y-117373000D01*
X72373000Y-117373000D01*
X72373000Y-116123750D01*
X72214250Y-115965000D01*
X71600000Y-115961928D01*
X71475518Y-115974188D01*
X71355820Y-116010498D01*
X71245506Y-116069463D01*
X71148815Y-116148815D01*
X71069463Y-116245506D01*
X71010498Y-116355820D01*
X70974188Y-116475518D01*
X70961928Y-116600000D01*
X62420001Y-116600000D01*
X62420001Y-115058511D01*
X62424524Y-115012586D01*
X62420001Y-114966661D01*
X62420001Y-114966655D01*
X62406472Y-114829295D01*
X62353008Y-114653047D01*
X62266187Y-114490615D01*
X62149345Y-114348243D01*
X62113665Y-114318961D01*
X60849714Y-113055010D01*
X70505513Y-113055010D01*
X73413788Y-115963286D01*
G37*
%TD.AperFunction*%
D21*
X80550002Y-131768494D02*
X80550001Y-140920888D01*
X80415872Y-140865330D01*
X80087435Y-140800000D01*
X79752565Y-140800000D01*
X79577176Y-140834887D01*
X78489989Y-139747700D01*
X78489989Y-129708480D01*
X80550002Y-131768494D01*
%TA.AperFunction,Conductor*%
D22*
G36*
X80550002Y-131768494D02*
G01*
X80550001Y-140920888D01*
X80415872Y-140865330D01*
X80087435Y-140800000D01*
X79752565Y-140800000D01*
X79577176Y-140834887D01*
X78489989Y-139747700D01*
X78489989Y-129708480D01*
X80550002Y-131768494D01*
G37*
%TD.AperFunction*%
D21*
X49343368Y-103153475D02*
X49586589Y-103315990D01*
X49856842Y-103427932D01*
X50143740Y-103485000D01*
X50436260Y-103485000D01*
X50449982Y-103482271D01*
X50946371Y-103978660D01*
X50975657Y-104014345D01*
X51118029Y-104131187D01*
X51193396Y-104171471D01*
X51280460Y-104218008D01*
X51456709Y-104271473D01*
X51640001Y-104289525D01*
X51685936Y-104285001D01*
X52462712Y-104285001D01*
X56565001Y-108387290D01*
X56565000Y-110981654D01*
X56560476Y-111027586D01*
X56565000Y-111073517D01*
X56578529Y-111210877D01*
X56631993Y-111387125D01*
X56718814Y-111549557D01*
X56835656Y-111691930D01*
X56871341Y-111721216D01*
X60550002Y-115399878D01*
X60550001Y-125920888D01*
X60415872Y-125865330D01*
X60087435Y-125800000D01*
X59752565Y-125800000D01*
X59577176Y-125834887D01*
X47685000Y-113942711D01*
X47685000Y-111602681D01*
X48234250Y-111600000D01*
X48393000Y-111441250D01*
X48393000Y-110127000D01*
X48373000Y-110127000D01*
X48373000Y-109873000D01*
X48393000Y-109873000D01*
X48393000Y-108558750D01*
X48647000Y-108558750D01*
X48647000Y-109873000D01*
X48667000Y-109873000D01*
X48667000Y-110127000D01*
X48647000Y-110127000D01*
X48647000Y-111441250D01*
X48805750Y-111600000D01*
X49435000Y-111603072D01*
X49559482Y-111590812D01*
X49679180Y-111554502D01*
X49789494Y-111495537D01*
X49886185Y-111416185D01*
X49965537Y-111319494D01*
X50024502Y-111209180D01*
X50032819Y-111181761D01*
X50617844Y-111181761D01*
X50721454Y-111452807D01*
X51022148Y-111600190D01*
X51345818Y-111686078D01*
X51680023Y-111707171D01*
X52011922Y-111662658D01*
X52328760Y-111554250D01*
X52518546Y-111452807D01*
X52622156Y-111181761D01*
X51620000Y-110179605D01*
X50617844Y-111181761D01*
X50032819Y-111181761D01*
X50060812Y-111089482D01*
X50073072Y-110965000D01*
X50071966Y-110720389D01*
X50167193Y-110898546D01*
X50438239Y-111002156D01*
X51440395Y-110000000D01*
X51799605Y-110000000D01*
X52801761Y-111002156D01*
X53072807Y-110898546D01*
X53220190Y-110597852D01*
X53306078Y-110274182D01*
X53327171Y-109939977D01*
X53282658Y-109608078D01*
X53174250Y-109291240D01*
X53072807Y-109101454D01*
X52801761Y-108997844D01*
X51799605Y-110000000D01*
X51440395Y-110000000D01*
X50438239Y-108997844D01*
X50167193Y-109101454D01*
X50071892Y-109295889D01*
X50073072Y-109035000D01*
X50060812Y-108910518D01*
X50032820Y-108818239D01*
X50617844Y-108818239D01*
X51620000Y-109820395D01*
X52622156Y-108818239D01*
X52518546Y-108547193D01*
X52217852Y-108399810D01*
X51894182Y-108313922D01*
X51559977Y-108292829D01*
X51228078Y-108337342D01*
X50911240Y-108445750D01*
X50721454Y-108547193D01*
X50617844Y-108818239D01*
X50032820Y-108818239D01*
X50024502Y-108790820D01*
X49965537Y-108680506D01*
X49886185Y-108583815D01*
X49789494Y-108504463D01*
X49679180Y-108445498D01*
X49559482Y-108409188D01*
X49435000Y-108396928D01*
X48805750Y-108400000D01*
X48647000Y-108558750D01*
X48393000Y-108558750D01*
X48234250Y-108400000D01*
X47685000Y-108397319D01*
X47685000Y-103488072D01*
X48600000Y-103488072D01*
X48724482Y-103475812D01*
X48844180Y-103439502D01*
X48954494Y-103380537D01*
X49051185Y-103301185D01*
X49130537Y-103204494D01*
X49189502Y-103094180D01*
X49211513Y-103021620D01*
X49343368Y-103153475D01*
%TA.AperFunction,Conductor*%
D22*
G36*
X49343368Y-103153475D02*
G01*
X49586589Y-103315990D01*
X49856842Y-103427932D01*
X50143740Y-103485000D01*
X50436260Y-103485000D01*
X50449982Y-103482271D01*
X50946371Y-103978660D01*
X50975657Y-104014345D01*
X51118029Y-104131187D01*
X51193396Y-104171471D01*
X51280460Y-104218008D01*
X51456709Y-104271473D01*
X51640001Y-104289525D01*
X51685936Y-104285001D01*
X52462712Y-104285001D01*
X56565001Y-108387290D01*
X56565000Y-110981654D01*
X56560476Y-111027586D01*
X56565000Y-111073517D01*
X56578529Y-111210877D01*
X56631993Y-111387125D01*
X56718814Y-111549557D01*
X56835656Y-111691930D01*
X56871341Y-111721216D01*
X60550002Y-115399878D01*
X60550001Y-125920888D01*
X60415872Y-125865330D01*
X60087435Y-125800000D01*
X59752565Y-125800000D01*
X59577176Y-125834887D01*
X47685000Y-113942711D01*
X47685000Y-111602681D01*
X48234250Y-111600000D01*
X48393000Y-111441250D01*
X48393000Y-110127000D01*
X48373000Y-110127000D01*
X48373000Y-109873000D01*
X48393000Y-109873000D01*
X48393000Y-108558750D01*
X48647000Y-108558750D01*
X48647000Y-109873000D01*
X48667000Y-109873000D01*
X48667000Y-110127000D01*
X48647000Y-110127000D01*
X48647000Y-111441250D01*
X48805750Y-111600000D01*
X49435000Y-111603072D01*
X49559482Y-111590812D01*
X49679180Y-111554502D01*
X49789494Y-111495537D01*
X49886185Y-111416185D01*
X49965537Y-111319494D01*
X50024502Y-111209180D01*
X50032819Y-111181761D01*
X50617844Y-111181761D01*
X50721454Y-111452807D01*
X51022148Y-111600190D01*
X51345818Y-111686078D01*
X51680023Y-111707171D01*
X52011922Y-111662658D01*
X52328760Y-111554250D01*
X52518546Y-111452807D01*
X52622156Y-111181761D01*
X51620000Y-110179605D01*
X50617844Y-111181761D01*
X50032819Y-111181761D01*
X50060812Y-111089482D01*
X50073072Y-110965000D01*
X50071966Y-110720389D01*
X50167193Y-110898546D01*
X50438239Y-111002156D01*
X51440395Y-110000000D01*
X51799605Y-110000000D01*
X52801761Y-111002156D01*
X53072807Y-110898546D01*
X53220190Y-110597852D01*
X53306078Y-110274182D01*
X53327171Y-109939977D01*
X53282658Y-109608078D01*
X53174250Y-109291240D01*
X53072807Y-109101454D01*
X52801761Y-108997844D01*
X51799605Y-110000000D01*
X51440395Y-110000000D01*
X50438239Y-108997844D01*
X50167193Y-109101454D01*
X50071892Y-109295889D01*
X50073072Y-109035000D01*
X50060812Y-108910518D01*
X50032820Y-108818239D01*
X50617844Y-108818239D01*
X51620000Y-109820395D01*
X52622156Y-108818239D01*
X52518546Y-108547193D01*
X52217852Y-108399810D01*
X51894182Y-108313922D01*
X51559977Y-108292829D01*
X51228078Y-108337342D01*
X50911240Y-108445750D01*
X50721454Y-108547193D01*
X50617844Y-108818239D01*
X50032820Y-108818239D01*
X50024502Y-108790820D01*
X49965537Y-108680506D01*
X49886185Y-108583815D01*
X49789494Y-108504463D01*
X49679180Y-108445498D01*
X49559482Y-108409188D01*
X49435000Y-108396928D01*
X48805750Y-108400000D01*
X48647000Y-108558750D01*
X48393000Y-108558750D01*
X48234250Y-108400000D01*
X47685000Y-108397319D01*
X47685000Y-103488072D01*
X48600000Y-103488072D01*
X48724482Y-103475812D01*
X48844180Y-103439502D01*
X48954494Y-103380537D01*
X49051185Y-103301185D01*
X49130537Y-103204494D01*
X49189502Y-103094180D01*
X49211513Y-103021620D01*
X49343368Y-103153475D01*
G37*
%TD.AperFunction*%
D21*
X69604145Y-87835983D02*
X69432854Y-87887943D01*
X69086276Y-88073193D01*
X68782498Y-88322497D01*
X68533193Y-88626275D01*
X68347943Y-88972853D01*
X68233867Y-89348912D01*
X68205000Y-89642002D01*
X68205000Y-90357997D01*
X68233867Y-90651087D01*
X68347943Y-91027146D01*
X68533193Y-91373725D01*
X68782497Y-91677503D01*
X69086275Y-91926807D01*
X69432853Y-92112057D01*
X69808912Y-92226133D01*
X70200000Y-92264652D01*
X70591087Y-92226133D01*
X70967146Y-92112057D01*
X71313725Y-91926807D01*
X71617503Y-91677503D01*
X71866807Y-91373725D01*
X72052057Y-91027147D01*
X72166133Y-90651088D01*
X72188828Y-90420666D01*
X74065000Y-92296838D01*
X74065001Y-96278618D01*
X74021495Y-96307688D01*
X73983880Y-96345303D01*
X73930537Y-96245506D01*
X73851185Y-96148815D01*
X73754494Y-96069463D01*
X73644180Y-96010498D01*
X73524482Y-95974188D01*
X73400000Y-95961928D01*
X71600000Y-95961928D01*
X71475518Y-95974188D01*
X71355820Y-96010498D01*
X71245506Y-96069463D01*
X71148815Y-96148815D01*
X71069463Y-96245506D01*
X71010498Y-96355820D01*
X70974188Y-96475518D01*
X70961928Y-96600000D01*
X70961928Y-98400000D01*
X70974188Y-98524482D01*
X71010498Y-98644180D01*
X71069463Y-98754494D01*
X71148815Y-98851185D01*
X71245506Y-98930537D01*
X71355820Y-98989502D01*
X71475518Y-99025812D01*
X71600000Y-99038072D01*
X72715782Y-99038072D01*
X73206375Y-99528665D01*
X73235657Y-99564345D01*
X73378029Y-99681187D01*
X73540461Y-99768008D01*
X73663244Y-99805254D01*
X73716708Y-99821472D01*
X73900000Y-99839525D01*
X73945932Y-99835001D01*
X75012714Y-99835001D01*
X75130672Y-99952959D01*
X75105820Y-99960498D01*
X74995506Y-100019463D01*
X74898815Y-100098815D01*
X74819463Y-100195506D01*
X74760498Y-100305820D01*
X74724188Y-100425518D01*
X74711928Y-100550000D01*
X74711928Y-101450000D01*
X74724188Y-101574482D01*
X74760498Y-101694180D01*
X74819463Y-101804494D01*
X74898815Y-101901185D01*
X74995506Y-101980537D01*
X75011607Y-101989143D01*
X74927000Y-102073750D01*
X74927000Y-102873000D01*
X74947000Y-102873000D01*
X74947000Y-103127000D01*
X74927000Y-103127000D01*
X74927000Y-103926250D01*
X75085750Y-104085000D01*
X75200000Y-104088072D01*
X75324482Y-104075812D01*
X75444180Y-104039502D01*
X75554494Y-103980537D01*
X75651185Y-103901185D01*
X75730537Y-103804494D01*
X75750000Y-103768082D01*
X75769463Y-103804494D01*
X75848815Y-103901185D01*
X75945506Y-103980537D01*
X76055820Y-104039502D01*
X76175518Y-104075812D01*
X76300000Y-104088072D01*
X77100000Y-104088072D01*
X77224482Y-104075812D01*
X77344180Y-104039502D01*
X77454494Y-103980537D01*
X77551185Y-103901185D01*
X77630537Y-103804494D01*
X77689502Y-103694180D01*
X77716235Y-103606054D01*
X77990000Y-103332289D01*
X77990000Y-103377002D01*
X78148748Y-103377002D01*
X77990000Y-103535750D01*
X77986928Y-103975000D01*
X77999188Y-104099482D01*
X78035498Y-104219180D01*
X78094463Y-104329494D01*
X78173815Y-104426185D01*
X78270506Y-104505537D01*
X78380820Y-104564502D01*
X78500518Y-104600812D01*
X78625000Y-104613072D01*
X78926750Y-104610000D01*
X79085500Y-104451250D01*
X79085500Y-103377000D01*
X79065500Y-103377000D01*
X79065500Y-103123000D01*
X79085500Y-103123000D01*
X79085500Y-103103000D01*
X79339500Y-103103000D01*
X79339500Y-103123000D01*
X79359500Y-103123000D01*
X79359500Y-103377000D01*
X79339500Y-103377000D01*
X79339500Y-104451250D01*
X79498250Y-104610000D01*
X79800000Y-104613072D01*
X79924482Y-104600812D01*
X80044180Y-104564502D01*
X80154494Y-104505537D01*
X80251185Y-104426185D01*
X80316658Y-104346406D01*
X80322038Y-104352962D01*
X80456614Y-104463405D01*
X80610150Y-104545472D01*
X80776746Y-104596008D01*
X80950000Y-104613072D01*
X81328283Y-104613072D01*
X82065001Y-105349790D01*
X82065001Y-105520299D01*
X82025518Y-105524188D01*
X81905820Y-105560498D01*
X81795506Y-105619463D01*
X81698815Y-105698815D01*
X81619463Y-105795506D01*
X81560498Y-105905820D01*
X81524188Y-106025518D01*
X81511928Y-106150000D01*
X81511928Y-107850000D01*
X81524188Y-107974482D01*
X81560498Y-108094180D01*
X81619463Y-108204494D01*
X81698815Y-108301185D01*
X81795506Y-108380537D01*
X81905820Y-108439502D01*
X81978380Y-108461513D01*
X81846525Y-108593368D01*
X81684010Y-108836589D01*
X81638260Y-108947040D01*
X81466807Y-108626275D01*
X81217503Y-108322497D01*
X80913725Y-108073193D01*
X80567147Y-107887943D01*
X80191088Y-107773867D01*
X79800000Y-107735348D01*
X79408913Y-107773867D01*
X79032854Y-107887943D01*
X78686276Y-108073193D01*
X78382498Y-108322497D01*
X78133193Y-108626275D01*
X77947943Y-108972853D01*
X77833867Y-109348912D01*
X77805000Y-109642002D01*
X77805000Y-110357997D01*
X77833867Y-110651087D01*
X77947943Y-111027146D01*
X78133193Y-111373725D01*
X78382497Y-111677503D01*
X78686275Y-111926807D01*
X79032853Y-112112057D01*
X79408912Y-112226133D01*
X79800000Y-112264652D01*
X79912588Y-112253563D01*
X79914990Y-112277951D01*
X79914989Y-115834724D01*
X78894424Y-116855289D01*
X78860299Y-116772905D01*
X78692312Y-116521495D01*
X78478505Y-116307688D01*
X78435000Y-116278619D01*
X78435000Y-114455481D01*
X78439524Y-114409549D01*
X78421471Y-114226257D01*
X78397340Y-114146709D01*
X78368007Y-114050009D01*
X78281186Y-113887577D01*
X78164344Y-113745205D01*
X78128659Y-113715919D01*
X71664071Y-107251331D01*
X71634785Y-107215646D01*
X71492413Y-107098804D01*
X71329981Y-107011983D01*
X71153733Y-106958519D01*
X71016373Y-106944990D01*
X70970441Y-106940466D01*
X70924509Y-106944990D01*
X62085942Y-106944990D01*
X62040010Y-106940466D01*
X61994078Y-106944990D01*
X61856718Y-106958519D01*
X61680470Y-107011983D01*
X61518038Y-107098804D01*
X61375666Y-107215646D01*
X61346380Y-107251331D01*
X60262824Y-108334887D01*
X60087435Y-108300000D01*
X59752565Y-108300000D01*
X59424128Y-108365330D01*
X59289999Y-108420888D01*
X59289999Y-106480292D01*
X62320291Y-103450000D01*
X73761928Y-103450000D01*
X73774188Y-103574482D01*
X73810498Y-103694180D01*
X73869463Y-103804494D01*
X73948815Y-103901185D01*
X74045506Y-103980537D01*
X74155820Y-104039502D01*
X74275518Y-104075812D01*
X74400000Y-104088072D01*
X74514250Y-104085000D01*
X74673000Y-103926250D01*
X74673000Y-103127000D01*
X73923750Y-103127000D01*
X73765000Y-103285750D01*
X73761928Y-103450000D01*
X62320291Y-103450000D01*
X62428661Y-103341630D01*
X62464345Y-103312345D01*
X62581187Y-103169973D01*
X62647488Y-103045931D01*
X62668008Y-103007542D01*
X62721473Y-102831293D01*
X62739525Y-102648001D01*
X62735001Y-102602066D01*
X62735001Y-102550000D01*
X73761928Y-102550000D01*
X73765000Y-102714250D01*
X73923750Y-102873000D01*
X74673000Y-102873000D01*
X74673000Y-102073750D01*
X74514250Y-101915000D01*
X74400000Y-101911928D01*
X74275518Y-101924188D01*
X74155820Y-101960498D01*
X74045506Y-102019463D01*
X73948815Y-102098815D01*
X73869463Y-102195506D01*
X73810498Y-102305820D01*
X73774188Y-102425518D01*
X73761928Y-102550000D01*
X62735001Y-102550000D01*
X62735001Y-94242134D01*
X62739525Y-94196202D01*
X62721472Y-94012910D01*
X62705254Y-93959446D01*
X62668008Y-93836663D01*
X62581187Y-93674231D01*
X62464345Y-93531859D01*
X62428665Y-93502577D01*
X60518322Y-91592234D01*
X60725252Y-91506521D01*
X61003687Y-91320477D01*
X61240477Y-91083687D01*
X61426521Y-90805252D01*
X61554670Y-90495872D01*
X61620000Y-90167435D01*
X61620000Y-89832565D01*
X61554670Y-89504128D01*
X61426521Y-89194748D01*
X61240477Y-88916313D01*
X61003687Y-88679523D01*
X60855000Y-88580174D01*
X60855000Y-79086838D01*
X69604145Y-87835983D01*
%TA.AperFunction,Conductor*%
D22*
G36*
X69604145Y-87835983D02*
G01*
X69432854Y-87887943D01*
X69086276Y-88073193D01*
X68782498Y-88322497D01*
X68533193Y-88626275D01*
X68347943Y-88972853D01*
X68233867Y-89348912D01*
X68205000Y-89642002D01*
X68205000Y-90357997D01*
X68233867Y-90651087D01*
X68347943Y-91027146D01*
X68533193Y-91373725D01*
X68782497Y-91677503D01*
X69086275Y-91926807D01*
X69432853Y-92112057D01*
X69808912Y-92226133D01*
X70200000Y-92264652D01*
X70591087Y-92226133D01*
X70967146Y-92112057D01*
X71313725Y-91926807D01*
X71617503Y-91677503D01*
X71866807Y-91373725D01*
X72052057Y-91027147D01*
X72166133Y-90651088D01*
X72188828Y-90420666D01*
X74065000Y-92296838D01*
X74065001Y-96278618D01*
X74021495Y-96307688D01*
X73983880Y-96345303D01*
X73930537Y-96245506D01*
X73851185Y-96148815D01*
X73754494Y-96069463D01*
X73644180Y-96010498D01*
X73524482Y-95974188D01*
X73400000Y-95961928D01*
X71600000Y-95961928D01*
X71475518Y-95974188D01*
X71355820Y-96010498D01*
X71245506Y-96069463D01*
X71148815Y-96148815D01*
X71069463Y-96245506D01*
X71010498Y-96355820D01*
X70974188Y-96475518D01*
X70961928Y-96600000D01*
X70961928Y-98400000D01*
X70974188Y-98524482D01*
X71010498Y-98644180D01*
X71069463Y-98754494D01*
X71148815Y-98851185D01*
X71245506Y-98930537D01*
X71355820Y-98989502D01*
X71475518Y-99025812D01*
X71600000Y-99038072D01*
X72715782Y-99038072D01*
X73206375Y-99528665D01*
X73235657Y-99564345D01*
X73378029Y-99681187D01*
X73540461Y-99768008D01*
X73663244Y-99805254D01*
X73716708Y-99821472D01*
X73900000Y-99839525D01*
X73945932Y-99835001D01*
X75012714Y-99835001D01*
X75130672Y-99952959D01*
X75105820Y-99960498D01*
X74995506Y-100019463D01*
X74898815Y-100098815D01*
X74819463Y-100195506D01*
X74760498Y-100305820D01*
X74724188Y-100425518D01*
X74711928Y-100550000D01*
X74711928Y-101450000D01*
X74724188Y-101574482D01*
X74760498Y-101694180D01*
X74819463Y-101804494D01*
X74898815Y-101901185D01*
X74995506Y-101980537D01*
X75011607Y-101989143D01*
X74927000Y-102073750D01*
X74927000Y-102873000D01*
X74947000Y-102873000D01*
X74947000Y-103127000D01*
X74927000Y-103127000D01*
X74927000Y-103926250D01*
X75085750Y-104085000D01*
X75200000Y-104088072D01*
X75324482Y-104075812D01*
X75444180Y-104039502D01*
X75554494Y-103980537D01*
X75651185Y-103901185D01*
X75730537Y-103804494D01*
X75750000Y-103768082D01*
X75769463Y-103804494D01*
X75848815Y-103901185D01*
X75945506Y-103980537D01*
X76055820Y-104039502D01*
X76175518Y-104075812D01*
X76300000Y-104088072D01*
X77100000Y-104088072D01*
X77224482Y-104075812D01*
X77344180Y-104039502D01*
X77454494Y-103980537D01*
X77551185Y-103901185D01*
X77630537Y-103804494D01*
X77689502Y-103694180D01*
X77716235Y-103606054D01*
X77990000Y-103332289D01*
X77990000Y-103377002D01*
X78148748Y-103377002D01*
X77990000Y-103535750D01*
X77986928Y-103975000D01*
X77999188Y-104099482D01*
X78035498Y-104219180D01*
X78094463Y-104329494D01*
X78173815Y-104426185D01*
X78270506Y-104505537D01*
X78380820Y-104564502D01*
X78500518Y-104600812D01*
X78625000Y-104613072D01*
X78926750Y-104610000D01*
X79085500Y-104451250D01*
X79085500Y-103377000D01*
X79065500Y-103377000D01*
X79065500Y-103123000D01*
X79085500Y-103123000D01*
X79085500Y-103103000D01*
X79339500Y-103103000D01*
X79339500Y-103123000D01*
X79359500Y-103123000D01*
X79359500Y-103377000D01*
X79339500Y-103377000D01*
X79339500Y-104451250D01*
X79498250Y-104610000D01*
X79800000Y-104613072D01*
X79924482Y-104600812D01*
X80044180Y-104564502D01*
X80154494Y-104505537D01*
X80251185Y-104426185D01*
X80316658Y-104346406D01*
X80322038Y-104352962D01*
X80456614Y-104463405D01*
X80610150Y-104545472D01*
X80776746Y-104596008D01*
X80950000Y-104613072D01*
X81328283Y-104613072D01*
X82065001Y-105349790D01*
X82065001Y-105520299D01*
X82025518Y-105524188D01*
X81905820Y-105560498D01*
X81795506Y-105619463D01*
X81698815Y-105698815D01*
X81619463Y-105795506D01*
X81560498Y-105905820D01*
X81524188Y-106025518D01*
X81511928Y-106150000D01*
X81511928Y-107850000D01*
X81524188Y-107974482D01*
X81560498Y-108094180D01*
X81619463Y-108204494D01*
X81698815Y-108301185D01*
X81795506Y-108380537D01*
X81905820Y-108439502D01*
X81978380Y-108461513D01*
X81846525Y-108593368D01*
X81684010Y-108836589D01*
X81638260Y-108947040D01*
X81466807Y-108626275D01*
X81217503Y-108322497D01*
X80913725Y-108073193D01*
X80567147Y-107887943D01*
X80191088Y-107773867D01*
X79800000Y-107735348D01*
X79408913Y-107773867D01*
X79032854Y-107887943D01*
X78686276Y-108073193D01*
X78382498Y-108322497D01*
X78133193Y-108626275D01*
X77947943Y-108972853D01*
X77833867Y-109348912D01*
X77805000Y-109642002D01*
X77805000Y-110357997D01*
X77833867Y-110651087D01*
X77947943Y-111027146D01*
X78133193Y-111373725D01*
X78382497Y-111677503D01*
X78686275Y-111926807D01*
X79032853Y-112112057D01*
X79408912Y-112226133D01*
X79800000Y-112264652D01*
X79912588Y-112253563D01*
X79914990Y-112277951D01*
X79914989Y-115834724D01*
X78894424Y-116855289D01*
X78860299Y-116772905D01*
X78692312Y-116521495D01*
X78478505Y-116307688D01*
X78435000Y-116278619D01*
X78435000Y-114455481D01*
X78439524Y-114409549D01*
X78421471Y-114226257D01*
X78397340Y-114146709D01*
X78368007Y-114050009D01*
X78281186Y-113887577D01*
X78164344Y-113745205D01*
X78128659Y-113715919D01*
X71664071Y-107251331D01*
X71634785Y-107215646D01*
X71492413Y-107098804D01*
X71329981Y-107011983D01*
X71153733Y-106958519D01*
X71016373Y-106944990D01*
X70970441Y-106940466D01*
X70924509Y-106944990D01*
X62085942Y-106944990D01*
X62040010Y-106940466D01*
X61994078Y-106944990D01*
X61856718Y-106958519D01*
X61680470Y-107011983D01*
X61518038Y-107098804D01*
X61375666Y-107215646D01*
X61346380Y-107251331D01*
X60262824Y-108334887D01*
X60087435Y-108300000D01*
X59752565Y-108300000D01*
X59424128Y-108365330D01*
X59289999Y-108420888D01*
X59289999Y-106480292D01*
X62320291Y-103450000D01*
X73761928Y-103450000D01*
X73774188Y-103574482D01*
X73810498Y-103694180D01*
X73869463Y-103804494D01*
X73948815Y-103901185D01*
X74045506Y-103980537D01*
X74155820Y-104039502D01*
X74275518Y-104075812D01*
X74400000Y-104088072D01*
X74514250Y-104085000D01*
X74673000Y-103926250D01*
X74673000Y-103127000D01*
X73923750Y-103127000D01*
X73765000Y-103285750D01*
X73761928Y-103450000D01*
X62320291Y-103450000D01*
X62428661Y-103341630D01*
X62464345Y-103312345D01*
X62581187Y-103169973D01*
X62647488Y-103045931D01*
X62668008Y-103007542D01*
X62721473Y-102831293D01*
X62739525Y-102648001D01*
X62735001Y-102602066D01*
X62735001Y-102550000D01*
X73761928Y-102550000D01*
X73765000Y-102714250D01*
X73923750Y-102873000D01*
X74673000Y-102873000D01*
X74673000Y-102073750D01*
X74514250Y-101915000D01*
X74400000Y-101911928D01*
X74275518Y-101924188D01*
X74155820Y-101960498D01*
X74045506Y-102019463D01*
X73948815Y-102098815D01*
X73869463Y-102195506D01*
X73810498Y-102305820D01*
X73774188Y-102425518D01*
X73761928Y-102550000D01*
X62735001Y-102550000D01*
X62735001Y-94242134D01*
X62739525Y-94196202D01*
X62721472Y-94012910D01*
X62705254Y-93959446D01*
X62668008Y-93836663D01*
X62581187Y-93674231D01*
X62464345Y-93531859D01*
X62428665Y-93502577D01*
X60518322Y-91592234D01*
X60725252Y-91506521D01*
X61003687Y-91320477D01*
X61240477Y-91083687D01*
X61426521Y-90805252D01*
X61554670Y-90495872D01*
X61620000Y-90167435D01*
X61620000Y-89832565D01*
X61554670Y-89504128D01*
X61426521Y-89194748D01*
X61240477Y-88916313D01*
X61003687Y-88679523D01*
X60855000Y-88580174D01*
X60855000Y-79086838D01*
X69604145Y-87835983D01*
G37*
%TD.AperFunction*%
D21*
X68347943Y-108972853D02*
X68233867Y-109348912D01*
X68205000Y-109642002D01*
X68205000Y-110357997D01*
X68233867Y-110651087D01*
X68347943Y-111027146D01*
X68432323Y-111185010D01*
X61139154Y-111185010D01*
X61240477Y-111083687D01*
X61426521Y-110805252D01*
X61554670Y-110495872D01*
X61620000Y-110167435D01*
X61620000Y-109832565D01*
X61585113Y-109657176D01*
X62427299Y-108814990D01*
X68432323Y-108814990D01*
X68347943Y-108972853D01*
%TA.AperFunction,Conductor*%
D22*
G36*
X68347943Y-108972853D02*
G01*
X68233867Y-109348912D01*
X68205000Y-109642002D01*
X68205000Y-110357997D01*
X68233867Y-110651087D01*
X68347943Y-111027146D01*
X68432323Y-111185010D01*
X61139154Y-111185010D01*
X61240477Y-111083687D01*
X61426521Y-110805252D01*
X61554670Y-110495872D01*
X61620000Y-110167435D01*
X61620000Y-109832565D01*
X61585113Y-109657176D01*
X62427299Y-108814990D01*
X68432323Y-108814990D01*
X68347943Y-108972853D01*
G37*
%TD.AperFunction*%
D21*
X64065000Y-62296838D02*
X64065001Y-66278618D01*
X64021495Y-66307688D01*
X63983880Y-66345303D01*
X63930537Y-66245506D01*
X63851185Y-66148815D01*
X63754494Y-66069463D01*
X63644180Y-66010498D01*
X63524482Y-65974188D01*
X63400000Y-65961928D01*
X62785750Y-65965000D01*
X62627000Y-66123750D01*
X62627000Y-67373000D01*
X62647000Y-67373000D01*
X62647000Y-67627000D01*
X62627000Y-67627000D01*
X62627000Y-68876250D01*
X62785750Y-69035000D01*
X63400000Y-69038072D01*
X63524482Y-69025812D01*
X63644180Y-68989502D01*
X63754494Y-68930537D01*
X63851185Y-68851185D01*
X63930537Y-68754494D01*
X63983880Y-68654697D01*
X64021495Y-68692312D01*
X64272905Y-68860299D01*
X64552257Y-68976011D01*
X64848816Y-69035000D01*
X65151184Y-69035000D01*
X65447743Y-68976011D01*
X65727095Y-68860299D01*
X65978505Y-68692312D01*
X66192312Y-68478505D01*
X66250000Y-68392169D01*
X66307688Y-68478505D01*
X66521495Y-68692312D01*
X66565001Y-68721382D01*
X66565000Y-76036070D01*
X66560476Y-76082002D01*
X66565000Y-76127933D01*
X66578529Y-76265293D01*
X66631993Y-76441541D01*
X66718814Y-76603973D01*
X66835656Y-76746346D01*
X66871341Y-76775632D01*
X68782998Y-78687289D01*
X68782999Y-80122058D01*
X68778474Y-80168000D01*
X68796527Y-80351291D01*
X68837315Y-80485750D01*
X68849992Y-80527540D01*
X68936813Y-80689972D01*
X69053655Y-80832344D01*
X69089334Y-80861625D01*
X76565000Y-88337291D01*
X76565001Y-96278618D01*
X76521495Y-96307688D01*
X76307688Y-96521495D01*
X76250000Y-96607831D01*
X76192312Y-96521495D01*
X75978505Y-96307688D01*
X75935000Y-96278619D01*
X75935000Y-91955481D01*
X75939524Y-91909549D01*
X75921471Y-91726257D01*
X75906682Y-91677503D01*
X75868007Y-91550009D01*
X75781186Y-91387577D01*
X75664344Y-91245205D01*
X75628660Y-91215920D01*
X62034999Y-77622259D01*
X62034999Y-69035896D01*
X62214250Y-69035000D01*
X62373000Y-68876250D01*
X62373000Y-67627000D01*
X62353000Y-67627000D01*
X62353000Y-67373000D01*
X62373000Y-67373000D01*
X62373000Y-66123750D01*
X62214250Y-65965000D01*
X62034999Y-65964104D01*
X62034999Y-64685931D01*
X62039523Y-64639999D01*
X62021470Y-64456707D01*
X61968006Y-64280460D01*
X61968006Y-64280459D01*
X61881185Y-64118027D01*
X61764343Y-63975655D01*
X61728659Y-63946370D01*
X60030219Y-62247930D01*
X60200000Y-62264652D01*
X60591087Y-62226133D01*
X60967146Y-62112057D01*
X61313725Y-61926807D01*
X61617503Y-61677503D01*
X61866807Y-61373725D01*
X62052057Y-61027147D01*
X62166133Y-60651088D01*
X62188828Y-60420666D01*
X64065000Y-62296838D01*
%TA.AperFunction,Conductor*%
D22*
G36*
X64065000Y-62296838D02*
G01*
X64065001Y-66278618D01*
X64021495Y-66307688D01*
X63983880Y-66345303D01*
X63930537Y-66245506D01*
X63851185Y-66148815D01*
X63754494Y-66069463D01*
X63644180Y-66010498D01*
X63524482Y-65974188D01*
X63400000Y-65961928D01*
X62785750Y-65965000D01*
X62627000Y-66123750D01*
X62627000Y-67373000D01*
X62647000Y-67373000D01*
X62647000Y-67627000D01*
X62627000Y-67627000D01*
X62627000Y-68876250D01*
X62785750Y-69035000D01*
X63400000Y-69038072D01*
X63524482Y-69025812D01*
X63644180Y-68989502D01*
X63754494Y-68930537D01*
X63851185Y-68851185D01*
X63930537Y-68754494D01*
X63983880Y-68654697D01*
X64021495Y-68692312D01*
X64272905Y-68860299D01*
X64552257Y-68976011D01*
X64848816Y-69035000D01*
X65151184Y-69035000D01*
X65447743Y-68976011D01*
X65727095Y-68860299D01*
X65978505Y-68692312D01*
X66192312Y-68478505D01*
X66250000Y-68392169D01*
X66307688Y-68478505D01*
X66521495Y-68692312D01*
X66565001Y-68721382D01*
X66565000Y-76036070D01*
X66560476Y-76082002D01*
X66565000Y-76127933D01*
X66578529Y-76265293D01*
X66631993Y-76441541D01*
X66718814Y-76603973D01*
X66835656Y-76746346D01*
X66871341Y-76775632D01*
X68782998Y-78687289D01*
X68782999Y-80122058D01*
X68778474Y-80168000D01*
X68796527Y-80351291D01*
X68837315Y-80485750D01*
X68849992Y-80527540D01*
X68936813Y-80689972D01*
X69053655Y-80832344D01*
X69089334Y-80861625D01*
X76565000Y-88337291D01*
X76565001Y-96278618D01*
X76521495Y-96307688D01*
X76307688Y-96521495D01*
X76250000Y-96607831D01*
X76192312Y-96521495D01*
X75978505Y-96307688D01*
X75935000Y-96278619D01*
X75935000Y-91955481D01*
X75939524Y-91909549D01*
X75921471Y-91726257D01*
X75906682Y-91677503D01*
X75868007Y-91550009D01*
X75781186Y-91387577D01*
X75664344Y-91245205D01*
X75628660Y-91215920D01*
X62034999Y-77622259D01*
X62034999Y-69035896D01*
X62214250Y-69035000D01*
X62373000Y-68876250D01*
X62373000Y-67627000D01*
X62353000Y-67627000D01*
X62353000Y-67373000D01*
X62373000Y-67373000D01*
X62373000Y-66123750D01*
X62214250Y-65965000D01*
X62034999Y-65964104D01*
X62034999Y-64685931D01*
X62039523Y-64639999D01*
X62021470Y-64456707D01*
X61968006Y-64280460D01*
X61968006Y-64280459D01*
X61881185Y-64118027D01*
X61764343Y-63975655D01*
X61728659Y-63946370D01*
X60030219Y-62247930D01*
X60200000Y-62264652D01*
X60591087Y-62226133D01*
X60967146Y-62112057D01*
X61313725Y-61926807D01*
X61617503Y-61677503D01*
X61866807Y-61373725D01*
X62052057Y-61027147D01*
X62166133Y-60651088D01*
X62188828Y-60420666D01*
X64065000Y-62296838D01*
G37*
%TD.AperFunction*%
D21*
X72411928Y-79361905D02*
X72401185Y-79348815D01*
X72304494Y-79269463D01*
X72268082Y-79250000D01*
X72304494Y-79230537D01*
X72401185Y-79151185D01*
X72411928Y-79138095D01*
X72411928Y-79361905D01*
%TA.AperFunction,Conductor*%
D22*
G36*
X72411928Y-79361905D02*
G01*
X72401185Y-79348815D01*
X72304494Y-79269463D01*
X72268082Y-79250000D01*
X72304494Y-79230537D01*
X72401185Y-79151185D01*
X72411928Y-79138095D01*
X72411928Y-79361905D01*
G37*
%TD.AperFunction*%
D21*
X59604145Y-57835983D02*
X59432854Y-57887943D01*
X59086276Y-58073193D01*
X58782498Y-58322497D01*
X58533193Y-58626275D01*
X58347943Y-58972853D01*
X58233867Y-59348912D01*
X58205000Y-59642002D01*
X58205000Y-60357997D01*
X58212070Y-60429781D01*
X48482271Y-50699982D01*
X48485000Y-50686260D01*
X48485000Y-50393740D01*
X48427932Y-50106842D01*
X48315990Y-49836589D01*
X48153475Y-49593368D01*
X48021620Y-49461513D01*
X48094180Y-49439502D01*
X48204494Y-49380537D01*
X48301185Y-49301185D01*
X48380537Y-49204494D01*
X48439502Y-49094180D01*
X48475812Y-48974482D01*
X48479701Y-48935000D01*
X50703162Y-48935000D01*
X59604145Y-57835983D01*
%TA.AperFunction,Conductor*%
D22*
G36*
X59604145Y-57835983D02*
G01*
X59432854Y-57887943D01*
X59086276Y-58073193D01*
X58782498Y-58322497D01*
X58533193Y-58626275D01*
X58347943Y-58972853D01*
X58233867Y-59348912D01*
X58205000Y-59642002D01*
X58205000Y-60357997D01*
X58212070Y-60429781D01*
X48482271Y-50699982D01*
X48485000Y-50686260D01*
X48485000Y-50393740D01*
X48427932Y-50106842D01*
X48315990Y-49836589D01*
X48153475Y-49593368D01*
X48021620Y-49461513D01*
X48094180Y-49439502D01*
X48204494Y-49380537D01*
X48301185Y-49301185D01*
X48380537Y-49204494D01*
X48439502Y-49094180D01*
X48475812Y-48974482D01*
X48479701Y-48935000D01*
X50703162Y-48935000D01*
X59604145Y-57835983D01*
G37*
%TD.AperFunction*%
%TD*%
M02*
