M48
; DRILL file {KiCad 5.1.8} date Sat Dec  5 20:57:22 2020
; FORMAT={-:-/ absolute / inch / decimal}
; #@! TF.CreationDate,2020-12-05T20:57:22+00:00
; #@! TF.GenerationSoftware,Kicad,Pcbnew,5.1.8
; #@! TF.FileFunction,Plated,1,2,PTH
FMAT,2
INCH
T1C0.0157
T2C0.0394
T3C0.0429
T4C0.0433
T5C0.0480
T6C0.0559
T7C0.0563
%
G90
G05
T1
X2.1457Y-2.1457
X2.5492Y-4.3307
X2.5591Y-4.1339
X2.6575Y-4.0354
X2.6575Y-4.1339
X2.7461Y-3.0315
X2.7559Y-4.0354
X2.7559Y-4.1339
X3.1398Y-5.3051
T2
X2.4606Y-2.6575
X2.5591Y-2.6575
X2.6575Y-2.6575
X3.2677Y-4.2126
X3.2677Y-4.3126
X3.2677Y-4.4126
X3.2677Y-4.5126
X3.2677Y-4.6126
X3.2677Y-4.7126
X1.8504Y-1.8898
X1.8504Y-1.9898
X1.8504Y-2.0898
X1.8504Y-2.1898
X1.8504Y-2.2898
X1.8504Y-2.3898
X2.8543Y-3.8386
X2.9528Y-3.8386
X3.0512Y-3.8386
X1.8799Y-4.0157
X1.9799Y-4.0157
X2.0799Y-4.0157
X2.1799Y-4.0157
X2.2799Y-4.0157
X2.3799Y-4.0157
X2.8543Y-4.626
X2.9528Y-4.626
X3.0512Y-4.626
T3
X2.1654Y-5.5102
X2.1654Y-5.6102
X2.1654Y-5.7102
T5
X2.6976Y-5.0197
X2.6976Y-5.6102
X1.9102Y-3.5433
X1.9102Y-4.3307
X1.9102Y-5.0197
T6
X2.8197Y-5.0197
X2.8197Y-5.6102
X2.0323Y-3.5433
X2.0323Y-4.3307
X2.0323Y-5.0197
T7
X2.3591Y-5.0197
X3.1465Y-5.0197
X3.1465Y-5.6102
X2.3591Y-3.5433
X2.3591Y-4.3307
T4
G00X2.7638Y-4.3445
M15
G01X2.7638Y-4.3169
M16
G05
G00X3.1417Y-4.3445
M15
G01X3.1417Y-4.3169
M16
G05
G00X2.3701Y-2.376
M15
G01X2.3701Y-2.3484
M16
G05
G00X2.748Y-2.376
M15
G01X2.748Y-2.3484
M16
G05
G00X2.7638Y-3.5571
M15
G01X2.7638Y-3.5295
M16
G05
G00X3.1417Y-3.5571
M15
G01X3.1417Y-3.5295
M16
G05
T0
M30
