%TF.GenerationSoftware,KiCad,Pcbnew,5.1.8*%
%TF.CreationDate,2020-12-05T20:57:14+00:00*%
%TF.ProjectId,oscillator_prototype,6f736369-6c6c-4617-946f-725f70726f74,rev?*%
%TF.SameCoordinates,Original*%
%TF.FileFunction,Paste,Top*%
%TF.FilePolarity,Positive*%
%FSLAX46Y46*%
G04 Gerber Fmt 4.6, Leading zero omitted, Abs format (unit mm)*
G04 Created by KiCad (PCBNEW 5.1.8) date 2020-12-05 20:57:14*
%MOMM*%
%LPD*%
G01*
G04 APERTURE LIST*
%ADD10R,0.800000X0.900000*%
%ADD11R,0.900000X0.800000*%
G04 APERTURE END LIST*
%TO.C,C8*%
G36*
G01*
X78625000Y-103725000D02*
X78625000Y-102775000D01*
G75*
G02*
X78875000Y-102525000I250000J0D01*
G01*
X79550000Y-102525000D01*
G75*
G02*
X79800000Y-102775000I0J-250000D01*
G01*
X79800000Y-103725000D01*
G75*
G02*
X79550000Y-103975000I-250000J0D01*
G01*
X78875000Y-103975000D01*
G75*
G02*
X78625000Y-103725000I0J250000D01*
G01*
G37*
G36*
G01*
X80700000Y-103725000D02*
X80700000Y-102775000D01*
G75*
G02*
X80950000Y-102525000I250000J0D01*
G01*
X81625000Y-102525000D01*
G75*
G02*
X81875000Y-102775000I0J-250000D01*
G01*
X81875000Y-103725000D01*
G75*
G02*
X81625000Y-103975000I-250000J0D01*
G01*
X80950000Y-103975000D01*
G75*
G02*
X80700000Y-103725000I0J250000D01*
G01*
G37*
%TD*%
%TO.C,C11*%
G36*
G01*
X73525000Y-72375000D02*
X74475000Y-72375000D01*
G75*
G02*
X74725000Y-72625000I0J-250000D01*
G01*
X74725000Y-73300000D01*
G75*
G02*
X74475000Y-73550000I-250000J0D01*
G01*
X73525000Y-73550000D01*
G75*
G02*
X73275000Y-73300000I0J250000D01*
G01*
X73275000Y-72625000D01*
G75*
G02*
X73525000Y-72375000I250000J0D01*
G01*
G37*
G36*
G01*
X73525000Y-74450000D02*
X74475000Y-74450000D01*
G75*
G02*
X74725000Y-74700000I0J-250000D01*
G01*
X74725000Y-75375000D01*
G75*
G02*
X74475000Y-75625000I-250000J0D01*
G01*
X73525000Y-75625000D01*
G75*
G02*
X73275000Y-75375000I0J250000D01*
G01*
X73275000Y-74700000D01*
G75*
G02*
X73525000Y-74450000I250000J0D01*
G01*
G37*
%TD*%
%TO.C,R19*%
G36*
G01*
X70799999Y-72400000D02*
X71700001Y-72400000D01*
G75*
G02*
X71950000Y-72649999I0J-249999D01*
G01*
X71950000Y-73350001D01*
G75*
G02*
X71700001Y-73600000I-249999J0D01*
G01*
X70799999Y-73600000D01*
G75*
G02*
X70550000Y-73350001I0J249999D01*
G01*
X70550000Y-72649999D01*
G75*
G02*
X70799999Y-72400000I249999J0D01*
G01*
G37*
G36*
G01*
X70799999Y-74400000D02*
X71700001Y-74400000D01*
G75*
G02*
X71950000Y-74649999I0J-249999D01*
G01*
X71950000Y-75350001D01*
G75*
G02*
X71700001Y-75600000I-249999J0D01*
G01*
X70799999Y-75600000D01*
G75*
G02*
X70550000Y-75350001I0J249999D01*
G01*
X70550000Y-74649999D01*
G75*
G02*
X70799999Y-74400000I249999J0D01*
G01*
G37*
%TD*%
%TO.C,R24*%
G36*
G01*
X80650000Y-101200001D02*
X80650000Y-100299999D01*
G75*
G02*
X80899999Y-100050000I249999J0D01*
G01*
X81600001Y-100050000D01*
G75*
G02*
X81850000Y-100299999I0J-249999D01*
G01*
X81850000Y-101200001D01*
G75*
G02*
X81600001Y-101450000I-249999J0D01*
G01*
X80899999Y-101450000D01*
G75*
G02*
X80650000Y-101200001I0J249999D01*
G01*
G37*
G36*
G01*
X78650000Y-101200001D02*
X78650000Y-100299999D01*
G75*
G02*
X78899999Y-100050000I249999J0D01*
G01*
X79600001Y-100050000D01*
G75*
G02*
X79850000Y-100299999I0J-249999D01*
G01*
X79850000Y-101200001D01*
G75*
G02*
X79600001Y-101450000I-249999J0D01*
G01*
X78899999Y-101450000D01*
G75*
G02*
X78650000Y-101200001I0J249999D01*
G01*
G37*
%TD*%
D10*
%TO.C,U8*%
X74800000Y-103000000D03*
X76700000Y-103000000D03*
X75750000Y-101000000D03*
%TD*%
D11*
%TO.C,U9*%
X73500000Y-79250000D03*
X71500000Y-80200000D03*
X71500000Y-78300000D03*
%TD*%
M02*
