%TF.GenerationSoftware,KiCad,Pcbnew,5.1.8*%
%TF.CreationDate,2020-12-05T20:57:14+00:00*%
%TF.ProjectId,oscillator_prototype,6f736369-6c6c-4617-946f-725f70726f74,rev?*%
%TF.SameCoordinates,Original*%
%TF.FileFunction,Legend,Bot*%
%TF.FilePolarity,Positive*%
%FSLAX46Y46*%
G04 Gerber Fmt 4.6, Leading zero omitted, Abs format (unit mm)*
G04 Created by KiCad (PCBNEW 5.1.8) date 2020-12-05 20:57:14*
%MOMM*%
%LPD*%
G01*
G04 APERTURE LIST*
%ADD10C,0.120000*%
%ADD11C,0.150000*%
G04 APERTURE END LIST*
D10*
%TO.C,J11*%
X84330000Y-121030000D02*
X81670000Y-121030000D01*
X84330000Y-108270000D02*
X84330000Y-121030000D01*
X81670000Y-108270000D02*
X81670000Y-121030000D01*
X84330000Y-108270000D02*
X81670000Y-108270000D01*
X84330000Y-107000000D02*
X84330000Y-105670000D01*
X84330000Y-105670000D02*
X83000000Y-105670000D01*
%TO.C,J9*%
X61780000Y-100670000D02*
X61780000Y-103330000D01*
X49020000Y-100670000D02*
X61780000Y-100670000D01*
X49020000Y-103330000D02*
X61780000Y-103330000D01*
X49020000Y-100670000D02*
X49020000Y-103330000D01*
X47750000Y-100670000D02*
X46420000Y-100670000D01*
X46420000Y-100670000D02*
X46420000Y-102000000D01*
%TO.C,J13*%
X48330000Y-46670000D02*
X47000000Y-46670000D01*
X48330000Y-48000000D02*
X48330000Y-46670000D01*
X48330000Y-49270000D02*
X45670000Y-49270000D01*
X45670000Y-49270000D02*
X45670000Y-62030000D01*
X48330000Y-49270000D02*
X48330000Y-62030000D01*
X48330000Y-62030000D02*
X45670000Y-62030000D01*
%TO.C,J11*%
D11*
X83809523Y-104122380D02*
X83809523Y-104836666D01*
X83857142Y-104979523D01*
X83952380Y-105074761D01*
X84095238Y-105122380D01*
X84190476Y-105122380D01*
X82809523Y-105122380D02*
X83380952Y-105122380D01*
X83095238Y-105122380D02*
X83095238Y-104122380D01*
X83190476Y-104265238D01*
X83285714Y-104360476D01*
X83380952Y-104408095D01*
X81857142Y-105122380D02*
X82428571Y-105122380D01*
X82142857Y-105122380D02*
X82142857Y-104122380D01*
X82238095Y-104265238D01*
X82333333Y-104360476D01*
X82428571Y-104408095D01*
%TO.C,J9*%
X46452380Y-99166666D02*
X47166666Y-99166666D01*
X47309523Y-99119047D01*
X47404761Y-99023809D01*
X47452380Y-98880952D01*
X47452380Y-98785714D01*
X47452380Y-99690476D02*
X47452380Y-99880952D01*
X47404761Y-99976190D01*
X47357142Y-100023809D01*
X47214285Y-100119047D01*
X47023809Y-100166666D01*
X46642857Y-100166666D01*
X46547619Y-100119047D01*
X46500000Y-100071428D01*
X46452380Y-99976190D01*
X46452380Y-99785714D01*
X46500000Y-99690476D01*
X46547619Y-99642857D01*
X46642857Y-99595238D01*
X46880952Y-99595238D01*
X46976190Y-99642857D01*
X47023809Y-99690476D01*
X47071428Y-99785714D01*
X47071428Y-99976190D01*
X47023809Y-100071428D01*
X46976190Y-100119047D01*
X46880952Y-100166666D01*
%TO.C,J13*%
X47809523Y-45122380D02*
X47809523Y-45836666D01*
X47857142Y-45979523D01*
X47952380Y-46074761D01*
X48095238Y-46122380D01*
X48190476Y-46122380D01*
X46809523Y-46122380D02*
X47380952Y-46122380D01*
X47095238Y-46122380D02*
X47095238Y-45122380D01*
X47190476Y-45265238D01*
X47285714Y-45360476D01*
X47380952Y-45408095D01*
X46476190Y-45122380D02*
X45857142Y-45122380D01*
X46190476Y-45503333D01*
X46047619Y-45503333D01*
X45952380Y-45550952D01*
X45904761Y-45598571D01*
X45857142Y-45693809D01*
X45857142Y-45931904D01*
X45904761Y-46027142D01*
X45952380Y-46074761D01*
X46047619Y-46122380D01*
X46333333Y-46122380D01*
X46428571Y-46074761D01*
X46476190Y-46027142D01*
%TD*%
M02*
