%TF.GenerationSoftware,KiCad,Pcbnew,5.1.8*%
%TF.CreationDate,2020-12-05T20:57:14+00:00*%
%TF.ProjectId,oscillator_prototype,6f736369-6c6c-4617-946f-725f70726f74,rev?*%
%TF.SameCoordinates,Original*%
%TF.FileFunction,Soldermask,Top*%
%TF.FilePolarity,Negative*%
%FSLAX46Y46*%
G04 Gerber Fmt 4.6, Leading zero omitted, Abs format (unit mm)*
G04 Created by KiCad (PCBNEW 5.1.8) date 2020-12-05 20:57:14*
%MOMM*%
%LPD*%
G01*
G04 APERTURE LIST*
%ADD10R,1.700000X1.700000*%
%ADD11O,1.700000X1.700000*%
%ADD12C,2.130000*%
%ADD13R,1.830000X1.930000*%
%ADD14O,2.720000X3.240000*%
%ADD15C,1.800000*%
%ADD16R,1.800000X1.800000*%
%ADD17R,0.800000X0.900000*%
%ADD18R,0.900000X0.800000*%
G04 APERTURE END LIST*
D10*
%TO.C,J11*%
X83000000Y-107000000D03*
D11*
X83000000Y-109540000D03*
X83000000Y-112080000D03*
X83000000Y-114620000D03*
X83000000Y-117160000D03*
X83000000Y-119700000D03*
%TD*%
D12*
%TO.C,J1*%
X79920000Y-127500000D03*
D13*
X68520000Y-127500000D03*
D12*
X71620000Y-127500000D03*
%TD*%
%TO.C,J3*%
X51620000Y-90000000D03*
D13*
X48520000Y-90000000D03*
D12*
X59920000Y-90000000D03*
%TD*%
%TO.C,J4*%
X79920000Y-142500000D03*
D13*
X68520000Y-142500000D03*
D12*
X71620000Y-142500000D03*
%TD*%
%TO.C,J6*%
X51620000Y-127500000D03*
D13*
X48520000Y-127500000D03*
D12*
X59920000Y-127500000D03*
%TD*%
%TO.C,J8*%
X59920000Y-110000000D03*
D13*
X48520000Y-110000000D03*
D12*
X51620000Y-110000000D03*
%TD*%
D14*
%TO.C,RV1*%
X70200000Y-90000000D03*
X79800000Y-90000000D03*
D15*
X77500000Y-97500000D03*
X75000000Y-97500000D03*
D16*
X72500000Y-97500000D03*
%TD*%
%TO.C,RV2*%
X62500000Y-67500000D03*
D15*
X65000000Y-67500000D03*
X67500000Y-67500000D03*
D14*
X69800000Y-60000000D03*
X60200000Y-60000000D03*
%TD*%
D16*
%TO.C,RV7*%
X72500000Y-117500000D03*
D15*
X75000000Y-117500000D03*
X77500000Y-117500000D03*
D14*
X79800000Y-110000000D03*
X70200000Y-110000000D03*
%TD*%
%TO.C,SW1*%
G36*
G01*
X53750000Y-140410000D02*
X53750000Y-139510000D01*
G75*
G02*
X54200000Y-139060000I450000J0D01*
G01*
X55800000Y-139060000D01*
G75*
G02*
X56250000Y-139510000I0J-450000D01*
G01*
X56250000Y-140410000D01*
G75*
G02*
X55800000Y-140860000I-450000J0D01*
G01*
X54200000Y-140860000D01*
G75*
G02*
X53750000Y-140410000I0J450000D01*
G01*
G37*
G36*
G01*
X53750000Y-142950000D02*
X53750000Y-142050000D01*
G75*
G02*
X54200000Y-141600000I450000J0D01*
G01*
X55800000Y-141600000D01*
G75*
G02*
X56250000Y-142050000I0J-450000D01*
G01*
X56250000Y-142950000D01*
G75*
G02*
X55800000Y-143400000I-450000J0D01*
G01*
X54200000Y-143400000D01*
G75*
G02*
X53750000Y-142950000I0J450000D01*
G01*
G37*
G36*
G01*
X53750000Y-145490000D02*
X53750000Y-144590000D01*
G75*
G02*
X54200000Y-144140000I450000J0D01*
G01*
X55800000Y-144140000D01*
G75*
G02*
X56250000Y-144590000I0J-450000D01*
G01*
X56250000Y-145490000D01*
G75*
G02*
X55800000Y-145940000I-450000J0D01*
G01*
X54200000Y-145940000D01*
G75*
G02*
X53750000Y-145490000I0J450000D01*
G01*
G37*
%TD*%
D10*
%TO.C,J9*%
X47750000Y-102000000D03*
D11*
X50290000Y-102000000D03*
X52830000Y-102000000D03*
X55370000Y-102000000D03*
X57910000Y-102000000D03*
X60450000Y-102000000D03*
%TD*%
%TO.C,J13*%
X47000000Y-60700000D03*
X47000000Y-58160000D03*
X47000000Y-55620000D03*
X47000000Y-53080000D03*
X47000000Y-50540000D03*
D10*
X47000000Y-48000000D03*
%TD*%
%TO.C,C8*%
G36*
G01*
X78625000Y-103725000D02*
X78625000Y-102775000D01*
G75*
G02*
X78875000Y-102525000I250000J0D01*
G01*
X79550000Y-102525000D01*
G75*
G02*
X79800000Y-102775000I0J-250000D01*
G01*
X79800000Y-103725000D01*
G75*
G02*
X79550000Y-103975000I-250000J0D01*
G01*
X78875000Y-103975000D01*
G75*
G02*
X78625000Y-103725000I0J250000D01*
G01*
G37*
G36*
G01*
X80700000Y-103725000D02*
X80700000Y-102775000D01*
G75*
G02*
X80950000Y-102525000I250000J0D01*
G01*
X81625000Y-102525000D01*
G75*
G02*
X81875000Y-102775000I0J-250000D01*
G01*
X81875000Y-103725000D01*
G75*
G02*
X81625000Y-103975000I-250000J0D01*
G01*
X80950000Y-103975000D01*
G75*
G02*
X80700000Y-103725000I0J250000D01*
G01*
G37*
%TD*%
%TO.C,C11*%
G36*
G01*
X73525000Y-72375000D02*
X74475000Y-72375000D01*
G75*
G02*
X74725000Y-72625000I0J-250000D01*
G01*
X74725000Y-73300000D01*
G75*
G02*
X74475000Y-73550000I-250000J0D01*
G01*
X73525000Y-73550000D01*
G75*
G02*
X73275000Y-73300000I0J250000D01*
G01*
X73275000Y-72625000D01*
G75*
G02*
X73525000Y-72375000I250000J0D01*
G01*
G37*
G36*
G01*
X73525000Y-74450000D02*
X74475000Y-74450000D01*
G75*
G02*
X74725000Y-74700000I0J-250000D01*
G01*
X74725000Y-75375000D01*
G75*
G02*
X74475000Y-75625000I-250000J0D01*
G01*
X73525000Y-75625000D01*
G75*
G02*
X73275000Y-75375000I0J250000D01*
G01*
X73275000Y-74700000D01*
G75*
G02*
X73525000Y-74450000I250000J0D01*
G01*
G37*
%TD*%
%TO.C,R19*%
G36*
G01*
X70799999Y-72400000D02*
X71700001Y-72400000D01*
G75*
G02*
X71950000Y-72649999I0J-249999D01*
G01*
X71950000Y-73350001D01*
G75*
G02*
X71700001Y-73600000I-249999J0D01*
G01*
X70799999Y-73600000D01*
G75*
G02*
X70550000Y-73350001I0J249999D01*
G01*
X70550000Y-72649999D01*
G75*
G02*
X70799999Y-72400000I249999J0D01*
G01*
G37*
G36*
G01*
X70799999Y-74400000D02*
X71700001Y-74400000D01*
G75*
G02*
X71950000Y-74649999I0J-249999D01*
G01*
X71950000Y-75350001D01*
G75*
G02*
X71700001Y-75600000I-249999J0D01*
G01*
X70799999Y-75600000D01*
G75*
G02*
X70550000Y-75350001I0J249999D01*
G01*
X70550000Y-74649999D01*
G75*
G02*
X70799999Y-74400000I249999J0D01*
G01*
G37*
%TD*%
%TO.C,R24*%
G36*
G01*
X80650000Y-101200001D02*
X80650000Y-100299999D01*
G75*
G02*
X80899999Y-100050000I249999J0D01*
G01*
X81600001Y-100050000D01*
G75*
G02*
X81850000Y-100299999I0J-249999D01*
G01*
X81850000Y-101200001D01*
G75*
G02*
X81600001Y-101450000I-249999J0D01*
G01*
X80899999Y-101450000D01*
G75*
G02*
X80650000Y-101200001I0J249999D01*
G01*
G37*
G36*
G01*
X78650000Y-101200001D02*
X78650000Y-100299999D01*
G75*
G02*
X78899999Y-100050000I249999J0D01*
G01*
X79600001Y-100050000D01*
G75*
G02*
X79850000Y-100299999I0J-249999D01*
G01*
X79850000Y-101200001D01*
G75*
G02*
X79600001Y-101450000I-249999J0D01*
G01*
X78899999Y-101450000D01*
G75*
G02*
X78650000Y-101200001I0J249999D01*
G01*
G37*
%TD*%
D17*
%TO.C,U8*%
X74800000Y-103000000D03*
X76700000Y-103000000D03*
X75750000Y-101000000D03*
%TD*%
D18*
%TO.C,U9*%
X73500000Y-79250000D03*
X71500000Y-80200000D03*
X71500000Y-78300000D03*
%TD*%
M02*
