%TF.GenerationSoftware,KiCad,Pcbnew,5.1.8*%
%TF.CreationDate,2020-12-05T20:57:14+00:00*%
%TF.ProjectId,oscillator_prototype,6f736369-6c6c-4617-946f-725f70726f74,rev?*%
%TF.SameCoordinates,Original*%
%TF.FileFunction,Copper,L2,Bot*%
%TF.FilePolarity,Positive*%
%FSLAX46Y46*%
G04 Gerber Fmt 4.6, Leading zero omitted, Abs format (unit mm)*
G04 Created by KiCad (PCBNEW 5.1.8) date 2020-12-05 20:57:14*
%MOMM*%
%LPD*%
G01*
G04 APERTURE LIST*
%TA.AperFunction,ComponentPad*%
%ADD10R,1.700000X1.700000*%
%TD*%
%TA.AperFunction,ComponentPad*%
%ADD11O,1.700000X1.700000*%
%TD*%
%TA.AperFunction,ComponentPad*%
%ADD12C,2.130000*%
%TD*%
%TA.AperFunction,ComponentPad*%
%ADD13R,1.830000X1.930000*%
%TD*%
%TA.AperFunction,ComponentPad*%
%ADD14O,2.720000X3.240000*%
%TD*%
%TA.AperFunction,ComponentPad*%
%ADD15C,1.800000*%
%TD*%
%TA.AperFunction,ComponentPad*%
%ADD16R,1.800000X1.800000*%
%TD*%
%TA.AperFunction,ViaPad*%
%ADD17C,0.800000*%
%TD*%
%TA.AperFunction,Conductor*%
%ADD18C,0.600000*%
%TD*%
%TA.AperFunction,Conductor*%
%ADD19C,0.254000*%
%TD*%
%TA.AperFunction,Conductor*%
%ADD20C,0.100000*%
%TD*%
G04 APERTURE END LIST*
D10*
%TO.P,J11,1*%
%TO.N,-12V_f*%
X83000000Y-107000000D03*
D11*
%TO.P,J11,2*%
%TO.N,tri_f*%
X83000000Y-109540000D03*
%TO.P,J11,3*%
%TO.N,switch_b_f*%
X83000000Y-112080000D03*
%TO.P,J11,4*%
%TO.N,GND_f*%
X83000000Y-114620000D03*
%TO.P,J11,5*%
X83000000Y-117160000D03*
%TO.P,J11,6*%
%TO.N,saw_f*%
X83000000Y-119700000D03*
%TD*%
D12*
%TO.P,J1,T*%
%TO.N,saw_f*%
X79920000Y-127500000D03*
D13*
%TO.P,J1,S*%
%TO.N,GND_f*%
X68520000Y-127500000D03*
D12*
%TO.P,J1,TN*%
%TO.N,Net-(J1-PadTN)*%
X71620000Y-127500000D03*
%TD*%
%TO.P,J3,TN*%
%TO.N,GND_f*%
X51620000Y-90000000D03*
D13*
%TO.P,J3,S*%
X48520000Y-90000000D03*
D12*
%TO.P,J3,T*%
%TO.N,v_per_oct_f*%
X59920000Y-90000000D03*
%TD*%
%TO.P,J4,T*%
%TO.N,tri_f*%
X79920000Y-142500000D03*
D13*
%TO.P,J4,S*%
%TO.N,GND_f*%
X68520000Y-142500000D03*
D12*
%TO.P,J4,TN*%
%TO.N,Net-(J4-PadTN)*%
X71620000Y-142500000D03*
%TD*%
%TO.P,J6,TN*%
%TO.N,GND_f*%
X51620000Y-127500000D03*
D13*
%TO.P,J6,S*%
X48520000Y-127500000D03*
D12*
%TO.P,J6,T*%
%TO.N,sync_f*%
X59920000Y-127500000D03*
%TD*%
%TO.P,J8,T*%
%TO.N,Net-(J8-PadT)*%
X59920000Y-110000000D03*
D13*
%TO.P,J8,S*%
%TO.N,GND_f*%
X48520000Y-110000000D03*
D12*
%TO.P,J8,TN*%
X51620000Y-110000000D03*
%TD*%
D14*
%TO.P,RV1,*%
%TO.N,*%
X70200000Y-90000000D03*
X79800000Y-90000000D03*
D15*
%TO.P,RV1,3*%
%TO.N,2.5V_f*%
X77500000Y-97500000D03*
%TO.P,RV1,2*%
%TO.N,coarse_f*%
X75000000Y-97500000D03*
D16*
%TO.P,RV1,1*%
%TO.N,-2.5V_f*%
X72500000Y-97500000D03*
%TD*%
%TO.P,RV2,1*%
%TO.N,GND_f*%
X62500000Y-67500000D03*
D15*
%TO.P,RV2,2*%
%TO.N,fine_f*%
X65000000Y-67500000D03*
%TO.P,RV2,3*%
%TO.N,2.5V_f*%
X67500000Y-67500000D03*
D14*
%TO.P,RV2,*%
%TO.N,*%
X69800000Y-60000000D03*
X60200000Y-60000000D03*
%TD*%
D16*
%TO.P,RV7,1*%
%TO.N,GND_f*%
X72500000Y-117500000D03*
D15*
%TO.P,RV7,2*%
%TO.N,lin_fm_f*%
X75000000Y-117500000D03*
%TO.P,RV7,3*%
%TO.N,Net-(J8-PadT)*%
X77500000Y-117500000D03*
D14*
%TO.P,RV7,*%
%TO.N,*%
X79800000Y-110000000D03*
X70200000Y-110000000D03*
%TD*%
%TO.P,SW1,1*%
%TO.N,switch_b_f*%
%TA.AperFunction,ComponentPad*%
G36*
G01*
X53750000Y-140410000D02*
X53750000Y-139510000D01*
G75*
G02*
X54200000Y-139060000I450000J0D01*
G01*
X55800000Y-139060000D01*
G75*
G02*
X56250000Y-139510000I0J-450000D01*
G01*
X56250000Y-140410000D01*
G75*
G02*
X55800000Y-140860000I-450000J0D01*
G01*
X54200000Y-140860000D01*
G75*
G02*
X53750000Y-140410000I0J450000D01*
G01*
G37*
%TD.AperFunction*%
%TO.P,SW1,2*%
%TO.N,switch_a_f*%
%TA.AperFunction,ComponentPad*%
G36*
G01*
X53750000Y-142950000D02*
X53750000Y-142050000D01*
G75*
G02*
X54200000Y-141600000I450000J0D01*
G01*
X55800000Y-141600000D01*
G75*
G02*
X56250000Y-142050000I0J-450000D01*
G01*
X56250000Y-142950000D01*
G75*
G02*
X55800000Y-143400000I-450000J0D01*
G01*
X54200000Y-143400000D01*
G75*
G02*
X53750000Y-142950000I0J450000D01*
G01*
G37*
%TD.AperFunction*%
%TO.P,SW1,3*%
%TO.N,Net-(SW1-Pad3)*%
%TA.AperFunction,ComponentPad*%
G36*
G01*
X53750000Y-145490000D02*
X53750000Y-144590000D01*
G75*
G02*
X54200000Y-144140000I450000J0D01*
G01*
X55800000Y-144140000D01*
G75*
G02*
X56250000Y-144590000I0J-450000D01*
G01*
X56250000Y-145490000D01*
G75*
G02*
X55800000Y-145940000I-450000J0D01*
G01*
X54200000Y-145940000D01*
G75*
G02*
X53750000Y-145490000I0J450000D01*
G01*
G37*
%TD.AperFunction*%
%TD*%
D10*
%TO.P,J9,1*%
%TO.N,sync_f*%
X47750000Y-102000000D03*
D11*
%TO.P,J9,2*%
%TO.N,switch_a_f*%
X50290000Y-102000000D03*
%TO.P,J9,3*%
%TO.N,GND_f*%
X52830000Y-102000000D03*
%TO.P,J9,4*%
X55370000Y-102000000D03*
%TO.P,J9,5*%
X57910000Y-102000000D03*
%TO.P,J9,6*%
%TO.N,12V_f*%
X60450000Y-102000000D03*
%TD*%
%TO.P,J13,6*%
%TO.N,GND_f*%
X47000000Y-60700000D03*
%TO.P,J13,5*%
X47000000Y-58160000D03*
%TO.P,J13,4*%
%TO.N,lin_fm_f*%
X47000000Y-55620000D03*
%TO.P,J13,3*%
%TO.N,v_per_oct_f*%
X47000000Y-53080000D03*
%TO.P,J13,2*%
%TO.N,coarse_f*%
X47000000Y-50540000D03*
D10*
%TO.P,J13,1*%
%TO.N,fine_f*%
X47000000Y-48000000D03*
%TD*%
D17*
%TO.N,GND_f*%
X67500000Y-102500000D03*
X70000000Y-102500000D03*
X67500000Y-105000000D03*
X70000000Y-105000000D03*
X65000000Y-105000000D03*
X64750000Y-110000000D03*
X54500000Y-54500000D03*
X79750000Y-134750000D03*
%TO.N,12V_f*%
X69750000Y-77000000D03*
%TD*%
D18*
%TO.N,12V_f*%
X60450000Y-102000000D02*
X63500000Y-102000000D01*
X63500000Y-102000000D02*
X65000000Y-100500000D01*
X65000000Y-81750000D02*
X69750000Y-77000000D01*
X65000000Y-100500000D02*
X65000000Y-81750000D01*
%TD*%
D19*
%TO.N,GND_f*%
X84873000Y-148123000D02*
X45127000Y-148123000D01*
X45127000Y-139510000D01*
X53111928Y-139510000D01*
X53111928Y-140410000D01*
X53132835Y-140622272D01*
X53194753Y-140826387D01*
X53295301Y-141014500D01*
X53430617Y-141179383D01*
X53492294Y-141230000D01*
X53430617Y-141280617D01*
X53295301Y-141445500D01*
X53194753Y-141633613D01*
X53132835Y-141837728D01*
X53111928Y-142050000D01*
X53111928Y-142950000D01*
X53132835Y-143162272D01*
X53194753Y-143366387D01*
X53295301Y-143554500D01*
X53430617Y-143719383D01*
X53492294Y-143770000D01*
X53430617Y-143820617D01*
X53295301Y-143985500D01*
X53194753Y-144173613D01*
X53132835Y-144377728D01*
X53111928Y-144590000D01*
X53111928Y-145490000D01*
X53132835Y-145702272D01*
X53194753Y-145906387D01*
X53295301Y-146094500D01*
X53430617Y-146259383D01*
X53595500Y-146394699D01*
X53783613Y-146495247D01*
X53987728Y-146557165D01*
X54200000Y-146578072D01*
X55800000Y-146578072D01*
X56012272Y-146557165D01*
X56216387Y-146495247D01*
X56404500Y-146394699D01*
X56569383Y-146259383D01*
X56704699Y-146094500D01*
X56805247Y-145906387D01*
X56867165Y-145702272D01*
X56888072Y-145490000D01*
X56888072Y-144590000D01*
X56867165Y-144377728D01*
X56805247Y-144173613D01*
X56704699Y-143985500D01*
X56569383Y-143820617D01*
X56507706Y-143770000D01*
X56569383Y-143719383D01*
X56704699Y-143554500D01*
X56752537Y-143465000D01*
X66966928Y-143465000D01*
X66979188Y-143589482D01*
X67015498Y-143709180D01*
X67074463Y-143819494D01*
X67153815Y-143916185D01*
X67250506Y-143995537D01*
X67360820Y-144054502D01*
X67480518Y-144090812D01*
X67605000Y-144103072D01*
X68234250Y-144100000D01*
X68393000Y-143941250D01*
X68393000Y-142627000D01*
X67128750Y-142627000D01*
X66970000Y-142785750D01*
X66966928Y-143465000D01*
X56752537Y-143465000D01*
X56805247Y-143366387D01*
X56867165Y-143162272D01*
X56888072Y-142950000D01*
X56888072Y-142050000D01*
X56867165Y-141837728D01*
X56805247Y-141633613D01*
X56752538Y-141535000D01*
X66966928Y-141535000D01*
X66970000Y-142214250D01*
X67128750Y-142373000D01*
X68393000Y-142373000D01*
X68393000Y-141058750D01*
X68647000Y-141058750D01*
X68647000Y-142373000D01*
X68667000Y-142373000D01*
X68667000Y-142627000D01*
X68647000Y-142627000D01*
X68647000Y-143941250D01*
X68805750Y-144100000D01*
X69435000Y-144103072D01*
X69559482Y-144090812D01*
X69679180Y-144054502D01*
X69789494Y-143995537D01*
X69886185Y-143916185D01*
X69965537Y-143819494D01*
X70024502Y-143709180D01*
X70060812Y-143589482D01*
X70073072Y-143465000D01*
X70071895Y-143204860D01*
X70113479Y-143305252D01*
X70299523Y-143583687D01*
X70536313Y-143820477D01*
X70814748Y-144006521D01*
X71124128Y-144134670D01*
X71452565Y-144200000D01*
X71787435Y-144200000D01*
X72115872Y-144134670D01*
X72425252Y-144006521D01*
X72703687Y-143820477D01*
X72940477Y-143583687D01*
X73126521Y-143305252D01*
X73254670Y-142995872D01*
X73320000Y-142667435D01*
X73320000Y-142332565D01*
X78220000Y-142332565D01*
X78220000Y-142667435D01*
X78285330Y-142995872D01*
X78413479Y-143305252D01*
X78599523Y-143583687D01*
X78836313Y-143820477D01*
X79114748Y-144006521D01*
X79424128Y-144134670D01*
X79752565Y-144200000D01*
X80087435Y-144200000D01*
X80415872Y-144134670D01*
X80725252Y-144006521D01*
X81003687Y-143820477D01*
X81240477Y-143583687D01*
X81426521Y-143305252D01*
X81554670Y-142995872D01*
X81620000Y-142667435D01*
X81620000Y-142332565D01*
X81554670Y-142004128D01*
X81426521Y-141694748D01*
X81240477Y-141416313D01*
X81003687Y-141179523D01*
X80725252Y-140993479D01*
X80415872Y-140865330D01*
X80087435Y-140800000D01*
X79752565Y-140800000D01*
X79424128Y-140865330D01*
X79114748Y-140993479D01*
X78836313Y-141179523D01*
X78599523Y-141416313D01*
X78413479Y-141694748D01*
X78285330Y-142004128D01*
X78220000Y-142332565D01*
X73320000Y-142332565D01*
X73254670Y-142004128D01*
X73126521Y-141694748D01*
X72940477Y-141416313D01*
X72703687Y-141179523D01*
X72425252Y-140993479D01*
X72115872Y-140865330D01*
X71787435Y-140800000D01*
X71452565Y-140800000D01*
X71124128Y-140865330D01*
X70814748Y-140993479D01*
X70536313Y-141179523D01*
X70299523Y-141416313D01*
X70113479Y-141694748D01*
X70071895Y-141795140D01*
X70073072Y-141535000D01*
X70060812Y-141410518D01*
X70024502Y-141290820D01*
X69965537Y-141180506D01*
X69886185Y-141083815D01*
X69789494Y-141004463D01*
X69679180Y-140945498D01*
X69559482Y-140909188D01*
X69435000Y-140896928D01*
X68805750Y-140900000D01*
X68647000Y-141058750D01*
X68393000Y-141058750D01*
X68234250Y-140900000D01*
X67605000Y-140896928D01*
X67480518Y-140909188D01*
X67360820Y-140945498D01*
X67250506Y-141004463D01*
X67153815Y-141083815D01*
X67074463Y-141180506D01*
X67015498Y-141290820D01*
X66979188Y-141410518D01*
X66966928Y-141535000D01*
X56752538Y-141535000D01*
X56704699Y-141445500D01*
X56569383Y-141280617D01*
X56507706Y-141230000D01*
X56569383Y-141179383D01*
X56704699Y-141014500D01*
X56805247Y-140826387D01*
X56867165Y-140622272D01*
X56888072Y-140410000D01*
X56888072Y-139510000D01*
X56867165Y-139297728D01*
X56805247Y-139093613D01*
X56704699Y-138905500D01*
X56569383Y-138740617D01*
X56404500Y-138605301D01*
X56216387Y-138504753D01*
X56012272Y-138442835D01*
X55800000Y-138421928D01*
X54200000Y-138421928D01*
X53987728Y-138442835D01*
X53783613Y-138504753D01*
X53595500Y-138605301D01*
X53430617Y-138740617D01*
X53295301Y-138905500D01*
X53194753Y-139093613D01*
X53132835Y-139297728D01*
X53111928Y-139510000D01*
X45127000Y-139510000D01*
X45127000Y-128465000D01*
X46966928Y-128465000D01*
X46979188Y-128589482D01*
X47015498Y-128709180D01*
X47074463Y-128819494D01*
X47153815Y-128916185D01*
X47250506Y-128995537D01*
X47360820Y-129054502D01*
X47480518Y-129090812D01*
X47605000Y-129103072D01*
X48234250Y-129100000D01*
X48393000Y-128941250D01*
X48393000Y-127627000D01*
X47128750Y-127627000D01*
X46970000Y-127785750D01*
X46966928Y-128465000D01*
X45127000Y-128465000D01*
X45127000Y-126535000D01*
X46966928Y-126535000D01*
X46970000Y-127214250D01*
X47128750Y-127373000D01*
X48393000Y-127373000D01*
X48393000Y-126058750D01*
X48647000Y-126058750D01*
X48647000Y-127373000D01*
X48667000Y-127373000D01*
X48667000Y-127627000D01*
X48647000Y-127627000D01*
X48647000Y-128941250D01*
X48805750Y-129100000D01*
X49435000Y-129103072D01*
X49559482Y-129090812D01*
X49679180Y-129054502D01*
X49789494Y-128995537D01*
X49886185Y-128916185D01*
X49965537Y-128819494D01*
X50024502Y-128709180D01*
X50032819Y-128681761D01*
X50617844Y-128681761D01*
X50721454Y-128952807D01*
X51022148Y-129100190D01*
X51345818Y-129186078D01*
X51680023Y-129207171D01*
X52011922Y-129162658D01*
X52328760Y-129054250D01*
X52518546Y-128952807D01*
X52622156Y-128681761D01*
X51620000Y-127679605D01*
X50617844Y-128681761D01*
X50032819Y-128681761D01*
X50060812Y-128589482D01*
X50073072Y-128465000D01*
X50071966Y-128220389D01*
X50167193Y-128398546D01*
X50438239Y-128502156D01*
X51440395Y-127500000D01*
X51799605Y-127500000D01*
X52801761Y-128502156D01*
X53072807Y-128398546D01*
X53220190Y-128097852D01*
X53306078Y-127774182D01*
X53327171Y-127439977D01*
X53312766Y-127332565D01*
X58220000Y-127332565D01*
X58220000Y-127667435D01*
X58285330Y-127995872D01*
X58413479Y-128305252D01*
X58599523Y-128583687D01*
X58836313Y-128820477D01*
X59114748Y-129006521D01*
X59424128Y-129134670D01*
X59752565Y-129200000D01*
X60087435Y-129200000D01*
X60415872Y-129134670D01*
X60725252Y-129006521D01*
X61003687Y-128820477D01*
X61240477Y-128583687D01*
X61319780Y-128465000D01*
X66966928Y-128465000D01*
X66979188Y-128589482D01*
X67015498Y-128709180D01*
X67074463Y-128819494D01*
X67153815Y-128916185D01*
X67250506Y-128995537D01*
X67360820Y-129054502D01*
X67480518Y-129090812D01*
X67605000Y-129103072D01*
X68234250Y-129100000D01*
X68393000Y-128941250D01*
X68393000Y-127627000D01*
X67128750Y-127627000D01*
X66970000Y-127785750D01*
X66966928Y-128465000D01*
X61319780Y-128465000D01*
X61426521Y-128305252D01*
X61554670Y-127995872D01*
X61620000Y-127667435D01*
X61620000Y-127332565D01*
X61554670Y-127004128D01*
X61426521Y-126694748D01*
X61319781Y-126535000D01*
X66966928Y-126535000D01*
X66970000Y-127214250D01*
X67128750Y-127373000D01*
X68393000Y-127373000D01*
X68393000Y-126058750D01*
X68647000Y-126058750D01*
X68647000Y-127373000D01*
X68667000Y-127373000D01*
X68667000Y-127627000D01*
X68647000Y-127627000D01*
X68647000Y-128941250D01*
X68805750Y-129100000D01*
X69435000Y-129103072D01*
X69559482Y-129090812D01*
X69679180Y-129054502D01*
X69789494Y-128995537D01*
X69886185Y-128916185D01*
X69965537Y-128819494D01*
X70024502Y-128709180D01*
X70060812Y-128589482D01*
X70073072Y-128465000D01*
X70071895Y-128204860D01*
X70113479Y-128305252D01*
X70299523Y-128583687D01*
X70536313Y-128820477D01*
X70814748Y-129006521D01*
X71124128Y-129134670D01*
X71452565Y-129200000D01*
X71787435Y-129200000D01*
X72115872Y-129134670D01*
X72425252Y-129006521D01*
X72703687Y-128820477D01*
X72940477Y-128583687D01*
X73126521Y-128305252D01*
X73254670Y-127995872D01*
X73320000Y-127667435D01*
X73320000Y-127332565D01*
X78220000Y-127332565D01*
X78220000Y-127667435D01*
X78285330Y-127995872D01*
X78413479Y-128305252D01*
X78599523Y-128583687D01*
X78836313Y-128820477D01*
X79114748Y-129006521D01*
X79424128Y-129134670D01*
X79752565Y-129200000D01*
X80087435Y-129200000D01*
X80415872Y-129134670D01*
X80725252Y-129006521D01*
X81003687Y-128820477D01*
X81240477Y-128583687D01*
X81426521Y-128305252D01*
X81554670Y-127995872D01*
X81620000Y-127667435D01*
X81620000Y-127332565D01*
X81554670Y-127004128D01*
X81426521Y-126694748D01*
X81240477Y-126416313D01*
X81003687Y-126179523D01*
X80725252Y-125993479D01*
X80415872Y-125865330D01*
X80087435Y-125800000D01*
X79752565Y-125800000D01*
X79424128Y-125865330D01*
X79114748Y-125993479D01*
X78836313Y-126179523D01*
X78599523Y-126416313D01*
X78413479Y-126694748D01*
X78285330Y-127004128D01*
X78220000Y-127332565D01*
X73320000Y-127332565D01*
X73254670Y-127004128D01*
X73126521Y-126694748D01*
X72940477Y-126416313D01*
X72703687Y-126179523D01*
X72425252Y-125993479D01*
X72115872Y-125865330D01*
X71787435Y-125800000D01*
X71452565Y-125800000D01*
X71124128Y-125865330D01*
X70814748Y-125993479D01*
X70536313Y-126179523D01*
X70299523Y-126416313D01*
X70113479Y-126694748D01*
X70071895Y-126795140D01*
X70073072Y-126535000D01*
X70060812Y-126410518D01*
X70024502Y-126290820D01*
X69965537Y-126180506D01*
X69886185Y-126083815D01*
X69789494Y-126004463D01*
X69679180Y-125945498D01*
X69559482Y-125909188D01*
X69435000Y-125896928D01*
X68805750Y-125900000D01*
X68647000Y-126058750D01*
X68393000Y-126058750D01*
X68234250Y-125900000D01*
X67605000Y-125896928D01*
X67480518Y-125909188D01*
X67360820Y-125945498D01*
X67250506Y-126004463D01*
X67153815Y-126083815D01*
X67074463Y-126180506D01*
X67015498Y-126290820D01*
X66979188Y-126410518D01*
X66966928Y-126535000D01*
X61319781Y-126535000D01*
X61240477Y-126416313D01*
X61003687Y-126179523D01*
X60725252Y-125993479D01*
X60415872Y-125865330D01*
X60087435Y-125800000D01*
X59752565Y-125800000D01*
X59424128Y-125865330D01*
X59114748Y-125993479D01*
X58836313Y-126179523D01*
X58599523Y-126416313D01*
X58413479Y-126694748D01*
X58285330Y-127004128D01*
X58220000Y-127332565D01*
X53312766Y-127332565D01*
X53282658Y-127108078D01*
X53174250Y-126791240D01*
X53072807Y-126601454D01*
X52801761Y-126497844D01*
X51799605Y-127500000D01*
X51440395Y-127500000D01*
X50438239Y-126497844D01*
X50167193Y-126601454D01*
X50071892Y-126795889D01*
X50073072Y-126535000D01*
X50060812Y-126410518D01*
X50032820Y-126318239D01*
X50617844Y-126318239D01*
X51620000Y-127320395D01*
X52622156Y-126318239D01*
X52518546Y-126047193D01*
X52217852Y-125899810D01*
X51894182Y-125813922D01*
X51559977Y-125792829D01*
X51228078Y-125837342D01*
X50911240Y-125945750D01*
X50721454Y-126047193D01*
X50617844Y-126318239D01*
X50032820Y-126318239D01*
X50024502Y-126290820D01*
X49965537Y-126180506D01*
X49886185Y-126083815D01*
X49789494Y-126004463D01*
X49679180Y-125945498D01*
X49559482Y-125909188D01*
X49435000Y-125896928D01*
X48805750Y-125900000D01*
X48647000Y-126058750D01*
X48393000Y-126058750D01*
X48234250Y-125900000D01*
X47605000Y-125896928D01*
X47480518Y-125909188D01*
X47360820Y-125945498D01*
X47250506Y-126004463D01*
X47153815Y-126083815D01*
X47074463Y-126180506D01*
X47015498Y-126290820D01*
X46979188Y-126410518D01*
X46966928Y-126535000D01*
X45127000Y-126535000D01*
X45127000Y-119553740D01*
X81515000Y-119553740D01*
X81515000Y-119846260D01*
X81572068Y-120133158D01*
X81684010Y-120403411D01*
X81846525Y-120646632D01*
X82053368Y-120853475D01*
X82296589Y-121015990D01*
X82566842Y-121127932D01*
X82853740Y-121185000D01*
X83146260Y-121185000D01*
X83433158Y-121127932D01*
X83703411Y-121015990D01*
X83946632Y-120853475D01*
X84153475Y-120646632D01*
X84315990Y-120403411D01*
X84427932Y-120133158D01*
X84485000Y-119846260D01*
X84485000Y-119553740D01*
X84427932Y-119266842D01*
X84315990Y-118996589D01*
X84153475Y-118753368D01*
X83946632Y-118546525D01*
X83764466Y-118424805D01*
X83881355Y-118355178D01*
X84097588Y-118160269D01*
X84271641Y-117926920D01*
X84396825Y-117664099D01*
X84441476Y-117516890D01*
X84320155Y-117287000D01*
X83127000Y-117287000D01*
X83127000Y-117307000D01*
X82873000Y-117307000D01*
X82873000Y-117287000D01*
X81679845Y-117287000D01*
X81558524Y-117516890D01*
X81603175Y-117664099D01*
X81728359Y-117926920D01*
X81902412Y-118160269D01*
X82118645Y-118355178D01*
X82235534Y-118424805D01*
X82053368Y-118546525D01*
X81846525Y-118753368D01*
X81684010Y-118996589D01*
X81572068Y-119266842D01*
X81515000Y-119553740D01*
X45127000Y-119553740D01*
X45127000Y-118400000D01*
X70961928Y-118400000D01*
X70974188Y-118524482D01*
X71010498Y-118644180D01*
X71069463Y-118754494D01*
X71148815Y-118851185D01*
X71245506Y-118930537D01*
X71355820Y-118989502D01*
X71475518Y-119025812D01*
X71600000Y-119038072D01*
X72214250Y-119035000D01*
X72373000Y-118876250D01*
X72373000Y-117627000D01*
X71123750Y-117627000D01*
X70965000Y-117785750D01*
X70961928Y-118400000D01*
X45127000Y-118400000D01*
X45127000Y-116600000D01*
X70961928Y-116600000D01*
X70965000Y-117214250D01*
X71123750Y-117373000D01*
X72373000Y-117373000D01*
X72373000Y-116123750D01*
X72627000Y-116123750D01*
X72627000Y-117373000D01*
X72647000Y-117373000D01*
X72647000Y-117627000D01*
X72627000Y-117627000D01*
X72627000Y-118876250D01*
X72785750Y-119035000D01*
X73400000Y-119038072D01*
X73524482Y-119025812D01*
X73644180Y-118989502D01*
X73754494Y-118930537D01*
X73851185Y-118851185D01*
X73930537Y-118754494D01*
X73983880Y-118654697D01*
X74021495Y-118692312D01*
X74272905Y-118860299D01*
X74552257Y-118976011D01*
X74848816Y-119035000D01*
X75151184Y-119035000D01*
X75447743Y-118976011D01*
X75727095Y-118860299D01*
X75978505Y-118692312D01*
X76192312Y-118478505D01*
X76250000Y-118392169D01*
X76307688Y-118478505D01*
X76521495Y-118692312D01*
X76772905Y-118860299D01*
X77052257Y-118976011D01*
X77348816Y-119035000D01*
X77651184Y-119035000D01*
X77947743Y-118976011D01*
X78227095Y-118860299D01*
X78478505Y-118692312D01*
X78692312Y-118478505D01*
X78860299Y-118227095D01*
X78976011Y-117947743D01*
X79035000Y-117651184D01*
X79035000Y-117348816D01*
X78976011Y-117052257D01*
X78860299Y-116772905D01*
X78692312Y-116521495D01*
X78478505Y-116307688D01*
X78227095Y-116139701D01*
X77947743Y-116023989D01*
X77651184Y-115965000D01*
X77348816Y-115965000D01*
X77052257Y-116023989D01*
X76772905Y-116139701D01*
X76521495Y-116307688D01*
X76307688Y-116521495D01*
X76250000Y-116607831D01*
X76192312Y-116521495D01*
X75978505Y-116307688D01*
X75727095Y-116139701D01*
X75447743Y-116023989D01*
X75151184Y-115965000D01*
X74848816Y-115965000D01*
X74552257Y-116023989D01*
X74272905Y-116139701D01*
X74021495Y-116307688D01*
X73983880Y-116345303D01*
X73930537Y-116245506D01*
X73851185Y-116148815D01*
X73754494Y-116069463D01*
X73644180Y-116010498D01*
X73524482Y-115974188D01*
X73400000Y-115961928D01*
X72785750Y-115965000D01*
X72627000Y-116123750D01*
X72373000Y-116123750D01*
X72214250Y-115965000D01*
X71600000Y-115961928D01*
X71475518Y-115974188D01*
X71355820Y-116010498D01*
X71245506Y-116069463D01*
X71148815Y-116148815D01*
X71069463Y-116245506D01*
X71010498Y-116355820D01*
X70974188Y-116475518D01*
X70961928Y-116600000D01*
X45127000Y-116600000D01*
X45127000Y-114976890D01*
X81558524Y-114976890D01*
X81603175Y-115124099D01*
X81728359Y-115386920D01*
X81902412Y-115620269D01*
X82118645Y-115815178D01*
X82244255Y-115890000D01*
X82118645Y-115964822D01*
X81902412Y-116159731D01*
X81728359Y-116393080D01*
X81603175Y-116655901D01*
X81558524Y-116803110D01*
X81679845Y-117033000D01*
X82873000Y-117033000D01*
X82873000Y-114747000D01*
X83127000Y-114747000D01*
X83127000Y-117033000D01*
X84320155Y-117033000D01*
X84441476Y-116803110D01*
X84396825Y-116655901D01*
X84271641Y-116393080D01*
X84097588Y-116159731D01*
X83881355Y-115964822D01*
X83755745Y-115890000D01*
X83881355Y-115815178D01*
X84097588Y-115620269D01*
X84271641Y-115386920D01*
X84396825Y-115124099D01*
X84441476Y-114976890D01*
X84320155Y-114747000D01*
X83127000Y-114747000D01*
X82873000Y-114747000D01*
X81679845Y-114747000D01*
X81558524Y-114976890D01*
X45127000Y-114976890D01*
X45127000Y-110965000D01*
X46966928Y-110965000D01*
X46979188Y-111089482D01*
X47015498Y-111209180D01*
X47074463Y-111319494D01*
X47153815Y-111416185D01*
X47250506Y-111495537D01*
X47360820Y-111554502D01*
X47480518Y-111590812D01*
X47605000Y-111603072D01*
X48234250Y-111600000D01*
X48393000Y-111441250D01*
X48393000Y-110127000D01*
X47128750Y-110127000D01*
X46970000Y-110285750D01*
X46966928Y-110965000D01*
X45127000Y-110965000D01*
X45127000Y-109035000D01*
X46966928Y-109035000D01*
X46970000Y-109714250D01*
X47128750Y-109873000D01*
X48393000Y-109873000D01*
X48393000Y-108558750D01*
X48647000Y-108558750D01*
X48647000Y-109873000D01*
X48667000Y-109873000D01*
X48667000Y-110127000D01*
X48647000Y-110127000D01*
X48647000Y-111441250D01*
X48805750Y-111600000D01*
X49435000Y-111603072D01*
X49559482Y-111590812D01*
X49679180Y-111554502D01*
X49789494Y-111495537D01*
X49886185Y-111416185D01*
X49965537Y-111319494D01*
X50024502Y-111209180D01*
X50032819Y-111181761D01*
X50617844Y-111181761D01*
X50721454Y-111452807D01*
X51022148Y-111600190D01*
X51345818Y-111686078D01*
X51680023Y-111707171D01*
X52011922Y-111662658D01*
X52328760Y-111554250D01*
X52518546Y-111452807D01*
X52622156Y-111181761D01*
X51620000Y-110179605D01*
X50617844Y-111181761D01*
X50032819Y-111181761D01*
X50060812Y-111089482D01*
X50073072Y-110965000D01*
X50071966Y-110720389D01*
X50167193Y-110898546D01*
X50438239Y-111002156D01*
X51440395Y-110000000D01*
X51799605Y-110000000D01*
X52801761Y-111002156D01*
X53072807Y-110898546D01*
X53220190Y-110597852D01*
X53306078Y-110274182D01*
X53327171Y-109939977D01*
X53312766Y-109832565D01*
X58220000Y-109832565D01*
X58220000Y-110167435D01*
X58285330Y-110495872D01*
X58413479Y-110805252D01*
X58599523Y-111083687D01*
X58836313Y-111320477D01*
X59114748Y-111506521D01*
X59424128Y-111634670D01*
X59752565Y-111700000D01*
X60087435Y-111700000D01*
X60415872Y-111634670D01*
X60725252Y-111506521D01*
X61003687Y-111320477D01*
X61240477Y-111083687D01*
X61426521Y-110805252D01*
X61554670Y-110495872D01*
X61620000Y-110167435D01*
X61620000Y-109832565D01*
X61582095Y-109642002D01*
X68205000Y-109642002D01*
X68205000Y-110357997D01*
X68233867Y-110651087D01*
X68347943Y-111027146D01*
X68533193Y-111373725D01*
X68782497Y-111677503D01*
X69086275Y-111926807D01*
X69432853Y-112112057D01*
X69808912Y-112226133D01*
X70200000Y-112264652D01*
X70591087Y-112226133D01*
X70967146Y-112112057D01*
X71313725Y-111926807D01*
X71617503Y-111677503D01*
X71866807Y-111373725D01*
X72052057Y-111027147D01*
X72166133Y-110651088D01*
X72195000Y-110357998D01*
X72195000Y-109642003D01*
X72195000Y-109642002D01*
X77805000Y-109642002D01*
X77805000Y-110357997D01*
X77833867Y-110651087D01*
X77947943Y-111027146D01*
X78133193Y-111373725D01*
X78382497Y-111677503D01*
X78686275Y-111926807D01*
X79032853Y-112112057D01*
X79408912Y-112226133D01*
X79800000Y-112264652D01*
X80191087Y-112226133D01*
X80567146Y-112112057D01*
X80913725Y-111926807D01*
X81217503Y-111677503D01*
X81466807Y-111373725D01*
X81652057Y-111027147D01*
X81766133Y-110651088D01*
X81790577Y-110402901D01*
X81846525Y-110486632D01*
X82053368Y-110693475D01*
X82227760Y-110810000D01*
X82053368Y-110926525D01*
X81846525Y-111133368D01*
X81684010Y-111376589D01*
X81572068Y-111646842D01*
X81515000Y-111933740D01*
X81515000Y-112226260D01*
X81572068Y-112513158D01*
X81684010Y-112783411D01*
X81846525Y-113026632D01*
X82053368Y-113233475D01*
X82235534Y-113355195D01*
X82118645Y-113424822D01*
X81902412Y-113619731D01*
X81728359Y-113853080D01*
X81603175Y-114115901D01*
X81558524Y-114263110D01*
X81679845Y-114493000D01*
X82873000Y-114493000D01*
X82873000Y-114473000D01*
X83127000Y-114473000D01*
X83127000Y-114493000D01*
X84320155Y-114493000D01*
X84441476Y-114263110D01*
X84396825Y-114115901D01*
X84271641Y-113853080D01*
X84097588Y-113619731D01*
X83881355Y-113424822D01*
X83764466Y-113355195D01*
X83946632Y-113233475D01*
X84153475Y-113026632D01*
X84315990Y-112783411D01*
X84427932Y-112513158D01*
X84485000Y-112226260D01*
X84485000Y-111933740D01*
X84427932Y-111646842D01*
X84315990Y-111376589D01*
X84153475Y-111133368D01*
X83946632Y-110926525D01*
X83772240Y-110810000D01*
X83946632Y-110693475D01*
X84153475Y-110486632D01*
X84315990Y-110243411D01*
X84427932Y-109973158D01*
X84485000Y-109686260D01*
X84485000Y-109393740D01*
X84427932Y-109106842D01*
X84315990Y-108836589D01*
X84153475Y-108593368D01*
X84021620Y-108461513D01*
X84094180Y-108439502D01*
X84204494Y-108380537D01*
X84301185Y-108301185D01*
X84380537Y-108204494D01*
X84439502Y-108094180D01*
X84475812Y-107974482D01*
X84488072Y-107850000D01*
X84488072Y-106150000D01*
X84475812Y-106025518D01*
X84439502Y-105905820D01*
X84380537Y-105795506D01*
X84301185Y-105698815D01*
X84204494Y-105619463D01*
X84094180Y-105560498D01*
X83974482Y-105524188D01*
X83850000Y-105511928D01*
X82150000Y-105511928D01*
X82025518Y-105524188D01*
X81905820Y-105560498D01*
X81795506Y-105619463D01*
X81698815Y-105698815D01*
X81619463Y-105795506D01*
X81560498Y-105905820D01*
X81524188Y-106025518D01*
X81511928Y-106150000D01*
X81511928Y-107850000D01*
X81524188Y-107974482D01*
X81560498Y-108094180D01*
X81619463Y-108204494D01*
X81698815Y-108301185D01*
X81795506Y-108380537D01*
X81905820Y-108439502D01*
X81978380Y-108461513D01*
X81846525Y-108593368D01*
X81684010Y-108836589D01*
X81638260Y-108947040D01*
X81466807Y-108626275D01*
X81217503Y-108322497D01*
X80913725Y-108073193D01*
X80567147Y-107887943D01*
X80191088Y-107773867D01*
X79800000Y-107735348D01*
X79408913Y-107773867D01*
X79032854Y-107887943D01*
X78686276Y-108073193D01*
X78382498Y-108322497D01*
X78133193Y-108626275D01*
X77947943Y-108972853D01*
X77833867Y-109348912D01*
X77805000Y-109642002D01*
X72195000Y-109642002D01*
X72166133Y-109348913D01*
X72052057Y-108972853D01*
X71866807Y-108626275D01*
X71617503Y-108322497D01*
X71313725Y-108073193D01*
X70967147Y-107887943D01*
X70591088Y-107773867D01*
X70200000Y-107735348D01*
X69808913Y-107773867D01*
X69432854Y-107887943D01*
X69086276Y-108073193D01*
X68782498Y-108322497D01*
X68533193Y-108626275D01*
X68347943Y-108972853D01*
X68233867Y-109348912D01*
X68205000Y-109642002D01*
X61582095Y-109642002D01*
X61554670Y-109504128D01*
X61426521Y-109194748D01*
X61240477Y-108916313D01*
X61003687Y-108679523D01*
X60725252Y-108493479D01*
X60415872Y-108365330D01*
X60087435Y-108300000D01*
X59752565Y-108300000D01*
X59424128Y-108365330D01*
X59114748Y-108493479D01*
X58836313Y-108679523D01*
X58599523Y-108916313D01*
X58413479Y-109194748D01*
X58285330Y-109504128D01*
X58220000Y-109832565D01*
X53312766Y-109832565D01*
X53282658Y-109608078D01*
X53174250Y-109291240D01*
X53072807Y-109101454D01*
X52801761Y-108997844D01*
X51799605Y-110000000D01*
X51440395Y-110000000D01*
X50438239Y-108997844D01*
X50167193Y-109101454D01*
X50071892Y-109295889D01*
X50073072Y-109035000D01*
X50060812Y-108910518D01*
X50032820Y-108818239D01*
X50617844Y-108818239D01*
X51620000Y-109820395D01*
X52622156Y-108818239D01*
X52518546Y-108547193D01*
X52217852Y-108399810D01*
X51894182Y-108313922D01*
X51559977Y-108292829D01*
X51228078Y-108337342D01*
X50911240Y-108445750D01*
X50721454Y-108547193D01*
X50617844Y-108818239D01*
X50032820Y-108818239D01*
X50024502Y-108790820D01*
X49965537Y-108680506D01*
X49886185Y-108583815D01*
X49789494Y-108504463D01*
X49679180Y-108445498D01*
X49559482Y-108409188D01*
X49435000Y-108396928D01*
X48805750Y-108400000D01*
X48647000Y-108558750D01*
X48393000Y-108558750D01*
X48234250Y-108400000D01*
X47605000Y-108396928D01*
X47480518Y-108409188D01*
X47360820Y-108445498D01*
X47250506Y-108504463D01*
X47153815Y-108583815D01*
X47074463Y-108680506D01*
X47015498Y-108790820D01*
X46979188Y-108910518D01*
X46966928Y-109035000D01*
X45127000Y-109035000D01*
X45127000Y-101150000D01*
X46261928Y-101150000D01*
X46261928Y-102850000D01*
X46274188Y-102974482D01*
X46310498Y-103094180D01*
X46369463Y-103204494D01*
X46448815Y-103301185D01*
X46545506Y-103380537D01*
X46655820Y-103439502D01*
X46775518Y-103475812D01*
X46900000Y-103488072D01*
X48600000Y-103488072D01*
X48724482Y-103475812D01*
X48844180Y-103439502D01*
X48954494Y-103380537D01*
X49051185Y-103301185D01*
X49130537Y-103204494D01*
X49189502Y-103094180D01*
X49211513Y-103021620D01*
X49343368Y-103153475D01*
X49586589Y-103315990D01*
X49856842Y-103427932D01*
X50143740Y-103485000D01*
X50436260Y-103485000D01*
X50723158Y-103427932D01*
X50993411Y-103315990D01*
X51236632Y-103153475D01*
X51443475Y-102946632D01*
X51565195Y-102764466D01*
X51634822Y-102881355D01*
X51829731Y-103097588D01*
X52063080Y-103271641D01*
X52325901Y-103396825D01*
X52473110Y-103441476D01*
X52703000Y-103320155D01*
X52703000Y-102127000D01*
X52957000Y-102127000D01*
X52957000Y-103320155D01*
X53186890Y-103441476D01*
X53334099Y-103396825D01*
X53596920Y-103271641D01*
X53830269Y-103097588D01*
X54025178Y-102881355D01*
X54100000Y-102755745D01*
X54174822Y-102881355D01*
X54369731Y-103097588D01*
X54603080Y-103271641D01*
X54865901Y-103396825D01*
X55013110Y-103441476D01*
X55243000Y-103320155D01*
X55243000Y-102127000D01*
X55497000Y-102127000D01*
X55497000Y-103320155D01*
X55726890Y-103441476D01*
X55874099Y-103396825D01*
X56136920Y-103271641D01*
X56370269Y-103097588D01*
X56565178Y-102881355D01*
X56640000Y-102755745D01*
X56714822Y-102881355D01*
X56909731Y-103097588D01*
X57143080Y-103271641D01*
X57405901Y-103396825D01*
X57553110Y-103441476D01*
X57783000Y-103320155D01*
X57783000Y-102127000D01*
X55497000Y-102127000D01*
X55243000Y-102127000D01*
X52957000Y-102127000D01*
X52703000Y-102127000D01*
X52683000Y-102127000D01*
X52683000Y-101873000D01*
X52703000Y-101873000D01*
X52703000Y-100679845D01*
X52957000Y-100679845D01*
X52957000Y-101873000D01*
X55243000Y-101873000D01*
X55243000Y-100679845D01*
X55497000Y-100679845D01*
X55497000Y-101873000D01*
X57783000Y-101873000D01*
X57783000Y-100679845D01*
X58037000Y-100679845D01*
X58037000Y-101873000D01*
X58057000Y-101873000D01*
X58057000Y-102127000D01*
X58037000Y-102127000D01*
X58037000Y-103320155D01*
X58266890Y-103441476D01*
X58414099Y-103396825D01*
X58676920Y-103271641D01*
X58910269Y-103097588D01*
X59105178Y-102881355D01*
X59174805Y-102764466D01*
X59296525Y-102946632D01*
X59503368Y-103153475D01*
X59746589Y-103315990D01*
X60016842Y-103427932D01*
X60303740Y-103485000D01*
X60596260Y-103485000D01*
X60883158Y-103427932D01*
X61153411Y-103315990D01*
X61396632Y-103153475D01*
X61603475Y-102946632D01*
X61611247Y-102935000D01*
X63454068Y-102935000D01*
X63500000Y-102939524D01*
X63545932Y-102935000D01*
X63683292Y-102921471D01*
X63859540Y-102868007D01*
X64021972Y-102781186D01*
X64164344Y-102664344D01*
X64193630Y-102628659D01*
X65628665Y-101193624D01*
X65664344Y-101164344D01*
X65781186Y-101021972D01*
X65868007Y-100859540D01*
X65921471Y-100683292D01*
X65935000Y-100545932D01*
X65935000Y-100545931D01*
X65939524Y-100500001D01*
X65935000Y-100454069D01*
X65935000Y-96600000D01*
X70961928Y-96600000D01*
X70961928Y-98400000D01*
X70974188Y-98524482D01*
X71010498Y-98644180D01*
X71069463Y-98754494D01*
X71148815Y-98851185D01*
X71245506Y-98930537D01*
X71355820Y-98989502D01*
X71475518Y-99025812D01*
X71600000Y-99038072D01*
X73400000Y-99038072D01*
X73524482Y-99025812D01*
X73644180Y-98989502D01*
X73754494Y-98930537D01*
X73851185Y-98851185D01*
X73930537Y-98754494D01*
X73983880Y-98654697D01*
X74021495Y-98692312D01*
X74272905Y-98860299D01*
X74552257Y-98976011D01*
X74848816Y-99035000D01*
X75151184Y-99035000D01*
X75447743Y-98976011D01*
X75727095Y-98860299D01*
X75978505Y-98692312D01*
X76192312Y-98478505D01*
X76250000Y-98392169D01*
X76307688Y-98478505D01*
X76521495Y-98692312D01*
X76772905Y-98860299D01*
X77052257Y-98976011D01*
X77348816Y-99035000D01*
X77651184Y-99035000D01*
X77947743Y-98976011D01*
X78227095Y-98860299D01*
X78478505Y-98692312D01*
X78692312Y-98478505D01*
X78860299Y-98227095D01*
X78976011Y-97947743D01*
X79035000Y-97651184D01*
X79035000Y-97348816D01*
X78976011Y-97052257D01*
X78860299Y-96772905D01*
X78692312Y-96521495D01*
X78478505Y-96307688D01*
X78227095Y-96139701D01*
X77947743Y-96023989D01*
X77651184Y-95965000D01*
X77348816Y-95965000D01*
X77052257Y-96023989D01*
X76772905Y-96139701D01*
X76521495Y-96307688D01*
X76307688Y-96521495D01*
X76250000Y-96607831D01*
X76192312Y-96521495D01*
X75978505Y-96307688D01*
X75727095Y-96139701D01*
X75447743Y-96023989D01*
X75151184Y-95965000D01*
X74848816Y-95965000D01*
X74552257Y-96023989D01*
X74272905Y-96139701D01*
X74021495Y-96307688D01*
X73983880Y-96345303D01*
X73930537Y-96245506D01*
X73851185Y-96148815D01*
X73754494Y-96069463D01*
X73644180Y-96010498D01*
X73524482Y-95974188D01*
X73400000Y-95961928D01*
X71600000Y-95961928D01*
X71475518Y-95974188D01*
X71355820Y-96010498D01*
X71245506Y-96069463D01*
X71148815Y-96148815D01*
X71069463Y-96245506D01*
X71010498Y-96355820D01*
X70974188Y-96475518D01*
X70961928Y-96600000D01*
X65935000Y-96600000D01*
X65935000Y-89642002D01*
X68205000Y-89642002D01*
X68205000Y-90357997D01*
X68233867Y-90651087D01*
X68347943Y-91027146D01*
X68533193Y-91373725D01*
X68782497Y-91677503D01*
X69086275Y-91926807D01*
X69432853Y-92112057D01*
X69808912Y-92226133D01*
X70200000Y-92264652D01*
X70591087Y-92226133D01*
X70967146Y-92112057D01*
X71313725Y-91926807D01*
X71617503Y-91677503D01*
X71866807Y-91373725D01*
X72052057Y-91027147D01*
X72166133Y-90651088D01*
X72195000Y-90357998D01*
X72195000Y-89642003D01*
X72195000Y-89642002D01*
X77805000Y-89642002D01*
X77805000Y-90357997D01*
X77833867Y-90651087D01*
X77947943Y-91027146D01*
X78133193Y-91373725D01*
X78382497Y-91677503D01*
X78686275Y-91926807D01*
X79032853Y-92112057D01*
X79408912Y-92226133D01*
X79800000Y-92264652D01*
X80191087Y-92226133D01*
X80567146Y-92112057D01*
X80913725Y-91926807D01*
X81217503Y-91677503D01*
X81466807Y-91373725D01*
X81652057Y-91027147D01*
X81766133Y-90651088D01*
X81795000Y-90357998D01*
X81795000Y-89642003D01*
X81766133Y-89348913D01*
X81652057Y-88972853D01*
X81466807Y-88626275D01*
X81217503Y-88322497D01*
X80913725Y-88073193D01*
X80567147Y-87887943D01*
X80191088Y-87773867D01*
X79800000Y-87735348D01*
X79408913Y-87773867D01*
X79032854Y-87887943D01*
X78686276Y-88073193D01*
X78382498Y-88322497D01*
X78133193Y-88626275D01*
X77947943Y-88972853D01*
X77833867Y-89348912D01*
X77805000Y-89642002D01*
X72195000Y-89642002D01*
X72166133Y-89348913D01*
X72052057Y-88972853D01*
X71866807Y-88626275D01*
X71617503Y-88322497D01*
X71313725Y-88073193D01*
X70967147Y-87887943D01*
X70591088Y-87773867D01*
X70200000Y-87735348D01*
X69808913Y-87773867D01*
X69432854Y-87887943D01*
X69086276Y-88073193D01*
X68782498Y-88322497D01*
X68533193Y-88626275D01*
X68347943Y-88972853D01*
X68233867Y-89348912D01*
X68205000Y-89642002D01*
X65935000Y-89642002D01*
X65935000Y-82137289D01*
X70094859Y-77977431D01*
X70240256Y-77917205D01*
X70409774Y-77803937D01*
X70553937Y-77659774D01*
X70667205Y-77490256D01*
X70745226Y-77301898D01*
X70785000Y-77101939D01*
X70785000Y-76898061D01*
X70745226Y-76698102D01*
X70667205Y-76509744D01*
X70553937Y-76340226D01*
X70409774Y-76196063D01*
X70240256Y-76082795D01*
X70051898Y-76004774D01*
X69851939Y-75965000D01*
X69648061Y-75965000D01*
X69448102Y-76004774D01*
X69259744Y-76082795D01*
X69090226Y-76196063D01*
X68946063Y-76340226D01*
X68832795Y-76509744D01*
X68772569Y-76655141D01*
X64371336Y-81056375D01*
X64335657Y-81085656D01*
X64218815Y-81228028D01*
X64131994Y-81390460D01*
X64078529Y-81566709D01*
X64060476Y-81750000D01*
X64065001Y-81795942D01*
X64065000Y-100112710D01*
X63112711Y-101065000D01*
X61611247Y-101065000D01*
X61603475Y-101053368D01*
X61396632Y-100846525D01*
X61153411Y-100684010D01*
X60883158Y-100572068D01*
X60596260Y-100515000D01*
X60303740Y-100515000D01*
X60016842Y-100572068D01*
X59746589Y-100684010D01*
X59503368Y-100846525D01*
X59296525Y-101053368D01*
X59174805Y-101235534D01*
X59105178Y-101118645D01*
X58910269Y-100902412D01*
X58676920Y-100728359D01*
X58414099Y-100603175D01*
X58266890Y-100558524D01*
X58037000Y-100679845D01*
X57783000Y-100679845D01*
X57553110Y-100558524D01*
X57405901Y-100603175D01*
X57143080Y-100728359D01*
X56909731Y-100902412D01*
X56714822Y-101118645D01*
X56640000Y-101244255D01*
X56565178Y-101118645D01*
X56370269Y-100902412D01*
X56136920Y-100728359D01*
X55874099Y-100603175D01*
X55726890Y-100558524D01*
X55497000Y-100679845D01*
X55243000Y-100679845D01*
X55013110Y-100558524D01*
X54865901Y-100603175D01*
X54603080Y-100728359D01*
X54369731Y-100902412D01*
X54174822Y-101118645D01*
X54100000Y-101244255D01*
X54025178Y-101118645D01*
X53830269Y-100902412D01*
X53596920Y-100728359D01*
X53334099Y-100603175D01*
X53186890Y-100558524D01*
X52957000Y-100679845D01*
X52703000Y-100679845D01*
X52473110Y-100558524D01*
X52325901Y-100603175D01*
X52063080Y-100728359D01*
X51829731Y-100902412D01*
X51634822Y-101118645D01*
X51565195Y-101235534D01*
X51443475Y-101053368D01*
X51236632Y-100846525D01*
X50993411Y-100684010D01*
X50723158Y-100572068D01*
X50436260Y-100515000D01*
X50143740Y-100515000D01*
X49856842Y-100572068D01*
X49586589Y-100684010D01*
X49343368Y-100846525D01*
X49211513Y-100978380D01*
X49189502Y-100905820D01*
X49130537Y-100795506D01*
X49051185Y-100698815D01*
X48954494Y-100619463D01*
X48844180Y-100560498D01*
X48724482Y-100524188D01*
X48600000Y-100511928D01*
X46900000Y-100511928D01*
X46775518Y-100524188D01*
X46655820Y-100560498D01*
X46545506Y-100619463D01*
X46448815Y-100698815D01*
X46369463Y-100795506D01*
X46310498Y-100905820D01*
X46274188Y-101025518D01*
X46261928Y-101150000D01*
X45127000Y-101150000D01*
X45127000Y-90965000D01*
X46966928Y-90965000D01*
X46979188Y-91089482D01*
X47015498Y-91209180D01*
X47074463Y-91319494D01*
X47153815Y-91416185D01*
X47250506Y-91495537D01*
X47360820Y-91554502D01*
X47480518Y-91590812D01*
X47605000Y-91603072D01*
X48234250Y-91600000D01*
X48393000Y-91441250D01*
X48393000Y-90127000D01*
X47128750Y-90127000D01*
X46970000Y-90285750D01*
X46966928Y-90965000D01*
X45127000Y-90965000D01*
X45127000Y-89035000D01*
X46966928Y-89035000D01*
X46970000Y-89714250D01*
X47128750Y-89873000D01*
X48393000Y-89873000D01*
X48393000Y-88558750D01*
X48647000Y-88558750D01*
X48647000Y-89873000D01*
X48667000Y-89873000D01*
X48667000Y-90127000D01*
X48647000Y-90127000D01*
X48647000Y-91441250D01*
X48805750Y-91600000D01*
X49435000Y-91603072D01*
X49559482Y-91590812D01*
X49679180Y-91554502D01*
X49789494Y-91495537D01*
X49886185Y-91416185D01*
X49965537Y-91319494D01*
X50024502Y-91209180D01*
X50032819Y-91181761D01*
X50617844Y-91181761D01*
X50721454Y-91452807D01*
X51022148Y-91600190D01*
X51345818Y-91686078D01*
X51680023Y-91707171D01*
X52011922Y-91662658D01*
X52328760Y-91554250D01*
X52518546Y-91452807D01*
X52622156Y-91181761D01*
X51620000Y-90179605D01*
X50617844Y-91181761D01*
X50032819Y-91181761D01*
X50060812Y-91089482D01*
X50073072Y-90965000D01*
X50071966Y-90720389D01*
X50167193Y-90898546D01*
X50438239Y-91002156D01*
X51440395Y-90000000D01*
X51799605Y-90000000D01*
X52801761Y-91002156D01*
X53072807Y-90898546D01*
X53220190Y-90597852D01*
X53306078Y-90274182D01*
X53327171Y-89939977D01*
X53312766Y-89832565D01*
X58220000Y-89832565D01*
X58220000Y-90167435D01*
X58285330Y-90495872D01*
X58413479Y-90805252D01*
X58599523Y-91083687D01*
X58836313Y-91320477D01*
X59114748Y-91506521D01*
X59424128Y-91634670D01*
X59752565Y-91700000D01*
X60087435Y-91700000D01*
X60415872Y-91634670D01*
X60725252Y-91506521D01*
X61003687Y-91320477D01*
X61240477Y-91083687D01*
X61426521Y-90805252D01*
X61554670Y-90495872D01*
X61620000Y-90167435D01*
X61620000Y-89832565D01*
X61554670Y-89504128D01*
X61426521Y-89194748D01*
X61240477Y-88916313D01*
X61003687Y-88679523D01*
X60725252Y-88493479D01*
X60415872Y-88365330D01*
X60087435Y-88300000D01*
X59752565Y-88300000D01*
X59424128Y-88365330D01*
X59114748Y-88493479D01*
X58836313Y-88679523D01*
X58599523Y-88916313D01*
X58413479Y-89194748D01*
X58285330Y-89504128D01*
X58220000Y-89832565D01*
X53312766Y-89832565D01*
X53282658Y-89608078D01*
X53174250Y-89291240D01*
X53072807Y-89101454D01*
X52801761Y-88997844D01*
X51799605Y-90000000D01*
X51440395Y-90000000D01*
X50438239Y-88997844D01*
X50167193Y-89101454D01*
X50071892Y-89295889D01*
X50073072Y-89035000D01*
X50060812Y-88910518D01*
X50032820Y-88818239D01*
X50617844Y-88818239D01*
X51620000Y-89820395D01*
X52622156Y-88818239D01*
X52518546Y-88547193D01*
X52217852Y-88399810D01*
X51894182Y-88313922D01*
X51559977Y-88292829D01*
X51228078Y-88337342D01*
X50911240Y-88445750D01*
X50721454Y-88547193D01*
X50617844Y-88818239D01*
X50032820Y-88818239D01*
X50024502Y-88790820D01*
X49965537Y-88680506D01*
X49886185Y-88583815D01*
X49789494Y-88504463D01*
X49679180Y-88445498D01*
X49559482Y-88409188D01*
X49435000Y-88396928D01*
X48805750Y-88400000D01*
X48647000Y-88558750D01*
X48393000Y-88558750D01*
X48234250Y-88400000D01*
X47605000Y-88396928D01*
X47480518Y-88409188D01*
X47360820Y-88445498D01*
X47250506Y-88504463D01*
X47153815Y-88583815D01*
X47074463Y-88680506D01*
X47015498Y-88790820D01*
X46979188Y-88910518D01*
X46966928Y-89035000D01*
X45127000Y-89035000D01*
X45127000Y-68400000D01*
X60961928Y-68400000D01*
X60974188Y-68524482D01*
X61010498Y-68644180D01*
X61069463Y-68754494D01*
X61148815Y-68851185D01*
X61245506Y-68930537D01*
X61355820Y-68989502D01*
X61475518Y-69025812D01*
X61600000Y-69038072D01*
X62214250Y-69035000D01*
X62373000Y-68876250D01*
X62373000Y-67627000D01*
X61123750Y-67627000D01*
X60965000Y-67785750D01*
X60961928Y-68400000D01*
X45127000Y-68400000D01*
X45127000Y-66600000D01*
X60961928Y-66600000D01*
X60965000Y-67214250D01*
X61123750Y-67373000D01*
X62373000Y-67373000D01*
X62373000Y-66123750D01*
X62627000Y-66123750D01*
X62627000Y-67373000D01*
X62647000Y-67373000D01*
X62647000Y-67627000D01*
X62627000Y-67627000D01*
X62627000Y-68876250D01*
X62785750Y-69035000D01*
X63400000Y-69038072D01*
X63524482Y-69025812D01*
X63644180Y-68989502D01*
X63754494Y-68930537D01*
X63851185Y-68851185D01*
X63930537Y-68754494D01*
X63983880Y-68654697D01*
X64021495Y-68692312D01*
X64272905Y-68860299D01*
X64552257Y-68976011D01*
X64848816Y-69035000D01*
X65151184Y-69035000D01*
X65447743Y-68976011D01*
X65727095Y-68860299D01*
X65978505Y-68692312D01*
X66192312Y-68478505D01*
X66250000Y-68392169D01*
X66307688Y-68478505D01*
X66521495Y-68692312D01*
X66772905Y-68860299D01*
X67052257Y-68976011D01*
X67348816Y-69035000D01*
X67651184Y-69035000D01*
X67947743Y-68976011D01*
X68227095Y-68860299D01*
X68478505Y-68692312D01*
X68692312Y-68478505D01*
X68860299Y-68227095D01*
X68976011Y-67947743D01*
X69035000Y-67651184D01*
X69035000Y-67348816D01*
X68976011Y-67052257D01*
X68860299Y-66772905D01*
X68692312Y-66521495D01*
X68478505Y-66307688D01*
X68227095Y-66139701D01*
X67947743Y-66023989D01*
X67651184Y-65965000D01*
X67348816Y-65965000D01*
X67052257Y-66023989D01*
X66772905Y-66139701D01*
X66521495Y-66307688D01*
X66307688Y-66521495D01*
X66250000Y-66607831D01*
X66192312Y-66521495D01*
X65978505Y-66307688D01*
X65727095Y-66139701D01*
X65447743Y-66023989D01*
X65151184Y-65965000D01*
X64848816Y-65965000D01*
X64552257Y-66023989D01*
X64272905Y-66139701D01*
X64021495Y-66307688D01*
X63983880Y-66345303D01*
X63930537Y-66245506D01*
X63851185Y-66148815D01*
X63754494Y-66069463D01*
X63644180Y-66010498D01*
X63524482Y-65974188D01*
X63400000Y-65961928D01*
X62785750Y-65965000D01*
X62627000Y-66123750D01*
X62373000Y-66123750D01*
X62214250Y-65965000D01*
X61600000Y-65961928D01*
X61475518Y-65974188D01*
X61355820Y-66010498D01*
X61245506Y-66069463D01*
X61148815Y-66148815D01*
X61069463Y-66245506D01*
X61010498Y-66355820D01*
X60974188Y-66475518D01*
X60961928Y-66600000D01*
X45127000Y-66600000D01*
X45127000Y-61056890D01*
X45558524Y-61056890D01*
X45603175Y-61204099D01*
X45728359Y-61466920D01*
X45902412Y-61700269D01*
X46118645Y-61895178D01*
X46368748Y-62044157D01*
X46643109Y-62141481D01*
X46873000Y-62020814D01*
X46873000Y-60827000D01*
X47127000Y-60827000D01*
X47127000Y-62020814D01*
X47356891Y-62141481D01*
X47631252Y-62044157D01*
X47881355Y-61895178D01*
X48097588Y-61700269D01*
X48271641Y-61466920D01*
X48396825Y-61204099D01*
X48441476Y-61056890D01*
X48320155Y-60827000D01*
X47127000Y-60827000D01*
X46873000Y-60827000D01*
X45679845Y-60827000D01*
X45558524Y-61056890D01*
X45127000Y-61056890D01*
X45127000Y-58516890D01*
X45558524Y-58516890D01*
X45603175Y-58664099D01*
X45728359Y-58926920D01*
X45902412Y-59160269D01*
X46118645Y-59355178D01*
X46244255Y-59430000D01*
X46118645Y-59504822D01*
X45902412Y-59699731D01*
X45728359Y-59933080D01*
X45603175Y-60195901D01*
X45558524Y-60343110D01*
X45679845Y-60573000D01*
X46873000Y-60573000D01*
X46873000Y-58287000D01*
X47127000Y-58287000D01*
X47127000Y-60573000D01*
X48320155Y-60573000D01*
X48441476Y-60343110D01*
X48396825Y-60195901D01*
X48271641Y-59933080D01*
X48097588Y-59699731D01*
X48033544Y-59642002D01*
X58205000Y-59642002D01*
X58205000Y-60357997D01*
X58233867Y-60651087D01*
X58347943Y-61027146D01*
X58533193Y-61373725D01*
X58782497Y-61677503D01*
X59086275Y-61926807D01*
X59432853Y-62112057D01*
X59808912Y-62226133D01*
X60200000Y-62264652D01*
X60591087Y-62226133D01*
X60967146Y-62112057D01*
X61313725Y-61926807D01*
X61617503Y-61677503D01*
X61866807Y-61373725D01*
X62052057Y-61027147D01*
X62166133Y-60651088D01*
X62195000Y-60357998D01*
X62195000Y-59642003D01*
X62195000Y-59642002D01*
X67805000Y-59642002D01*
X67805000Y-60357997D01*
X67833867Y-60651087D01*
X67947943Y-61027146D01*
X68133193Y-61373725D01*
X68382497Y-61677503D01*
X68686275Y-61926807D01*
X69032853Y-62112057D01*
X69408912Y-62226133D01*
X69800000Y-62264652D01*
X70191087Y-62226133D01*
X70567146Y-62112057D01*
X70913725Y-61926807D01*
X71217503Y-61677503D01*
X71466807Y-61373725D01*
X71652057Y-61027147D01*
X71766133Y-60651088D01*
X71795000Y-60357998D01*
X71795000Y-59642003D01*
X71766133Y-59348913D01*
X71652057Y-58972853D01*
X71466807Y-58626275D01*
X71217503Y-58322497D01*
X70913725Y-58073193D01*
X70567147Y-57887943D01*
X70191088Y-57773867D01*
X69800000Y-57735348D01*
X69408913Y-57773867D01*
X69032854Y-57887943D01*
X68686276Y-58073193D01*
X68382498Y-58322497D01*
X68133193Y-58626275D01*
X67947943Y-58972853D01*
X67833867Y-59348912D01*
X67805000Y-59642002D01*
X62195000Y-59642002D01*
X62166133Y-59348913D01*
X62052057Y-58972853D01*
X61866807Y-58626275D01*
X61617503Y-58322497D01*
X61313725Y-58073193D01*
X60967147Y-57887943D01*
X60591088Y-57773867D01*
X60200000Y-57735348D01*
X59808913Y-57773867D01*
X59432854Y-57887943D01*
X59086276Y-58073193D01*
X58782498Y-58322497D01*
X58533193Y-58626275D01*
X58347943Y-58972853D01*
X58233867Y-59348912D01*
X58205000Y-59642002D01*
X48033544Y-59642002D01*
X47881355Y-59504822D01*
X47755745Y-59430000D01*
X47881355Y-59355178D01*
X48097588Y-59160269D01*
X48271641Y-58926920D01*
X48396825Y-58664099D01*
X48441476Y-58516890D01*
X48320155Y-58287000D01*
X47127000Y-58287000D01*
X46873000Y-58287000D01*
X45679845Y-58287000D01*
X45558524Y-58516890D01*
X45127000Y-58516890D01*
X45127000Y-47150000D01*
X45511928Y-47150000D01*
X45511928Y-48850000D01*
X45524188Y-48974482D01*
X45560498Y-49094180D01*
X45619463Y-49204494D01*
X45698815Y-49301185D01*
X45795506Y-49380537D01*
X45905820Y-49439502D01*
X45978380Y-49461513D01*
X45846525Y-49593368D01*
X45684010Y-49836589D01*
X45572068Y-50106842D01*
X45515000Y-50393740D01*
X45515000Y-50686260D01*
X45572068Y-50973158D01*
X45684010Y-51243411D01*
X45846525Y-51486632D01*
X46053368Y-51693475D01*
X46227760Y-51810000D01*
X46053368Y-51926525D01*
X45846525Y-52133368D01*
X45684010Y-52376589D01*
X45572068Y-52646842D01*
X45515000Y-52933740D01*
X45515000Y-53226260D01*
X45572068Y-53513158D01*
X45684010Y-53783411D01*
X45846525Y-54026632D01*
X46053368Y-54233475D01*
X46227760Y-54350000D01*
X46053368Y-54466525D01*
X45846525Y-54673368D01*
X45684010Y-54916589D01*
X45572068Y-55186842D01*
X45515000Y-55473740D01*
X45515000Y-55766260D01*
X45572068Y-56053158D01*
X45684010Y-56323411D01*
X45846525Y-56566632D01*
X46053368Y-56773475D01*
X46235534Y-56895195D01*
X46118645Y-56964822D01*
X45902412Y-57159731D01*
X45728359Y-57393080D01*
X45603175Y-57655901D01*
X45558524Y-57803110D01*
X45679845Y-58033000D01*
X46873000Y-58033000D01*
X46873000Y-58013000D01*
X47127000Y-58013000D01*
X47127000Y-58033000D01*
X48320155Y-58033000D01*
X48441476Y-57803110D01*
X48396825Y-57655901D01*
X48271641Y-57393080D01*
X48097588Y-57159731D01*
X47881355Y-56964822D01*
X47764466Y-56895195D01*
X47946632Y-56773475D01*
X48153475Y-56566632D01*
X48315990Y-56323411D01*
X48427932Y-56053158D01*
X48485000Y-55766260D01*
X48485000Y-55473740D01*
X48427932Y-55186842D01*
X48315990Y-54916589D01*
X48153475Y-54673368D01*
X47946632Y-54466525D01*
X47772240Y-54350000D01*
X47946632Y-54233475D01*
X48153475Y-54026632D01*
X48315990Y-53783411D01*
X48427932Y-53513158D01*
X48485000Y-53226260D01*
X48485000Y-52933740D01*
X48427932Y-52646842D01*
X48315990Y-52376589D01*
X48153475Y-52133368D01*
X47946632Y-51926525D01*
X47772240Y-51810000D01*
X47946632Y-51693475D01*
X48153475Y-51486632D01*
X48315990Y-51243411D01*
X48427932Y-50973158D01*
X48485000Y-50686260D01*
X48485000Y-50393740D01*
X48427932Y-50106842D01*
X48315990Y-49836589D01*
X48153475Y-49593368D01*
X48021620Y-49461513D01*
X48094180Y-49439502D01*
X48204494Y-49380537D01*
X48301185Y-49301185D01*
X48380537Y-49204494D01*
X48439502Y-49094180D01*
X48475812Y-48974482D01*
X48488072Y-48850000D01*
X48488072Y-47150000D01*
X48475812Y-47025518D01*
X48439502Y-46905820D01*
X48380537Y-46795506D01*
X48301185Y-46698815D01*
X48204494Y-46619463D01*
X48094180Y-46560498D01*
X47974482Y-46524188D01*
X47850000Y-46511928D01*
X46150000Y-46511928D01*
X46025518Y-46524188D01*
X45905820Y-46560498D01*
X45795506Y-46619463D01*
X45698815Y-46698815D01*
X45619463Y-46795506D01*
X45560498Y-46905820D01*
X45524188Y-47025518D01*
X45511928Y-47150000D01*
X45127000Y-47150000D01*
X45127000Y-44377000D01*
X84873000Y-44377000D01*
X84873000Y-148123000D01*
%TA.AperFunction,Conductor*%
D20*
G36*
X84873000Y-148123000D02*
G01*
X45127000Y-148123000D01*
X45127000Y-139510000D01*
X53111928Y-139510000D01*
X53111928Y-140410000D01*
X53132835Y-140622272D01*
X53194753Y-140826387D01*
X53295301Y-141014500D01*
X53430617Y-141179383D01*
X53492294Y-141230000D01*
X53430617Y-141280617D01*
X53295301Y-141445500D01*
X53194753Y-141633613D01*
X53132835Y-141837728D01*
X53111928Y-142050000D01*
X53111928Y-142950000D01*
X53132835Y-143162272D01*
X53194753Y-143366387D01*
X53295301Y-143554500D01*
X53430617Y-143719383D01*
X53492294Y-143770000D01*
X53430617Y-143820617D01*
X53295301Y-143985500D01*
X53194753Y-144173613D01*
X53132835Y-144377728D01*
X53111928Y-144590000D01*
X53111928Y-145490000D01*
X53132835Y-145702272D01*
X53194753Y-145906387D01*
X53295301Y-146094500D01*
X53430617Y-146259383D01*
X53595500Y-146394699D01*
X53783613Y-146495247D01*
X53987728Y-146557165D01*
X54200000Y-146578072D01*
X55800000Y-146578072D01*
X56012272Y-146557165D01*
X56216387Y-146495247D01*
X56404500Y-146394699D01*
X56569383Y-146259383D01*
X56704699Y-146094500D01*
X56805247Y-145906387D01*
X56867165Y-145702272D01*
X56888072Y-145490000D01*
X56888072Y-144590000D01*
X56867165Y-144377728D01*
X56805247Y-144173613D01*
X56704699Y-143985500D01*
X56569383Y-143820617D01*
X56507706Y-143770000D01*
X56569383Y-143719383D01*
X56704699Y-143554500D01*
X56752537Y-143465000D01*
X66966928Y-143465000D01*
X66979188Y-143589482D01*
X67015498Y-143709180D01*
X67074463Y-143819494D01*
X67153815Y-143916185D01*
X67250506Y-143995537D01*
X67360820Y-144054502D01*
X67480518Y-144090812D01*
X67605000Y-144103072D01*
X68234250Y-144100000D01*
X68393000Y-143941250D01*
X68393000Y-142627000D01*
X67128750Y-142627000D01*
X66970000Y-142785750D01*
X66966928Y-143465000D01*
X56752537Y-143465000D01*
X56805247Y-143366387D01*
X56867165Y-143162272D01*
X56888072Y-142950000D01*
X56888072Y-142050000D01*
X56867165Y-141837728D01*
X56805247Y-141633613D01*
X56752538Y-141535000D01*
X66966928Y-141535000D01*
X66970000Y-142214250D01*
X67128750Y-142373000D01*
X68393000Y-142373000D01*
X68393000Y-141058750D01*
X68647000Y-141058750D01*
X68647000Y-142373000D01*
X68667000Y-142373000D01*
X68667000Y-142627000D01*
X68647000Y-142627000D01*
X68647000Y-143941250D01*
X68805750Y-144100000D01*
X69435000Y-144103072D01*
X69559482Y-144090812D01*
X69679180Y-144054502D01*
X69789494Y-143995537D01*
X69886185Y-143916185D01*
X69965537Y-143819494D01*
X70024502Y-143709180D01*
X70060812Y-143589482D01*
X70073072Y-143465000D01*
X70071895Y-143204860D01*
X70113479Y-143305252D01*
X70299523Y-143583687D01*
X70536313Y-143820477D01*
X70814748Y-144006521D01*
X71124128Y-144134670D01*
X71452565Y-144200000D01*
X71787435Y-144200000D01*
X72115872Y-144134670D01*
X72425252Y-144006521D01*
X72703687Y-143820477D01*
X72940477Y-143583687D01*
X73126521Y-143305252D01*
X73254670Y-142995872D01*
X73320000Y-142667435D01*
X73320000Y-142332565D01*
X78220000Y-142332565D01*
X78220000Y-142667435D01*
X78285330Y-142995872D01*
X78413479Y-143305252D01*
X78599523Y-143583687D01*
X78836313Y-143820477D01*
X79114748Y-144006521D01*
X79424128Y-144134670D01*
X79752565Y-144200000D01*
X80087435Y-144200000D01*
X80415872Y-144134670D01*
X80725252Y-144006521D01*
X81003687Y-143820477D01*
X81240477Y-143583687D01*
X81426521Y-143305252D01*
X81554670Y-142995872D01*
X81620000Y-142667435D01*
X81620000Y-142332565D01*
X81554670Y-142004128D01*
X81426521Y-141694748D01*
X81240477Y-141416313D01*
X81003687Y-141179523D01*
X80725252Y-140993479D01*
X80415872Y-140865330D01*
X80087435Y-140800000D01*
X79752565Y-140800000D01*
X79424128Y-140865330D01*
X79114748Y-140993479D01*
X78836313Y-141179523D01*
X78599523Y-141416313D01*
X78413479Y-141694748D01*
X78285330Y-142004128D01*
X78220000Y-142332565D01*
X73320000Y-142332565D01*
X73254670Y-142004128D01*
X73126521Y-141694748D01*
X72940477Y-141416313D01*
X72703687Y-141179523D01*
X72425252Y-140993479D01*
X72115872Y-140865330D01*
X71787435Y-140800000D01*
X71452565Y-140800000D01*
X71124128Y-140865330D01*
X70814748Y-140993479D01*
X70536313Y-141179523D01*
X70299523Y-141416313D01*
X70113479Y-141694748D01*
X70071895Y-141795140D01*
X70073072Y-141535000D01*
X70060812Y-141410518D01*
X70024502Y-141290820D01*
X69965537Y-141180506D01*
X69886185Y-141083815D01*
X69789494Y-141004463D01*
X69679180Y-140945498D01*
X69559482Y-140909188D01*
X69435000Y-140896928D01*
X68805750Y-140900000D01*
X68647000Y-141058750D01*
X68393000Y-141058750D01*
X68234250Y-140900000D01*
X67605000Y-140896928D01*
X67480518Y-140909188D01*
X67360820Y-140945498D01*
X67250506Y-141004463D01*
X67153815Y-141083815D01*
X67074463Y-141180506D01*
X67015498Y-141290820D01*
X66979188Y-141410518D01*
X66966928Y-141535000D01*
X56752538Y-141535000D01*
X56704699Y-141445500D01*
X56569383Y-141280617D01*
X56507706Y-141230000D01*
X56569383Y-141179383D01*
X56704699Y-141014500D01*
X56805247Y-140826387D01*
X56867165Y-140622272D01*
X56888072Y-140410000D01*
X56888072Y-139510000D01*
X56867165Y-139297728D01*
X56805247Y-139093613D01*
X56704699Y-138905500D01*
X56569383Y-138740617D01*
X56404500Y-138605301D01*
X56216387Y-138504753D01*
X56012272Y-138442835D01*
X55800000Y-138421928D01*
X54200000Y-138421928D01*
X53987728Y-138442835D01*
X53783613Y-138504753D01*
X53595500Y-138605301D01*
X53430617Y-138740617D01*
X53295301Y-138905500D01*
X53194753Y-139093613D01*
X53132835Y-139297728D01*
X53111928Y-139510000D01*
X45127000Y-139510000D01*
X45127000Y-128465000D01*
X46966928Y-128465000D01*
X46979188Y-128589482D01*
X47015498Y-128709180D01*
X47074463Y-128819494D01*
X47153815Y-128916185D01*
X47250506Y-128995537D01*
X47360820Y-129054502D01*
X47480518Y-129090812D01*
X47605000Y-129103072D01*
X48234250Y-129100000D01*
X48393000Y-128941250D01*
X48393000Y-127627000D01*
X47128750Y-127627000D01*
X46970000Y-127785750D01*
X46966928Y-128465000D01*
X45127000Y-128465000D01*
X45127000Y-126535000D01*
X46966928Y-126535000D01*
X46970000Y-127214250D01*
X47128750Y-127373000D01*
X48393000Y-127373000D01*
X48393000Y-126058750D01*
X48647000Y-126058750D01*
X48647000Y-127373000D01*
X48667000Y-127373000D01*
X48667000Y-127627000D01*
X48647000Y-127627000D01*
X48647000Y-128941250D01*
X48805750Y-129100000D01*
X49435000Y-129103072D01*
X49559482Y-129090812D01*
X49679180Y-129054502D01*
X49789494Y-128995537D01*
X49886185Y-128916185D01*
X49965537Y-128819494D01*
X50024502Y-128709180D01*
X50032819Y-128681761D01*
X50617844Y-128681761D01*
X50721454Y-128952807D01*
X51022148Y-129100190D01*
X51345818Y-129186078D01*
X51680023Y-129207171D01*
X52011922Y-129162658D01*
X52328760Y-129054250D01*
X52518546Y-128952807D01*
X52622156Y-128681761D01*
X51620000Y-127679605D01*
X50617844Y-128681761D01*
X50032819Y-128681761D01*
X50060812Y-128589482D01*
X50073072Y-128465000D01*
X50071966Y-128220389D01*
X50167193Y-128398546D01*
X50438239Y-128502156D01*
X51440395Y-127500000D01*
X51799605Y-127500000D01*
X52801761Y-128502156D01*
X53072807Y-128398546D01*
X53220190Y-128097852D01*
X53306078Y-127774182D01*
X53327171Y-127439977D01*
X53312766Y-127332565D01*
X58220000Y-127332565D01*
X58220000Y-127667435D01*
X58285330Y-127995872D01*
X58413479Y-128305252D01*
X58599523Y-128583687D01*
X58836313Y-128820477D01*
X59114748Y-129006521D01*
X59424128Y-129134670D01*
X59752565Y-129200000D01*
X60087435Y-129200000D01*
X60415872Y-129134670D01*
X60725252Y-129006521D01*
X61003687Y-128820477D01*
X61240477Y-128583687D01*
X61319780Y-128465000D01*
X66966928Y-128465000D01*
X66979188Y-128589482D01*
X67015498Y-128709180D01*
X67074463Y-128819494D01*
X67153815Y-128916185D01*
X67250506Y-128995537D01*
X67360820Y-129054502D01*
X67480518Y-129090812D01*
X67605000Y-129103072D01*
X68234250Y-129100000D01*
X68393000Y-128941250D01*
X68393000Y-127627000D01*
X67128750Y-127627000D01*
X66970000Y-127785750D01*
X66966928Y-128465000D01*
X61319780Y-128465000D01*
X61426521Y-128305252D01*
X61554670Y-127995872D01*
X61620000Y-127667435D01*
X61620000Y-127332565D01*
X61554670Y-127004128D01*
X61426521Y-126694748D01*
X61319781Y-126535000D01*
X66966928Y-126535000D01*
X66970000Y-127214250D01*
X67128750Y-127373000D01*
X68393000Y-127373000D01*
X68393000Y-126058750D01*
X68647000Y-126058750D01*
X68647000Y-127373000D01*
X68667000Y-127373000D01*
X68667000Y-127627000D01*
X68647000Y-127627000D01*
X68647000Y-128941250D01*
X68805750Y-129100000D01*
X69435000Y-129103072D01*
X69559482Y-129090812D01*
X69679180Y-129054502D01*
X69789494Y-128995537D01*
X69886185Y-128916185D01*
X69965537Y-128819494D01*
X70024502Y-128709180D01*
X70060812Y-128589482D01*
X70073072Y-128465000D01*
X70071895Y-128204860D01*
X70113479Y-128305252D01*
X70299523Y-128583687D01*
X70536313Y-128820477D01*
X70814748Y-129006521D01*
X71124128Y-129134670D01*
X71452565Y-129200000D01*
X71787435Y-129200000D01*
X72115872Y-129134670D01*
X72425252Y-129006521D01*
X72703687Y-128820477D01*
X72940477Y-128583687D01*
X73126521Y-128305252D01*
X73254670Y-127995872D01*
X73320000Y-127667435D01*
X73320000Y-127332565D01*
X78220000Y-127332565D01*
X78220000Y-127667435D01*
X78285330Y-127995872D01*
X78413479Y-128305252D01*
X78599523Y-128583687D01*
X78836313Y-128820477D01*
X79114748Y-129006521D01*
X79424128Y-129134670D01*
X79752565Y-129200000D01*
X80087435Y-129200000D01*
X80415872Y-129134670D01*
X80725252Y-129006521D01*
X81003687Y-128820477D01*
X81240477Y-128583687D01*
X81426521Y-128305252D01*
X81554670Y-127995872D01*
X81620000Y-127667435D01*
X81620000Y-127332565D01*
X81554670Y-127004128D01*
X81426521Y-126694748D01*
X81240477Y-126416313D01*
X81003687Y-126179523D01*
X80725252Y-125993479D01*
X80415872Y-125865330D01*
X80087435Y-125800000D01*
X79752565Y-125800000D01*
X79424128Y-125865330D01*
X79114748Y-125993479D01*
X78836313Y-126179523D01*
X78599523Y-126416313D01*
X78413479Y-126694748D01*
X78285330Y-127004128D01*
X78220000Y-127332565D01*
X73320000Y-127332565D01*
X73254670Y-127004128D01*
X73126521Y-126694748D01*
X72940477Y-126416313D01*
X72703687Y-126179523D01*
X72425252Y-125993479D01*
X72115872Y-125865330D01*
X71787435Y-125800000D01*
X71452565Y-125800000D01*
X71124128Y-125865330D01*
X70814748Y-125993479D01*
X70536313Y-126179523D01*
X70299523Y-126416313D01*
X70113479Y-126694748D01*
X70071895Y-126795140D01*
X70073072Y-126535000D01*
X70060812Y-126410518D01*
X70024502Y-126290820D01*
X69965537Y-126180506D01*
X69886185Y-126083815D01*
X69789494Y-126004463D01*
X69679180Y-125945498D01*
X69559482Y-125909188D01*
X69435000Y-125896928D01*
X68805750Y-125900000D01*
X68647000Y-126058750D01*
X68393000Y-126058750D01*
X68234250Y-125900000D01*
X67605000Y-125896928D01*
X67480518Y-125909188D01*
X67360820Y-125945498D01*
X67250506Y-126004463D01*
X67153815Y-126083815D01*
X67074463Y-126180506D01*
X67015498Y-126290820D01*
X66979188Y-126410518D01*
X66966928Y-126535000D01*
X61319781Y-126535000D01*
X61240477Y-126416313D01*
X61003687Y-126179523D01*
X60725252Y-125993479D01*
X60415872Y-125865330D01*
X60087435Y-125800000D01*
X59752565Y-125800000D01*
X59424128Y-125865330D01*
X59114748Y-125993479D01*
X58836313Y-126179523D01*
X58599523Y-126416313D01*
X58413479Y-126694748D01*
X58285330Y-127004128D01*
X58220000Y-127332565D01*
X53312766Y-127332565D01*
X53282658Y-127108078D01*
X53174250Y-126791240D01*
X53072807Y-126601454D01*
X52801761Y-126497844D01*
X51799605Y-127500000D01*
X51440395Y-127500000D01*
X50438239Y-126497844D01*
X50167193Y-126601454D01*
X50071892Y-126795889D01*
X50073072Y-126535000D01*
X50060812Y-126410518D01*
X50032820Y-126318239D01*
X50617844Y-126318239D01*
X51620000Y-127320395D01*
X52622156Y-126318239D01*
X52518546Y-126047193D01*
X52217852Y-125899810D01*
X51894182Y-125813922D01*
X51559977Y-125792829D01*
X51228078Y-125837342D01*
X50911240Y-125945750D01*
X50721454Y-126047193D01*
X50617844Y-126318239D01*
X50032820Y-126318239D01*
X50024502Y-126290820D01*
X49965537Y-126180506D01*
X49886185Y-126083815D01*
X49789494Y-126004463D01*
X49679180Y-125945498D01*
X49559482Y-125909188D01*
X49435000Y-125896928D01*
X48805750Y-125900000D01*
X48647000Y-126058750D01*
X48393000Y-126058750D01*
X48234250Y-125900000D01*
X47605000Y-125896928D01*
X47480518Y-125909188D01*
X47360820Y-125945498D01*
X47250506Y-126004463D01*
X47153815Y-126083815D01*
X47074463Y-126180506D01*
X47015498Y-126290820D01*
X46979188Y-126410518D01*
X46966928Y-126535000D01*
X45127000Y-126535000D01*
X45127000Y-119553740D01*
X81515000Y-119553740D01*
X81515000Y-119846260D01*
X81572068Y-120133158D01*
X81684010Y-120403411D01*
X81846525Y-120646632D01*
X82053368Y-120853475D01*
X82296589Y-121015990D01*
X82566842Y-121127932D01*
X82853740Y-121185000D01*
X83146260Y-121185000D01*
X83433158Y-121127932D01*
X83703411Y-121015990D01*
X83946632Y-120853475D01*
X84153475Y-120646632D01*
X84315990Y-120403411D01*
X84427932Y-120133158D01*
X84485000Y-119846260D01*
X84485000Y-119553740D01*
X84427932Y-119266842D01*
X84315990Y-118996589D01*
X84153475Y-118753368D01*
X83946632Y-118546525D01*
X83764466Y-118424805D01*
X83881355Y-118355178D01*
X84097588Y-118160269D01*
X84271641Y-117926920D01*
X84396825Y-117664099D01*
X84441476Y-117516890D01*
X84320155Y-117287000D01*
X83127000Y-117287000D01*
X83127000Y-117307000D01*
X82873000Y-117307000D01*
X82873000Y-117287000D01*
X81679845Y-117287000D01*
X81558524Y-117516890D01*
X81603175Y-117664099D01*
X81728359Y-117926920D01*
X81902412Y-118160269D01*
X82118645Y-118355178D01*
X82235534Y-118424805D01*
X82053368Y-118546525D01*
X81846525Y-118753368D01*
X81684010Y-118996589D01*
X81572068Y-119266842D01*
X81515000Y-119553740D01*
X45127000Y-119553740D01*
X45127000Y-118400000D01*
X70961928Y-118400000D01*
X70974188Y-118524482D01*
X71010498Y-118644180D01*
X71069463Y-118754494D01*
X71148815Y-118851185D01*
X71245506Y-118930537D01*
X71355820Y-118989502D01*
X71475518Y-119025812D01*
X71600000Y-119038072D01*
X72214250Y-119035000D01*
X72373000Y-118876250D01*
X72373000Y-117627000D01*
X71123750Y-117627000D01*
X70965000Y-117785750D01*
X70961928Y-118400000D01*
X45127000Y-118400000D01*
X45127000Y-116600000D01*
X70961928Y-116600000D01*
X70965000Y-117214250D01*
X71123750Y-117373000D01*
X72373000Y-117373000D01*
X72373000Y-116123750D01*
X72627000Y-116123750D01*
X72627000Y-117373000D01*
X72647000Y-117373000D01*
X72647000Y-117627000D01*
X72627000Y-117627000D01*
X72627000Y-118876250D01*
X72785750Y-119035000D01*
X73400000Y-119038072D01*
X73524482Y-119025812D01*
X73644180Y-118989502D01*
X73754494Y-118930537D01*
X73851185Y-118851185D01*
X73930537Y-118754494D01*
X73983880Y-118654697D01*
X74021495Y-118692312D01*
X74272905Y-118860299D01*
X74552257Y-118976011D01*
X74848816Y-119035000D01*
X75151184Y-119035000D01*
X75447743Y-118976011D01*
X75727095Y-118860299D01*
X75978505Y-118692312D01*
X76192312Y-118478505D01*
X76250000Y-118392169D01*
X76307688Y-118478505D01*
X76521495Y-118692312D01*
X76772905Y-118860299D01*
X77052257Y-118976011D01*
X77348816Y-119035000D01*
X77651184Y-119035000D01*
X77947743Y-118976011D01*
X78227095Y-118860299D01*
X78478505Y-118692312D01*
X78692312Y-118478505D01*
X78860299Y-118227095D01*
X78976011Y-117947743D01*
X79035000Y-117651184D01*
X79035000Y-117348816D01*
X78976011Y-117052257D01*
X78860299Y-116772905D01*
X78692312Y-116521495D01*
X78478505Y-116307688D01*
X78227095Y-116139701D01*
X77947743Y-116023989D01*
X77651184Y-115965000D01*
X77348816Y-115965000D01*
X77052257Y-116023989D01*
X76772905Y-116139701D01*
X76521495Y-116307688D01*
X76307688Y-116521495D01*
X76250000Y-116607831D01*
X76192312Y-116521495D01*
X75978505Y-116307688D01*
X75727095Y-116139701D01*
X75447743Y-116023989D01*
X75151184Y-115965000D01*
X74848816Y-115965000D01*
X74552257Y-116023989D01*
X74272905Y-116139701D01*
X74021495Y-116307688D01*
X73983880Y-116345303D01*
X73930537Y-116245506D01*
X73851185Y-116148815D01*
X73754494Y-116069463D01*
X73644180Y-116010498D01*
X73524482Y-115974188D01*
X73400000Y-115961928D01*
X72785750Y-115965000D01*
X72627000Y-116123750D01*
X72373000Y-116123750D01*
X72214250Y-115965000D01*
X71600000Y-115961928D01*
X71475518Y-115974188D01*
X71355820Y-116010498D01*
X71245506Y-116069463D01*
X71148815Y-116148815D01*
X71069463Y-116245506D01*
X71010498Y-116355820D01*
X70974188Y-116475518D01*
X70961928Y-116600000D01*
X45127000Y-116600000D01*
X45127000Y-114976890D01*
X81558524Y-114976890D01*
X81603175Y-115124099D01*
X81728359Y-115386920D01*
X81902412Y-115620269D01*
X82118645Y-115815178D01*
X82244255Y-115890000D01*
X82118645Y-115964822D01*
X81902412Y-116159731D01*
X81728359Y-116393080D01*
X81603175Y-116655901D01*
X81558524Y-116803110D01*
X81679845Y-117033000D01*
X82873000Y-117033000D01*
X82873000Y-114747000D01*
X83127000Y-114747000D01*
X83127000Y-117033000D01*
X84320155Y-117033000D01*
X84441476Y-116803110D01*
X84396825Y-116655901D01*
X84271641Y-116393080D01*
X84097588Y-116159731D01*
X83881355Y-115964822D01*
X83755745Y-115890000D01*
X83881355Y-115815178D01*
X84097588Y-115620269D01*
X84271641Y-115386920D01*
X84396825Y-115124099D01*
X84441476Y-114976890D01*
X84320155Y-114747000D01*
X83127000Y-114747000D01*
X82873000Y-114747000D01*
X81679845Y-114747000D01*
X81558524Y-114976890D01*
X45127000Y-114976890D01*
X45127000Y-110965000D01*
X46966928Y-110965000D01*
X46979188Y-111089482D01*
X47015498Y-111209180D01*
X47074463Y-111319494D01*
X47153815Y-111416185D01*
X47250506Y-111495537D01*
X47360820Y-111554502D01*
X47480518Y-111590812D01*
X47605000Y-111603072D01*
X48234250Y-111600000D01*
X48393000Y-111441250D01*
X48393000Y-110127000D01*
X47128750Y-110127000D01*
X46970000Y-110285750D01*
X46966928Y-110965000D01*
X45127000Y-110965000D01*
X45127000Y-109035000D01*
X46966928Y-109035000D01*
X46970000Y-109714250D01*
X47128750Y-109873000D01*
X48393000Y-109873000D01*
X48393000Y-108558750D01*
X48647000Y-108558750D01*
X48647000Y-109873000D01*
X48667000Y-109873000D01*
X48667000Y-110127000D01*
X48647000Y-110127000D01*
X48647000Y-111441250D01*
X48805750Y-111600000D01*
X49435000Y-111603072D01*
X49559482Y-111590812D01*
X49679180Y-111554502D01*
X49789494Y-111495537D01*
X49886185Y-111416185D01*
X49965537Y-111319494D01*
X50024502Y-111209180D01*
X50032819Y-111181761D01*
X50617844Y-111181761D01*
X50721454Y-111452807D01*
X51022148Y-111600190D01*
X51345818Y-111686078D01*
X51680023Y-111707171D01*
X52011922Y-111662658D01*
X52328760Y-111554250D01*
X52518546Y-111452807D01*
X52622156Y-111181761D01*
X51620000Y-110179605D01*
X50617844Y-111181761D01*
X50032819Y-111181761D01*
X50060812Y-111089482D01*
X50073072Y-110965000D01*
X50071966Y-110720389D01*
X50167193Y-110898546D01*
X50438239Y-111002156D01*
X51440395Y-110000000D01*
X51799605Y-110000000D01*
X52801761Y-111002156D01*
X53072807Y-110898546D01*
X53220190Y-110597852D01*
X53306078Y-110274182D01*
X53327171Y-109939977D01*
X53312766Y-109832565D01*
X58220000Y-109832565D01*
X58220000Y-110167435D01*
X58285330Y-110495872D01*
X58413479Y-110805252D01*
X58599523Y-111083687D01*
X58836313Y-111320477D01*
X59114748Y-111506521D01*
X59424128Y-111634670D01*
X59752565Y-111700000D01*
X60087435Y-111700000D01*
X60415872Y-111634670D01*
X60725252Y-111506521D01*
X61003687Y-111320477D01*
X61240477Y-111083687D01*
X61426521Y-110805252D01*
X61554670Y-110495872D01*
X61620000Y-110167435D01*
X61620000Y-109832565D01*
X61582095Y-109642002D01*
X68205000Y-109642002D01*
X68205000Y-110357997D01*
X68233867Y-110651087D01*
X68347943Y-111027146D01*
X68533193Y-111373725D01*
X68782497Y-111677503D01*
X69086275Y-111926807D01*
X69432853Y-112112057D01*
X69808912Y-112226133D01*
X70200000Y-112264652D01*
X70591087Y-112226133D01*
X70967146Y-112112057D01*
X71313725Y-111926807D01*
X71617503Y-111677503D01*
X71866807Y-111373725D01*
X72052057Y-111027147D01*
X72166133Y-110651088D01*
X72195000Y-110357998D01*
X72195000Y-109642003D01*
X72195000Y-109642002D01*
X77805000Y-109642002D01*
X77805000Y-110357997D01*
X77833867Y-110651087D01*
X77947943Y-111027146D01*
X78133193Y-111373725D01*
X78382497Y-111677503D01*
X78686275Y-111926807D01*
X79032853Y-112112057D01*
X79408912Y-112226133D01*
X79800000Y-112264652D01*
X80191087Y-112226133D01*
X80567146Y-112112057D01*
X80913725Y-111926807D01*
X81217503Y-111677503D01*
X81466807Y-111373725D01*
X81652057Y-111027147D01*
X81766133Y-110651088D01*
X81790577Y-110402901D01*
X81846525Y-110486632D01*
X82053368Y-110693475D01*
X82227760Y-110810000D01*
X82053368Y-110926525D01*
X81846525Y-111133368D01*
X81684010Y-111376589D01*
X81572068Y-111646842D01*
X81515000Y-111933740D01*
X81515000Y-112226260D01*
X81572068Y-112513158D01*
X81684010Y-112783411D01*
X81846525Y-113026632D01*
X82053368Y-113233475D01*
X82235534Y-113355195D01*
X82118645Y-113424822D01*
X81902412Y-113619731D01*
X81728359Y-113853080D01*
X81603175Y-114115901D01*
X81558524Y-114263110D01*
X81679845Y-114493000D01*
X82873000Y-114493000D01*
X82873000Y-114473000D01*
X83127000Y-114473000D01*
X83127000Y-114493000D01*
X84320155Y-114493000D01*
X84441476Y-114263110D01*
X84396825Y-114115901D01*
X84271641Y-113853080D01*
X84097588Y-113619731D01*
X83881355Y-113424822D01*
X83764466Y-113355195D01*
X83946632Y-113233475D01*
X84153475Y-113026632D01*
X84315990Y-112783411D01*
X84427932Y-112513158D01*
X84485000Y-112226260D01*
X84485000Y-111933740D01*
X84427932Y-111646842D01*
X84315990Y-111376589D01*
X84153475Y-111133368D01*
X83946632Y-110926525D01*
X83772240Y-110810000D01*
X83946632Y-110693475D01*
X84153475Y-110486632D01*
X84315990Y-110243411D01*
X84427932Y-109973158D01*
X84485000Y-109686260D01*
X84485000Y-109393740D01*
X84427932Y-109106842D01*
X84315990Y-108836589D01*
X84153475Y-108593368D01*
X84021620Y-108461513D01*
X84094180Y-108439502D01*
X84204494Y-108380537D01*
X84301185Y-108301185D01*
X84380537Y-108204494D01*
X84439502Y-108094180D01*
X84475812Y-107974482D01*
X84488072Y-107850000D01*
X84488072Y-106150000D01*
X84475812Y-106025518D01*
X84439502Y-105905820D01*
X84380537Y-105795506D01*
X84301185Y-105698815D01*
X84204494Y-105619463D01*
X84094180Y-105560498D01*
X83974482Y-105524188D01*
X83850000Y-105511928D01*
X82150000Y-105511928D01*
X82025518Y-105524188D01*
X81905820Y-105560498D01*
X81795506Y-105619463D01*
X81698815Y-105698815D01*
X81619463Y-105795506D01*
X81560498Y-105905820D01*
X81524188Y-106025518D01*
X81511928Y-106150000D01*
X81511928Y-107850000D01*
X81524188Y-107974482D01*
X81560498Y-108094180D01*
X81619463Y-108204494D01*
X81698815Y-108301185D01*
X81795506Y-108380537D01*
X81905820Y-108439502D01*
X81978380Y-108461513D01*
X81846525Y-108593368D01*
X81684010Y-108836589D01*
X81638260Y-108947040D01*
X81466807Y-108626275D01*
X81217503Y-108322497D01*
X80913725Y-108073193D01*
X80567147Y-107887943D01*
X80191088Y-107773867D01*
X79800000Y-107735348D01*
X79408913Y-107773867D01*
X79032854Y-107887943D01*
X78686276Y-108073193D01*
X78382498Y-108322497D01*
X78133193Y-108626275D01*
X77947943Y-108972853D01*
X77833867Y-109348912D01*
X77805000Y-109642002D01*
X72195000Y-109642002D01*
X72166133Y-109348913D01*
X72052057Y-108972853D01*
X71866807Y-108626275D01*
X71617503Y-108322497D01*
X71313725Y-108073193D01*
X70967147Y-107887943D01*
X70591088Y-107773867D01*
X70200000Y-107735348D01*
X69808913Y-107773867D01*
X69432854Y-107887943D01*
X69086276Y-108073193D01*
X68782498Y-108322497D01*
X68533193Y-108626275D01*
X68347943Y-108972853D01*
X68233867Y-109348912D01*
X68205000Y-109642002D01*
X61582095Y-109642002D01*
X61554670Y-109504128D01*
X61426521Y-109194748D01*
X61240477Y-108916313D01*
X61003687Y-108679523D01*
X60725252Y-108493479D01*
X60415872Y-108365330D01*
X60087435Y-108300000D01*
X59752565Y-108300000D01*
X59424128Y-108365330D01*
X59114748Y-108493479D01*
X58836313Y-108679523D01*
X58599523Y-108916313D01*
X58413479Y-109194748D01*
X58285330Y-109504128D01*
X58220000Y-109832565D01*
X53312766Y-109832565D01*
X53282658Y-109608078D01*
X53174250Y-109291240D01*
X53072807Y-109101454D01*
X52801761Y-108997844D01*
X51799605Y-110000000D01*
X51440395Y-110000000D01*
X50438239Y-108997844D01*
X50167193Y-109101454D01*
X50071892Y-109295889D01*
X50073072Y-109035000D01*
X50060812Y-108910518D01*
X50032820Y-108818239D01*
X50617844Y-108818239D01*
X51620000Y-109820395D01*
X52622156Y-108818239D01*
X52518546Y-108547193D01*
X52217852Y-108399810D01*
X51894182Y-108313922D01*
X51559977Y-108292829D01*
X51228078Y-108337342D01*
X50911240Y-108445750D01*
X50721454Y-108547193D01*
X50617844Y-108818239D01*
X50032820Y-108818239D01*
X50024502Y-108790820D01*
X49965537Y-108680506D01*
X49886185Y-108583815D01*
X49789494Y-108504463D01*
X49679180Y-108445498D01*
X49559482Y-108409188D01*
X49435000Y-108396928D01*
X48805750Y-108400000D01*
X48647000Y-108558750D01*
X48393000Y-108558750D01*
X48234250Y-108400000D01*
X47605000Y-108396928D01*
X47480518Y-108409188D01*
X47360820Y-108445498D01*
X47250506Y-108504463D01*
X47153815Y-108583815D01*
X47074463Y-108680506D01*
X47015498Y-108790820D01*
X46979188Y-108910518D01*
X46966928Y-109035000D01*
X45127000Y-109035000D01*
X45127000Y-101150000D01*
X46261928Y-101150000D01*
X46261928Y-102850000D01*
X46274188Y-102974482D01*
X46310498Y-103094180D01*
X46369463Y-103204494D01*
X46448815Y-103301185D01*
X46545506Y-103380537D01*
X46655820Y-103439502D01*
X46775518Y-103475812D01*
X46900000Y-103488072D01*
X48600000Y-103488072D01*
X48724482Y-103475812D01*
X48844180Y-103439502D01*
X48954494Y-103380537D01*
X49051185Y-103301185D01*
X49130537Y-103204494D01*
X49189502Y-103094180D01*
X49211513Y-103021620D01*
X49343368Y-103153475D01*
X49586589Y-103315990D01*
X49856842Y-103427932D01*
X50143740Y-103485000D01*
X50436260Y-103485000D01*
X50723158Y-103427932D01*
X50993411Y-103315990D01*
X51236632Y-103153475D01*
X51443475Y-102946632D01*
X51565195Y-102764466D01*
X51634822Y-102881355D01*
X51829731Y-103097588D01*
X52063080Y-103271641D01*
X52325901Y-103396825D01*
X52473110Y-103441476D01*
X52703000Y-103320155D01*
X52703000Y-102127000D01*
X52957000Y-102127000D01*
X52957000Y-103320155D01*
X53186890Y-103441476D01*
X53334099Y-103396825D01*
X53596920Y-103271641D01*
X53830269Y-103097588D01*
X54025178Y-102881355D01*
X54100000Y-102755745D01*
X54174822Y-102881355D01*
X54369731Y-103097588D01*
X54603080Y-103271641D01*
X54865901Y-103396825D01*
X55013110Y-103441476D01*
X55243000Y-103320155D01*
X55243000Y-102127000D01*
X55497000Y-102127000D01*
X55497000Y-103320155D01*
X55726890Y-103441476D01*
X55874099Y-103396825D01*
X56136920Y-103271641D01*
X56370269Y-103097588D01*
X56565178Y-102881355D01*
X56640000Y-102755745D01*
X56714822Y-102881355D01*
X56909731Y-103097588D01*
X57143080Y-103271641D01*
X57405901Y-103396825D01*
X57553110Y-103441476D01*
X57783000Y-103320155D01*
X57783000Y-102127000D01*
X55497000Y-102127000D01*
X55243000Y-102127000D01*
X52957000Y-102127000D01*
X52703000Y-102127000D01*
X52683000Y-102127000D01*
X52683000Y-101873000D01*
X52703000Y-101873000D01*
X52703000Y-100679845D01*
X52957000Y-100679845D01*
X52957000Y-101873000D01*
X55243000Y-101873000D01*
X55243000Y-100679845D01*
X55497000Y-100679845D01*
X55497000Y-101873000D01*
X57783000Y-101873000D01*
X57783000Y-100679845D01*
X58037000Y-100679845D01*
X58037000Y-101873000D01*
X58057000Y-101873000D01*
X58057000Y-102127000D01*
X58037000Y-102127000D01*
X58037000Y-103320155D01*
X58266890Y-103441476D01*
X58414099Y-103396825D01*
X58676920Y-103271641D01*
X58910269Y-103097588D01*
X59105178Y-102881355D01*
X59174805Y-102764466D01*
X59296525Y-102946632D01*
X59503368Y-103153475D01*
X59746589Y-103315990D01*
X60016842Y-103427932D01*
X60303740Y-103485000D01*
X60596260Y-103485000D01*
X60883158Y-103427932D01*
X61153411Y-103315990D01*
X61396632Y-103153475D01*
X61603475Y-102946632D01*
X61611247Y-102935000D01*
X63454068Y-102935000D01*
X63500000Y-102939524D01*
X63545932Y-102935000D01*
X63683292Y-102921471D01*
X63859540Y-102868007D01*
X64021972Y-102781186D01*
X64164344Y-102664344D01*
X64193630Y-102628659D01*
X65628665Y-101193624D01*
X65664344Y-101164344D01*
X65781186Y-101021972D01*
X65868007Y-100859540D01*
X65921471Y-100683292D01*
X65935000Y-100545932D01*
X65935000Y-100545931D01*
X65939524Y-100500001D01*
X65935000Y-100454069D01*
X65935000Y-96600000D01*
X70961928Y-96600000D01*
X70961928Y-98400000D01*
X70974188Y-98524482D01*
X71010498Y-98644180D01*
X71069463Y-98754494D01*
X71148815Y-98851185D01*
X71245506Y-98930537D01*
X71355820Y-98989502D01*
X71475518Y-99025812D01*
X71600000Y-99038072D01*
X73400000Y-99038072D01*
X73524482Y-99025812D01*
X73644180Y-98989502D01*
X73754494Y-98930537D01*
X73851185Y-98851185D01*
X73930537Y-98754494D01*
X73983880Y-98654697D01*
X74021495Y-98692312D01*
X74272905Y-98860299D01*
X74552257Y-98976011D01*
X74848816Y-99035000D01*
X75151184Y-99035000D01*
X75447743Y-98976011D01*
X75727095Y-98860299D01*
X75978505Y-98692312D01*
X76192312Y-98478505D01*
X76250000Y-98392169D01*
X76307688Y-98478505D01*
X76521495Y-98692312D01*
X76772905Y-98860299D01*
X77052257Y-98976011D01*
X77348816Y-99035000D01*
X77651184Y-99035000D01*
X77947743Y-98976011D01*
X78227095Y-98860299D01*
X78478505Y-98692312D01*
X78692312Y-98478505D01*
X78860299Y-98227095D01*
X78976011Y-97947743D01*
X79035000Y-97651184D01*
X79035000Y-97348816D01*
X78976011Y-97052257D01*
X78860299Y-96772905D01*
X78692312Y-96521495D01*
X78478505Y-96307688D01*
X78227095Y-96139701D01*
X77947743Y-96023989D01*
X77651184Y-95965000D01*
X77348816Y-95965000D01*
X77052257Y-96023989D01*
X76772905Y-96139701D01*
X76521495Y-96307688D01*
X76307688Y-96521495D01*
X76250000Y-96607831D01*
X76192312Y-96521495D01*
X75978505Y-96307688D01*
X75727095Y-96139701D01*
X75447743Y-96023989D01*
X75151184Y-95965000D01*
X74848816Y-95965000D01*
X74552257Y-96023989D01*
X74272905Y-96139701D01*
X74021495Y-96307688D01*
X73983880Y-96345303D01*
X73930537Y-96245506D01*
X73851185Y-96148815D01*
X73754494Y-96069463D01*
X73644180Y-96010498D01*
X73524482Y-95974188D01*
X73400000Y-95961928D01*
X71600000Y-95961928D01*
X71475518Y-95974188D01*
X71355820Y-96010498D01*
X71245506Y-96069463D01*
X71148815Y-96148815D01*
X71069463Y-96245506D01*
X71010498Y-96355820D01*
X70974188Y-96475518D01*
X70961928Y-96600000D01*
X65935000Y-96600000D01*
X65935000Y-89642002D01*
X68205000Y-89642002D01*
X68205000Y-90357997D01*
X68233867Y-90651087D01*
X68347943Y-91027146D01*
X68533193Y-91373725D01*
X68782497Y-91677503D01*
X69086275Y-91926807D01*
X69432853Y-92112057D01*
X69808912Y-92226133D01*
X70200000Y-92264652D01*
X70591087Y-92226133D01*
X70967146Y-92112057D01*
X71313725Y-91926807D01*
X71617503Y-91677503D01*
X71866807Y-91373725D01*
X72052057Y-91027147D01*
X72166133Y-90651088D01*
X72195000Y-90357998D01*
X72195000Y-89642003D01*
X72195000Y-89642002D01*
X77805000Y-89642002D01*
X77805000Y-90357997D01*
X77833867Y-90651087D01*
X77947943Y-91027146D01*
X78133193Y-91373725D01*
X78382497Y-91677503D01*
X78686275Y-91926807D01*
X79032853Y-92112057D01*
X79408912Y-92226133D01*
X79800000Y-92264652D01*
X80191087Y-92226133D01*
X80567146Y-92112057D01*
X80913725Y-91926807D01*
X81217503Y-91677503D01*
X81466807Y-91373725D01*
X81652057Y-91027147D01*
X81766133Y-90651088D01*
X81795000Y-90357998D01*
X81795000Y-89642003D01*
X81766133Y-89348913D01*
X81652057Y-88972853D01*
X81466807Y-88626275D01*
X81217503Y-88322497D01*
X80913725Y-88073193D01*
X80567147Y-87887943D01*
X80191088Y-87773867D01*
X79800000Y-87735348D01*
X79408913Y-87773867D01*
X79032854Y-87887943D01*
X78686276Y-88073193D01*
X78382498Y-88322497D01*
X78133193Y-88626275D01*
X77947943Y-88972853D01*
X77833867Y-89348912D01*
X77805000Y-89642002D01*
X72195000Y-89642002D01*
X72166133Y-89348913D01*
X72052057Y-88972853D01*
X71866807Y-88626275D01*
X71617503Y-88322497D01*
X71313725Y-88073193D01*
X70967147Y-87887943D01*
X70591088Y-87773867D01*
X70200000Y-87735348D01*
X69808913Y-87773867D01*
X69432854Y-87887943D01*
X69086276Y-88073193D01*
X68782498Y-88322497D01*
X68533193Y-88626275D01*
X68347943Y-88972853D01*
X68233867Y-89348912D01*
X68205000Y-89642002D01*
X65935000Y-89642002D01*
X65935000Y-82137289D01*
X70094859Y-77977431D01*
X70240256Y-77917205D01*
X70409774Y-77803937D01*
X70553937Y-77659774D01*
X70667205Y-77490256D01*
X70745226Y-77301898D01*
X70785000Y-77101939D01*
X70785000Y-76898061D01*
X70745226Y-76698102D01*
X70667205Y-76509744D01*
X70553937Y-76340226D01*
X70409774Y-76196063D01*
X70240256Y-76082795D01*
X70051898Y-76004774D01*
X69851939Y-75965000D01*
X69648061Y-75965000D01*
X69448102Y-76004774D01*
X69259744Y-76082795D01*
X69090226Y-76196063D01*
X68946063Y-76340226D01*
X68832795Y-76509744D01*
X68772569Y-76655141D01*
X64371336Y-81056375D01*
X64335657Y-81085656D01*
X64218815Y-81228028D01*
X64131994Y-81390460D01*
X64078529Y-81566709D01*
X64060476Y-81750000D01*
X64065001Y-81795942D01*
X64065000Y-100112710D01*
X63112711Y-101065000D01*
X61611247Y-101065000D01*
X61603475Y-101053368D01*
X61396632Y-100846525D01*
X61153411Y-100684010D01*
X60883158Y-100572068D01*
X60596260Y-100515000D01*
X60303740Y-100515000D01*
X60016842Y-100572068D01*
X59746589Y-100684010D01*
X59503368Y-100846525D01*
X59296525Y-101053368D01*
X59174805Y-101235534D01*
X59105178Y-101118645D01*
X58910269Y-100902412D01*
X58676920Y-100728359D01*
X58414099Y-100603175D01*
X58266890Y-100558524D01*
X58037000Y-100679845D01*
X57783000Y-100679845D01*
X57553110Y-100558524D01*
X57405901Y-100603175D01*
X57143080Y-100728359D01*
X56909731Y-100902412D01*
X56714822Y-101118645D01*
X56640000Y-101244255D01*
X56565178Y-101118645D01*
X56370269Y-100902412D01*
X56136920Y-100728359D01*
X55874099Y-100603175D01*
X55726890Y-100558524D01*
X55497000Y-100679845D01*
X55243000Y-100679845D01*
X55013110Y-100558524D01*
X54865901Y-100603175D01*
X54603080Y-100728359D01*
X54369731Y-100902412D01*
X54174822Y-101118645D01*
X54100000Y-101244255D01*
X54025178Y-101118645D01*
X53830269Y-100902412D01*
X53596920Y-100728359D01*
X53334099Y-100603175D01*
X53186890Y-100558524D01*
X52957000Y-100679845D01*
X52703000Y-100679845D01*
X52473110Y-100558524D01*
X52325901Y-100603175D01*
X52063080Y-100728359D01*
X51829731Y-100902412D01*
X51634822Y-101118645D01*
X51565195Y-101235534D01*
X51443475Y-101053368D01*
X51236632Y-100846525D01*
X50993411Y-100684010D01*
X50723158Y-100572068D01*
X50436260Y-100515000D01*
X50143740Y-100515000D01*
X49856842Y-100572068D01*
X49586589Y-100684010D01*
X49343368Y-100846525D01*
X49211513Y-100978380D01*
X49189502Y-100905820D01*
X49130537Y-100795506D01*
X49051185Y-100698815D01*
X48954494Y-100619463D01*
X48844180Y-100560498D01*
X48724482Y-100524188D01*
X48600000Y-100511928D01*
X46900000Y-100511928D01*
X46775518Y-100524188D01*
X46655820Y-100560498D01*
X46545506Y-100619463D01*
X46448815Y-100698815D01*
X46369463Y-100795506D01*
X46310498Y-100905820D01*
X46274188Y-101025518D01*
X46261928Y-101150000D01*
X45127000Y-101150000D01*
X45127000Y-90965000D01*
X46966928Y-90965000D01*
X46979188Y-91089482D01*
X47015498Y-91209180D01*
X47074463Y-91319494D01*
X47153815Y-91416185D01*
X47250506Y-91495537D01*
X47360820Y-91554502D01*
X47480518Y-91590812D01*
X47605000Y-91603072D01*
X48234250Y-91600000D01*
X48393000Y-91441250D01*
X48393000Y-90127000D01*
X47128750Y-90127000D01*
X46970000Y-90285750D01*
X46966928Y-90965000D01*
X45127000Y-90965000D01*
X45127000Y-89035000D01*
X46966928Y-89035000D01*
X46970000Y-89714250D01*
X47128750Y-89873000D01*
X48393000Y-89873000D01*
X48393000Y-88558750D01*
X48647000Y-88558750D01*
X48647000Y-89873000D01*
X48667000Y-89873000D01*
X48667000Y-90127000D01*
X48647000Y-90127000D01*
X48647000Y-91441250D01*
X48805750Y-91600000D01*
X49435000Y-91603072D01*
X49559482Y-91590812D01*
X49679180Y-91554502D01*
X49789494Y-91495537D01*
X49886185Y-91416185D01*
X49965537Y-91319494D01*
X50024502Y-91209180D01*
X50032819Y-91181761D01*
X50617844Y-91181761D01*
X50721454Y-91452807D01*
X51022148Y-91600190D01*
X51345818Y-91686078D01*
X51680023Y-91707171D01*
X52011922Y-91662658D01*
X52328760Y-91554250D01*
X52518546Y-91452807D01*
X52622156Y-91181761D01*
X51620000Y-90179605D01*
X50617844Y-91181761D01*
X50032819Y-91181761D01*
X50060812Y-91089482D01*
X50073072Y-90965000D01*
X50071966Y-90720389D01*
X50167193Y-90898546D01*
X50438239Y-91002156D01*
X51440395Y-90000000D01*
X51799605Y-90000000D01*
X52801761Y-91002156D01*
X53072807Y-90898546D01*
X53220190Y-90597852D01*
X53306078Y-90274182D01*
X53327171Y-89939977D01*
X53312766Y-89832565D01*
X58220000Y-89832565D01*
X58220000Y-90167435D01*
X58285330Y-90495872D01*
X58413479Y-90805252D01*
X58599523Y-91083687D01*
X58836313Y-91320477D01*
X59114748Y-91506521D01*
X59424128Y-91634670D01*
X59752565Y-91700000D01*
X60087435Y-91700000D01*
X60415872Y-91634670D01*
X60725252Y-91506521D01*
X61003687Y-91320477D01*
X61240477Y-91083687D01*
X61426521Y-90805252D01*
X61554670Y-90495872D01*
X61620000Y-90167435D01*
X61620000Y-89832565D01*
X61554670Y-89504128D01*
X61426521Y-89194748D01*
X61240477Y-88916313D01*
X61003687Y-88679523D01*
X60725252Y-88493479D01*
X60415872Y-88365330D01*
X60087435Y-88300000D01*
X59752565Y-88300000D01*
X59424128Y-88365330D01*
X59114748Y-88493479D01*
X58836313Y-88679523D01*
X58599523Y-88916313D01*
X58413479Y-89194748D01*
X58285330Y-89504128D01*
X58220000Y-89832565D01*
X53312766Y-89832565D01*
X53282658Y-89608078D01*
X53174250Y-89291240D01*
X53072807Y-89101454D01*
X52801761Y-88997844D01*
X51799605Y-90000000D01*
X51440395Y-90000000D01*
X50438239Y-88997844D01*
X50167193Y-89101454D01*
X50071892Y-89295889D01*
X50073072Y-89035000D01*
X50060812Y-88910518D01*
X50032820Y-88818239D01*
X50617844Y-88818239D01*
X51620000Y-89820395D01*
X52622156Y-88818239D01*
X52518546Y-88547193D01*
X52217852Y-88399810D01*
X51894182Y-88313922D01*
X51559977Y-88292829D01*
X51228078Y-88337342D01*
X50911240Y-88445750D01*
X50721454Y-88547193D01*
X50617844Y-88818239D01*
X50032820Y-88818239D01*
X50024502Y-88790820D01*
X49965537Y-88680506D01*
X49886185Y-88583815D01*
X49789494Y-88504463D01*
X49679180Y-88445498D01*
X49559482Y-88409188D01*
X49435000Y-88396928D01*
X48805750Y-88400000D01*
X48647000Y-88558750D01*
X48393000Y-88558750D01*
X48234250Y-88400000D01*
X47605000Y-88396928D01*
X47480518Y-88409188D01*
X47360820Y-88445498D01*
X47250506Y-88504463D01*
X47153815Y-88583815D01*
X47074463Y-88680506D01*
X47015498Y-88790820D01*
X46979188Y-88910518D01*
X46966928Y-89035000D01*
X45127000Y-89035000D01*
X45127000Y-68400000D01*
X60961928Y-68400000D01*
X60974188Y-68524482D01*
X61010498Y-68644180D01*
X61069463Y-68754494D01*
X61148815Y-68851185D01*
X61245506Y-68930537D01*
X61355820Y-68989502D01*
X61475518Y-69025812D01*
X61600000Y-69038072D01*
X62214250Y-69035000D01*
X62373000Y-68876250D01*
X62373000Y-67627000D01*
X61123750Y-67627000D01*
X60965000Y-67785750D01*
X60961928Y-68400000D01*
X45127000Y-68400000D01*
X45127000Y-66600000D01*
X60961928Y-66600000D01*
X60965000Y-67214250D01*
X61123750Y-67373000D01*
X62373000Y-67373000D01*
X62373000Y-66123750D01*
X62627000Y-66123750D01*
X62627000Y-67373000D01*
X62647000Y-67373000D01*
X62647000Y-67627000D01*
X62627000Y-67627000D01*
X62627000Y-68876250D01*
X62785750Y-69035000D01*
X63400000Y-69038072D01*
X63524482Y-69025812D01*
X63644180Y-68989502D01*
X63754494Y-68930537D01*
X63851185Y-68851185D01*
X63930537Y-68754494D01*
X63983880Y-68654697D01*
X64021495Y-68692312D01*
X64272905Y-68860299D01*
X64552257Y-68976011D01*
X64848816Y-69035000D01*
X65151184Y-69035000D01*
X65447743Y-68976011D01*
X65727095Y-68860299D01*
X65978505Y-68692312D01*
X66192312Y-68478505D01*
X66250000Y-68392169D01*
X66307688Y-68478505D01*
X66521495Y-68692312D01*
X66772905Y-68860299D01*
X67052257Y-68976011D01*
X67348816Y-69035000D01*
X67651184Y-69035000D01*
X67947743Y-68976011D01*
X68227095Y-68860299D01*
X68478505Y-68692312D01*
X68692312Y-68478505D01*
X68860299Y-68227095D01*
X68976011Y-67947743D01*
X69035000Y-67651184D01*
X69035000Y-67348816D01*
X68976011Y-67052257D01*
X68860299Y-66772905D01*
X68692312Y-66521495D01*
X68478505Y-66307688D01*
X68227095Y-66139701D01*
X67947743Y-66023989D01*
X67651184Y-65965000D01*
X67348816Y-65965000D01*
X67052257Y-66023989D01*
X66772905Y-66139701D01*
X66521495Y-66307688D01*
X66307688Y-66521495D01*
X66250000Y-66607831D01*
X66192312Y-66521495D01*
X65978505Y-66307688D01*
X65727095Y-66139701D01*
X65447743Y-66023989D01*
X65151184Y-65965000D01*
X64848816Y-65965000D01*
X64552257Y-66023989D01*
X64272905Y-66139701D01*
X64021495Y-66307688D01*
X63983880Y-66345303D01*
X63930537Y-66245506D01*
X63851185Y-66148815D01*
X63754494Y-66069463D01*
X63644180Y-66010498D01*
X63524482Y-65974188D01*
X63400000Y-65961928D01*
X62785750Y-65965000D01*
X62627000Y-66123750D01*
X62373000Y-66123750D01*
X62214250Y-65965000D01*
X61600000Y-65961928D01*
X61475518Y-65974188D01*
X61355820Y-66010498D01*
X61245506Y-66069463D01*
X61148815Y-66148815D01*
X61069463Y-66245506D01*
X61010498Y-66355820D01*
X60974188Y-66475518D01*
X60961928Y-66600000D01*
X45127000Y-66600000D01*
X45127000Y-61056890D01*
X45558524Y-61056890D01*
X45603175Y-61204099D01*
X45728359Y-61466920D01*
X45902412Y-61700269D01*
X46118645Y-61895178D01*
X46368748Y-62044157D01*
X46643109Y-62141481D01*
X46873000Y-62020814D01*
X46873000Y-60827000D01*
X47127000Y-60827000D01*
X47127000Y-62020814D01*
X47356891Y-62141481D01*
X47631252Y-62044157D01*
X47881355Y-61895178D01*
X48097588Y-61700269D01*
X48271641Y-61466920D01*
X48396825Y-61204099D01*
X48441476Y-61056890D01*
X48320155Y-60827000D01*
X47127000Y-60827000D01*
X46873000Y-60827000D01*
X45679845Y-60827000D01*
X45558524Y-61056890D01*
X45127000Y-61056890D01*
X45127000Y-58516890D01*
X45558524Y-58516890D01*
X45603175Y-58664099D01*
X45728359Y-58926920D01*
X45902412Y-59160269D01*
X46118645Y-59355178D01*
X46244255Y-59430000D01*
X46118645Y-59504822D01*
X45902412Y-59699731D01*
X45728359Y-59933080D01*
X45603175Y-60195901D01*
X45558524Y-60343110D01*
X45679845Y-60573000D01*
X46873000Y-60573000D01*
X46873000Y-58287000D01*
X47127000Y-58287000D01*
X47127000Y-60573000D01*
X48320155Y-60573000D01*
X48441476Y-60343110D01*
X48396825Y-60195901D01*
X48271641Y-59933080D01*
X48097588Y-59699731D01*
X48033544Y-59642002D01*
X58205000Y-59642002D01*
X58205000Y-60357997D01*
X58233867Y-60651087D01*
X58347943Y-61027146D01*
X58533193Y-61373725D01*
X58782497Y-61677503D01*
X59086275Y-61926807D01*
X59432853Y-62112057D01*
X59808912Y-62226133D01*
X60200000Y-62264652D01*
X60591087Y-62226133D01*
X60967146Y-62112057D01*
X61313725Y-61926807D01*
X61617503Y-61677503D01*
X61866807Y-61373725D01*
X62052057Y-61027147D01*
X62166133Y-60651088D01*
X62195000Y-60357998D01*
X62195000Y-59642003D01*
X62195000Y-59642002D01*
X67805000Y-59642002D01*
X67805000Y-60357997D01*
X67833867Y-60651087D01*
X67947943Y-61027146D01*
X68133193Y-61373725D01*
X68382497Y-61677503D01*
X68686275Y-61926807D01*
X69032853Y-62112057D01*
X69408912Y-62226133D01*
X69800000Y-62264652D01*
X70191087Y-62226133D01*
X70567146Y-62112057D01*
X70913725Y-61926807D01*
X71217503Y-61677503D01*
X71466807Y-61373725D01*
X71652057Y-61027147D01*
X71766133Y-60651088D01*
X71795000Y-60357998D01*
X71795000Y-59642003D01*
X71766133Y-59348913D01*
X71652057Y-58972853D01*
X71466807Y-58626275D01*
X71217503Y-58322497D01*
X70913725Y-58073193D01*
X70567147Y-57887943D01*
X70191088Y-57773867D01*
X69800000Y-57735348D01*
X69408913Y-57773867D01*
X69032854Y-57887943D01*
X68686276Y-58073193D01*
X68382498Y-58322497D01*
X68133193Y-58626275D01*
X67947943Y-58972853D01*
X67833867Y-59348912D01*
X67805000Y-59642002D01*
X62195000Y-59642002D01*
X62166133Y-59348913D01*
X62052057Y-58972853D01*
X61866807Y-58626275D01*
X61617503Y-58322497D01*
X61313725Y-58073193D01*
X60967147Y-57887943D01*
X60591088Y-57773867D01*
X60200000Y-57735348D01*
X59808913Y-57773867D01*
X59432854Y-57887943D01*
X59086276Y-58073193D01*
X58782498Y-58322497D01*
X58533193Y-58626275D01*
X58347943Y-58972853D01*
X58233867Y-59348912D01*
X58205000Y-59642002D01*
X48033544Y-59642002D01*
X47881355Y-59504822D01*
X47755745Y-59430000D01*
X47881355Y-59355178D01*
X48097588Y-59160269D01*
X48271641Y-58926920D01*
X48396825Y-58664099D01*
X48441476Y-58516890D01*
X48320155Y-58287000D01*
X47127000Y-58287000D01*
X46873000Y-58287000D01*
X45679845Y-58287000D01*
X45558524Y-58516890D01*
X45127000Y-58516890D01*
X45127000Y-47150000D01*
X45511928Y-47150000D01*
X45511928Y-48850000D01*
X45524188Y-48974482D01*
X45560498Y-49094180D01*
X45619463Y-49204494D01*
X45698815Y-49301185D01*
X45795506Y-49380537D01*
X45905820Y-49439502D01*
X45978380Y-49461513D01*
X45846525Y-49593368D01*
X45684010Y-49836589D01*
X45572068Y-50106842D01*
X45515000Y-50393740D01*
X45515000Y-50686260D01*
X45572068Y-50973158D01*
X45684010Y-51243411D01*
X45846525Y-51486632D01*
X46053368Y-51693475D01*
X46227760Y-51810000D01*
X46053368Y-51926525D01*
X45846525Y-52133368D01*
X45684010Y-52376589D01*
X45572068Y-52646842D01*
X45515000Y-52933740D01*
X45515000Y-53226260D01*
X45572068Y-53513158D01*
X45684010Y-53783411D01*
X45846525Y-54026632D01*
X46053368Y-54233475D01*
X46227760Y-54350000D01*
X46053368Y-54466525D01*
X45846525Y-54673368D01*
X45684010Y-54916589D01*
X45572068Y-55186842D01*
X45515000Y-55473740D01*
X45515000Y-55766260D01*
X45572068Y-56053158D01*
X45684010Y-56323411D01*
X45846525Y-56566632D01*
X46053368Y-56773475D01*
X46235534Y-56895195D01*
X46118645Y-56964822D01*
X45902412Y-57159731D01*
X45728359Y-57393080D01*
X45603175Y-57655901D01*
X45558524Y-57803110D01*
X45679845Y-58033000D01*
X46873000Y-58033000D01*
X46873000Y-58013000D01*
X47127000Y-58013000D01*
X47127000Y-58033000D01*
X48320155Y-58033000D01*
X48441476Y-57803110D01*
X48396825Y-57655901D01*
X48271641Y-57393080D01*
X48097588Y-57159731D01*
X47881355Y-56964822D01*
X47764466Y-56895195D01*
X47946632Y-56773475D01*
X48153475Y-56566632D01*
X48315990Y-56323411D01*
X48427932Y-56053158D01*
X48485000Y-55766260D01*
X48485000Y-55473740D01*
X48427932Y-55186842D01*
X48315990Y-54916589D01*
X48153475Y-54673368D01*
X47946632Y-54466525D01*
X47772240Y-54350000D01*
X47946632Y-54233475D01*
X48153475Y-54026632D01*
X48315990Y-53783411D01*
X48427932Y-53513158D01*
X48485000Y-53226260D01*
X48485000Y-52933740D01*
X48427932Y-52646842D01*
X48315990Y-52376589D01*
X48153475Y-52133368D01*
X47946632Y-51926525D01*
X47772240Y-51810000D01*
X47946632Y-51693475D01*
X48153475Y-51486632D01*
X48315990Y-51243411D01*
X48427932Y-50973158D01*
X48485000Y-50686260D01*
X48485000Y-50393740D01*
X48427932Y-50106842D01*
X48315990Y-49836589D01*
X48153475Y-49593368D01*
X48021620Y-49461513D01*
X48094180Y-49439502D01*
X48204494Y-49380537D01*
X48301185Y-49301185D01*
X48380537Y-49204494D01*
X48439502Y-49094180D01*
X48475812Y-48974482D01*
X48488072Y-48850000D01*
X48488072Y-47150000D01*
X48475812Y-47025518D01*
X48439502Y-46905820D01*
X48380537Y-46795506D01*
X48301185Y-46698815D01*
X48204494Y-46619463D01*
X48094180Y-46560498D01*
X47974482Y-46524188D01*
X47850000Y-46511928D01*
X46150000Y-46511928D01*
X46025518Y-46524188D01*
X45905820Y-46560498D01*
X45795506Y-46619463D01*
X45698815Y-46698815D01*
X45619463Y-46795506D01*
X45560498Y-46905820D01*
X45524188Y-47025518D01*
X45511928Y-47150000D01*
X45127000Y-47150000D01*
X45127000Y-44377000D01*
X84873000Y-44377000D01*
X84873000Y-148123000D01*
G37*
%TD.AperFunction*%
%TD*%
M02*
