M48
; DRILL file {KiCad 5.1.8} date Sat Dec  5 20:58:09 2020
; FORMAT={-:-/ absolute / inch / decimal}
; #@! TF.CreationDate,2020-12-05T20:58:09+00:00
; #@! TF.GenerationSoftware,Kicad,Pcbnew,5.1.8
; #@! TF.FileFunction,Plated,1,2,PTH
FMAT,2
INCH
T1C0.0157
T2C0.0276
T3C0.0315
T4C0.0394
T5C0.0433
%
G90
G05
T1
X3.8287Y-4.1339
X3.8287Y-4.2421
X3.8287Y-4.3602
X3.8484Y-3.4547
X3.9173Y-3.5728
X3.9862Y-3.4843
X3.9862Y-4.4783
X4.124Y-1.8012
X4.124Y-2.4902
X4.124Y-2.5787
X4.124Y-2.9921
X4.1339Y-2.4311
X4.1339Y-3.6811
X4.1437Y-4.4783
X4.1634Y-2.2244
X4.2224Y-2.2146
X4.2323Y-3.248
X4.3209Y-2.815
X4.3406Y-3.1398
X4.3406Y-3.248
X4.3898Y-4.6752
X4.4488Y-4.4193
X4.4685Y-3.7697
X4.4685Y-3.9075
X4.4685Y-4.0453
X4.4882Y-1.9488
X4.4882Y-3.4646
X4.498Y-4.5079
X4.5472Y-3.1693
X4.5571Y-2.6476
X4.5669Y-1.7913
X4.5709Y-4.5079
X4.6358Y-4.626
X4.6484Y-2.1331
X4.6555Y-2.4213
X4.6555Y-3.0217
X4.685Y-3.0906
X4.7146Y-1.8012
X4.7146Y-4.1043
X4.7244Y-3.8386
X4.7244Y-4.626
X4.7244Y-4.7244
X4.7539Y-3.0217
X4.8228Y-2.5591
X4.8228Y-2.6575
X4.8228Y-3.1693
X4.8327Y-1.998
X4.8327Y-3.3465
X4.9016Y-3.3465
X4.9114Y-3.6319
X4.9114Y-4.3012
X4.9213Y-3.937
X4.9606Y-2.4114
X5.0197Y-3.6319
X5.0295Y-2.0768
X5.0295Y-3.2579
X5.0295Y-3.5138
X5.0394Y-4.3012
X5.0492Y-4.2323
X5.0787Y-2.5886
X5.1319Y-3.5138
X5.1476Y-2.5886
X5.1575Y-2.1654
X5.1575Y-3.8091
X5.1673Y-2.7756
X5.1673Y-2.9429
X5.1673Y-3.2579
X5.2362Y-2.2778
T2
X4.498Y-2.2835
X4.498Y-2.4835
T3
X5.0197Y-4.5571
X5.0197Y-4.6358
X4.8524Y-4.9409
X4.8524Y-5.0197
X5.0098Y-1.9685
X5.1098Y-1.8685
X5.2098Y-1.9685
X3.865Y-2.6575
X3.965Y-2.7575
X4.065Y-2.6575
T4
X5.2362Y-4.2126
X5.2362Y-4.3126
X5.2362Y-4.4126
X5.2362Y-4.5126
X5.2362Y-4.6126
X5.2362Y-4.7126
X3.8189Y-1.8898
X3.8189Y-1.9898
X3.8189Y-2.0898
X3.8189Y-2.1898
X3.8189Y-2.2898
X3.8189Y-2.3898
X4.0685Y-4.7736
X4.0685Y-4.8736
X4.1685Y-4.7736
X4.1685Y-4.8736
X4.2685Y-4.7736
X4.2685Y-4.8736
X4.3685Y-4.7736
X4.3685Y-4.8736
X4.4685Y-4.7736
X4.4685Y-4.8736
X3.8484Y-4.0157
X3.9484Y-4.0157
X4.0484Y-4.0157
X4.1484Y-4.0157
X4.2484Y-4.0157
X4.3484Y-4.0157
T5
X5.0591Y-4.8425
X5.0591Y-5.2425
X5.2067Y-4.8461
X5.2067Y-5.2461
T0
M30
