%TF.GenerationSoftware,KiCad,Pcbnew,5.1.8*%
%TF.CreationDate,2020-12-05T20:58:01+00:00*%
%TF.ProjectId,oscillator_prototype,6f736369-6c6c-4617-946f-725f70726f74,rev?*%
%TF.SameCoordinates,Original*%
%TF.FileFunction,Copper,L2,Bot*%
%TF.FilePolarity,Positive*%
%FSLAX46Y46*%
G04 Gerber Fmt 4.6, Leading zero omitted, Abs format (unit mm)*
G04 Created by KiCad (PCBNEW 5.1.8) date 2020-12-05 20:58:01*
%MOMM*%
%LPD*%
G01*
G04 APERTURE LIST*
%TA.AperFunction,ComponentPad*%
%ADD10R,1.700000X1.700000*%
%TD*%
%TA.AperFunction,ComponentPad*%
%ADD11O,1.700000X1.700000*%
%TD*%
%TA.AperFunction,ComponentPad*%
%ADD12C,1.700000*%
%TD*%
%TA.AperFunction,ComponentPad*%
%ADD13C,1.400000*%
%TD*%
%TA.AperFunction,ComponentPad*%
%ADD14O,1.400000X1.400000*%
%TD*%
%TA.AperFunction,ComponentPad*%
%ADD15C,1.600000*%
%TD*%
%TA.AperFunction,ComponentPad*%
%ADD16R,1.600000X1.600000*%
%TD*%
%TA.AperFunction,ComponentPad*%
%ADD17C,1.440000*%
%TD*%
%TA.AperFunction,ComponentPad*%
%ADD18O,2.200000X2.200000*%
%TD*%
%TA.AperFunction,ComponentPad*%
%ADD19R,2.200000X2.200000*%
%TD*%
%TA.AperFunction,SMDPad,CuDef*%
%ADD20R,2.500000X2.500000*%
%TD*%
%TA.AperFunction,ViaPad*%
%ADD21C,0.800000*%
%TD*%
%TA.AperFunction,Conductor*%
%ADD22C,0.250000*%
%TD*%
%TA.AperFunction,Conductor*%
%ADD23C,0.600000*%
%TD*%
%TA.AperFunction,Conductor*%
%ADD24C,0.254000*%
%TD*%
%TA.AperFunction,Conductor*%
%ADD25C,0.100000*%
%TD*%
G04 APERTURE END LIST*
D10*
%TO.P,J14,1*%
%TO.N,fine_m*%
X97000000Y-48000000D03*
D11*
%TO.P,J14,2*%
%TO.N,coarse_m*%
X97000000Y-50540000D03*
%TO.P,J14,3*%
%TO.N,v_per_oct_m*%
X97000000Y-53080000D03*
%TO.P,J14,4*%
%TO.N,lin_fm_m*%
X97000000Y-55620000D03*
%TO.P,J14,5*%
%TO.N,GND*%
X97000000Y-58160000D03*
%TO.P,J14,6*%
X97000000Y-60700000D03*
%TD*%
%TO.P,J7,1*%
%TO.N,Net-(D5-Pad1)*%
%TA.AperFunction,ComponentPad*%
G36*
G01*
X112900000Y-120400000D02*
X114100000Y-120400000D01*
G75*
G02*
X114350000Y-120650000I0J-250000D01*
G01*
X114350000Y-121850000D01*
G75*
G02*
X114100000Y-122100000I-250000J0D01*
G01*
X112900000Y-122100000D01*
G75*
G02*
X112650000Y-121850000I0J250000D01*
G01*
X112650000Y-120650000D01*
G75*
G02*
X112900000Y-120400000I250000J0D01*
G01*
G37*
%TD.AperFunction*%
D12*
%TO.P,J7,3*%
%TO.N,GND*%
X110960000Y-121250000D03*
%TO.P,J7,5*%
X108420000Y-121250000D03*
%TO.P,J7,7*%
X105880000Y-121250000D03*
%TO.P,J7,9*%
%TO.N,Net-(D4-Pad2)*%
X103340000Y-121250000D03*
%TO.P,J7,2*%
%TO.N,Net-(D5-Pad1)*%
X113500000Y-123790000D03*
%TO.P,J7,4*%
%TO.N,GND*%
X110960000Y-123790000D03*
%TO.P,J7,6*%
X108420000Y-123790000D03*
%TO.P,J7,8*%
X105880000Y-123790000D03*
%TO.P,J7,10*%
%TO.N,Net-(D4-Pad2)*%
X103340000Y-123790000D03*
%TD*%
D11*
%TO.P,J12,6*%
%TO.N,saw_m*%
X133000000Y-119700000D03*
%TO.P,J12,5*%
%TO.N,GND*%
X133000000Y-117160000D03*
%TO.P,J12,4*%
X133000000Y-114620000D03*
%TO.P,J12,3*%
%TO.N,switch_b_m*%
X133000000Y-112080000D03*
%TO.P,J12,2*%
%TO.N,tri_m*%
X133000000Y-109540000D03*
D10*
%TO.P,J12,1*%
%TO.N,-12V*%
X133000000Y-107000000D03*
%TD*%
D13*
%TO.P,R4,1*%
%TO.N,Net-(C1-Pad1)*%
X114250000Y-58000000D03*
D14*
%TO.P,R4,2*%
%TO.N,Net-(C1-Pad2)*%
X114250000Y-63080000D03*
%TD*%
D11*
%TO.P,J10,6*%
%TO.N,+12V*%
X110450000Y-102000000D03*
%TO.P,J10,5*%
%TO.N,GND*%
X107910000Y-102000000D03*
%TO.P,J10,4*%
X105370000Y-102000000D03*
%TO.P,J10,3*%
X102830000Y-102000000D03*
%TO.P,J10,2*%
%TO.N,switch_a_m*%
X100290000Y-102000000D03*
D10*
%TO.P,J10,1*%
%TO.N,sync_m*%
X97750000Y-102000000D03*
%TD*%
D15*
%TO.P,C9,2*%
%TO.N,GND*%
X123250000Y-127500000D03*
D16*
%TO.P,C9,1*%
%TO.N,+12V*%
X123250000Y-125500000D03*
%TD*%
D17*
%TO.P,RV3,1*%
%TO.N,Net-(C1-Pad1)*%
X127250000Y-50000000D03*
%TO.P,RV3,2*%
%TO.N,Net-(Q3-Pad2)*%
X129790000Y-47460000D03*
%TO.P,RV3,3*%
%TO.N,Net-(R8-Pad2)*%
X132330000Y-50000000D03*
%TD*%
D16*
%TO.P,C18,1*%
%TO.N,GND*%
X127500000Y-117750000D03*
D15*
%TO.P,C18,2*%
%TO.N,-12V*%
X127500000Y-115750000D03*
%TD*%
D18*
%TO.P,D4,2*%
%TO.N,Net-(D4-Pad2)*%
X128500000Y-133160000D03*
D19*
%TO.P,D4,1*%
%TO.N,+12V*%
X128500000Y-123000000D03*
%TD*%
D17*
%TO.P,RV6,3*%
%TO.N,GND*%
X98170000Y-67500000D03*
%TO.P,RV6,2*%
%TO.N,Net-(R29-Pad1)*%
X100710000Y-70040000D03*
%TO.P,RV6,1*%
%TO.N,Net-(D3-Pad1)*%
X103250000Y-67500000D03*
%TD*%
D19*
%TO.P,D5,1*%
%TO.N,Net-(D5-Pad1)*%
X132250000Y-133250000D03*
D18*
%TO.P,D5,2*%
%TO.N,-12V*%
X132250000Y-123090000D03*
%TD*%
D20*
%TO.P,TP1,1*%
%TO.N,Net-(C1-Pad1)*%
X116750000Y-49500000D03*
%TD*%
D21*
%TO.N,Net-(C1-Pad2)*%
X105750000Y-56500000D03*
%TO.N,Net-(C1-Pad1)*%
X118070010Y-54179990D03*
X107250000Y-56250000D03*
%TO.N,GND*%
X114000000Y-49500000D03*
X124750000Y-109250000D03*
X131000000Y-96750000D03*
X105250000Y-113750000D03*
X113000000Y-112250000D03*
X114000000Y-88000000D03*
X104750000Y-45750000D03*
X116000000Y-45500000D03*
X119750000Y-45750000D03*
X118250000Y-61500000D03*
X115750000Y-67250000D03*
X109750000Y-71500000D03*
X104750000Y-76000000D03*
X127750000Y-52750000D03*
X104750000Y-65500000D03*
X105000000Y-61750000D03*
X97250000Y-110750000D03*
X97250000Y-107750000D03*
X97250000Y-105000000D03*
X131250000Y-70500000D03*
X131250000Y-74750000D03*
X124500000Y-85000000D03*
X120750000Y-76750000D03*
X118250000Y-76750000D03*
X120000000Y-120000000D03*
X120000000Y-117500000D03*
X117750000Y-117500000D03*
X113500000Y-102750000D03*
X113500000Y-99250000D03*
X113500000Y-95750000D03*
X130750000Y-65750000D03*
X129000000Y-65750000D03*
X122500000Y-65000000D03*
X122500000Y-67500000D03*
X110250000Y-82500000D03*
X107500000Y-82500000D03*
X110250000Y-79750000D03*
X101250000Y-88500000D03*
X99500000Y-90750000D03*
X125000000Y-100000000D03*
X120000000Y-97500000D03*
X127500000Y-92250000D03*
X124750000Y-92250000D03*
X127750000Y-82750000D03*
X131250000Y-82750000D03*
X122750000Y-85000000D03*
%TO.N,-12V*%
X111500000Y-118750000D03*
X119750000Y-104250000D03*
X119000000Y-78500000D03*
X126000000Y-61250000D03*
X104750000Y-63250000D03*
X101250000Y-113750000D03*
X105000000Y-93500000D03*
X97750000Y-87750000D03*
%TO.N,Net-(Q2-Pad3)*%
X133000000Y-57855000D03*
X131000000Y-55000000D03*
%TO.N,/soft_sync_pull_down*%
X116100001Y-114500000D03*
X114250000Y-114500000D03*
%TO.N,Net-(R1-Pad1)*%
X115500000Y-80500000D03*
X122500000Y-80500000D03*
%TO.N,switch_b_m*%
X128000000Y-109250000D03*
%TO.N,saw_m*%
X127750000Y-89250000D03*
X130350010Y-89250000D03*
%TO.N,tri_m*%
X128250000Y-107500000D03*
%TO.N,Net-(Q3-Pad2)*%
X122750000Y-50750000D03*
%TD*%
D22*
%TO.N,Net-(C1-Pad2)*%
X112330000Y-63080000D02*
X105750000Y-56500000D01*
X114250000Y-63080000D02*
X112330000Y-63080000D01*
%TO.N,Net-(C1-Pad1)*%
X116750000Y-49500000D02*
X116750000Y-52859980D01*
X116750000Y-52859980D02*
X118070010Y-54179990D01*
X114250000Y-58000000D02*
X109000000Y-58000000D01*
X109000000Y-58000000D02*
X107250000Y-56250000D01*
D23*
%TO.N,-12V*%
X95999999Y-117749999D02*
X95999999Y-113750001D01*
X95999999Y-126999999D02*
X95999999Y-117749999D01*
X110499999Y-117749999D02*
X111500000Y-118750000D01*
X95999999Y-117749999D02*
X110499999Y-117749999D01*
X133000000Y-103500000D02*
X133000000Y-102000000D01*
X133000000Y-107000000D02*
X133000000Y-103500000D01*
X133000000Y-103500000D02*
X120500000Y-103500000D01*
X120500000Y-103500000D02*
X119750000Y-104250000D01*
X133000000Y-78500000D02*
X126000000Y-78500000D01*
X126000000Y-78500000D02*
X119000000Y-78500000D01*
X126000000Y-61250000D02*
X126000000Y-78500000D01*
X133000000Y-102000000D02*
X133000000Y-78500000D01*
X100614398Y-63250000D02*
X104750000Y-63250000D01*
X95999999Y-89500001D02*
X95999999Y-67864399D01*
X95999999Y-67864399D02*
X100614398Y-63250000D01*
X95999999Y-113750001D02*
X95999999Y-93500001D01*
X95999999Y-113750001D02*
X101249999Y-113750001D01*
X101249999Y-113750001D02*
X101250000Y-113750000D01*
X95999999Y-93500001D02*
X95999999Y-89500001D01*
X95999999Y-93500001D02*
X104999999Y-93500001D01*
X104999999Y-93500001D02*
X105000000Y-93500000D01*
X101000000Y-132000000D02*
X95999999Y-126999999D01*
X95999999Y-89500001D02*
X97750000Y-87750000D01*
X123750000Y-132000000D02*
X101000000Y-132000000D01*
X125750000Y-130000000D02*
X123750000Y-132000000D01*
X125750000Y-116368630D02*
X125750000Y-130000000D01*
X127500000Y-115750000D02*
X126368630Y-115750000D01*
X126368630Y-115750000D02*
X125750000Y-116368630D01*
D22*
%TO.N,Net-(Q2-Pad3)*%
X133000000Y-57000000D02*
X133000000Y-57855000D01*
X131000000Y-55000000D02*
X133000000Y-57000000D01*
%TO.N,/soft_sync_pull_down*%
X114250000Y-114500000D02*
X116100001Y-114500000D01*
%TO.N,Net-(R1-Pad1)*%
X116750000Y-80500000D02*
X115500000Y-80500000D01*
X116750000Y-80500000D02*
X122500000Y-80500000D01*
%TO.N,switch_b_m*%
X133000000Y-112080000D02*
X130830000Y-112080000D01*
X130830000Y-112080000D02*
X128000000Y-109250000D01*
%TO.N,saw_m*%
X130350010Y-89250000D02*
X127750000Y-89250000D01*
%TO.N,tri_m*%
X133000000Y-109540000D02*
X130290000Y-109540000D01*
X130290000Y-109540000D02*
X128250000Y-107500000D01*
%TO.N,Net-(Q3-Pad2)*%
X122750000Y-50750000D02*
X122750000Y-48500000D01*
X122750000Y-48500000D02*
X123790000Y-47460000D01*
X129790000Y-47460000D02*
X123790000Y-47460000D01*
X123790000Y-47460000D02*
X123250000Y-48000000D01*
%TD*%
D24*
%TO.N,GND*%
X134873000Y-134873000D02*
X133713678Y-134873000D01*
X133801185Y-134801185D01*
X133880537Y-134704494D01*
X133939502Y-134594180D01*
X133975812Y-134474482D01*
X133988072Y-134350000D01*
X133988072Y-132150000D01*
X133975812Y-132025518D01*
X133939502Y-131905820D01*
X133880537Y-131795506D01*
X133801185Y-131698815D01*
X133704494Y-131619463D01*
X133594180Y-131560498D01*
X133474482Y-131524188D01*
X133350000Y-131511928D01*
X131150000Y-131511928D01*
X131025518Y-131524188D01*
X130905820Y-131560498D01*
X130795506Y-131619463D01*
X130698815Y-131698815D01*
X130619463Y-131795506D01*
X130560498Y-131905820D01*
X130524188Y-132025518D01*
X130511928Y-132150000D01*
X130511928Y-134350000D01*
X130524188Y-134474482D01*
X130560498Y-134594180D01*
X130619463Y-134704494D01*
X130698815Y-134801185D01*
X130786322Y-134873000D01*
X128781485Y-134873000D01*
X129006081Y-134828325D01*
X129321831Y-134697537D01*
X129605998Y-134507663D01*
X129847663Y-134265998D01*
X130037537Y-133981831D01*
X130168325Y-133666081D01*
X130235000Y-133330883D01*
X130235000Y-132989117D01*
X130168325Y-132653919D01*
X130037537Y-132338169D01*
X129847663Y-132054002D01*
X129605998Y-131812337D01*
X129321831Y-131622463D01*
X129006081Y-131491675D01*
X128670883Y-131425000D01*
X128329117Y-131425000D01*
X127993919Y-131491675D01*
X127678169Y-131622463D01*
X127394002Y-131812337D01*
X127152337Y-132054002D01*
X126962463Y-132338169D01*
X126831675Y-132653919D01*
X126765000Y-132989117D01*
X126765000Y-133330883D01*
X126831675Y-133666081D01*
X126962463Y-133981831D01*
X127152337Y-134265998D01*
X127394002Y-134507663D01*
X127678169Y-134697537D01*
X127993919Y-134828325D01*
X128218515Y-134873000D01*
X95127000Y-134873000D01*
X95127000Y-127343082D01*
X95131992Y-127359538D01*
X95218813Y-127521970D01*
X95335655Y-127664343D01*
X95371340Y-127693629D01*
X100306375Y-132628664D01*
X100335656Y-132664344D01*
X100478028Y-132781186D01*
X100640460Y-132868007D01*
X100763243Y-132905253D01*
X100816707Y-132921471D01*
X100999999Y-132939524D01*
X101045931Y-132935000D01*
X123704068Y-132935000D01*
X123750000Y-132939524D01*
X123795932Y-132935000D01*
X123933292Y-132921471D01*
X124109540Y-132868007D01*
X124271972Y-132781186D01*
X124414344Y-132664344D01*
X124443630Y-132628659D01*
X126378664Y-130693626D01*
X126414344Y-130664344D01*
X126531186Y-130521972D01*
X126618007Y-130359540D01*
X126671471Y-130183292D01*
X126685000Y-130045932D01*
X126689524Y-130000001D01*
X126685000Y-129954069D01*
X126685000Y-121900000D01*
X126761928Y-121900000D01*
X126761928Y-124100000D01*
X126774188Y-124224482D01*
X126810498Y-124344180D01*
X126869463Y-124454494D01*
X126948815Y-124551185D01*
X127045506Y-124630537D01*
X127155820Y-124689502D01*
X127275518Y-124725812D01*
X127400000Y-124738072D01*
X129600000Y-124738072D01*
X129724482Y-124725812D01*
X129844180Y-124689502D01*
X129954494Y-124630537D01*
X130051185Y-124551185D01*
X130130537Y-124454494D01*
X130189502Y-124344180D01*
X130225812Y-124224482D01*
X130238072Y-124100000D01*
X130238072Y-122919117D01*
X130515000Y-122919117D01*
X130515000Y-123260883D01*
X130581675Y-123596081D01*
X130712463Y-123911831D01*
X130902337Y-124195998D01*
X131144002Y-124437663D01*
X131428169Y-124627537D01*
X131743919Y-124758325D01*
X132079117Y-124825000D01*
X132420883Y-124825000D01*
X132756081Y-124758325D01*
X133071831Y-124627537D01*
X133355998Y-124437663D01*
X133597663Y-124195998D01*
X133787537Y-123911831D01*
X133918325Y-123596081D01*
X133985000Y-123260883D01*
X133985000Y-122919117D01*
X133918325Y-122583919D01*
X133787537Y-122268169D01*
X133597663Y-121984002D01*
X133355998Y-121742337D01*
X133071831Y-121552463D01*
X132756081Y-121421675D01*
X132420883Y-121355000D01*
X132079117Y-121355000D01*
X131743919Y-121421675D01*
X131428169Y-121552463D01*
X131144002Y-121742337D01*
X130902337Y-121984002D01*
X130712463Y-122268169D01*
X130581675Y-122583919D01*
X130515000Y-122919117D01*
X130238072Y-122919117D01*
X130238072Y-121900000D01*
X130225812Y-121775518D01*
X130189502Y-121655820D01*
X130130537Y-121545506D01*
X130051185Y-121448815D01*
X129954494Y-121369463D01*
X129844180Y-121310498D01*
X129724482Y-121274188D01*
X129600000Y-121261928D01*
X127400000Y-121261928D01*
X127275518Y-121274188D01*
X127155820Y-121310498D01*
X127045506Y-121369463D01*
X126948815Y-121448815D01*
X126869463Y-121545506D01*
X126810498Y-121655820D01*
X126774188Y-121775518D01*
X126761928Y-121900000D01*
X126685000Y-121900000D01*
X126685000Y-119553740D01*
X131515000Y-119553740D01*
X131515000Y-119846260D01*
X131572068Y-120133158D01*
X131684010Y-120403411D01*
X131846525Y-120646632D01*
X132053368Y-120853475D01*
X132296589Y-121015990D01*
X132566842Y-121127932D01*
X132853740Y-121185000D01*
X133146260Y-121185000D01*
X133433158Y-121127932D01*
X133703411Y-121015990D01*
X133946632Y-120853475D01*
X134153475Y-120646632D01*
X134315990Y-120403411D01*
X134427932Y-120133158D01*
X134485000Y-119846260D01*
X134485000Y-119553740D01*
X134427932Y-119266842D01*
X134315990Y-118996589D01*
X134153475Y-118753368D01*
X133946632Y-118546525D01*
X133764466Y-118424805D01*
X133881355Y-118355178D01*
X134097588Y-118160269D01*
X134271641Y-117926920D01*
X134396825Y-117664099D01*
X134441476Y-117516890D01*
X134320155Y-117287000D01*
X133127000Y-117287000D01*
X133127000Y-117307000D01*
X132873000Y-117307000D01*
X132873000Y-117287000D01*
X131679845Y-117287000D01*
X131558524Y-117516890D01*
X131603175Y-117664099D01*
X131728359Y-117926920D01*
X131902412Y-118160269D01*
X132118645Y-118355178D01*
X132235534Y-118424805D01*
X132053368Y-118546525D01*
X131846525Y-118753368D01*
X131684010Y-118996589D01*
X131572068Y-119266842D01*
X131515000Y-119553740D01*
X126685000Y-119553740D01*
X126685000Y-119186595D01*
X126700000Y-119188072D01*
X127214250Y-119185000D01*
X127373000Y-119026250D01*
X127373000Y-117877000D01*
X127627000Y-117877000D01*
X127627000Y-119026250D01*
X127785750Y-119185000D01*
X128300000Y-119188072D01*
X128424482Y-119175812D01*
X128544180Y-119139502D01*
X128654494Y-119080537D01*
X128751185Y-119001185D01*
X128830537Y-118904494D01*
X128889502Y-118794180D01*
X128925812Y-118674482D01*
X128938072Y-118550000D01*
X128935000Y-118035750D01*
X128776250Y-117877000D01*
X127627000Y-117877000D01*
X127373000Y-117877000D01*
X127353000Y-117877000D01*
X127353000Y-117623000D01*
X127373000Y-117623000D01*
X127373000Y-117603000D01*
X127627000Y-117603000D01*
X127627000Y-117623000D01*
X128776250Y-117623000D01*
X128935000Y-117464250D01*
X128938072Y-116950000D01*
X128925812Y-116825518D01*
X128889502Y-116705820D01*
X128830537Y-116595506D01*
X128751185Y-116498815D01*
X128734607Y-116485210D01*
X128771680Y-116429727D01*
X128879853Y-116168574D01*
X128935000Y-115891335D01*
X128935000Y-115608665D01*
X128879853Y-115331426D01*
X128771680Y-115070273D01*
X128709284Y-114976890D01*
X131558524Y-114976890D01*
X131603175Y-115124099D01*
X131728359Y-115386920D01*
X131902412Y-115620269D01*
X132118645Y-115815178D01*
X132244255Y-115890000D01*
X132118645Y-115964822D01*
X131902412Y-116159731D01*
X131728359Y-116393080D01*
X131603175Y-116655901D01*
X131558524Y-116803110D01*
X131679845Y-117033000D01*
X132873000Y-117033000D01*
X132873000Y-114747000D01*
X133127000Y-114747000D01*
X133127000Y-117033000D01*
X134320155Y-117033000D01*
X134441476Y-116803110D01*
X134396825Y-116655901D01*
X134271641Y-116393080D01*
X134097588Y-116159731D01*
X133881355Y-115964822D01*
X133755745Y-115890000D01*
X133881355Y-115815178D01*
X134097588Y-115620269D01*
X134271641Y-115386920D01*
X134396825Y-115124099D01*
X134441476Y-114976890D01*
X134320155Y-114747000D01*
X133127000Y-114747000D01*
X132873000Y-114747000D01*
X131679845Y-114747000D01*
X131558524Y-114976890D01*
X128709284Y-114976890D01*
X128614637Y-114835241D01*
X128414759Y-114635363D01*
X128179727Y-114478320D01*
X127918574Y-114370147D01*
X127641335Y-114315000D01*
X127358665Y-114315000D01*
X127081426Y-114370147D01*
X126820273Y-114478320D01*
X126585241Y-114635363D01*
X126406407Y-114814197D01*
X126368630Y-114810476D01*
X126322698Y-114815000D01*
X126185338Y-114828529D01*
X126009090Y-114881993D01*
X125846658Y-114968814D01*
X125704286Y-115085656D01*
X125674996Y-115121346D01*
X125121342Y-115675000D01*
X125085656Y-115704286D01*
X124968814Y-115846659D01*
X124881993Y-116009091D01*
X124851522Y-116109541D01*
X124828529Y-116185339D01*
X124810476Y-116368630D01*
X124815000Y-116414562D01*
X124815001Y-129612709D01*
X123362711Y-131065000D01*
X101387290Y-131065000D01*
X98814992Y-128492702D01*
X122436903Y-128492702D01*
X122508486Y-128736671D01*
X122763996Y-128857571D01*
X123038184Y-128926300D01*
X123320512Y-128940217D01*
X123600130Y-128898787D01*
X123866292Y-128803603D01*
X123991514Y-128736671D01*
X124063097Y-128492702D01*
X123250000Y-127679605D01*
X122436903Y-128492702D01*
X98814992Y-128492702D01*
X97892802Y-127570512D01*
X121809783Y-127570512D01*
X121851213Y-127850130D01*
X121946397Y-128116292D01*
X122013329Y-128241514D01*
X122257298Y-128313097D01*
X123070395Y-127500000D01*
X123056253Y-127485858D01*
X123235858Y-127306253D01*
X123250000Y-127320395D01*
X123264143Y-127306253D01*
X123443748Y-127485858D01*
X123429605Y-127500000D01*
X124242702Y-128313097D01*
X124486671Y-128241514D01*
X124607571Y-127986004D01*
X124676300Y-127711816D01*
X124690217Y-127429488D01*
X124648787Y-127149870D01*
X124553603Y-126883708D01*
X124488384Y-126761691D01*
X124501185Y-126751185D01*
X124580537Y-126654494D01*
X124639502Y-126544180D01*
X124675812Y-126424482D01*
X124688072Y-126300000D01*
X124688072Y-124700000D01*
X124675812Y-124575518D01*
X124639502Y-124455820D01*
X124580537Y-124345506D01*
X124501185Y-124248815D01*
X124404494Y-124169463D01*
X124294180Y-124110498D01*
X124174482Y-124074188D01*
X124050000Y-124061928D01*
X122450000Y-124061928D01*
X122325518Y-124074188D01*
X122205820Y-124110498D01*
X122095506Y-124169463D01*
X121998815Y-124248815D01*
X121919463Y-124345506D01*
X121860498Y-124455820D01*
X121824188Y-124575518D01*
X121811928Y-124700000D01*
X121811928Y-126300000D01*
X121824188Y-126424482D01*
X121860498Y-126544180D01*
X121919463Y-126654494D01*
X121998815Y-126751185D01*
X122011758Y-126761807D01*
X121892429Y-127013996D01*
X121823700Y-127288184D01*
X121809783Y-127570512D01*
X97892802Y-127570512D01*
X96934999Y-126612710D01*
X96934999Y-121103740D01*
X101855000Y-121103740D01*
X101855000Y-121396260D01*
X101912068Y-121683158D01*
X102024010Y-121953411D01*
X102186525Y-122196632D01*
X102393368Y-122403475D01*
X102567760Y-122520000D01*
X102393368Y-122636525D01*
X102186525Y-122843368D01*
X102024010Y-123086589D01*
X101912068Y-123356842D01*
X101855000Y-123643740D01*
X101855000Y-123936260D01*
X101912068Y-124223158D01*
X102024010Y-124493411D01*
X102186525Y-124736632D01*
X102393368Y-124943475D01*
X102636589Y-125105990D01*
X102906842Y-125217932D01*
X103193740Y-125275000D01*
X103486260Y-125275000D01*
X103773158Y-125217932D01*
X104043411Y-125105990D01*
X104286632Y-124943475D01*
X104411710Y-124818397D01*
X105031208Y-124818397D01*
X105108843Y-125067472D01*
X105372883Y-125193371D01*
X105656411Y-125265339D01*
X105948531Y-125280611D01*
X106238019Y-125238599D01*
X106513747Y-125140919D01*
X106651157Y-125067472D01*
X106728792Y-124818397D01*
X107571208Y-124818397D01*
X107648843Y-125067472D01*
X107912883Y-125193371D01*
X108196411Y-125265339D01*
X108488531Y-125280611D01*
X108778019Y-125238599D01*
X109053747Y-125140919D01*
X109191157Y-125067472D01*
X109268792Y-124818397D01*
X110111208Y-124818397D01*
X110188843Y-125067472D01*
X110452883Y-125193371D01*
X110736411Y-125265339D01*
X111028531Y-125280611D01*
X111318019Y-125238599D01*
X111593747Y-125140919D01*
X111731157Y-125067472D01*
X111808792Y-124818397D01*
X110960000Y-123969605D01*
X110111208Y-124818397D01*
X109268792Y-124818397D01*
X108420000Y-123969605D01*
X107571208Y-124818397D01*
X106728792Y-124818397D01*
X105880000Y-123969605D01*
X105031208Y-124818397D01*
X104411710Y-124818397D01*
X104493475Y-124736632D01*
X104609311Y-124563271D01*
X104851603Y-124638792D01*
X105700395Y-123790000D01*
X106059605Y-123790000D01*
X106908397Y-124638792D01*
X107150000Y-124563486D01*
X107391603Y-124638792D01*
X108240395Y-123790000D01*
X108599605Y-123790000D01*
X109448397Y-124638792D01*
X109690000Y-124563486D01*
X109931603Y-124638792D01*
X110780395Y-123790000D01*
X109931603Y-122941208D01*
X109690000Y-123016514D01*
X109448397Y-122941208D01*
X108599605Y-123790000D01*
X108240395Y-123790000D01*
X107391603Y-122941208D01*
X107150000Y-123016514D01*
X106908397Y-122941208D01*
X106059605Y-123790000D01*
X105700395Y-123790000D01*
X104851603Y-122941208D01*
X104609311Y-123016729D01*
X104493475Y-122843368D01*
X104286632Y-122636525D01*
X104112240Y-122520000D01*
X104286632Y-122403475D01*
X104411710Y-122278397D01*
X105031208Y-122278397D01*
X105106514Y-122520000D01*
X105031208Y-122761603D01*
X105880000Y-123610395D01*
X106728792Y-122761603D01*
X106653486Y-122520000D01*
X106728792Y-122278397D01*
X107571208Y-122278397D01*
X107646514Y-122520000D01*
X107571208Y-122761603D01*
X108420000Y-123610395D01*
X109268792Y-122761603D01*
X109193486Y-122520000D01*
X109268792Y-122278397D01*
X110111208Y-122278397D01*
X110186514Y-122520000D01*
X110111208Y-122761603D01*
X110960000Y-123610395D01*
X111808792Y-122761603D01*
X111733486Y-122520000D01*
X111808792Y-122278397D01*
X110960000Y-121429605D01*
X110111208Y-122278397D01*
X109268792Y-122278397D01*
X108420000Y-121429605D01*
X107571208Y-122278397D01*
X106728792Y-122278397D01*
X105880000Y-121429605D01*
X105031208Y-122278397D01*
X104411710Y-122278397D01*
X104493475Y-122196632D01*
X104609311Y-122023271D01*
X104851603Y-122098792D01*
X105700395Y-121250000D01*
X106059605Y-121250000D01*
X106908397Y-122098792D01*
X107150000Y-122023486D01*
X107391603Y-122098792D01*
X108240395Y-121250000D01*
X108599605Y-121250000D01*
X109448397Y-122098792D01*
X109690000Y-122023486D01*
X109931603Y-122098792D01*
X110780395Y-121250000D01*
X111139605Y-121250000D01*
X111988397Y-122098792D01*
X112046420Y-122080707D01*
X112079528Y-122189850D01*
X112161595Y-122343386D01*
X112272038Y-122477962D01*
X112406614Y-122588405D01*
X112533608Y-122656285D01*
X112346525Y-122843368D01*
X112230689Y-123016729D01*
X111988397Y-122941208D01*
X111139605Y-123790000D01*
X111988397Y-124638792D01*
X112230689Y-124563271D01*
X112346525Y-124736632D01*
X112553368Y-124943475D01*
X112796589Y-125105990D01*
X113066842Y-125217932D01*
X113353740Y-125275000D01*
X113646260Y-125275000D01*
X113933158Y-125217932D01*
X114203411Y-125105990D01*
X114446632Y-124943475D01*
X114653475Y-124736632D01*
X114815990Y-124493411D01*
X114927932Y-124223158D01*
X114985000Y-123936260D01*
X114985000Y-123643740D01*
X114927932Y-123356842D01*
X114815990Y-123086589D01*
X114653475Y-122843368D01*
X114466392Y-122656285D01*
X114593386Y-122588405D01*
X114727962Y-122477962D01*
X114838405Y-122343386D01*
X114920472Y-122189850D01*
X114971008Y-122023254D01*
X114988072Y-121850000D01*
X114988072Y-120650000D01*
X114971008Y-120476746D01*
X114920472Y-120310150D01*
X114838405Y-120156614D01*
X114727962Y-120022038D01*
X114593386Y-119911595D01*
X114439850Y-119829528D01*
X114273254Y-119778992D01*
X114100000Y-119761928D01*
X112900000Y-119761928D01*
X112726746Y-119778992D01*
X112560150Y-119829528D01*
X112406614Y-119911595D01*
X112272038Y-120022038D01*
X112161595Y-120156614D01*
X112079528Y-120310150D01*
X112046420Y-120419293D01*
X111988397Y-120401208D01*
X111139605Y-121250000D01*
X110780395Y-121250000D01*
X109931603Y-120401208D01*
X109690000Y-120476514D01*
X109448397Y-120401208D01*
X108599605Y-121250000D01*
X108240395Y-121250000D01*
X107391603Y-120401208D01*
X107150000Y-120476514D01*
X106908397Y-120401208D01*
X106059605Y-121250000D01*
X105700395Y-121250000D01*
X104851603Y-120401208D01*
X104609311Y-120476729D01*
X104493475Y-120303368D01*
X104411710Y-120221603D01*
X105031208Y-120221603D01*
X105880000Y-121070395D01*
X106728792Y-120221603D01*
X107571208Y-120221603D01*
X108420000Y-121070395D01*
X109268792Y-120221603D01*
X110111208Y-120221603D01*
X110960000Y-121070395D01*
X111808792Y-120221603D01*
X111731157Y-119972528D01*
X111467117Y-119846629D01*
X111183589Y-119774661D01*
X110891469Y-119759389D01*
X110601981Y-119801401D01*
X110326253Y-119899081D01*
X110188843Y-119972528D01*
X110111208Y-120221603D01*
X109268792Y-120221603D01*
X109191157Y-119972528D01*
X108927117Y-119846629D01*
X108643589Y-119774661D01*
X108351469Y-119759389D01*
X108061981Y-119801401D01*
X107786253Y-119899081D01*
X107648843Y-119972528D01*
X107571208Y-120221603D01*
X106728792Y-120221603D01*
X106651157Y-119972528D01*
X106387117Y-119846629D01*
X106103589Y-119774661D01*
X105811469Y-119759389D01*
X105521981Y-119801401D01*
X105246253Y-119899081D01*
X105108843Y-119972528D01*
X105031208Y-120221603D01*
X104411710Y-120221603D01*
X104286632Y-120096525D01*
X104043411Y-119934010D01*
X103773158Y-119822068D01*
X103486260Y-119765000D01*
X103193740Y-119765000D01*
X102906842Y-119822068D01*
X102636589Y-119934010D01*
X102393368Y-120096525D01*
X102186525Y-120303368D01*
X102024010Y-120546589D01*
X101912068Y-120816842D01*
X101855000Y-121103740D01*
X96934999Y-121103740D01*
X96934999Y-118684999D01*
X110112710Y-118684999D01*
X110522569Y-119094858D01*
X110582795Y-119240256D01*
X110696063Y-119409774D01*
X110840226Y-119553937D01*
X111009744Y-119667205D01*
X111198102Y-119745226D01*
X111398061Y-119785000D01*
X111601939Y-119785000D01*
X111801898Y-119745226D01*
X111990256Y-119667205D01*
X112159774Y-119553937D01*
X112303937Y-119409774D01*
X112417205Y-119240256D01*
X112495226Y-119051898D01*
X112535000Y-118851939D01*
X112535000Y-118648061D01*
X112495226Y-118448102D01*
X112417205Y-118259744D01*
X112303937Y-118090226D01*
X112159774Y-117946063D01*
X111990256Y-117832795D01*
X111844858Y-117772569D01*
X111193629Y-117121340D01*
X111164343Y-117085655D01*
X111021971Y-116968813D01*
X110859539Y-116881992D01*
X110683291Y-116828528D01*
X110545931Y-116814999D01*
X110499999Y-116810475D01*
X110454067Y-116814999D01*
X96934999Y-116814999D01*
X96934999Y-114685001D01*
X100802707Y-114685001D01*
X100948102Y-114745226D01*
X101148061Y-114785000D01*
X101351939Y-114785000D01*
X101551898Y-114745226D01*
X101740256Y-114667205D01*
X101909774Y-114553937D01*
X102053937Y-114409774D01*
X102061763Y-114398061D01*
X113215000Y-114398061D01*
X113215000Y-114601939D01*
X113254774Y-114801898D01*
X113332795Y-114990256D01*
X113446063Y-115159774D01*
X113590226Y-115303937D01*
X113759744Y-115417205D01*
X113948102Y-115495226D01*
X114148061Y-115535000D01*
X114351939Y-115535000D01*
X114551898Y-115495226D01*
X114740256Y-115417205D01*
X114909774Y-115303937D01*
X114953711Y-115260000D01*
X115396290Y-115260000D01*
X115440227Y-115303937D01*
X115609745Y-115417205D01*
X115798103Y-115495226D01*
X115998062Y-115535000D01*
X116201940Y-115535000D01*
X116401899Y-115495226D01*
X116590257Y-115417205D01*
X116759775Y-115303937D01*
X116903938Y-115159774D01*
X117017206Y-114990256D01*
X117095227Y-114801898D01*
X117135001Y-114601939D01*
X117135001Y-114398061D01*
X117095227Y-114198102D01*
X117017206Y-114009744D01*
X116903938Y-113840226D01*
X116759775Y-113696063D01*
X116590257Y-113582795D01*
X116401899Y-113504774D01*
X116201940Y-113465000D01*
X115998062Y-113465000D01*
X115798103Y-113504774D01*
X115609745Y-113582795D01*
X115440227Y-113696063D01*
X115396290Y-113740000D01*
X114953711Y-113740000D01*
X114909774Y-113696063D01*
X114740256Y-113582795D01*
X114551898Y-113504774D01*
X114351939Y-113465000D01*
X114148061Y-113465000D01*
X113948102Y-113504774D01*
X113759744Y-113582795D01*
X113590226Y-113696063D01*
X113446063Y-113840226D01*
X113332795Y-114009744D01*
X113254774Y-114198102D01*
X113215000Y-114398061D01*
X102061763Y-114398061D01*
X102167205Y-114240256D01*
X102245226Y-114051898D01*
X102285000Y-113851939D01*
X102285000Y-113648061D01*
X102245226Y-113448102D01*
X102167205Y-113259744D01*
X102053937Y-113090226D01*
X101909774Y-112946063D01*
X101740256Y-112832795D01*
X101551898Y-112754774D01*
X101351939Y-112715000D01*
X101148061Y-112715000D01*
X100948102Y-112754774D01*
X100802702Y-112815001D01*
X96934999Y-112815001D01*
X96934999Y-103488072D01*
X98600000Y-103488072D01*
X98724482Y-103475812D01*
X98844180Y-103439502D01*
X98954494Y-103380537D01*
X99051185Y-103301185D01*
X99130537Y-103204494D01*
X99189502Y-103094180D01*
X99211513Y-103021620D01*
X99343368Y-103153475D01*
X99586589Y-103315990D01*
X99856842Y-103427932D01*
X100143740Y-103485000D01*
X100436260Y-103485000D01*
X100723158Y-103427932D01*
X100993411Y-103315990D01*
X101236632Y-103153475D01*
X101443475Y-102946632D01*
X101565195Y-102764466D01*
X101634822Y-102881355D01*
X101829731Y-103097588D01*
X102063080Y-103271641D01*
X102325901Y-103396825D01*
X102473110Y-103441476D01*
X102703000Y-103320155D01*
X102703000Y-102127000D01*
X102957000Y-102127000D01*
X102957000Y-103320155D01*
X103186890Y-103441476D01*
X103334099Y-103396825D01*
X103596920Y-103271641D01*
X103830269Y-103097588D01*
X104025178Y-102881355D01*
X104100000Y-102755745D01*
X104174822Y-102881355D01*
X104369731Y-103097588D01*
X104603080Y-103271641D01*
X104865901Y-103396825D01*
X105013110Y-103441476D01*
X105243000Y-103320155D01*
X105243000Y-102127000D01*
X105497000Y-102127000D01*
X105497000Y-103320155D01*
X105726890Y-103441476D01*
X105874099Y-103396825D01*
X106136920Y-103271641D01*
X106370269Y-103097588D01*
X106565178Y-102881355D01*
X106640000Y-102755745D01*
X106714822Y-102881355D01*
X106909731Y-103097588D01*
X107143080Y-103271641D01*
X107405901Y-103396825D01*
X107553110Y-103441476D01*
X107783000Y-103320155D01*
X107783000Y-102127000D01*
X105497000Y-102127000D01*
X105243000Y-102127000D01*
X102957000Y-102127000D01*
X102703000Y-102127000D01*
X102683000Y-102127000D01*
X102683000Y-101873000D01*
X102703000Y-101873000D01*
X102703000Y-100679845D01*
X102957000Y-100679845D01*
X102957000Y-101873000D01*
X105243000Y-101873000D01*
X105243000Y-100679845D01*
X105497000Y-100679845D01*
X105497000Y-101873000D01*
X107783000Y-101873000D01*
X107783000Y-100679845D01*
X108037000Y-100679845D01*
X108037000Y-101873000D01*
X108057000Y-101873000D01*
X108057000Y-102127000D01*
X108037000Y-102127000D01*
X108037000Y-103320155D01*
X108266890Y-103441476D01*
X108414099Y-103396825D01*
X108676920Y-103271641D01*
X108910269Y-103097588D01*
X109105178Y-102881355D01*
X109174805Y-102764466D01*
X109296525Y-102946632D01*
X109503368Y-103153475D01*
X109746589Y-103315990D01*
X110016842Y-103427932D01*
X110303740Y-103485000D01*
X110596260Y-103485000D01*
X110883158Y-103427932D01*
X111153411Y-103315990D01*
X111396632Y-103153475D01*
X111603475Y-102946632D01*
X111765990Y-102703411D01*
X111877932Y-102433158D01*
X111935000Y-102146260D01*
X111935000Y-101853740D01*
X111877932Y-101566842D01*
X111765990Y-101296589D01*
X111603475Y-101053368D01*
X111396632Y-100846525D01*
X111153411Y-100684010D01*
X110883158Y-100572068D01*
X110596260Y-100515000D01*
X110303740Y-100515000D01*
X110016842Y-100572068D01*
X109746589Y-100684010D01*
X109503368Y-100846525D01*
X109296525Y-101053368D01*
X109174805Y-101235534D01*
X109105178Y-101118645D01*
X108910269Y-100902412D01*
X108676920Y-100728359D01*
X108414099Y-100603175D01*
X108266890Y-100558524D01*
X108037000Y-100679845D01*
X107783000Y-100679845D01*
X107553110Y-100558524D01*
X107405901Y-100603175D01*
X107143080Y-100728359D01*
X106909731Y-100902412D01*
X106714822Y-101118645D01*
X106640000Y-101244255D01*
X106565178Y-101118645D01*
X106370269Y-100902412D01*
X106136920Y-100728359D01*
X105874099Y-100603175D01*
X105726890Y-100558524D01*
X105497000Y-100679845D01*
X105243000Y-100679845D01*
X105013110Y-100558524D01*
X104865901Y-100603175D01*
X104603080Y-100728359D01*
X104369731Y-100902412D01*
X104174822Y-101118645D01*
X104100000Y-101244255D01*
X104025178Y-101118645D01*
X103830269Y-100902412D01*
X103596920Y-100728359D01*
X103334099Y-100603175D01*
X103186890Y-100558524D01*
X102957000Y-100679845D01*
X102703000Y-100679845D01*
X102473110Y-100558524D01*
X102325901Y-100603175D01*
X102063080Y-100728359D01*
X101829731Y-100902412D01*
X101634822Y-101118645D01*
X101565195Y-101235534D01*
X101443475Y-101053368D01*
X101236632Y-100846525D01*
X100993411Y-100684010D01*
X100723158Y-100572068D01*
X100436260Y-100515000D01*
X100143740Y-100515000D01*
X99856842Y-100572068D01*
X99586589Y-100684010D01*
X99343368Y-100846525D01*
X99211513Y-100978380D01*
X99189502Y-100905820D01*
X99130537Y-100795506D01*
X99051185Y-100698815D01*
X98954494Y-100619463D01*
X98844180Y-100560498D01*
X98724482Y-100524188D01*
X98600000Y-100511928D01*
X96934999Y-100511928D01*
X96934999Y-94435001D01*
X104552707Y-94435001D01*
X104698102Y-94495226D01*
X104898061Y-94535000D01*
X105101939Y-94535000D01*
X105301898Y-94495226D01*
X105490256Y-94417205D01*
X105659774Y-94303937D01*
X105803937Y-94159774D01*
X105917205Y-93990256D01*
X105995226Y-93801898D01*
X106035000Y-93601939D01*
X106035000Y-93398061D01*
X105995226Y-93198102D01*
X105917205Y-93009744D01*
X105803937Y-92840226D01*
X105659774Y-92696063D01*
X105490256Y-92582795D01*
X105301898Y-92504774D01*
X105101939Y-92465000D01*
X104898061Y-92465000D01*
X104698102Y-92504774D01*
X104552702Y-92565001D01*
X96934999Y-92565001D01*
X96934999Y-89887290D01*
X97674228Y-89148061D01*
X126715000Y-89148061D01*
X126715000Y-89351939D01*
X126754774Y-89551898D01*
X126832795Y-89740256D01*
X126946063Y-89909774D01*
X127090226Y-90053937D01*
X127259744Y-90167205D01*
X127448102Y-90245226D01*
X127648061Y-90285000D01*
X127851939Y-90285000D01*
X128051898Y-90245226D01*
X128240256Y-90167205D01*
X128409774Y-90053937D01*
X128453711Y-90010000D01*
X129646299Y-90010000D01*
X129690236Y-90053937D01*
X129859754Y-90167205D01*
X130048112Y-90245226D01*
X130248071Y-90285000D01*
X130451949Y-90285000D01*
X130651908Y-90245226D01*
X130840266Y-90167205D01*
X131009784Y-90053937D01*
X131153947Y-89909774D01*
X131267215Y-89740256D01*
X131345236Y-89551898D01*
X131385010Y-89351939D01*
X131385010Y-89148061D01*
X131345236Y-88948102D01*
X131267215Y-88759744D01*
X131153947Y-88590226D01*
X131009784Y-88446063D01*
X130840266Y-88332795D01*
X130651908Y-88254774D01*
X130451949Y-88215000D01*
X130248071Y-88215000D01*
X130048112Y-88254774D01*
X129859754Y-88332795D01*
X129690236Y-88446063D01*
X129646299Y-88490000D01*
X128453711Y-88490000D01*
X128409774Y-88446063D01*
X128240256Y-88332795D01*
X128051898Y-88254774D01*
X127851939Y-88215000D01*
X127648061Y-88215000D01*
X127448102Y-88254774D01*
X127259744Y-88332795D01*
X127090226Y-88446063D01*
X126946063Y-88590226D01*
X126832795Y-88759744D01*
X126754774Y-88948102D01*
X126715000Y-89148061D01*
X97674228Y-89148061D01*
X98094859Y-88727431D01*
X98240256Y-88667205D01*
X98409774Y-88553937D01*
X98553937Y-88409774D01*
X98667205Y-88240256D01*
X98745226Y-88051898D01*
X98785000Y-87851939D01*
X98785000Y-87648061D01*
X98745226Y-87448102D01*
X98667205Y-87259744D01*
X98553937Y-87090226D01*
X98409774Y-86946063D01*
X98240256Y-86832795D01*
X98051898Y-86754774D01*
X97851939Y-86715000D01*
X97648061Y-86715000D01*
X97448102Y-86754774D01*
X97259744Y-86832795D01*
X97090226Y-86946063D01*
X96946063Y-87090226D01*
X96934999Y-87106784D01*
X96934999Y-80398061D01*
X114465000Y-80398061D01*
X114465000Y-80601939D01*
X114504774Y-80801898D01*
X114582795Y-80990256D01*
X114696063Y-81159774D01*
X114840226Y-81303937D01*
X115009744Y-81417205D01*
X115198102Y-81495226D01*
X115398061Y-81535000D01*
X115601939Y-81535000D01*
X115801898Y-81495226D01*
X115990256Y-81417205D01*
X116159774Y-81303937D01*
X116203711Y-81260000D01*
X121796289Y-81260000D01*
X121840226Y-81303937D01*
X122009744Y-81417205D01*
X122198102Y-81495226D01*
X122398061Y-81535000D01*
X122601939Y-81535000D01*
X122801898Y-81495226D01*
X122990256Y-81417205D01*
X123159774Y-81303937D01*
X123303937Y-81159774D01*
X123417205Y-80990256D01*
X123495226Y-80801898D01*
X123535000Y-80601939D01*
X123535000Y-80398061D01*
X123495226Y-80198102D01*
X123417205Y-80009744D01*
X123303937Y-79840226D01*
X123159774Y-79696063D01*
X122990256Y-79582795D01*
X122801898Y-79504774D01*
X122601939Y-79465000D01*
X122398061Y-79465000D01*
X122198102Y-79504774D01*
X122009744Y-79582795D01*
X121840226Y-79696063D01*
X121796289Y-79740000D01*
X116203711Y-79740000D01*
X116159774Y-79696063D01*
X115990256Y-79582795D01*
X115801898Y-79504774D01*
X115601939Y-79465000D01*
X115398061Y-79465000D01*
X115198102Y-79504774D01*
X115009744Y-79582795D01*
X114840226Y-79696063D01*
X114696063Y-79840226D01*
X114582795Y-80009744D01*
X114504774Y-80198102D01*
X114465000Y-80398061D01*
X96934999Y-80398061D01*
X96934999Y-78398061D01*
X117965000Y-78398061D01*
X117965000Y-78601939D01*
X118004774Y-78801898D01*
X118082795Y-78990256D01*
X118196063Y-79159774D01*
X118340226Y-79303937D01*
X118509744Y-79417205D01*
X118698102Y-79495226D01*
X118898061Y-79535000D01*
X119101939Y-79535000D01*
X119301898Y-79495226D01*
X119447295Y-79435000D01*
X125954068Y-79435000D01*
X126000000Y-79439524D01*
X126045932Y-79435000D01*
X132065001Y-79435000D01*
X132065000Y-102045931D01*
X132065001Y-102045941D01*
X132065001Y-102565000D01*
X120545931Y-102565000D01*
X120499999Y-102560476D01*
X120316707Y-102578529D01*
X120263243Y-102594747D01*
X120140460Y-102631993D01*
X119978028Y-102718814D01*
X119835656Y-102835656D01*
X119806374Y-102871336D01*
X119405142Y-103272569D01*
X119259744Y-103332795D01*
X119090226Y-103446063D01*
X118946063Y-103590226D01*
X118832795Y-103759744D01*
X118754774Y-103948102D01*
X118715000Y-104148061D01*
X118715000Y-104351939D01*
X118754774Y-104551898D01*
X118832795Y-104740256D01*
X118946063Y-104909774D01*
X119090226Y-105053937D01*
X119259744Y-105167205D01*
X119448102Y-105245226D01*
X119648061Y-105285000D01*
X119851939Y-105285000D01*
X120051898Y-105245226D01*
X120240256Y-105167205D01*
X120409774Y-105053937D01*
X120553937Y-104909774D01*
X120667205Y-104740256D01*
X120727431Y-104594858D01*
X120887290Y-104435000D01*
X132065001Y-104435000D01*
X132065000Y-105520299D01*
X132025518Y-105524188D01*
X131905820Y-105560498D01*
X131795506Y-105619463D01*
X131698815Y-105698815D01*
X131619463Y-105795506D01*
X131560498Y-105905820D01*
X131524188Y-106025518D01*
X131511928Y-106150000D01*
X131511928Y-107850000D01*
X131524188Y-107974482D01*
X131560498Y-108094180D01*
X131619463Y-108204494D01*
X131698815Y-108301185D01*
X131795506Y-108380537D01*
X131905820Y-108439502D01*
X131978380Y-108461513D01*
X131846525Y-108593368D01*
X131721822Y-108780000D01*
X130604802Y-108780000D01*
X129285000Y-107460199D01*
X129285000Y-107398061D01*
X129245226Y-107198102D01*
X129167205Y-107009744D01*
X129053937Y-106840226D01*
X128909774Y-106696063D01*
X128740256Y-106582795D01*
X128551898Y-106504774D01*
X128351939Y-106465000D01*
X128148061Y-106465000D01*
X127948102Y-106504774D01*
X127759744Y-106582795D01*
X127590226Y-106696063D01*
X127446063Y-106840226D01*
X127332795Y-107009744D01*
X127254774Y-107198102D01*
X127215000Y-107398061D01*
X127215000Y-107601939D01*
X127254774Y-107801898D01*
X127332795Y-107990256D01*
X127446063Y-108159774D01*
X127587059Y-108300770D01*
X127509744Y-108332795D01*
X127340226Y-108446063D01*
X127196063Y-108590226D01*
X127082795Y-108759744D01*
X127004774Y-108948102D01*
X126965000Y-109148061D01*
X126965000Y-109351939D01*
X127004774Y-109551898D01*
X127082795Y-109740256D01*
X127196063Y-109909774D01*
X127340226Y-110053937D01*
X127509744Y-110167205D01*
X127698102Y-110245226D01*
X127898061Y-110285000D01*
X127960199Y-110285000D01*
X130266205Y-112591008D01*
X130289999Y-112620001D01*
X130318992Y-112643795D01*
X130318996Y-112643799D01*
X130389685Y-112701811D01*
X130405724Y-112714974D01*
X130537753Y-112785546D01*
X130681014Y-112829003D01*
X130792667Y-112840000D01*
X130792676Y-112840000D01*
X130829999Y-112843676D01*
X130867322Y-112840000D01*
X131721822Y-112840000D01*
X131846525Y-113026632D01*
X132053368Y-113233475D01*
X132235534Y-113355195D01*
X132118645Y-113424822D01*
X131902412Y-113619731D01*
X131728359Y-113853080D01*
X131603175Y-114115901D01*
X131558524Y-114263110D01*
X131679845Y-114493000D01*
X132873000Y-114493000D01*
X132873000Y-114473000D01*
X133127000Y-114473000D01*
X133127000Y-114493000D01*
X134320155Y-114493000D01*
X134441476Y-114263110D01*
X134396825Y-114115901D01*
X134271641Y-113853080D01*
X134097588Y-113619731D01*
X133881355Y-113424822D01*
X133764466Y-113355195D01*
X133946632Y-113233475D01*
X134153475Y-113026632D01*
X134315990Y-112783411D01*
X134427932Y-112513158D01*
X134485000Y-112226260D01*
X134485000Y-111933740D01*
X134427932Y-111646842D01*
X134315990Y-111376589D01*
X134153475Y-111133368D01*
X133946632Y-110926525D01*
X133772240Y-110810000D01*
X133946632Y-110693475D01*
X134153475Y-110486632D01*
X134315990Y-110243411D01*
X134427932Y-109973158D01*
X134485000Y-109686260D01*
X134485000Y-109393740D01*
X134427932Y-109106842D01*
X134315990Y-108836589D01*
X134153475Y-108593368D01*
X134021620Y-108461513D01*
X134094180Y-108439502D01*
X134204494Y-108380537D01*
X134301185Y-108301185D01*
X134380537Y-108204494D01*
X134439502Y-108094180D01*
X134475812Y-107974482D01*
X134488072Y-107850000D01*
X134488072Y-106150000D01*
X134475812Y-106025518D01*
X134439502Y-105905820D01*
X134380537Y-105795506D01*
X134301185Y-105698815D01*
X134204494Y-105619463D01*
X134094180Y-105560498D01*
X133974482Y-105524188D01*
X133935000Y-105520299D01*
X133935000Y-103545931D01*
X133939524Y-103500000D01*
X133935000Y-103454068D01*
X133935000Y-78545932D01*
X133939524Y-78500000D01*
X133921471Y-78316708D01*
X133868007Y-78140460D01*
X133781186Y-77978028D01*
X133664344Y-77835656D01*
X133521972Y-77718814D01*
X133359540Y-77631993D01*
X133183292Y-77578529D01*
X133045932Y-77565000D01*
X133000000Y-77560476D01*
X132954068Y-77565000D01*
X126935000Y-77565000D01*
X126935000Y-61697295D01*
X126995226Y-61551898D01*
X127035000Y-61351939D01*
X127035000Y-61148061D01*
X126995226Y-60948102D01*
X126917205Y-60759744D01*
X126803937Y-60590226D01*
X126659774Y-60446063D01*
X126490256Y-60332795D01*
X126301898Y-60254774D01*
X126101939Y-60215000D01*
X125898061Y-60215000D01*
X125698102Y-60254774D01*
X125509744Y-60332795D01*
X125340226Y-60446063D01*
X125196063Y-60590226D01*
X125082795Y-60759744D01*
X125004774Y-60948102D01*
X124965000Y-61148061D01*
X124965000Y-61351939D01*
X125004774Y-61551898D01*
X125065000Y-61697295D01*
X125065001Y-77565000D01*
X119447295Y-77565000D01*
X119301898Y-77504774D01*
X119101939Y-77465000D01*
X118898061Y-77465000D01*
X118698102Y-77504774D01*
X118509744Y-77582795D01*
X118340226Y-77696063D01*
X118196063Y-77840226D01*
X118082795Y-78009744D01*
X118004774Y-78198102D01*
X117965000Y-78398061D01*
X96934999Y-78398061D01*
X96934999Y-69906544D01*
X99355000Y-69906544D01*
X99355000Y-70173456D01*
X99407072Y-70435239D01*
X99509215Y-70681833D01*
X99657503Y-70903762D01*
X99846238Y-71092497D01*
X100068167Y-71240785D01*
X100314761Y-71342928D01*
X100576544Y-71395000D01*
X100843456Y-71395000D01*
X101105239Y-71342928D01*
X101351833Y-71240785D01*
X101573762Y-71092497D01*
X101762497Y-70903762D01*
X101910785Y-70681833D01*
X102012928Y-70435239D01*
X102065000Y-70173456D01*
X102065000Y-69906544D01*
X102012928Y-69644761D01*
X101910785Y-69398167D01*
X101762497Y-69176238D01*
X101573762Y-68987503D01*
X101351833Y-68839215D01*
X101105239Y-68737072D01*
X100843456Y-68685000D01*
X100576544Y-68685000D01*
X100314761Y-68737072D01*
X100068167Y-68839215D01*
X99846238Y-68987503D01*
X99657503Y-69176238D01*
X99509215Y-69398167D01*
X99407072Y-69644761D01*
X99355000Y-69906544D01*
X96934999Y-69906544D01*
X96934999Y-68435560D01*
X97414045Y-68435560D01*
X97475932Y-68671368D01*
X97717790Y-68784266D01*
X97977027Y-68847811D01*
X98243680Y-68859561D01*
X98507501Y-68819063D01*
X98758353Y-68727875D01*
X98864068Y-68671368D01*
X98925955Y-68435560D01*
X98170000Y-67679605D01*
X97414045Y-68435560D01*
X96934999Y-68435560D01*
X96934999Y-68251688D01*
X96996537Y-68190150D01*
X96998632Y-68194068D01*
X97234440Y-68255955D01*
X97990395Y-67500000D01*
X98349605Y-67500000D01*
X99105560Y-68255955D01*
X99341368Y-68194068D01*
X99454266Y-67952210D01*
X99517811Y-67692973D01*
X99529561Y-67426320D01*
X99520386Y-67366544D01*
X101895000Y-67366544D01*
X101895000Y-67633456D01*
X101947072Y-67895239D01*
X102049215Y-68141833D01*
X102197503Y-68363762D01*
X102386238Y-68552497D01*
X102608167Y-68700785D01*
X102854761Y-68802928D01*
X103116544Y-68855000D01*
X103383456Y-68855000D01*
X103645239Y-68802928D01*
X103891833Y-68700785D01*
X104113762Y-68552497D01*
X104302497Y-68363762D01*
X104450785Y-68141833D01*
X104552928Y-67895239D01*
X104605000Y-67633456D01*
X104605000Y-67366544D01*
X104552928Y-67104761D01*
X104450785Y-66858167D01*
X104302497Y-66636238D01*
X104113762Y-66447503D01*
X103891833Y-66299215D01*
X103645239Y-66197072D01*
X103383456Y-66145000D01*
X103116544Y-66145000D01*
X102854761Y-66197072D01*
X102608167Y-66299215D01*
X102386238Y-66447503D01*
X102197503Y-66636238D01*
X102049215Y-66858167D01*
X101947072Y-67104761D01*
X101895000Y-67366544D01*
X99520386Y-67366544D01*
X99489063Y-67162499D01*
X99397875Y-66911647D01*
X99341368Y-66805932D01*
X99105560Y-66744045D01*
X98349605Y-67500000D01*
X97990395Y-67500000D01*
X97976253Y-67485858D01*
X98155858Y-67306253D01*
X98170000Y-67320395D01*
X98925955Y-66564440D01*
X98864068Y-66328632D01*
X98859969Y-66326718D01*
X101001687Y-64185000D01*
X104302705Y-64185000D01*
X104448102Y-64245226D01*
X104648061Y-64285000D01*
X104851939Y-64285000D01*
X105051898Y-64245226D01*
X105240256Y-64167205D01*
X105409774Y-64053937D01*
X105553937Y-63909774D01*
X105667205Y-63740256D01*
X105745226Y-63551898D01*
X105785000Y-63351939D01*
X105785000Y-63148061D01*
X105745226Y-62948102D01*
X105667205Y-62759744D01*
X105553937Y-62590226D01*
X105409774Y-62446063D01*
X105240256Y-62332795D01*
X105051898Y-62254774D01*
X104851939Y-62215000D01*
X104648061Y-62215000D01*
X104448102Y-62254774D01*
X104302705Y-62315000D01*
X100660333Y-62315000D01*
X100614398Y-62310476D01*
X100431106Y-62328528D01*
X100254857Y-62381993D01*
X100198278Y-62412235D01*
X100092426Y-62468814D01*
X99950054Y-62585656D01*
X99920768Y-62621341D01*
X95371335Y-67170774D01*
X95335656Y-67200055D01*
X95218814Y-67342427D01*
X95173973Y-67426320D01*
X95131993Y-67504859D01*
X95127000Y-67521319D01*
X95127000Y-61056890D01*
X95558524Y-61056890D01*
X95603175Y-61204099D01*
X95728359Y-61466920D01*
X95902412Y-61700269D01*
X96118645Y-61895178D01*
X96368748Y-62044157D01*
X96643109Y-62141481D01*
X96873000Y-62020814D01*
X96873000Y-60827000D01*
X97127000Y-60827000D01*
X97127000Y-62020814D01*
X97356891Y-62141481D01*
X97631252Y-62044157D01*
X97881355Y-61895178D01*
X98097588Y-61700269D01*
X98271641Y-61466920D01*
X98396825Y-61204099D01*
X98441476Y-61056890D01*
X98320155Y-60827000D01*
X97127000Y-60827000D01*
X96873000Y-60827000D01*
X95679845Y-60827000D01*
X95558524Y-61056890D01*
X95127000Y-61056890D01*
X95127000Y-58516890D01*
X95558524Y-58516890D01*
X95603175Y-58664099D01*
X95728359Y-58926920D01*
X95902412Y-59160269D01*
X96118645Y-59355178D01*
X96244255Y-59430000D01*
X96118645Y-59504822D01*
X95902412Y-59699731D01*
X95728359Y-59933080D01*
X95603175Y-60195901D01*
X95558524Y-60343110D01*
X95679845Y-60573000D01*
X96873000Y-60573000D01*
X96873000Y-58287000D01*
X97127000Y-58287000D01*
X97127000Y-60573000D01*
X98320155Y-60573000D01*
X98441476Y-60343110D01*
X98396825Y-60195901D01*
X98271641Y-59933080D01*
X98097588Y-59699731D01*
X97881355Y-59504822D01*
X97755745Y-59430000D01*
X97881355Y-59355178D01*
X98097588Y-59160269D01*
X98271641Y-58926920D01*
X98396825Y-58664099D01*
X98441476Y-58516890D01*
X98320155Y-58287000D01*
X97127000Y-58287000D01*
X96873000Y-58287000D01*
X95679845Y-58287000D01*
X95558524Y-58516890D01*
X95127000Y-58516890D01*
X95127000Y-47150000D01*
X95511928Y-47150000D01*
X95511928Y-48850000D01*
X95524188Y-48974482D01*
X95560498Y-49094180D01*
X95619463Y-49204494D01*
X95698815Y-49301185D01*
X95795506Y-49380537D01*
X95905820Y-49439502D01*
X95978380Y-49461513D01*
X95846525Y-49593368D01*
X95684010Y-49836589D01*
X95572068Y-50106842D01*
X95515000Y-50393740D01*
X95515000Y-50686260D01*
X95572068Y-50973158D01*
X95684010Y-51243411D01*
X95846525Y-51486632D01*
X96053368Y-51693475D01*
X96227760Y-51810000D01*
X96053368Y-51926525D01*
X95846525Y-52133368D01*
X95684010Y-52376589D01*
X95572068Y-52646842D01*
X95515000Y-52933740D01*
X95515000Y-53226260D01*
X95572068Y-53513158D01*
X95684010Y-53783411D01*
X95846525Y-54026632D01*
X96053368Y-54233475D01*
X96227760Y-54350000D01*
X96053368Y-54466525D01*
X95846525Y-54673368D01*
X95684010Y-54916589D01*
X95572068Y-55186842D01*
X95515000Y-55473740D01*
X95515000Y-55766260D01*
X95572068Y-56053158D01*
X95684010Y-56323411D01*
X95846525Y-56566632D01*
X96053368Y-56773475D01*
X96235534Y-56895195D01*
X96118645Y-56964822D01*
X95902412Y-57159731D01*
X95728359Y-57393080D01*
X95603175Y-57655901D01*
X95558524Y-57803110D01*
X95679845Y-58033000D01*
X96873000Y-58033000D01*
X96873000Y-58013000D01*
X97127000Y-58013000D01*
X97127000Y-58033000D01*
X98320155Y-58033000D01*
X98441476Y-57803110D01*
X98396825Y-57655901D01*
X98271641Y-57393080D01*
X98097588Y-57159731D01*
X97881355Y-56964822D01*
X97764466Y-56895195D01*
X97946632Y-56773475D01*
X98153475Y-56566632D01*
X98266110Y-56398061D01*
X104715000Y-56398061D01*
X104715000Y-56601939D01*
X104754774Y-56801898D01*
X104832795Y-56990256D01*
X104946063Y-57159774D01*
X105090226Y-57303937D01*
X105259744Y-57417205D01*
X105448102Y-57495226D01*
X105648061Y-57535000D01*
X105710199Y-57535000D01*
X111766201Y-63591003D01*
X111789999Y-63620001D01*
X111905724Y-63714974D01*
X112037753Y-63785546D01*
X112181014Y-63829003D01*
X112292667Y-63840000D01*
X112292676Y-63840000D01*
X112329999Y-63843676D01*
X112367322Y-63840000D01*
X113152225Y-63840000D01*
X113213038Y-63931013D01*
X113398987Y-64116962D01*
X113617641Y-64263061D01*
X113860595Y-64363696D01*
X114118514Y-64415000D01*
X114381486Y-64415000D01*
X114639405Y-64363696D01*
X114882359Y-64263061D01*
X115101013Y-64116962D01*
X115286962Y-63931013D01*
X115433061Y-63712359D01*
X115533696Y-63469405D01*
X115585000Y-63211486D01*
X115585000Y-62948514D01*
X115533696Y-62690595D01*
X115433061Y-62447641D01*
X115286962Y-62228987D01*
X115101013Y-62043038D01*
X114882359Y-61896939D01*
X114639405Y-61796304D01*
X114381486Y-61745000D01*
X114118514Y-61745000D01*
X113860595Y-61796304D01*
X113617641Y-61896939D01*
X113398987Y-62043038D01*
X113213038Y-62228987D01*
X113152225Y-62320000D01*
X112644802Y-62320000D01*
X109084801Y-58760000D01*
X113152225Y-58760000D01*
X113213038Y-58851013D01*
X113398987Y-59036962D01*
X113617641Y-59183061D01*
X113860595Y-59283696D01*
X114118514Y-59335000D01*
X114381486Y-59335000D01*
X114639405Y-59283696D01*
X114882359Y-59183061D01*
X115101013Y-59036962D01*
X115286962Y-58851013D01*
X115433061Y-58632359D01*
X115533696Y-58389405D01*
X115585000Y-58131486D01*
X115585000Y-57868514D01*
X115533696Y-57610595D01*
X115433061Y-57367641D01*
X115286962Y-57148987D01*
X115101013Y-56963038D01*
X114882359Y-56816939D01*
X114639405Y-56716304D01*
X114381486Y-56665000D01*
X114118514Y-56665000D01*
X113860595Y-56716304D01*
X113617641Y-56816939D01*
X113398987Y-56963038D01*
X113213038Y-57148987D01*
X113152225Y-57240000D01*
X109314802Y-57240000D01*
X108285000Y-56210199D01*
X108285000Y-56148061D01*
X108245226Y-55948102D01*
X108167205Y-55759744D01*
X108053937Y-55590226D01*
X107909774Y-55446063D01*
X107740256Y-55332795D01*
X107551898Y-55254774D01*
X107351939Y-55215000D01*
X107148061Y-55215000D01*
X106948102Y-55254774D01*
X106759744Y-55332795D01*
X106590226Y-55446063D01*
X106446063Y-55590226D01*
X106385972Y-55680159D01*
X106240256Y-55582795D01*
X106051898Y-55504774D01*
X105851939Y-55465000D01*
X105648061Y-55465000D01*
X105448102Y-55504774D01*
X105259744Y-55582795D01*
X105090226Y-55696063D01*
X104946063Y-55840226D01*
X104832795Y-56009744D01*
X104754774Y-56198102D01*
X104715000Y-56398061D01*
X98266110Y-56398061D01*
X98315990Y-56323411D01*
X98427932Y-56053158D01*
X98485000Y-55766260D01*
X98485000Y-55473740D01*
X98427932Y-55186842D01*
X98315990Y-54916589D01*
X98153475Y-54673368D01*
X97946632Y-54466525D01*
X97772240Y-54350000D01*
X97946632Y-54233475D01*
X98153475Y-54026632D01*
X98315990Y-53783411D01*
X98427932Y-53513158D01*
X98485000Y-53226260D01*
X98485000Y-52933740D01*
X98427932Y-52646842D01*
X98315990Y-52376589D01*
X98153475Y-52133368D01*
X97946632Y-51926525D01*
X97772240Y-51810000D01*
X97946632Y-51693475D01*
X98153475Y-51486632D01*
X98315990Y-51243411D01*
X98427932Y-50973158D01*
X98485000Y-50686260D01*
X98485000Y-50393740D01*
X98427932Y-50106842D01*
X98315990Y-49836589D01*
X98153475Y-49593368D01*
X98021620Y-49461513D01*
X98094180Y-49439502D01*
X98204494Y-49380537D01*
X98301185Y-49301185D01*
X98380537Y-49204494D01*
X98439502Y-49094180D01*
X98475812Y-48974482D01*
X98488072Y-48850000D01*
X98488072Y-48250000D01*
X114861928Y-48250000D01*
X114861928Y-50750000D01*
X114874188Y-50874482D01*
X114910498Y-50994180D01*
X114969463Y-51104494D01*
X115048815Y-51201185D01*
X115145506Y-51280537D01*
X115255820Y-51339502D01*
X115375518Y-51375812D01*
X115500000Y-51388072D01*
X115990001Y-51388072D01*
X115990001Y-52822648D01*
X115986324Y-52859980D01*
X116000998Y-53008965D01*
X116044454Y-53152226D01*
X116115026Y-53284256D01*
X116186201Y-53370982D01*
X116210000Y-53399981D01*
X116238998Y-53423779D01*
X117035010Y-54219792D01*
X117035010Y-54281929D01*
X117074784Y-54481888D01*
X117152805Y-54670246D01*
X117266073Y-54839764D01*
X117410236Y-54983927D01*
X117579754Y-55097195D01*
X117768112Y-55175216D01*
X117968071Y-55214990D01*
X118171949Y-55214990D01*
X118371908Y-55175216D01*
X118560266Y-55097195D01*
X118729784Y-54983927D01*
X118815650Y-54898061D01*
X129965000Y-54898061D01*
X129965000Y-55101939D01*
X130004774Y-55301898D01*
X130082795Y-55490256D01*
X130196063Y-55659774D01*
X130340226Y-55803937D01*
X130509744Y-55917205D01*
X130698102Y-55995226D01*
X130898061Y-56035000D01*
X130960199Y-56035000D01*
X132165766Y-57240568D01*
X132082795Y-57364744D01*
X132004774Y-57553102D01*
X131965000Y-57753061D01*
X131965000Y-57956939D01*
X132004774Y-58156898D01*
X132082795Y-58345256D01*
X132196063Y-58514774D01*
X132340226Y-58658937D01*
X132509744Y-58772205D01*
X132698102Y-58850226D01*
X132898061Y-58890000D01*
X133101939Y-58890000D01*
X133301898Y-58850226D01*
X133490256Y-58772205D01*
X133659774Y-58658937D01*
X133803937Y-58514774D01*
X133917205Y-58345256D01*
X133995226Y-58156898D01*
X134035000Y-57956939D01*
X134035000Y-57753061D01*
X133995226Y-57553102D01*
X133917205Y-57364744D01*
X133803937Y-57195226D01*
X133760000Y-57151289D01*
X133760000Y-57037322D01*
X133763676Y-56999999D01*
X133760000Y-56962676D01*
X133760000Y-56962667D01*
X133749003Y-56851014D01*
X133705546Y-56707753D01*
X133682694Y-56665000D01*
X133634974Y-56575723D01*
X133563799Y-56488997D01*
X133540001Y-56459999D01*
X133511004Y-56436202D01*
X132035000Y-54960199D01*
X132035000Y-54898061D01*
X131995226Y-54698102D01*
X131917205Y-54509744D01*
X131803937Y-54340226D01*
X131659774Y-54196063D01*
X131490256Y-54082795D01*
X131301898Y-54004774D01*
X131101939Y-53965000D01*
X130898061Y-53965000D01*
X130698102Y-54004774D01*
X130509744Y-54082795D01*
X130340226Y-54196063D01*
X130196063Y-54340226D01*
X130082795Y-54509744D01*
X130004774Y-54698102D01*
X129965000Y-54898061D01*
X118815650Y-54898061D01*
X118873947Y-54839764D01*
X118987215Y-54670246D01*
X119065236Y-54481888D01*
X119105010Y-54281929D01*
X119105010Y-54078051D01*
X119065236Y-53878092D01*
X118987215Y-53689734D01*
X118873947Y-53520216D01*
X118729784Y-53376053D01*
X118560266Y-53262785D01*
X118371908Y-53184764D01*
X118171949Y-53144990D01*
X118109812Y-53144990D01*
X117510000Y-52545179D01*
X117510000Y-51388072D01*
X118000000Y-51388072D01*
X118124482Y-51375812D01*
X118244180Y-51339502D01*
X118354494Y-51280537D01*
X118451185Y-51201185D01*
X118530537Y-51104494D01*
X118589502Y-50994180D01*
X118625812Y-50874482D01*
X118638072Y-50750000D01*
X118638072Y-50648061D01*
X121715000Y-50648061D01*
X121715000Y-50851939D01*
X121754774Y-51051898D01*
X121832795Y-51240256D01*
X121946063Y-51409774D01*
X122090226Y-51553937D01*
X122259744Y-51667205D01*
X122448102Y-51745226D01*
X122648061Y-51785000D01*
X122851939Y-51785000D01*
X123051898Y-51745226D01*
X123240256Y-51667205D01*
X123409774Y-51553937D01*
X123553937Y-51409774D01*
X123667205Y-51240256D01*
X123745226Y-51051898D01*
X123785000Y-50851939D01*
X123785000Y-50648061D01*
X123745226Y-50448102D01*
X123667205Y-50259744D01*
X123553937Y-50090226D01*
X123510000Y-50046289D01*
X123510000Y-49866544D01*
X125895000Y-49866544D01*
X125895000Y-50133456D01*
X125947072Y-50395239D01*
X126049215Y-50641833D01*
X126197503Y-50863762D01*
X126386238Y-51052497D01*
X126608167Y-51200785D01*
X126854761Y-51302928D01*
X127116544Y-51355000D01*
X127383456Y-51355000D01*
X127645239Y-51302928D01*
X127891833Y-51200785D01*
X128113762Y-51052497D01*
X128302497Y-50863762D01*
X128450785Y-50641833D01*
X128552928Y-50395239D01*
X128605000Y-50133456D01*
X128605000Y-49866544D01*
X130975000Y-49866544D01*
X130975000Y-50133456D01*
X131027072Y-50395239D01*
X131129215Y-50641833D01*
X131277503Y-50863762D01*
X131466238Y-51052497D01*
X131688167Y-51200785D01*
X131934761Y-51302928D01*
X132196544Y-51355000D01*
X132463456Y-51355000D01*
X132725239Y-51302928D01*
X132971833Y-51200785D01*
X133193762Y-51052497D01*
X133382497Y-50863762D01*
X133530785Y-50641833D01*
X133632928Y-50395239D01*
X133685000Y-50133456D01*
X133685000Y-49866544D01*
X133632928Y-49604761D01*
X133530785Y-49358167D01*
X133382497Y-49136238D01*
X133193762Y-48947503D01*
X132971833Y-48799215D01*
X132725239Y-48697072D01*
X132463456Y-48645000D01*
X132196544Y-48645000D01*
X131934761Y-48697072D01*
X131688167Y-48799215D01*
X131466238Y-48947503D01*
X131277503Y-49136238D01*
X131129215Y-49358167D01*
X131027072Y-49604761D01*
X130975000Y-49866544D01*
X128605000Y-49866544D01*
X128552928Y-49604761D01*
X128450785Y-49358167D01*
X128302497Y-49136238D01*
X128113762Y-48947503D01*
X127891833Y-48799215D01*
X127645239Y-48697072D01*
X127383456Y-48645000D01*
X127116544Y-48645000D01*
X126854761Y-48697072D01*
X126608167Y-48799215D01*
X126386238Y-48947503D01*
X126197503Y-49136238D01*
X126049215Y-49358167D01*
X125947072Y-49604761D01*
X125895000Y-49866544D01*
X123510000Y-49866544D01*
X123510000Y-48814801D01*
X124104802Y-48220000D01*
X128668172Y-48220000D01*
X128737503Y-48323762D01*
X128926238Y-48512497D01*
X129148167Y-48660785D01*
X129394761Y-48762928D01*
X129656544Y-48815000D01*
X129923456Y-48815000D01*
X130185239Y-48762928D01*
X130431833Y-48660785D01*
X130653762Y-48512497D01*
X130842497Y-48323762D01*
X130990785Y-48101833D01*
X131092928Y-47855239D01*
X131145000Y-47593456D01*
X131145000Y-47326544D01*
X131092928Y-47064761D01*
X130990785Y-46818167D01*
X130842497Y-46596238D01*
X130653762Y-46407503D01*
X130431833Y-46259215D01*
X130185239Y-46157072D01*
X129923456Y-46105000D01*
X129656544Y-46105000D01*
X129394761Y-46157072D01*
X129148167Y-46259215D01*
X128926238Y-46407503D01*
X128737503Y-46596238D01*
X128668172Y-46700000D01*
X123827322Y-46700000D01*
X123789999Y-46696324D01*
X123752676Y-46700000D01*
X123752667Y-46700000D01*
X123641014Y-46710997D01*
X123497753Y-46754454D01*
X123365723Y-46825026D01*
X123282083Y-46893668D01*
X123249999Y-46919999D01*
X123226201Y-46948997D01*
X122238998Y-47936201D01*
X122210000Y-47959999D01*
X122186202Y-47988997D01*
X122186201Y-47988998D01*
X122115026Y-48075724D01*
X122044454Y-48207754D01*
X122000998Y-48351015D01*
X121986324Y-48500000D01*
X121990001Y-48537332D01*
X121990000Y-50046289D01*
X121946063Y-50090226D01*
X121832795Y-50259744D01*
X121754774Y-50448102D01*
X121715000Y-50648061D01*
X118638072Y-50648061D01*
X118638072Y-48250000D01*
X118625812Y-48125518D01*
X118589502Y-48005820D01*
X118530537Y-47895506D01*
X118451185Y-47798815D01*
X118354494Y-47719463D01*
X118244180Y-47660498D01*
X118124482Y-47624188D01*
X118000000Y-47611928D01*
X115500000Y-47611928D01*
X115375518Y-47624188D01*
X115255820Y-47660498D01*
X115145506Y-47719463D01*
X115048815Y-47798815D01*
X114969463Y-47895506D01*
X114910498Y-48005820D01*
X114874188Y-48125518D01*
X114861928Y-48250000D01*
X98488072Y-48250000D01*
X98488072Y-47150000D01*
X98475812Y-47025518D01*
X98439502Y-46905820D01*
X98380537Y-46795506D01*
X98301185Y-46698815D01*
X98204494Y-46619463D01*
X98094180Y-46560498D01*
X97974482Y-46524188D01*
X97850000Y-46511928D01*
X96150000Y-46511928D01*
X96025518Y-46524188D01*
X95905820Y-46560498D01*
X95795506Y-46619463D01*
X95698815Y-46698815D01*
X95619463Y-46795506D01*
X95560498Y-46905820D01*
X95524188Y-47025518D01*
X95511928Y-47150000D01*
X95127000Y-47150000D01*
X95127000Y-44377000D01*
X134873000Y-44377000D01*
X134873000Y-134873000D01*
%TA.AperFunction,Conductor*%
D25*
G36*
X134873000Y-134873000D02*
G01*
X133713678Y-134873000D01*
X133801185Y-134801185D01*
X133880537Y-134704494D01*
X133939502Y-134594180D01*
X133975812Y-134474482D01*
X133988072Y-134350000D01*
X133988072Y-132150000D01*
X133975812Y-132025518D01*
X133939502Y-131905820D01*
X133880537Y-131795506D01*
X133801185Y-131698815D01*
X133704494Y-131619463D01*
X133594180Y-131560498D01*
X133474482Y-131524188D01*
X133350000Y-131511928D01*
X131150000Y-131511928D01*
X131025518Y-131524188D01*
X130905820Y-131560498D01*
X130795506Y-131619463D01*
X130698815Y-131698815D01*
X130619463Y-131795506D01*
X130560498Y-131905820D01*
X130524188Y-132025518D01*
X130511928Y-132150000D01*
X130511928Y-134350000D01*
X130524188Y-134474482D01*
X130560498Y-134594180D01*
X130619463Y-134704494D01*
X130698815Y-134801185D01*
X130786322Y-134873000D01*
X128781485Y-134873000D01*
X129006081Y-134828325D01*
X129321831Y-134697537D01*
X129605998Y-134507663D01*
X129847663Y-134265998D01*
X130037537Y-133981831D01*
X130168325Y-133666081D01*
X130235000Y-133330883D01*
X130235000Y-132989117D01*
X130168325Y-132653919D01*
X130037537Y-132338169D01*
X129847663Y-132054002D01*
X129605998Y-131812337D01*
X129321831Y-131622463D01*
X129006081Y-131491675D01*
X128670883Y-131425000D01*
X128329117Y-131425000D01*
X127993919Y-131491675D01*
X127678169Y-131622463D01*
X127394002Y-131812337D01*
X127152337Y-132054002D01*
X126962463Y-132338169D01*
X126831675Y-132653919D01*
X126765000Y-132989117D01*
X126765000Y-133330883D01*
X126831675Y-133666081D01*
X126962463Y-133981831D01*
X127152337Y-134265998D01*
X127394002Y-134507663D01*
X127678169Y-134697537D01*
X127993919Y-134828325D01*
X128218515Y-134873000D01*
X95127000Y-134873000D01*
X95127000Y-127343082D01*
X95131992Y-127359538D01*
X95218813Y-127521970D01*
X95335655Y-127664343D01*
X95371340Y-127693629D01*
X100306375Y-132628664D01*
X100335656Y-132664344D01*
X100478028Y-132781186D01*
X100640460Y-132868007D01*
X100763243Y-132905253D01*
X100816707Y-132921471D01*
X100999999Y-132939524D01*
X101045931Y-132935000D01*
X123704068Y-132935000D01*
X123750000Y-132939524D01*
X123795932Y-132935000D01*
X123933292Y-132921471D01*
X124109540Y-132868007D01*
X124271972Y-132781186D01*
X124414344Y-132664344D01*
X124443630Y-132628659D01*
X126378664Y-130693626D01*
X126414344Y-130664344D01*
X126531186Y-130521972D01*
X126618007Y-130359540D01*
X126671471Y-130183292D01*
X126685000Y-130045932D01*
X126689524Y-130000001D01*
X126685000Y-129954069D01*
X126685000Y-121900000D01*
X126761928Y-121900000D01*
X126761928Y-124100000D01*
X126774188Y-124224482D01*
X126810498Y-124344180D01*
X126869463Y-124454494D01*
X126948815Y-124551185D01*
X127045506Y-124630537D01*
X127155820Y-124689502D01*
X127275518Y-124725812D01*
X127400000Y-124738072D01*
X129600000Y-124738072D01*
X129724482Y-124725812D01*
X129844180Y-124689502D01*
X129954494Y-124630537D01*
X130051185Y-124551185D01*
X130130537Y-124454494D01*
X130189502Y-124344180D01*
X130225812Y-124224482D01*
X130238072Y-124100000D01*
X130238072Y-122919117D01*
X130515000Y-122919117D01*
X130515000Y-123260883D01*
X130581675Y-123596081D01*
X130712463Y-123911831D01*
X130902337Y-124195998D01*
X131144002Y-124437663D01*
X131428169Y-124627537D01*
X131743919Y-124758325D01*
X132079117Y-124825000D01*
X132420883Y-124825000D01*
X132756081Y-124758325D01*
X133071831Y-124627537D01*
X133355998Y-124437663D01*
X133597663Y-124195998D01*
X133787537Y-123911831D01*
X133918325Y-123596081D01*
X133985000Y-123260883D01*
X133985000Y-122919117D01*
X133918325Y-122583919D01*
X133787537Y-122268169D01*
X133597663Y-121984002D01*
X133355998Y-121742337D01*
X133071831Y-121552463D01*
X132756081Y-121421675D01*
X132420883Y-121355000D01*
X132079117Y-121355000D01*
X131743919Y-121421675D01*
X131428169Y-121552463D01*
X131144002Y-121742337D01*
X130902337Y-121984002D01*
X130712463Y-122268169D01*
X130581675Y-122583919D01*
X130515000Y-122919117D01*
X130238072Y-122919117D01*
X130238072Y-121900000D01*
X130225812Y-121775518D01*
X130189502Y-121655820D01*
X130130537Y-121545506D01*
X130051185Y-121448815D01*
X129954494Y-121369463D01*
X129844180Y-121310498D01*
X129724482Y-121274188D01*
X129600000Y-121261928D01*
X127400000Y-121261928D01*
X127275518Y-121274188D01*
X127155820Y-121310498D01*
X127045506Y-121369463D01*
X126948815Y-121448815D01*
X126869463Y-121545506D01*
X126810498Y-121655820D01*
X126774188Y-121775518D01*
X126761928Y-121900000D01*
X126685000Y-121900000D01*
X126685000Y-119553740D01*
X131515000Y-119553740D01*
X131515000Y-119846260D01*
X131572068Y-120133158D01*
X131684010Y-120403411D01*
X131846525Y-120646632D01*
X132053368Y-120853475D01*
X132296589Y-121015990D01*
X132566842Y-121127932D01*
X132853740Y-121185000D01*
X133146260Y-121185000D01*
X133433158Y-121127932D01*
X133703411Y-121015990D01*
X133946632Y-120853475D01*
X134153475Y-120646632D01*
X134315990Y-120403411D01*
X134427932Y-120133158D01*
X134485000Y-119846260D01*
X134485000Y-119553740D01*
X134427932Y-119266842D01*
X134315990Y-118996589D01*
X134153475Y-118753368D01*
X133946632Y-118546525D01*
X133764466Y-118424805D01*
X133881355Y-118355178D01*
X134097588Y-118160269D01*
X134271641Y-117926920D01*
X134396825Y-117664099D01*
X134441476Y-117516890D01*
X134320155Y-117287000D01*
X133127000Y-117287000D01*
X133127000Y-117307000D01*
X132873000Y-117307000D01*
X132873000Y-117287000D01*
X131679845Y-117287000D01*
X131558524Y-117516890D01*
X131603175Y-117664099D01*
X131728359Y-117926920D01*
X131902412Y-118160269D01*
X132118645Y-118355178D01*
X132235534Y-118424805D01*
X132053368Y-118546525D01*
X131846525Y-118753368D01*
X131684010Y-118996589D01*
X131572068Y-119266842D01*
X131515000Y-119553740D01*
X126685000Y-119553740D01*
X126685000Y-119186595D01*
X126700000Y-119188072D01*
X127214250Y-119185000D01*
X127373000Y-119026250D01*
X127373000Y-117877000D01*
X127627000Y-117877000D01*
X127627000Y-119026250D01*
X127785750Y-119185000D01*
X128300000Y-119188072D01*
X128424482Y-119175812D01*
X128544180Y-119139502D01*
X128654494Y-119080537D01*
X128751185Y-119001185D01*
X128830537Y-118904494D01*
X128889502Y-118794180D01*
X128925812Y-118674482D01*
X128938072Y-118550000D01*
X128935000Y-118035750D01*
X128776250Y-117877000D01*
X127627000Y-117877000D01*
X127373000Y-117877000D01*
X127353000Y-117877000D01*
X127353000Y-117623000D01*
X127373000Y-117623000D01*
X127373000Y-117603000D01*
X127627000Y-117603000D01*
X127627000Y-117623000D01*
X128776250Y-117623000D01*
X128935000Y-117464250D01*
X128938072Y-116950000D01*
X128925812Y-116825518D01*
X128889502Y-116705820D01*
X128830537Y-116595506D01*
X128751185Y-116498815D01*
X128734607Y-116485210D01*
X128771680Y-116429727D01*
X128879853Y-116168574D01*
X128935000Y-115891335D01*
X128935000Y-115608665D01*
X128879853Y-115331426D01*
X128771680Y-115070273D01*
X128709284Y-114976890D01*
X131558524Y-114976890D01*
X131603175Y-115124099D01*
X131728359Y-115386920D01*
X131902412Y-115620269D01*
X132118645Y-115815178D01*
X132244255Y-115890000D01*
X132118645Y-115964822D01*
X131902412Y-116159731D01*
X131728359Y-116393080D01*
X131603175Y-116655901D01*
X131558524Y-116803110D01*
X131679845Y-117033000D01*
X132873000Y-117033000D01*
X132873000Y-114747000D01*
X133127000Y-114747000D01*
X133127000Y-117033000D01*
X134320155Y-117033000D01*
X134441476Y-116803110D01*
X134396825Y-116655901D01*
X134271641Y-116393080D01*
X134097588Y-116159731D01*
X133881355Y-115964822D01*
X133755745Y-115890000D01*
X133881355Y-115815178D01*
X134097588Y-115620269D01*
X134271641Y-115386920D01*
X134396825Y-115124099D01*
X134441476Y-114976890D01*
X134320155Y-114747000D01*
X133127000Y-114747000D01*
X132873000Y-114747000D01*
X131679845Y-114747000D01*
X131558524Y-114976890D01*
X128709284Y-114976890D01*
X128614637Y-114835241D01*
X128414759Y-114635363D01*
X128179727Y-114478320D01*
X127918574Y-114370147D01*
X127641335Y-114315000D01*
X127358665Y-114315000D01*
X127081426Y-114370147D01*
X126820273Y-114478320D01*
X126585241Y-114635363D01*
X126406407Y-114814197D01*
X126368630Y-114810476D01*
X126322698Y-114815000D01*
X126185338Y-114828529D01*
X126009090Y-114881993D01*
X125846658Y-114968814D01*
X125704286Y-115085656D01*
X125674996Y-115121346D01*
X125121342Y-115675000D01*
X125085656Y-115704286D01*
X124968814Y-115846659D01*
X124881993Y-116009091D01*
X124851522Y-116109541D01*
X124828529Y-116185339D01*
X124810476Y-116368630D01*
X124815000Y-116414562D01*
X124815001Y-129612709D01*
X123362711Y-131065000D01*
X101387290Y-131065000D01*
X98814992Y-128492702D01*
X122436903Y-128492702D01*
X122508486Y-128736671D01*
X122763996Y-128857571D01*
X123038184Y-128926300D01*
X123320512Y-128940217D01*
X123600130Y-128898787D01*
X123866292Y-128803603D01*
X123991514Y-128736671D01*
X124063097Y-128492702D01*
X123250000Y-127679605D01*
X122436903Y-128492702D01*
X98814992Y-128492702D01*
X97892802Y-127570512D01*
X121809783Y-127570512D01*
X121851213Y-127850130D01*
X121946397Y-128116292D01*
X122013329Y-128241514D01*
X122257298Y-128313097D01*
X123070395Y-127500000D01*
X123056253Y-127485858D01*
X123235858Y-127306253D01*
X123250000Y-127320395D01*
X123264143Y-127306253D01*
X123443748Y-127485858D01*
X123429605Y-127500000D01*
X124242702Y-128313097D01*
X124486671Y-128241514D01*
X124607571Y-127986004D01*
X124676300Y-127711816D01*
X124690217Y-127429488D01*
X124648787Y-127149870D01*
X124553603Y-126883708D01*
X124488384Y-126761691D01*
X124501185Y-126751185D01*
X124580537Y-126654494D01*
X124639502Y-126544180D01*
X124675812Y-126424482D01*
X124688072Y-126300000D01*
X124688072Y-124700000D01*
X124675812Y-124575518D01*
X124639502Y-124455820D01*
X124580537Y-124345506D01*
X124501185Y-124248815D01*
X124404494Y-124169463D01*
X124294180Y-124110498D01*
X124174482Y-124074188D01*
X124050000Y-124061928D01*
X122450000Y-124061928D01*
X122325518Y-124074188D01*
X122205820Y-124110498D01*
X122095506Y-124169463D01*
X121998815Y-124248815D01*
X121919463Y-124345506D01*
X121860498Y-124455820D01*
X121824188Y-124575518D01*
X121811928Y-124700000D01*
X121811928Y-126300000D01*
X121824188Y-126424482D01*
X121860498Y-126544180D01*
X121919463Y-126654494D01*
X121998815Y-126751185D01*
X122011758Y-126761807D01*
X121892429Y-127013996D01*
X121823700Y-127288184D01*
X121809783Y-127570512D01*
X97892802Y-127570512D01*
X96934999Y-126612710D01*
X96934999Y-121103740D01*
X101855000Y-121103740D01*
X101855000Y-121396260D01*
X101912068Y-121683158D01*
X102024010Y-121953411D01*
X102186525Y-122196632D01*
X102393368Y-122403475D01*
X102567760Y-122520000D01*
X102393368Y-122636525D01*
X102186525Y-122843368D01*
X102024010Y-123086589D01*
X101912068Y-123356842D01*
X101855000Y-123643740D01*
X101855000Y-123936260D01*
X101912068Y-124223158D01*
X102024010Y-124493411D01*
X102186525Y-124736632D01*
X102393368Y-124943475D01*
X102636589Y-125105990D01*
X102906842Y-125217932D01*
X103193740Y-125275000D01*
X103486260Y-125275000D01*
X103773158Y-125217932D01*
X104043411Y-125105990D01*
X104286632Y-124943475D01*
X104411710Y-124818397D01*
X105031208Y-124818397D01*
X105108843Y-125067472D01*
X105372883Y-125193371D01*
X105656411Y-125265339D01*
X105948531Y-125280611D01*
X106238019Y-125238599D01*
X106513747Y-125140919D01*
X106651157Y-125067472D01*
X106728792Y-124818397D01*
X107571208Y-124818397D01*
X107648843Y-125067472D01*
X107912883Y-125193371D01*
X108196411Y-125265339D01*
X108488531Y-125280611D01*
X108778019Y-125238599D01*
X109053747Y-125140919D01*
X109191157Y-125067472D01*
X109268792Y-124818397D01*
X110111208Y-124818397D01*
X110188843Y-125067472D01*
X110452883Y-125193371D01*
X110736411Y-125265339D01*
X111028531Y-125280611D01*
X111318019Y-125238599D01*
X111593747Y-125140919D01*
X111731157Y-125067472D01*
X111808792Y-124818397D01*
X110960000Y-123969605D01*
X110111208Y-124818397D01*
X109268792Y-124818397D01*
X108420000Y-123969605D01*
X107571208Y-124818397D01*
X106728792Y-124818397D01*
X105880000Y-123969605D01*
X105031208Y-124818397D01*
X104411710Y-124818397D01*
X104493475Y-124736632D01*
X104609311Y-124563271D01*
X104851603Y-124638792D01*
X105700395Y-123790000D01*
X106059605Y-123790000D01*
X106908397Y-124638792D01*
X107150000Y-124563486D01*
X107391603Y-124638792D01*
X108240395Y-123790000D01*
X108599605Y-123790000D01*
X109448397Y-124638792D01*
X109690000Y-124563486D01*
X109931603Y-124638792D01*
X110780395Y-123790000D01*
X109931603Y-122941208D01*
X109690000Y-123016514D01*
X109448397Y-122941208D01*
X108599605Y-123790000D01*
X108240395Y-123790000D01*
X107391603Y-122941208D01*
X107150000Y-123016514D01*
X106908397Y-122941208D01*
X106059605Y-123790000D01*
X105700395Y-123790000D01*
X104851603Y-122941208D01*
X104609311Y-123016729D01*
X104493475Y-122843368D01*
X104286632Y-122636525D01*
X104112240Y-122520000D01*
X104286632Y-122403475D01*
X104411710Y-122278397D01*
X105031208Y-122278397D01*
X105106514Y-122520000D01*
X105031208Y-122761603D01*
X105880000Y-123610395D01*
X106728792Y-122761603D01*
X106653486Y-122520000D01*
X106728792Y-122278397D01*
X107571208Y-122278397D01*
X107646514Y-122520000D01*
X107571208Y-122761603D01*
X108420000Y-123610395D01*
X109268792Y-122761603D01*
X109193486Y-122520000D01*
X109268792Y-122278397D01*
X110111208Y-122278397D01*
X110186514Y-122520000D01*
X110111208Y-122761603D01*
X110960000Y-123610395D01*
X111808792Y-122761603D01*
X111733486Y-122520000D01*
X111808792Y-122278397D01*
X110960000Y-121429605D01*
X110111208Y-122278397D01*
X109268792Y-122278397D01*
X108420000Y-121429605D01*
X107571208Y-122278397D01*
X106728792Y-122278397D01*
X105880000Y-121429605D01*
X105031208Y-122278397D01*
X104411710Y-122278397D01*
X104493475Y-122196632D01*
X104609311Y-122023271D01*
X104851603Y-122098792D01*
X105700395Y-121250000D01*
X106059605Y-121250000D01*
X106908397Y-122098792D01*
X107150000Y-122023486D01*
X107391603Y-122098792D01*
X108240395Y-121250000D01*
X108599605Y-121250000D01*
X109448397Y-122098792D01*
X109690000Y-122023486D01*
X109931603Y-122098792D01*
X110780395Y-121250000D01*
X111139605Y-121250000D01*
X111988397Y-122098792D01*
X112046420Y-122080707D01*
X112079528Y-122189850D01*
X112161595Y-122343386D01*
X112272038Y-122477962D01*
X112406614Y-122588405D01*
X112533608Y-122656285D01*
X112346525Y-122843368D01*
X112230689Y-123016729D01*
X111988397Y-122941208D01*
X111139605Y-123790000D01*
X111988397Y-124638792D01*
X112230689Y-124563271D01*
X112346525Y-124736632D01*
X112553368Y-124943475D01*
X112796589Y-125105990D01*
X113066842Y-125217932D01*
X113353740Y-125275000D01*
X113646260Y-125275000D01*
X113933158Y-125217932D01*
X114203411Y-125105990D01*
X114446632Y-124943475D01*
X114653475Y-124736632D01*
X114815990Y-124493411D01*
X114927932Y-124223158D01*
X114985000Y-123936260D01*
X114985000Y-123643740D01*
X114927932Y-123356842D01*
X114815990Y-123086589D01*
X114653475Y-122843368D01*
X114466392Y-122656285D01*
X114593386Y-122588405D01*
X114727962Y-122477962D01*
X114838405Y-122343386D01*
X114920472Y-122189850D01*
X114971008Y-122023254D01*
X114988072Y-121850000D01*
X114988072Y-120650000D01*
X114971008Y-120476746D01*
X114920472Y-120310150D01*
X114838405Y-120156614D01*
X114727962Y-120022038D01*
X114593386Y-119911595D01*
X114439850Y-119829528D01*
X114273254Y-119778992D01*
X114100000Y-119761928D01*
X112900000Y-119761928D01*
X112726746Y-119778992D01*
X112560150Y-119829528D01*
X112406614Y-119911595D01*
X112272038Y-120022038D01*
X112161595Y-120156614D01*
X112079528Y-120310150D01*
X112046420Y-120419293D01*
X111988397Y-120401208D01*
X111139605Y-121250000D01*
X110780395Y-121250000D01*
X109931603Y-120401208D01*
X109690000Y-120476514D01*
X109448397Y-120401208D01*
X108599605Y-121250000D01*
X108240395Y-121250000D01*
X107391603Y-120401208D01*
X107150000Y-120476514D01*
X106908397Y-120401208D01*
X106059605Y-121250000D01*
X105700395Y-121250000D01*
X104851603Y-120401208D01*
X104609311Y-120476729D01*
X104493475Y-120303368D01*
X104411710Y-120221603D01*
X105031208Y-120221603D01*
X105880000Y-121070395D01*
X106728792Y-120221603D01*
X107571208Y-120221603D01*
X108420000Y-121070395D01*
X109268792Y-120221603D01*
X110111208Y-120221603D01*
X110960000Y-121070395D01*
X111808792Y-120221603D01*
X111731157Y-119972528D01*
X111467117Y-119846629D01*
X111183589Y-119774661D01*
X110891469Y-119759389D01*
X110601981Y-119801401D01*
X110326253Y-119899081D01*
X110188843Y-119972528D01*
X110111208Y-120221603D01*
X109268792Y-120221603D01*
X109191157Y-119972528D01*
X108927117Y-119846629D01*
X108643589Y-119774661D01*
X108351469Y-119759389D01*
X108061981Y-119801401D01*
X107786253Y-119899081D01*
X107648843Y-119972528D01*
X107571208Y-120221603D01*
X106728792Y-120221603D01*
X106651157Y-119972528D01*
X106387117Y-119846629D01*
X106103589Y-119774661D01*
X105811469Y-119759389D01*
X105521981Y-119801401D01*
X105246253Y-119899081D01*
X105108843Y-119972528D01*
X105031208Y-120221603D01*
X104411710Y-120221603D01*
X104286632Y-120096525D01*
X104043411Y-119934010D01*
X103773158Y-119822068D01*
X103486260Y-119765000D01*
X103193740Y-119765000D01*
X102906842Y-119822068D01*
X102636589Y-119934010D01*
X102393368Y-120096525D01*
X102186525Y-120303368D01*
X102024010Y-120546589D01*
X101912068Y-120816842D01*
X101855000Y-121103740D01*
X96934999Y-121103740D01*
X96934999Y-118684999D01*
X110112710Y-118684999D01*
X110522569Y-119094858D01*
X110582795Y-119240256D01*
X110696063Y-119409774D01*
X110840226Y-119553937D01*
X111009744Y-119667205D01*
X111198102Y-119745226D01*
X111398061Y-119785000D01*
X111601939Y-119785000D01*
X111801898Y-119745226D01*
X111990256Y-119667205D01*
X112159774Y-119553937D01*
X112303937Y-119409774D01*
X112417205Y-119240256D01*
X112495226Y-119051898D01*
X112535000Y-118851939D01*
X112535000Y-118648061D01*
X112495226Y-118448102D01*
X112417205Y-118259744D01*
X112303937Y-118090226D01*
X112159774Y-117946063D01*
X111990256Y-117832795D01*
X111844858Y-117772569D01*
X111193629Y-117121340D01*
X111164343Y-117085655D01*
X111021971Y-116968813D01*
X110859539Y-116881992D01*
X110683291Y-116828528D01*
X110545931Y-116814999D01*
X110499999Y-116810475D01*
X110454067Y-116814999D01*
X96934999Y-116814999D01*
X96934999Y-114685001D01*
X100802707Y-114685001D01*
X100948102Y-114745226D01*
X101148061Y-114785000D01*
X101351939Y-114785000D01*
X101551898Y-114745226D01*
X101740256Y-114667205D01*
X101909774Y-114553937D01*
X102053937Y-114409774D01*
X102061763Y-114398061D01*
X113215000Y-114398061D01*
X113215000Y-114601939D01*
X113254774Y-114801898D01*
X113332795Y-114990256D01*
X113446063Y-115159774D01*
X113590226Y-115303937D01*
X113759744Y-115417205D01*
X113948102Y-115495226D01*
X114148061Y-115535000D01*
X114351939Y-115535000D01*
X114551898Y-115495226D01*
X114740256Y-115417205D01*
X114909774Y-115303937D01*
X114953711Y-115260000D01*
X115396290Y-115260000D01*
X115440227Y-115303937D01*
X115609745Y-115417205D01*
X115798103Y-115495226D01*
X115998062Y-115535000D01*
X116201940Y-115535000D01*
X116401899Y-115495226D01*
X116590257Y-115417205D01*
X116759775Y-115303937D01*
X116903938Y-115159774D01*
X117017206Y-114990256D01*
X117095227Y-114801898D01*
X117135001Y-114601939D01*
X117135001Y-114398061D01*
X117095227Y-114198102D01*
X117017206Y-114009744D01*
X116903938Y-113840226D01*
X116759775Y-113696063D01*
X116590257Y-113582795D01*
X116401899Y-113504774D01*
X116201940Y-113465000D01*
X115998062Y-113465000D01*
X115798103Y-113504774D01*
X115609745Y-113582795D01*
X115440227Y-113696063D01*
X115396290Y-113740000D01*
X114953711Y-113740000D01*
X114909774Y-113696063D01*
X114740256Y-113582795D01*
X114551898Y-113504774D01*
X114351939Y-113465000D01*
X114148061Y-113465000D01*
X113948102Y-113504774D01*
X113759744Y-113582795D01*
X113590226Y-113696063D01*
X113446063Y-113840226D01*
X113332795Y-114009744D01*
X113254774Y-114198102D01*
X113215000Y-114398061D01*
X102061763Y-114398061D01*
X102167205Y-114240256D01*
X102245226Y-114051898D01*
X102285000Y-113851939D01*
X102285000Y-113648061D01*
X102245226Y-113448102D01*
X102167205Y-113259744D01*
X102053937Y-113090226D01*
X101909774Y-112946063D01*
X101740256Y-112832795D01*
X101551898Y-112754774D01*
X101351939Y-112715000D01*
X101148061Y-112715000D01*
X100948102Y-112754774D01*
X100802702Y-112815001D01*
X96934999Y-112815001D01*
X96934999Y-103488072D01*
X98600000Y-103488072D01*
X98724482Y-103475812D01*
X98844180Y-103439502D01*
X98954494Y-103380537D01*
X99051185Y-103301185D01*
X99130537Y-103204494D01*
X99189502Y-103094180D01*
X99211513Y-103021620D01*
X99343368Y-103153475D01*
X99586589Y-103315990D01*
X99856842Y-103427932D01*
X100143740Y-103485000D01*
X100436260Y-103485000D01*
X100723158Y-103427932D01*
X100993411Y-103315990D01*
X101236632Y-103153475D01*
X101443475Y-102946632D01*
X101565195Y-102764466D01*
X101634822Y-102881355D01*
X101829731Y-103097588D01*
X102063080Y-103271641D01*
X102325901Y-103396825D01*
X102473110Y-103441476D01*
X102703000Y-103320155D01*
X102703000Y-102127000D01*
X102957000Y-102127000D01*
X102957000Y-103320155D01*
X103186890Y-103441476D01*
X103334099Y-103396825D01*
X103596920Y-103271641D01*
X103830269Y-103097588D01*
X104025178Y-102881355D01*
X104100000Y-102755745D01*
X104174822Y-102881355D01*
X104369731Y-103097588D01*
X104603080Y-103271641D01*
X104865901Y-103396825D01*
X105013110Y-103441476D01*
X105243000Y-103320155D01*
X105243000Y-102127000D01*
X105497000Y-102127000D01*
X105497000Y-103320155D01*
X105726890Y-103441476D01*
X105874099Y-103396825D01*
X106136920Y-103271641D01*
X106370269Y-103097588D01*
X106565178Y-102881355D01*
X106640000Y-102755745D01*
X106714822Y-102881355D01*
X106909731Y-103097588D01*
X107143080Y-103271641D01*
X107405901Y-103396825D01*
X107553110Y-103441476D01*
X107783000Y-103320155D01*
X107783000Y-102127000D01*
X105497000Y-102127000D01*
X105243000Y-102127000D01*
X102957000Y-102127000D01*
X102703000Y-102127000D01*
X102683000Y-102127000D01*
X102683000Y-101873000D01*
X102703000Y-101873000D01*
X102703000Y-100679845D01*
X102957000Y-100679845D01*
X102957000Y-101873000D01*
X105243000Y-101873000D01*
X105243000Y-100679845D01*
X105497000Y-100679845D01*
X105497000Y-101873000D01*
X107783000Y-101873000D01*
X107783000Y-100679845D01*
X108037000Y-100679845D01*
X108037000Y-101873000D01*
X108057000Y-101873000D01*
X108057000Y-102127000D01*
X108037000Y-102127000D01*
X108037000Y-103320155D01*
X108266890Y-103441476D01*
X108414099Y-103396825D01*
X108676920Y-103271641D01*
X108910269Y-103097588D01*
X109105178Y-102881355D01*
X109174805Y-102764466D01*
X109296525Y-102946632D01*
X109503368Y-103153475D01*
X109746589Y-103315990D01*
X110016842Y-103427932D01*
X110303740Y-103485000D01*
X110596260Y-103485000D01*
X110883158Y-103427932D01*
X111153411Y-103315990D01*
X111396632Y-103153475D01*
X111603475Y-102946632D01*
X111765990Y-102703411D01*
X111877932Y-102433158D01*
X111935000Y-102146260D01*
X111935000Y-101853740D01*
X111877932Y-101566842D01*
X111765990Y-101296589D01*
X111603475Y-101053368D01*
X111396632Y-100846525D01*
X111153411Y-100684010D01*
X110883158Y-100572068D01*
X110596260Y-100515000D01*
X110303740Y-100515000D01*
X110016842Y-100572068D01*
X109746589Y-100684010D01*
X109503368Y-100846525D01*
X109296525Y-101053368D01*
X109174805Y-101235534D01*
X109105178Y-101118645D01*
X108910269Y-100902412D01*
X108676920Y-100728359D01*
X108414099Y-100603175D01*
X108266890Y-100558524D01*
X108037000Y-100679845D01*
X107783000Y-100679845D01*
X107553110Y-100558524D01*
X107405901Y-100603175D01*
X107143080Y-100728359D01*
X106909731Y-100902412D01*
X106714822Y-101118645D01*
X106640000Y-101244255D01*
X106565178Y-101118645D01*
X106370269Y-100902412D01*
X106136920Y-100728359D01*
X105874099Y-100603175D01*
X105726890Y-100558524D01*
X105497000Y-100679845D01*
X105243000Y-100679845D01*
X105013110Y-100558524D01*
X104865901Y-100603175D01*
X104603080Y-100728359D01*
X104369731Y-100902412D01*
X104174822Y-101118645D01*
X104100000Y-101244255D01*
X104025178Y-101118645D01*
X103830269Y-100902412D01*
X103596920Y-100728359D01*
X103334099Y-100603175D01*
X103186890Y-100558524D01*
X102957000Y-100679845D01*
X102703000Y-100679845D01*
X102473110Y-100558524D01*
X102325901Y-100603175D01*
X102063080Y-100728359D01*
X101829731Y-100902412D01*
X101634822Y-101118645D01*
X101565195Y-101235534D01*
X101443475Y-101053368D01*
X101236632Y-100846525D01*
X100993411Y-100684010D01*
X100723158Y-100572068D01*
X100436260Y-100515000D01*
X100143740Y-100515000D01*
X99856842Y-100572068D01*
X99586589Y-100684010D01*
X99343368Y-100846525D01*
X99211513Y-100978380D01*
X99189502Y-100905820D01*
X99130537Y-100795506D01*
X99051185Y-100698815D01*
X98954494Y-100619463D01*
X98844180Y-100560498D01*
X98724482Y-100524188D01*
X98600000Y-100511928D01*
X96934999Y-100511928D01*
X96934999Y-94435001D01*
X104552707Y-94435001D01*
X104698102Y-94495226D01*
X104898061Y-94535000D01*
X105101939Y-94535000D01*
X105301898Y-94495226D01*
X105490256Y-94417205D01*
X105659774Y-94303937D01*
X105803937Y-94159774D01*
X105917205Y-93990256D01*
X105995226Y-93801898D01*
X106035000Y-93601939D01*
X106035000Y-93398061D01*
X105995226Y-93198102D01*
X105917205Y-93009744D01*
X105803937Y-92840226D01*
X105659774Y-92696063D01*
X105490256Y-92582795D01*
X105301898Y-92504774D01*
X105101939Y-92465000D01*
X104898061Y-92465000D01*
X104698102Y-92504774D01*
X104552702Y-92565001D01*
X96934999Y-92565001D01*
X96934999Y-89887290D01*
X97674228Y-89148061D01*
X126715000Y-89148061D01*
X126715000Y-89351939D01*
X126754774Y-89551898D01*
X126832795Y-89740256D01*
X126946063Y-89909774D01*
X127090226Y-90053937D01*
X127259744Y-90167205D01*
X127448102Y-90245226D01*
X127648061Y-90285000D01*
X127851939Y-90285000D01*
X128051898Y-90245226D01*
X128240256Y-90167205D01*
X128409774Y-90053937D01*
X128453711Y-90010000D01*
X129646299Y-90010000D01*
X129690236Y-90053937D01*
X129859754Y-90167205D01*
X130048112Y-90245226D01*
X130248071Y-90285000D01*
X130451949Y-90285000D01*
X130651908Y-90245226D01*
X130840266Y-90167205D01*
X131009784Y-90053937D01*
X131153947Y-89909774D01*
X131267215Y-89740256D01*
X131345236Y-89551898D01*
X131385010Y-89351939D01*
X131385010Y-89148061D01*
X131345236Y-88948102D01*
X131267215Y-88759744D01*
X131153947Y-88590226D01*
X131009784Y-88446063D01*
X130840266Y-88332795D01*
X130651908Y-88254774D01*
X130451949Y-88215000D01*
X130248071Y-88215000D01*
X130048112Y-88254774D01*
X129859754Y-88332795D01*
X129690236Y-88446063D01*
X129646299Y-88490000D01*
X128453711Y-88490000D01*
X128409774Y-88446063D01*
X128240256Y-88332795D01*
X128051898Y-88254774D01*
X127851939Y-88215000D01*
X127648061Y-88215000D01*
X127448102Y-88254774D01*
X127259744Y-88332795D01*
X127090226Y-88446063D01*
X126946063Y-88590226D01*
X126832795Y-88759744D01*
X126754774Y-88948102D01*
X126715000Y-89148061D01*
X97674228Y-89148061D01*
X98094859Y-88727431D01*
X98240256Y-88667205D01*
X98409774Y-88553937D01*
X98553937Y-88409774D01*
X98667205Y-88240256D01*
X98745226Y-88051898D01*
X98785000Y-87851939D01*
X98785000Y-87648061D01*
X98745226Y-87448102D01*
X98667205Y-87259744D01*
X98553937Y-87090226D01*
X98409774Y-86946063D01*
X98240256Y-86832795D01*
X98051898Y-86754774D01*
X97851939Y-86715000D01*
X97648061Y-86715000D01*
X97448102Y-86754774D01*
X97259744Y-86832795D01*
X97090226Y-86946063D01*
X96946063Y-87090226D01*
X96934999Y-87106784D01*
X96934999Y-80398061D01*
X114465000Y-80398061D01*
X114465000Y-80601939D01*
X114504774Y-80801898D01*
X114582795Y-80990256D01*
X114696063Y-81159774D01*
X114840226Y-81303937D01*
X115009744Y-81417205D01*
X115198102Y-81495226D01*
X115398061Y-81535000D01*
X115601939Y-81535000D01*
X115801898Y-81495226D01*
X115990256Y-81417205D01*
X116159774Y-81303937D01*
X116203711Y-81260000D01*
X121796289Y-81260000D01*
X121840226Y-81303937D01*
X122009744Y-81417205D01*
X122198102Y-81495226D01*
X122398061Y-81535000D01*
X122601939Y-81535000D01*
X122801898Y-81495226D01*
X122990256Y-81417205D01*
X123159774Y-81303937D01*
X123303937Y-81159774D01*
X123417205Y-80990256D01*
X123495226Y-80801898D01*
X123535000Y-80601939D01*
X123535000Y-80398061D01*
X123495226Y-80198102D01*
X123417205Y-80009744D01*
X123303937Y-79840226D01*
X123159774Y-79696063D01*
X122990256Y-79582795D01*
X122801898Y-79504774D01*
X122601939Y-79465000D01*
X122398061Y-79465000D01*
X122198102Y-79504774D01*
X122009744Y-79582795D01*
X121840226Y-79696063D01*
X121796289Y-79740000D01*
X116203711Y-79740000D01*
X116159774Y-79696063D01*
X115990256Y-79582795D01*
X115801898Y-79504774D01*
X115601939Y-79465000D01*
X115398061Y-79465000D01*
X115198102Y-79504774D01*
X115009744Y-79582795D01*
X114840226Y-79696063D01*
X114696063Y-79840226D01*
X114582795Y-80009744D01*
X114504774Y-80198102D01*
X114465000Y-80398061D01*
X96934999Y-80398061D01*
X96934999Y-78398061D01*
X117965000Y-78398061D01*
X117965000Y-78601939D01*
X118004774Y-78801898D01*
X118082795Y-78990256D01*
X118196063Y-79159774D01*
X118340226Y-79303937D01*
X118509744Y-79417205D01*
X118698102Y-79495226D01*
X118898061Y-79535000D01*
X119101939Y-79535000D01*
X119301898Y-79495226D01*
X119447295Y-79435000D01*
X125954068Y-79435000D01*
X126000000Y-79439524D01*
X126045932Y-79435000D01*
X132065001Y-79435000D01*
X132065000Y-102045931D01*
X132065001Y-102045941D01*
X132065001Y-102565000D01*
X120545931Y-102565000D01*
X120499999Y-102560476D01*
X120316707Y-102578529D01*
X120263243Y-102594747D01*
X120140460Y-102631993D01*
X119978028Y-102718814D01*
X119835656Y-102835656D01*
X119806374Y-102871336D01*
X119405142Y-103272569D01*
X119259744Y-103332795D01*
X119090226Y-103446063D01*
X118946063Y-103590226D01*
X118832795Y-103759744D01*
X118754774Y-103948102D01*
X118715000Y-104148061D01*
X118715000Y-104351939D01*
X118754774Y-104551898D01*
X118832795Y-104740256D01*
X118946063Y-104909774D01*
X119090226Y-105053937D01*
X119259744Y-105167205D01*
X119448102Y-105245226D01*
X119648061Y-105285000D01*
X119851939Y-105285000D01*
X120051898Y-105245226D01*
X120240256Y-105167205D01*
X120409774Y-105053937D01*
X120553937Y-104909774D01*
X120667205Y-104740256D01*
X120727431Y-104594858D01*
X120887290Y-104435000D01*
X132065001Y-104435000D01*
X132065000Y-105520299D01*
X132025518Y-105524188D01*
X131905820Y-105560498D01*
X131795506Y-105619463D01*
X131698815Y-105698815D01*
X131619463Y-105795506D01*
X131560498Y-105905820D01*
X131524188Y-106025518D01*
X131511928Y-106150000D01*
X131511928Y-107850000D01*
X131524188Y-107974482D01*
X131560498Y-108094180D01*
X131619463Y-108204494D01*
X131698815Y-108301185D01*
X131795506Y-108380537D01*
X131905820Y-108439502D01*
X131978380Y-108461513D01*
X131846525Y-108593368D01*
X131721822Y-108780000D01*
X130604802Y-108780000D01*
X129285000Y-107460199D01*
X129285000Y-107398061D01*
X129245226Y-107198102D01*
X129167205Y-107009744D01*
X129053937Y-106840226D01*
X128909774Y-106696063D01*
X128740256Y-106582795D01*
X128551898Y-106504774D01*
X128351939Y-106465000D01*
X128148061Y-106465000D01*
X127948102Y-106504774D01*
X127759744Y-106582795D01*
X127590226Y-106696063D01*
X127446063Y-106840226D01*
X127332795Y-107009744D01*
X127254774Y-107198102D01*
X127215000Y-107398061D01*
X127215000Y-107601939D01*
X127254774Y-107801898D01*
X127332795Y-107990256D01*
X127446063Y-108159774D01*
X127587059Y-108300770D01*
X127509744Y-108332795D01*
X127340226Y-108446063D01*
X127196063Y-108590226D01*
X127082795Y-108759744D01*
X127004774Y-108948102D01*
X126965000Y-109148061D01*
X126965000Y-109351939D01*
X127004774Y-109551898D01*
X127082795Y-109740256D01*
X127196063Y-109909774D01*
X127340226Y-110053937D01*
X127509744Y-110167205D01*
X127698102Y-110245226D01*
X127898061Y-110285000D01*
X127960199Y-110285000D01*
X130266205Y-112591008D01*
X130289999Y-112620001D01*
X130318992Y-112643795D01*
X130318996Y-112643799D01*
X130389685Y-112701811D01*
X130405724Y-112714974D01*
X130537753Y-112785546D01*
X130681014Y-112829003D01*
X130792667Y-112840000D01*
X130792676Y-112840000D01*
X130829999Y-112843676D01*
X130867322Y-112840000D01*
X131721822Y-112840000D01*
X131846525Y-113026632D01*
X132053368Y-113233475D01*
X132235534Y-113355195D01*
X132118645Y-113424822D01*
X131902412Y-113619731D01*
X131728359Y-113853080D01*
X131603175Y-114115901D01*
X131558524Y-114263110D01*
X131679845Y-114493000D01*
X132873000Y-114493000D01*
X132873000Y-114473000D01*
X133127000Y-114473000D01*
X133127000Y-114493000D01*
X134320155Y-114493000D01*
X134441476Y-114263110D01*
X134396825Y-114115901D01*
X134271641Y-113853080D01*
X134097588Y-113619731D01*
X133881355Y-113424822D01*
X133764466Y-113355195D01*
X133946632Y-113233475D01*
X134153475Y-113026632D01*
X134315990Y-112783411D01*
X134427932Y-112513158D01*
X134485000Y-112226260D01*
X134485000Y-111933740D01*
X134427932Y-111646842D01*
X134315990Y-111376589D01*
X134153475Y-111133368D01*
X133946632Y-110926525D01*
X133772240Y-110810000D01*
X133946632Y-110693475D01*
X134153475Y-110486632D01*
X134315990Y-110243411D01*
X134427932Y-109973158D01*
X134485000Y-109686260D01*
X134485000Y-109393740D01*
X134427932Y-109106842D01*
X134315990Y-108836589D01*
X134153475Y-108593368D01*
X134021620Y-108461513D01*
X134094180Y-108439502D01*
X134204494Y-108380537D01*
X134301185Y-108301185D01*
X134380537Y-108204494D01*
X134439502Y-108094180D01*
X134475812Y-107974482D01*
X134488072Y-107850000D01*
X134488072Y-106150000D01*
X134475812Y-106025518D01*
X134439502Y-105905820D01*
X134380537Y-105795506D01*
X134301185Y-105698815D01*
X134204494Y-105619463D01*
X134094180Y-105560498D01*
X133974482Y-105524188D01*
X133935000Y-105520299D01*
X133935000Y-103545931D01*
X133939524Y-103500000D01*
X133935000Y-103454068D01*
X133935000Y-78545932D01*
X133939524Y-78500000D01*
X133921471Y-78316708D01*
X133868007Y-78140460D01*
X133781186Y-77978028D01*
X133664344Y-77835656D01*
X133521972Y-77718814D01*
X133359540Y-77631993D01*
X133183292Y-77578529D01*
X133045932Y-77565000D01*
X133000000Y-77560476D01*
X132954068Y-77565000D01*
X126935000Y-77565000D01*
X126935000Y-61697295D01*
X126995226Y-61551898D01*
X127035000Y-61351939D01*
X127035000Y-61148061D01*
X126995226Y-60948102D01*
X126917205Y-60759744D01*
X126803937Y-60590226D01*
X126659774Y-60446063D01*
X126490256Y-60332795D01*
X126301898Y-60254774D01*
X126101939Y-60215000D01*
X125898061Y-60215000D01*
X125698102Y-60254774D01*
X125509744Y-60332795D01*
X125340226Y-60446063D01*
X125196063Y-60590226D01*
X125082795Y-60759744D01*
X125004774Y-60948102D01*
X124965000Y-61148061D01*
X124965000Y-61351939D01*
X125004774Y-61551898D01*
X125065000Y-61697295D01*
X125065001Y-77565000D01*
X119447295Y-77565000D01*
X119301898Y-77504774D01*
X119101939Y-77465000D01*
X118898061Y-77465000D01*
X118698102Y-77504774D01*
X118509744Y-77582795D01*
X118340226Y-77696063D01*
X118196063Y-77840226D01*
X118082795Y-78009744D01*
X118004774Y-78198102D01*
X117965000Y-78398061D01*
X96934999Y-78398061D01*
X96934999Y-69906544D01*
X99355000Y-69906544D01*
X99355000Y-70173456D01*
X99407072Y-70435239D01*
X99509215Y-70681833D01*
X99657503Y-70903762D01*
X99846238Y-71092497D01*
X100068167Y-71240785D01*
X100314761Y-71342928D01*
X100576544Y-71395000D01*
X100843456Y-71395000D01*
X101105239Y-71342928D01*
X101351833Y-71240785D01*
X101573762Y-71092497D01*
X101762497Y-70903762D01*
X101910785Y-70681833D01*
X102012928Y-70435239D01*
X102065000Y-70173456D01*
X102065000Y-69906544D01*
X102012928Y-69644761D01*
X101910785Y-69398167D01*
X101762497Y-69176238D01*
X101573762Y-68987503D01*
X101351833Y-68839215D01*
X101105239Y-68737072D01*
X100843456Y-68685000D01*
X100576544Y-68685000D01*
X100314761Y-68737072D01*
X100068167Y-68839215D01*
X99846238Y-68987503D01*
X99657503Y-69176238D01*
X99509215Y-69398167D01*
X99407072Y-69644761D01*
X99355000Y-69906544D01*
X96934999Y-69906544D01*
X96934999Y-68435560D01*
X97414045Y-68435560D01*
X97475932Y-68671368D01*
X97717790Y-68784266D01*
X97977027Y-68847811D01*
X98243680Y-68859561D01*
X98507501Y-68819063D01*
X98758353Y-68727875D01*
X98864068Y-68671368D01*
X98925955Y-68435560D01*
X98170000Y-67679605D01*
X97414045Y-68435560D01*
X96934999Y-68435560D01*
X96934999Y-68251688D01*
X96996537Y-68190150D01*
X96998632Y-68194068D01*
X97234440Y-68255955D01*
X97990395Y-67500000D01*
X98349605Y-67500000D01*
X99105560Y-68255955D01*
X99341368Y-68194068D01*
X99454266Y-67952210D01*
X99517811Y-67692973D01*
X99529561Y-67426320D01*
X99520386Y-67366544D01*
X101895000Y-67366544D01*
X101895000Y-67633456D01*
X101947072Y-67895239D01*
X102049215Y-68141833D01*
X102197503Y-68363762D01*
X102386238Y-68552497D01*
X102608167Y-68700785D01*
X102854761Y-68802928D01*
X103116544Y-68855000D01*
X103383456Y-68855000D01*
X103645239Y-68802928D01*
X103891833Y-68700785D01*
X104113762Y-68552497D01*
X104302497Y-68363762D01*
X104450785Y-68141833D01*
X104552928Y-67895239D01*
X104605000Y-67633456D01*
X104605000Y-67366544D01*
X104552928Y-67104761D01*
X104450785Y-66858167D01*
X104302497Y-66636238D01*
X104113762Y-66447503D01*
X103891833Y-66299215D01*
X103645239Y-66197072D01*
X103383456Y-66145000D01*
X103116544Y-66145000D01*
X102854761Y-66197072D01*
X102608167Y-66299215D01*
X102386238Y-66447503D01*
X102197503Y-66636238D01*
X102049215Y-66858167D01*
X101947072Y-67104761D01*
X101895000Y-67366544D01*
X99520386Y-67366544D01*
X99489063Y-67162499D01*
X99397875Y-66911647D01*
X99341368Y-66805932D01*
X99105560Y-66744045D01*
X98349605Y-67500000D01*
X97990395Y-67500000D01*
X97976253Y-67485858D01*
X98155858Y-67306253D01*
X98170000Y-67320395D01*
X98925955Y-66564440D01*
X98864068Y-66328632D01*
X98859969Y-66326718D01*
X101001687Y-64185000D01*
X104302705Y-64185000D01*
X104448102Y-64245226D01*
X104648061Y-64285000D01*
X104851939Y-64285000D01*
X105051898Y-64245226D01*
X105240256Y-64167205D01*
X105409774Y-64053937D01*
X105553937Y-63909774D01*
X105667205Y-63740256D01*
X105745226Y-63551898D01*
X105785000Y-63351939D01*
X105785000Y-63148061D01*
X105745226Y-62948102D01*
X105667205Y-62759744D01*
X105553937Y-62590226D01*
X105409774Y-62446063D01*
X105240256Y-62332795D01*
X105051898Y-62254774D01*
X104851939Y-62215000D01*
X104648061Y-62215000D01*
X104448102Y-62254774D01*
X104302705Y-62315000D01*
X100660333Y-62315000D01*
X100614398Y-62310476D01*
X100431106Y-62328528D01*
X100254857Y-62381993D01*
X100198278Y-62412235D01*
X100092426Y-62468814D01*
X99950054Y-62585656D01*
X99920768Y-62621341D01*
X95371335Y-67170774D01*
X95335656Y-67200055D01*
X95218814Y-67342427D01*
X95173973Y-67426320D01*
X95131993Y-67504859D01*
X95127000Y-67521319D01*
X95127000Y-61056890D01*
X95558524Y-61056890D01*
X95603175Y-61204099D01*
X95728359Y-61466920D01*
X95902412Y-61700269D01*
X96118645Y-61895178D01*
X96368748Y-62044157D01*
X96643109Y-62141481D01*
X96873000Y-62020814D01*
X96873000Y-60827000D01*
X97127000Y-60827000D01*
X97127000Y-62020814D01*
X97356891Y-62141481D01*
X97631252Y-62044157D01*
X97881355Y-61895178D01*
X98097588Y-61700269D01*
X98271641Y-61466920D01*
X98396825Y-61204099D01*
X98441476Y-61056890D01*
X98320155Y-60827000D01*
X97127000Y-60827000D01*
X96873000Y-60827000D01*
X95679845Y-60827000D01*
X95558524Y-61056890D01*
X95127000Y-61056890D01*
X95127000Y-58516890D01*
X95558524Y-58516890D01*
X95603175Y-58664099D01*
X95728359Y-58926920D01*
X95902412Y-59160269D01*
X96118645Y-59355178D01*
X96244255Y-59430000D01*
X96118645Y-59504822D01*
X95902412Y-59699731D01*
X95728359Y-59933080D01*
X95603175Y-60195901D01*
X95558524Y-60343110D01*
X95679845Y-60573000D01*
X96873000Y-60573000D01*
X96873000Y-58287000D01*
X97127000Y-58287000D01*
X97127000Y-60573000D01*
X98320155Y-60573000D01*
X98441476Y-60343110D01*
X98396825Y-60195901D01*
X98271641Y-59933080D01*
X98097588Y-59699731D01*
X97881355Y-59504822D01*
X97755745Y-59430000D01*
X97881355Y-59355178D01*
X98097588Y-59160269D01*
X98271641Y-58926920D01*
X98396825Y-58664099D01*
X98441476Y-58516890D01*
X98320155Y-58287000D01*
X97127000Y-58287000D01*
X96873000Y-58287000D01*
X95679845Y-58287000D01*
X95558524Y-58516890D01*
X95127000Y-58516890D01*
X95127000Y-47150000D01*
X95511928Y-47150000D01*
X95511928Y-48850000D01*
X95524188Y-48974482D01*
X95560498Y-49094180D01*
X95619463Y-49204494D01*
X95698815Y-49301185D01*
X95795506Y-49380537D01*
X95905820Y-49439502D01*
X95978380Y-49461513D01*
X95846525Y-49593368D01*
X95684010Y-49836589D01*
X95572068Y-50106842D01*
X95515000Y-50393740D01*
X95515000Y-50686260D01*
X95572068Y-50973158D01*
X95684010Y-51243411D01*
X95846525Y-51486632D01*
X96053368Y-51693475D01*
X96227760Y-51810000D01*
X96053368Y-51926525D01*
X95846525Y-52133368D01*
X95684010Y-52376589D01*
X95572068Y-52646842D01*
X95515000Y-52933740D01*
X95515000Y-53226260D01*
X95572068Y-53513158D01*
X95684010Y-53783411D01*
X95846525Y-54026632D01*
X96053368Y-54233475D01*
X96227760Y-54350000D01*
X96053368Y-54466525D01*
X95846525Y-54673368D01*
X95684010Y-54916589D01*
X95572068Y-55186842D01*
X95515000Y-55473740D01*
X95515000Y-55766260D01*
X95572068Y-56053158D01*
X95684010Y-56323411D01*
X95846525Y-56566632D01*
X96053368Y-56773475D01*
X96235534Y-56895195D01*
X96118645Y-56964822D01*
X95902412Y-57159731D01*
X95728359Y-57393080D01*
X95603175Y-57655901D01*
X95558524Y-57803110D01*
X95679845Y-58033000D01*
X96873000Y-58033000D01*
X96873000Y-58013000D01*
X97127000Y-58013000D01*
X97127000Y-58033000D01*
X98320155Y-58033000D01*
X98441476Y-57803110D01*
X98396825Y-57655901D01*
X98271641Y-57393080D01*
X98097588Y-57159731D01*
X97881355Y-56964822D01*
X97764466Y-56895195D01*
X97946632Y-56773475D01*
X98153475Y-56566632D01*
X98266110Y-56398061D01*
X104715000Y-56398061D01*
X104715000Y-56601939D01*
X104754774Y-56801898D01*
X104832795Y-56990256D01*
X104946063Y-57159774D01*
X105090226Y-57303937D01*
X105259744Y-57417205D01*
X105448102Y-57495226D01*
X105648061Y-57535000D01*
X105710199Y-57535000D01*
X111766201Y-63591003D01*
X111789999Y-63620001D01*
X111905724Y-63714974D01*
X112037753Y-63785546D01*
X112181014Y-63829003D01*
X112292667Y-63840000D01*
X112292676Y-63840000D01*
X112329999Y-63843676D01*
X112367322Y-63840000D01*
X113152225Y-63840000D01*
X113213038Y-63931013D01*
X113398987Y-64116962D01*
X113617641Y-64263061D01*
X113860595Y-64363696D01*
X114118514Y-64415000D01*
X114381486Y-64415000D01*
X114639405Y-64363696D01*
X114882359Y-64263061D01*
X115101013Y-64116962D01*
X115286962Y-63931013D01*
X115433061Y-63712359D01*
X115533696Y-63469405D01*
X115585000Y-63211486D01*
X115585000Y-62948514D01*
X115533696Y-62690595D01*
X115433061Y-62447641D01*
X115286962Y-62228987D01*
X115101013Y-62043038D01*
X114882359Y-61896939D01*
X114639405Y-61796304D01*
X114381486Y-61745000D01*
X114118514Y-61745000D01*
X113860595Y-61796304D01*
X113617641Y-61896939D01*
X113398987Y-62043038D01*
X113213038Y-62228987D01*
X113152225Y-62320000D01*
X112644802Y-62320000D01*
X109084801Y-58760000D01*
X113152225Y-58760000D01*
X113213038Y-58851013D01*
X113398987Y-59036962D01*
X113617641Y-59183061D01*
X113860595Y-59283696D01*
X114118514Y-59335000D01*
X114381486Y-59335000D01*
X114639405Y-59283696D01*
X114882359Y-59183061D01*
X115101013Y-59036962D01*
X115286962Y-58851013D01*
X115433061Y-58632359D01*
X115533696Y-58389405D01*
X115585000Y-58131486D01*
X115585000Y-57868514D01*
X115533696Y-57610595D01*
X115433061Y-57367641D01*
X115286962Y-57148987D01*
X115101013Y-56963038D01*
X114882359Y-56816939D01*
X114639405Y-56716304D01*
X114381486Y-56665000D01*
X114118514Y-56665000D01*
X113860595Y-56716304D01*
X113617641Y-56816939D01*
X113398987Y-56963038D01*
X113213038Y-57148987D01*
X113152225Y-57240000D01*
X109314802Y-57240000D01*
X108285000Y-56210199D01*
X108285000Y-56148061D01*
X108245226Y-55948102D01*
X108167205Y-55759744D01*
X108053937Y-55590226D01*
X107909774Y-55446063D01*
X107740256Y-55332795D01*
X107551898Y-55254774D01*
X107351939Y-55215000D01*
X107148061Y-55215000D01*
X106948102Y-55254774D01*
X106759744Y-55332795D01*
X106590226Y-55446063D01*
X106446063Y-55590226D01*
X106385972Y-55680159D01*
X106240256Y-55582795D01*
X106051898Y-55504774D01*
X105851939Y-55465000D01*
X105648061Y-55465000D01*
X105448102Y-55504774D01*
X105259744Y-55582795D01*
X105090226Y-55696063D01*
X104946063Y-55840226D01*
X104832795Y-56009744D01*
X104754774Y-56198102D01*
X104715000Y-56398061D01*
X98266110Y-56398061D01*
X98315990Y-56323411D01*
X98427932Y-56053158D01*
X98485000Y-55766260D01*
X98485000Y-55473740D01*
X98427932Y-55186842D01*
X98315990Y-54916589D01*
X98153475Y-54673368D01*
X97946632Y-54466525D01*
X97772240Y-54350000D01*
X97946632Y-54233475D01*
X98153475Y-54026632D01*
X98315990Y-53783411D01*
X98427932Y-53513158D01*
X98485000Y-53226260D01*
X98485000Y-52933740D01*
X98427932Y-52646842D01*
X98315990Y-52376589D01*
X98153475Y-52133368D01*
X97946632Y-51926525D01*
X97772240Y-51810000D01*
X97946632Y-51693475D01*
X98153475Y-51486632D01*
X98315990Y-51243411D01*
X98427932Y-50973158D01*
X98485000Y-50686260D01*
X98485000Y-50393740D01*
X98427932Y-50106842D01*
X98315990Y-49836589D01*
X98153475Y-49593368D01*
X98021620Y-49461513D01*
X98094180Y-49439502D01*
X98204494Y-49380537D01*
X98301185Y-49301185D01*
X98380537Y-49204494D01*
X98439502Y-49094180D01*
X98475812Y-48974482D01*
X98488072Y-48850000D01*
X98488072Y-48250000D01*
X114861928Y-48250000D01*
X114861928Y-50750000D01*
X114874188Y-50874482D01*
X114910498Y-50994180D01*
X114969463Y-51104494D01*
X115048815Y-51201185D01*
X115145506Y-51280537D01*
X115255820Y-51339502D01*
X115375518Y-51375812D01*
X115500000Y-51388072D01*
X115990001Y-51388072D01*
X115990001Y-52822648D01*
X115986324Y-52859980D01*
X116000998Y-53008965D01*
X116044454Y-53152226D01*
X116115026Y-53284256D01*
X116186201Y-53370982D01*
X116210000Y-53399981D01*
X116238998Y-53423779D01*
X117035010Y-54219792D01*
X117035010Y-54281929D01*
X117074784Y-54481888D01*
X117152805Y-54670246D01*
X117266073Y-54839764D01*
X117410236Y-54983927D01*
X117579754Y-55097195D01*
X117768112Y-55175216D01*
X117968071Y-55214990D01*
X118171949Y-55214990D01*
X118371908Y-55175216D01*
X118560266Y-55097195D01*
X118729784Y-54983927D01*
X118815650Y-54898061D01*
X129965000Y-54898061D01*
X129965000Y-55101939D01*
X130004774Y-55301898D01*
X130082795Y-55490256D01*
X130196063Y-55659774D01*
X130340226Y-55803937D01*
X130509744Y-55917205D01*
X130698102Y-55995226D01*
X130898061Y-56035000D01*
X130960199Y-56035000D01*
X132165766Y-57240568D01*
X132082795Y-57364744D01*
X132004774Y-57553102D01*
X131965000Y-57753061D01*
X131965000Y-57956939D01*
X132004774Y-58156898D01*
X132082795Y-58345256D01*
X132196063Y-58514774D01*
X132340226Y-58658937D01*
X132509744Y-58772205D01*
X132698102Y-58850226D01*
X132898061Y-58890000D01*
X133101939Y-58890000D01*
X133301898Y-58850226D01*
X133490256Y-58772205D01*
X133659774Y-58658937D01*
X133803937Y-58514774D01*
X133917205Y-58345256D01*
X133995226Y-58156898D01*
X134035000Y-57956939D01*
X134035000Y-57753061D01*
X133995226Y-57553102D01*
X133917205Y-57364744D01*
X133803937Y-57195226D01*
X133760000Y-57151289D01*
X133760000Y-57037322D01*
X133763676Y-56999999D01*
X133760000Y-56962676D01*
X133760000Y-56962667D01*
X133749003Y-56851014D01*
X133705546Y-56707753D01*
X133682694Y-56665000D01*
X133634974Y-56575723D01*
X133563799Y-56488997D01*
X133540001Y-56459999D01*
X133511004Y-56436202D01*
X132035000Y-54960199D01*
X132035000Y-54898061D01*
X131995226Y-54698102D01*
X131917205Y-54509744D01*
X131803937Y-54340226D01*
X131659774Y-54196063D01*
X131490256Y-54082795D01*
X131301898Y-54004774D01*
X131101939Y-53965000D01*
X130898061Y-53965000D01*
X130698102Y-54004774D01*
X130509744Y-54082795D01*
X130340226Y-54196063D01*
X130196063Y-54340226D01*
X130082795Y-54509744D01*
X130004774Y-54698102D01*
X129965000Y-54898061D01*
X118815650Y-54898061D01*
X118873947Y-54839764D01*
X118987215Y-54670246D01*
X119065236Y-54481888D01*
X119105010Y-54281929D01*
X119105010Y-54078051D01*
X119065236Y-53878092D01*
X118987215Y-53689734D01*
X118873947Y-53520216D01*
X118729784Y-53376053D01*
X118560266Y-53262785D01*
X118371908Y-53184764D01*
X118171949Y-53144990D01*
X118109812Y-53144990D01*
X117510000Y-52545179D01*
X117510000Y-51388072D01*
X118000000Y-51388072D01*
X118124482Y-51375812D01*
X118244180Y-51339502D01*
X118354494Y-51280537D01*
X118451185Y-51201185D01*
X118530537Y-51104494D01*
X118589502Y-50994180D01*
X118625812Y-50874482D01*
X118638072Y-50750000D01*
X118638072Y-50648061D01*
X121715000Y-50648061D01*
X121715000Y-50851939D01*
X121754774Y-51051898D01*
X121832795Y-51240256D01*
X121946063Y-51409774D01*
X122090226Y-51553937D01*
X122259744Y-51667205D01*
X122448102Y-51745226D01*
X122648061Y-51785000D01*
X122851939Y-51785000D01*
X123051898Y-51745226D01*
X123240256Y-51667205D01*
X123409774Y-51553937D01*
X123553937Y-51409774D01*
X123667205Y-51240256D01*
X123745226Y-51051898D01*
X123785000Y-50851939D01*
X123785000Y-50648061D01*
X123745226Y-50448102D01*
X123667205Y-50259744D01*
X123553937Y-50090226D01*
X123510000Y-50046289D01*
X123510000Y-49866544D01*
X125895000Y-49866544D01*
X125895000Y-50133456D01*
X125947072Y-50395239D01*
X126049215Y-50641833D01*
X126197503Y-50863762D01*
X126386238Y-51052497D01*
X126608167Y-51200785D01*
X126854761Y-51302928D01*
X127116544Y-51355000D01*
X127383456Y-51355000D01*
X127645239Y-51302928D01*
X127891833Y-51200785D01*
X128113762Y-51052497D01*
X128302497Y-50863762D01*
X128450785Y-50641833D01*
X128552928Y-50395239D01*
X128605000Y-50133456D01*
X128605000Y-49866544D01*
X130975000Y-49866544D01*
X130975000Y-50133456D01*
X131027072Y-50395239D01*
X131129215Y-50641833D01*
X131277503Y-50863762D01*
X131466238Y-51052497D01*
X131688167Y-51200785D01*
X131934761Y-51302928D01*
X132196544Y-51355000D01*
X132463456Y-51355000D01*
X132725239Y-51302928D01*
X132971833Y-51200785D01*
X133193762Y-51052497D01*
X133382497Y-50863762D01*
X133530785Y-50641833D01*
X133632928Y-50395239D01*
X133685000Y-50133456D01*
X133685000Y-49866544D01*
X133632928Y-49604761D01*
X133530785Y-49358167D01*
X133382497Y-49136238D01*
X133193762Y-48947503D01*
X132971833Y-48799215D01*
X132725239Y-48697072D01*
X132463456Y-48645000D01*
X132196544Y-48645000D01*
X131934761Y-48697072D01*
X131688167Y-48799215D01*
X131466238Y-48947503D01*
X131277503Y-49136238D01*
X131129215Y-49358167D01*
X131027072Y-49604761D01*
X130975000Y-49866544D01*
X128605000Y-49866544D01*
X128552928Y-49604761D01*
X128450785Y-49358167D01*
X128302497Y-49136238D01*
X128113762Y-48947503D01*
X127891833Y-48799215D01*
X127645239Y-48697072D01*
X127383456Y-48645000D01*
X127116544Y-48645000D01*
X126854761Y-48697072D01*
X126608167Y-48799215D01*
X126386238Y-48947503D01*
X126197503Y-49136238D01*
X126049215Y-49358167D01*
X125947072Y-49604761D01*
X125895000Y-49866544D01*
X123510000Y-49866544D01*
X123510000Y-48814801D01*
X124104802Y-48220000D01*
X128668172Y-48220000D01*
X128737503Y-48323762D01*
X128926238Y-48512497D01*
X129148167Y-48660785D01*
X129394761Y-48762928D01*
X129656544Y-48815000D01*
X129923456Y-48815000D01*
X130185239Y-48762928D01*
X130431833Y-48660785D01*
X130653762Y-48512497D01*
X130842497Y-48323762D01*
X130990785Y-48101833D01*
X131092928Y-47855239D01*
X131145000Y-47593456D01*
X131145000Y-47326544D01*
X131092928Y-47064761D01*
X130990785Y-46818167D01*
X130842497Y-46596238D01*
X130653762Y-46407503D01*
X130431833Y-46259215D01*
X130185239Y-46157072D01*
X129923456Y-46105000D01*
X129656544Y-46105000D01*
X129394761Y-46157072D01*
X129148167Y-46259215D01*
X128926238Y-46407503D01*
X128737503Y-46596238D01*
X128668172Y-46700000D01*
X123827322Y-46700000D01*
X123789999Y-46696324D01*
X123752676Y-46700000D01*
X123752667Y-46700000D01*
X123641014Y-46710997D01*
X123497753Y-46754454D01*
X123365723Y-46825026D01*
X123282083Y-46893668D01*
X123249999Y-46919999D01*
X123226201Y-46948997D01*
X122238998Y-47936201D01*
X122210000Y-47959999D01*
X122186202Y-47988997D01*
X122186201Y-47988998D01*
X122115026Y-48075724D01*
X122044454Y-48207754D01*
X122000998Y-48351015D01*
X121986324Y-48500000D01*
X121990001Y-48537332D01*
X121990000Y-50046289D01*
X121946063Y-50090226D01*
X121832795Y-50259744D01*
X121754774Y-50448102D01*
X121715000Y-50648061D01*
X118638072Y-50648061D01*
X118638072Y-48250000D01*
X118625812Y-48125518D01*
X118589502Y-48005820D01*
X118530537Y-47895506D01*
X118451185Y-47798815D01*
X118354494Y-47719463D01*
X118244180Y-47660498D01*
X118124482Y-47624188D01*
X118000000Y-47611928D01*
X115500000Y-47611928D01*
X115375518Y-47624188D01*
X115255820Y-47660498D01*
X115145506Y-47719463D01*
X115048815Y-47798815D01*
X114969463Y-47895506D01*
X114910498Y-48005820D01*
X114874188Y-48125518D01*
X114861928Y-48250000D01*
X98488072Y-48250000D01*
X98488072Y-47150000D01*
X98475812Y-47025518D01*
X98439502Y-46905820D01*
X98380537Y-46795506D01*
X98301185Y-46698815D01*
X98204494Y-46619463D01*
X98094180Y-46560498D01*
X97974482Y-46524188D01*
X97850000Y-46511928D01*
X96150000Y-46511928D01*
X96025518Y-46524188D01*
X95905820Y-46560498D01*
X95795506Y-46619463D01*
X95698815Y-46698815D01*
X95619463Y-46795506D01*
X95560498Y-46905820D01*
X95524188Y-47025518D01*
X95511928Y-47150000D01*
X95127000Y-47150000D01*
X95127000Y-44377000D01*
X134873000Y-44377000D01*
X134873000Y-134873000D01*
G37*
%TD.AperFunction*%
%TD*%
M02*
