%TF.GenerationSoftware,KiCad,Pcbnew,5.1.8*%
%TF.CreationDate,2020-12-05T20:58:01+00:00*%
%TF.ProjectId,oscillator_prototype,6f736369-6c6c-4617-946f-725f70726f74,rev?*%
%TF.SameCoordinates,Original*%
%TF.FileFunction,Legend,Bot*%
%TF.FilePolarity,Positive*%
%FSLAX46Y46*%
G04 Gerber Fmt 4.6, Leading zero omitted, Abs format (unit mm)*
G04 Created by KiCad (PCBNEW 5.1.8) date 2020-12-05 20:58:01*
%MOMM*%
%LPD*%
G01*
G04 APERTURE LIST*
%ADD10C,0.120000*%
%ADD11C,0.300000*%
%ADD12C,0.150000*%
G04 APERTURE END LIST*
D10*
X98000000Y-125750000D02*
X98000000Y-128000000D01*
D11*
X121130952Y-77254761D02*
X120750000Y-77254761D01*
X120559523Y-77350000D01*
X120369047Y-77540476D01*
X120273809Y-77921428D01*
X120273809Y-78588095D01*
X120369047Y-78969047D01*
X120559523Y-79159523D01*
X120750000Y-79254761D01*
X121130952Y-79254761D01*
X121321428Y-79159523D01*
X121511904Y-78969047D01*
X121607142Y-78588095D01*
X121607142Y-77921428D01*
X121511904Y-77540476D01*
X121321428Y-77350000D01*
X121130952Y-77254761D01*
X119511904Y-79159523D02*
X119321428Y-79254761D01*
X118940476Y-79254761D01*
X118750000Y-79159523D01*
X118654761Y-78969047D01*
X118654761Y-78873809D01*
X118750000Y-78683333D01*
X118940476Y-78588095D01*
X119226190Y-78588095D01*
X119416666Y-78492857D01*
X119511904Y-78302380D01*
X119511904Y-78207142D01*
X119416666Y-78016666D01*
X119226190Y-77921428D01*
X118940476Y-77921428D01*
X118750000Y-78016666D01*
X116940476Y-79159523D02*
X117130952Y-79254761D01*
X117511904Y-79254761D01*
X117702380Y-79159523D01*
X117797619Y-79064285D01*
X117892857Y-78873809D01*
X117892857Y-78302380D01*
X117797619Y-78111904D01*
X117702380Y-78016666D01*
X117511904Y-77921428D01*
X117130952Y-77921428D01*
X116940476Y-78016666D01*
X116083333Y-79254761D02*
X116083333Y-77921428D01*
X116083333Y-77254761D02*
X116178571Y-77350000D01*
X116083333Y-77445238D01*
X115988095Y-77350000D01*
X116083333Y-77254761D01*
X116083333Y-77445238D01*
X114845238Y-79254761D02*
X115035714Y-79159523D01*
X115130952Y-78969047D01*
X115130952Y-77254761D01*
X113797619Y-79254761D02*
X113988095Y-79159523D01*
X114083333Y-78969047D01*
X114083333Y-77254761D01*
X112178571Y-79254761D02*
X112178571Y-78207142D01*
X112273809Y-78016666D01*
X112464285Y-77921428D01*
X112845238Y-77921428D01*
X113035714Y-78016666D01*
X112178571Y-79159523D02*
X112369047Y-79254761D01*
X112845238Y-79254761D01*
X113035714Y-79159523D01*
X113130952Y-78969047D01*
X113130952Y-78778571D01*
X113035714Y-78588095D01*
X112845238Y-78492857D01*
X112369047Y-78492857D01*
X112178571Y-78397619D01*
X111511904Y-77921428D02*
X110750000Y-77921428D01*
X111226190Y-77254761D02*
X111226190Y-78969047D01*
X111130952Y-79159523D01*
X110940476Y-79254761D01*
X110750000Y-79254761D01*
X109797619Y-79254761D02*
X109988095Y-79159523D01*
X110083333Y-79064285D01*
X110178571Y-78873809D01*
X110178571Y-78302380D01*
X110083333Y-78111904D01*
X109988095Y-78016666D01*
X109797619Y-77921428D01*
X109511904Y-77921428D01*
X109321428Y-78016666D01*
X109226190Y-78111904D01*
X109130952Y-78302380D01*
X109130952Y-78873809D01*
X109226190Y-79064285D01*
X109321428Y-79159523D01*
X109511904Y-79254761D01*
X109797619Y-79254761D01*
X108273809Y-79254761D02*
X108273809Y-77921428D01*
X108273809Y-78302380D02*
X108178571Y-78111904D01*
X108083333Y-78016666D01*
X107892857Y-77921428D01*
X107702380Y-77921428D01*
X123083333Y-82554761D02*
X123083333Y-80554761D01*
X122321428Y-80554761D01*
X122130952Y-80650000D01*
X122035714Y-80745238D01*
X121940476Y-80935714D01*
X121940476Y-81221428D01*
X122035714Y-81411904D01*
X122130952Y-81507142D01*
X122321428Y-81602380D01*
X123083333Y-81602380D01*
X121083333Y-82554761D02*
X121083333Y-81221428D01*
X121083333Y-81602380D02*
X120988095Y-81411904D01*
X120892857Y-81316666D01*
X120702380Y-81221428D01*
X120511904Y-81221428D01*
X119559523Y-82554761D02*
X119750000Y-82459523D01*
X119845238Y-82364285D01*
X119940476Y-82173809D01*
X119940476Y-81602380D01*
X119845238Y-81411904D01*
X119750000Y-81316666D01*
X119559523Y-81221428D01*
X119273809Y-81221428D01*
X119083333Y-81316666D01*
X118988095Y-81411904D01*
X118892857Y-81602380D01*
X118892857Y-82173809D01*
X118988095Y-82364285D01*
X119083333Y-82459523D01*
X119273809Y-82554761D01*
X119559523Y-82554761D01*
X118321428Y-81221428D02*
X117559523Y-81221428D01*
X118035714Y-80554761D02*
X118035714Y-82269047D01*
X117940476Y-82459523D01*
X117750000Y-82554761D01*
X117559523Y-82554761D01*
X116607142Y-82554761D02*
X116797619Y-82459523D01*
X116892857Y-82364285D01*
X116988095Y-82173809D01*
X116988095Y-81602380D01*
X116892857Y-81411904D01*
X116797619Y-81316666D01*
X116607142Y-81221428D01*
X116321428Y-81221428D01*
X116130952Y-81316666D01*
X116035714Y-81411904D01*
X115940476Y-81602380D01*
X115940476Y-82173809D01*
X116035714Y-82364285D01*
X116130952Y-82459523D01*
X116321428Y-82554761D01*
X116607142Y-82554761D01*
X115369047Y-81221428D02*
X114607142Y-81221428D01*
X115083333Y-80554761D02*
X115083333Y-82269047D01*
X114988095Y-82459523D01*
X114797619Y-82554761D01*
X114607142Y-82554761D01*
X114130952Y-81221428D02*
X113654761Y-82554761D01*
X113178571Y-81221428D02*
X113654761Y-82554761D01*
X113845238Y-83030952D01*
X113940476Y-83126190D01*
X114130952Y-83221428D01*
X112416666Y-81221428D02*
X112416666Y-83221428D01*
X112416666Y-81316666D02*
X112226190Y-81221428D01*
X111845238Y-81221428D01*
X111654761Y-81316666D01*
X111559523Y-81411904D01*
X111464285Y-81602380D01*
X111464285Y-82173809D01*
X111559523Y-82364285D01*
X111654761Y-82459523D01*
X111845238Y-82554761D01*
X112226190Y-82554761D01*
X112416666Y-82459523D01*
X109845238Y-82459523D02*
X110035714Y-82554761D01*
X110416666Y-82554761D01*
X110607142Y-82459523D01*
X110702380Y-82269047D01*
X110702380Y-81507142D01*
X110607142Y-81316666D01*
X110416666Y-81221428D01*
X110035714Y-81221428D01*
X109845238Y-81316666D01*
X109750000Y-81507142D01*
X109750000Y-81697619D01*
X110702380Y-81888095D01*
X106321428Y-82554761D02*
X107464285Y-82554761D01*
X106892857Y-82554761D02*
X106892857Y-80554761D01*
X107083333Y-80840476D01*
X107273809Y-81030952D01*
X107464285Y-81126190D01*
D10*
X118750000Y-125750000D02*
X98000000Y-125750000D01*
D12*
X105500000Y-132238095D02*
X105452380Y-132142857D01*
X105452380Y-132000000D01*
X105500000Y-131857142D01*
X105595238Y-131761904D01*
X105690476Y-131714285D01*
X105880952Y-131666666D01*
X106023809Y-131666666D01*
X106214285Y-131714285D01*
X106309523Y-131761904D01*
X106404761Y-131857142D01*
X106452380Y-132000000D01*
X106452380Y-132095238D01*
X106404761Y-132238095D01*
X106357142Y-132285714D01*
X106023809Y-132285714D01*
X106023809Y-132095238D01*
X106452380Y-132714285D02*
X105452380Y-132714285D01*
X106452380Y-133285714D01*
X105452380Y-133285714D01*
X106452380Y-133761904D02*
X105452380Y-133761904D01*
X105452380Y-134000000D01*
X105500000Y-134142857D01*
X105595238Y-134238095D01*
X105690476Y-134285714D01*
X105880952Y-134333333D01*
X106023809Y-134333333D01*
X106214285Y-134285714D01*
X106309523Y-134238095D01*
X106404761Y-134142857D01*
X106452380Y-134000000D01*
X106452380Y-133761904D01*
X108000000Y-132238095D02*
X107952380Y-132142857D01*
X107952380Y-132000000D01*
X108000000Y-131857142D01*
X108095238Y-131761904D01*
X108190476Y-131714285D01*
X108380952Y-131666666D01*
X108523809Y-131666666D01*
X108714285Y-131714285D01*
X108809523Y-131761904D01*
X108904761Y-131857142D01*
X108952380Y-132000000D01*
X108952380Y-132095238D01*
X108904761Y-132238095D01*
X108857142Y-132285714D01*
X108523809Y-132285714D01*
X108523809Y-132095238D01*
X108952380Y-132714285D02*
X107952380Y-132714285D01*
X108952380Y-133285714D01*
X107952380Y-133285714D01*
X108952380Y-133761904D02*
X107952380Y-133761904D01*
X107952380Y-134000000D01*
X108000000Y-134142857D01*
X108095238Y-134238095D01*
X108190476Y-134285714D01*
X108380952Y-134333333D01*
X108523809Y-134333333D01*
X108714285Y-134285714D01*
X108809523Y-134238095D01*
X108904761Y-134142857D01*
X108952380Y-134000000D01*
X108952380Y-133761904D01*
X110500000Y-132238095D02*
X110452380Y-132142857D01*
X110452380Y-132000000D01*
X110500000Y-131857142D01*
X110595238Y-131761904D01*
X110690476Y-131714285D01*
X110880952Y-131666666D01*
X111023809Y-131666666D01*
X111214285Y-131714285D01*
X111309523Y-131761904D01*
X111404761Y-131857142D01*
X111452380Y-132000000D01*
X111452380Y-132095238D01*
X111404761Y-132238095D01*
X111357142Y-132285714D01*
X111023809Y-132285714D01*
X111023809Y-132095238D01*
X111452380Y-132714285D02*
X110452380Y-132714285D01*
X111452380Y-133285714D01*
X110452380Y-133285714D01*
X111452380Y-133761904D02*
X110452380Y-133761904D01*
X110452380Y-134000000D01*
X110500000Y-134142857D01*
X110595238Y-134238095D01*
X110690476Y-134285714D01*
X110880952Y-134333333D01*
X111023809Y-134333333D01*
X111214285Y-134285714D01*
X111309523Y-134238095D01*
X111404761Y-134142857D01*
X111452380Y-134000000D01*
X111452380Y-133761904D01*
X103321428Y-130738095D02*
X103321428Y-131500000D01*
X103702380Y-131119047D02*
X102940476Y-131119047D01*
X103702380Y-132500000D02*
X103702380Y-131928571D01*
X103702380Y-132214285D02*
X102702380Y-132214285D01*
X102845238Y-132119047D01*
X102940476Y-132023809D01*
X102988095Y-131928571D01*
X102797619Y-132880952D02*
X102750000Y-132928571D01*
X102702380Y-133023809D01*
X102702380Y-133261904D01*
X102750000Y-133357142D01*
X102797619Y-133404761D01*
X102892857Y-133452380D01*
X102988095Y-133452380D01*
X103130952Y-133404761D01*
X103702380Y-132833333D01*
X103702380Y-133452380D01*
X102702380Y-133738095D02*
X103702380Y-134071428D01*
X102702380Y-134404761D01*
X113571428Y-130738095D02*
X113571428Y-131500000D01*
X113952380Y-132500000D02*
X113952380Y-131928571D01*
X113952380Y-132214285D02*
X112952380Y-132214285D01*
X113095238Y-132119047D01*
X113190476Y-132023809D01*
X113238095Y-131928571D01*
X113047619Y-132880952D02*
X113000000Y-132928571D01*
X112952380Y-133023809D01*
X112952380Y-133261904D01*
X113000000Y-133357142D01*
X113047619Y-133404761D01*
X113142857Y-133452380D01*
X113238095Y-133452380D01*
X113380952Y-133404761D01*
X113952380Y-132833333D01*
X113952380Y-133452380D01*
X112952380Y-133738095D02*
X113952380Y-134071428D01*
X112952380Y-134404761D01*
X118452380Y-126797619D02*
X117785714Y-126797619D01*
X117976190Y-126797619D02*
X117880952Y-126845238D01*
X117833333Y-126892857D01*
X117785714Y-126988095D01*
X117785714Y-127083333D01*
X118404761Y-127797619D02*
X118452380Y-127702380D01*
X118452380Y-127511904D01*
X118404761Y-127416666D01*
X118309523Y-127369047D01*
X117928571Y-127369047D01*
X117833333Y-127416666D01*
X117785714Y-127511904D01*
X117785714Y-127702380D01*
X117833333Y-127797619D01*
X117928571Y-127845238D01*
X118023809Y-127845238D01*
X118119047Y-127369047D01*
X118452380Y-128702380D02*
X117452380Y-128702380D01*
X118404761Y-128702380D02*
X118452380Y-128607142D01*
X118452380Y-128416666D01*
X118404761Y-128321428D01*
X118357142Y-128273809D01*
X118261904Y-128226190D01*
X117976190Y-128226190D01*
X117880952Y-128273809D01*
X117833333Y-128321428D01*
X117785714Y-128416666D01*
X117785714Y-128607142D01*
X117833333Y-128702380D01*
X118404761Y-129892857D02*
X118452380Y-129988095D01*
X118452380Y-130178571D01*
X118404761Y-130273809D01*
X118309523Y-130321428D01*
X118261904Y-130321428D01*
X118166666Y-130273809D01*
X118119047Y-130178571D01*
X118119047Y-130035714D01*
X118071428Y-129940476D01*
X117976190Y-129892857D01*
X117928571Y-129892857D01*
X117833333Y-129940476D01*
X117785714Y-130035714D01*
X117785714Y-130178571D01*
X117833333Y-130273809D01*
X117785714Y-130607142D02*
X117785714Y-130988095D01*
X117452380Y-130750000D02*
X118309523Y-130750000D01*
X118404761Y-130797619D01*
X118452380Y-130892857D01*
X118452380Y-130988095D01*
X118452380Y-131321428D02*
X117785714Y-131321428D01*
X117976190Y-131321428D02*
X117880952Y-131369047D01*
X117833333Y-131416666D01*
X117785714Y-131511904D01*
X117785714Y-131607142D01*
X118452380Y-131940476D02*
X117785714Y-131940476D01*
X117452380Y-131940476D02*
X117500000Y-131892857D01*
X117547619Y-131940476D01*
X117500000Y-131988095D01*
X117452380Y-131940476D01*
X117547619Y-131940476D01*
X117785714Y-132416666D02*
X118785714Y-132416666D01*
X117833333Y-132416666D02*
X117785714Y-132511904D01*
X117785714Y-132702380D01*
X117833333Y-132797619D01*
X117880952Y-132845238D01*
X117976190Y-132892857D01*
X118261904Y-132892857D01*
X118357142Y-132845238D01*
X118404761Y-132797619D01*
X118452380Y-132702380D01*
X118452380Y-132511904D01*
X118404761Y-132416666D01*
X118404761Y-133702380D02*
X118452380Y-133607142D01*
X118452380Y-133416666D01*
X118404761Y-133321428D01*
X118309523Y-133273809D01*
X117928571Y-133273809D01*
X117833333Y-133321428D01*
X117785714Y-133416666D01*
X117785714Y-133607142D01*
X117833333Y-133702380D01*
X117928571Y-133750000D01*
X118023809Y-133750000D01*
X118119047Y-133273809D01*
D10*
X118750000Y-134750000D02*
X118750000Y-125750000D01*
D12*
X95547619Y-71130952D02*
X96547619Y-71130952D01*
X95547619Y-70702380D02*
X96071428Y-70702380D01*
X96166666Y-70750000D01*
X96214285Y-70845238D01*
X96214285Y-70988095D01*
X96166666Y-71083333D01*
X96119047Y-71130952D01*
X96214285Y-70369047D02*
X96214285Y-69988095D01*
X95547619Y-70226190D02*
X96404761Y-70226190D01*
X96500000Y-70178571D01*
X96547619Y-70083333D01*
X96547619Y-69988095D01*
X96214285Y-69035714D02*
X96214285Y-68654761D01*
X96547619Y-68892857D02*
X95690476Y-68892857D01*
X95595238Y-68845238D01*
X95547619Y-68750000D01*
X95547619Y-68654761D01*
X95547619Y-68321428D02*
X96214285Y-68321428D01*
X96023809Y-68321428D02*
X96119047Y-68273809D01*
X96166666Y-68226190D01*
X96214285Y-68130952D01*
X96214285Y-68035714D01*
X95547619Y-67702380D02*
X96214285Y-67702380D01*
X96547619Y-67702380D02*
X96500000Y-67750000D01*
X96452380Y-67702380D01*
X96500000Y-67654761D01*
X96547619Y-67702380D01*
X96452380Y-67702380D01*
X95547619Y-67226190D02*
X96214285Y-67226190D01*
X96119047Y-67226190D02*
X96166666Y-67178571D01*
X96214285Y-67083333D01*
X96214285Y-66940476D01*
X96166666Y-66845238D01*
X96071428Y-66797619D01*
X95547619Y-66797619D01*
X96071428Y-66797619D02*
X96166666Y-66750000D01*
X96214285Y-66654761D01*
X96214285Y-66511904D01*
X96166666Y-66416666D01*
X96071428Y-66369047D01*
X95547619Y-66369047D01*
X133785714Y-45190476D02*
X134452380Y-45428571D01*
X133785714Y-45666666D01*
X133404761Y-46761904D02*
X134690476Y-45904761D01*
X134452380Y-47238095D02*
X134404761Y-47142857D01*
X134357142Y-47095238D01*
X134261904Y-47047619D01*
X133976190Y-47047619D01*
X133880952Y-47095238D01*
X133833333Y-47142857D01*
X133785714Y-47238095D01*
X133785714Y-47380952D01*
X133833333Y-47476190D01*
X133880952Y-47523809D01*
X133976190Y-47571428D01*
X134261904Y-47571428D01*
X134357142Y-47523809D01*
X134404761Y-47476190D01*
X134452380Y-47380952D01*
X134452380Y-47238095D01*
X134404761Y-48428571D02*
X134452380Y-48333333D01*
X134452380Y-48142857D01*
X134404761Y-48047619D01*
X134357142Y-48000000D01*
X134261904Y-47952380D01*
X133976190Y-47952380D01*
X133880952Y-48000000D01*
X133833333Y-48047619D01*
X133785714Y-48142857D01*
X133785714Y-48333333D01*
X133833333Y-48428571D01*
X133785714Y-48714285D02*
X133785714Y-49095238D01*
X133452380Y-48857142D02*
X134309523Y-48857142D01*
X134404761Y-48904761D01*
X134452380Y-49000000D01*
X134452380Y-49095238D01*
X133785714Y-50047619D02*
X133785714Y-50428571D01*
X133452380Y-50190476D02*
X134309523Y-50190476D01*
X134404761Y-50238095D01*
X134452380Y-50333333D01*
X134452380Y-50428571D01*
X134452380Y-50761904D02*
X133785714Y-50761904D01*
X133976190Y-50761904D02*
X133880952Y-50809523D01*
X133833333Y-50857142D01*
X133785714Y-50952380D01*
X133785714Y-51047619D01*
X134452380Y-51380952D02*
X133785714Y-51380952D01*
X133452380Y-51380952D02*
X133500000Y-51333333D01*
X133547619Y-51380952D01*
X133500000Y-51428571D01*
X133452380Y-51380952D01*
X133547619Y-51380952D01*
X134452380Y-51857142D02*
X133785714Y-51857142D01*
X133880952Y-51857142D02*
X133833333Y-51904761D01*
X133785714Y-52000000D01*
X133785714Y-52142857D01*
X133833333Y-52238095D01*
X133928571Y-52285714D01*
X134452380Y-52285714D01*
X133928571Y-52285714D02*
X133833333Y-52333333D01*
X133785714Y-52428571D01*
X133785714Y-52571428D01*
X133833333Y-52666666D01*
X133928571Y-52714285D01*
X134452380Y-52714285D01*
D10*
%TO.C,TP1*%
X115300000Y-48050000D02*
X115300000Y-50950000D01*
X118200000Y-48050000D02*
X115300000Y-48050000D01*
X118200000Y-50950000D02*
X118200000Y-48050000D01*
X115300000Y-50950000D02*
X118200000Y-50950000D01*
D12*
X118011904Y-51100380D02*
X117440476Y-51100380D01*
X117726190Y-52100380D02*
X117726190Y-51100380D01*
X117107142Y-52100380D02*
X117107142Y-51100380D01*
X116726190Y-51100380D01*
X116630952Y-51148000D01*
X116583333Y-51195619D01*
X116535714Y-51290857D01*
X116535714Y-51433714D01*
X116583333Y-51528952D01*
X116630952Y-51576571D01*
X116726190Y-51624190D01*
X117107142Y-51624190D01*
X115583333Y-52100380D02*
X116154761Y-52100380D01*
X115869047Y-52100380D02*
X115869047Y-51100380D01*
X115964285Y-51243238D01*
X116059523Y-51338476D01*
X116154761Y-51386095D01*
%TD*%
M02*
