%TF.GenerationSoftware,KiCad,Pcbnew,5.1.8*%
%TF.CreationDate,2020-12-05T20:58:01+00:00*%
%TF.ProjectId,oscillator_prototype,6f736369-6c6c-4617-946f-725f70726f74,rev?*%
%TF.SameCoordinates,Original*%
%TF.FileFunction,Soldermask,Bot*%
%TF.FilePolarity,Negative*%
%FSLAX46Y46*%
G04 Gerber Fmt 4.6, Leading zero omitted, Abs format (unit mm)*
G04 Created by KiCad (PCBNEW 5.1.8) date 2020-12-05 20:58:01*
%MOMM*%
%LPD*%
G01*
G04 APERTURE LIST*
%ADD10R,1.700000X1.700000*%
%ADD11O,1.700000X1.700000*%
%ADD12C,1.700000*%
%ADD13C,1.400000*%
%ADD14O,1.400000X1.400000*%
%ADD15C,1.600000*%
%ADD16R,1.600000X1.600000*%
%ADD17C,1.440000*%
%ADD18O,2.200000X2.200000*%
%ADD19R,2.200000X2.200000*%
%ADD20R,2.500000X2.500000*%
G04 APERTURE END LIST*
D10*
%TO.C,J14*%
X97000000Y-48000000D03*
D11*
X97000000Y-50540000D03*
X97000000Y-53080000D03*
X97000000Y-55620000D03*
X97000000Y-58160000D03*
X97000000Y-60700000D03*
%TD*%
%TO.C,J7*%
G36*
G01*
X112900000Y-120400000D02*
X114100000Y-120400000D01*
G75*
G02*
X114350000Y-120650000I0J-250000D01*
G01*
X114350000Y-121850000D01*
G75*
G02*
X114100000Y-122100000I-250000J0D01*
G01*
X112900000Y-122100000D01*
G75*
G02*
X112650000Y-121850000I0J250000D01*
G01*
X112650000Y-120650000D01*
G75*
G02*
X112900000Y-120400000I250000J0D01*
G01*
G37*
D12*
X110960000Y-121250000D03*
X108420000Y-121250000D03*
X105880000Y-121250000D03*
X103340000Y-121250000D03*
X113500000Y-123790000D03*
X110960000Y-123790000D03*
X108420000Y-123790000D03*
X105880000Y-123790000D03*
X103340000Y-123790000D03*
%TD*%
D11*
%TO.C,J12*%
X133000000Y-119700000D03*
X133000000Y-117160000D03*
X133000000Y-114620000D03*
X133000000Y-112080000D03*
X133000000Y-109540000D03*
D10*
X133000000Y-107000000D03*
%TD*%
D13*
%TO.C,R4*%
X114250000Y-58000000D03*
D14*
X114250000Y-63080000D03*
%TD*%
D11*
%TO.C,J10*%
X110450000Y-102000000D03*
X107910000Y-102000000D03*
X105370000Y-102000000D03*
X102830000Y-102000000D03*
X100290000Y-102000000D03*
D10*
X97750000Y-102000000D03*
%TD*%
D15*
%TO.C,C9*%
X123250000Y-127500000D03*
D16*
X123250000Y-125500000D03*
%TD*%
D17*
%TO.C,RV3*%
X127250000Y-50000000D03*
X129790000Y-47460000D03*
X132330000Y-50000000D03*
%TD*%
D16*
%TO.C,C18*%
X127500000Y-117750000D03*
D15*
X127500000Y-115750000D03*
%TD*%
D18*
%TO.C,D4*%
X128500000Y-133160000D03*
D19*
X128500000Y-123000000D03*
%TD*%
D17*
%TO.C,RV6*%
X98170000Y-67500000D03*
X100710000Y-70040000D03*
X103250000Y-67500000D03*
%TD*%
D19*
%TO.C,D5*%
X132250000Y-133250000D03*
D18*
X132250000Y-123090000D03*
%TD*%
D20*
%TO.C,TP1*%
X116750000Y-49500000D03*
%TD*%
M02*
